<svg xmlns="http://www.w3.org/2000/svg" viewBox="1570.814 5187.727 169.939 37.736">
  <defs>
    <style>
      .cls-1 {
        fill: #f04f5c;
      }
    </style>
  </defs>
  <g id="Group_120" data-name="Group 120" transform="translate(1570.814 5187.727)">
    <g id="Group_118" data-name="Group 118" transform="translate(0)">
      <path id="Path_398" data-name="Path 398" class="cls-1" d="M260.7,3.749a15.224,15.224,0,0,0-19.884,0c-4.976,4.113-6.125,12.512.723,18.244a25.028,25.028,0,0,1,9.1,15.692s.021.1.085.1c.085,0,.085-.1.085-.1a24.982,24.982,0,0,1,9.1-15.692C266.8,16.261,265.678,7.863,260.7,3.749Zm-3.488,9.179c-.319.9-2.063,3.714-6.465,5.923-4.4-2.19-6.146-5.028-6.465-5.923a3.753,3.753,0,0,1,2.105-4.894,4.262,4.262,0,0,1,4.36.819,4.262,4.262,0,0,1,4.36-.819A3.73,3.73,0,0,1,257.214,12.928Z" transform="translate(-236.743 -0.044)"/>
    </g>
    <g id="Group_119" data-name="Group 119" transform="translate(41.192 7.063)">
      <path id="Path_399" data-name="Path 399" class="cls-1" d="M7.188,262.6v8.722h8.7V262.6h7.188v24.529H15.886v-9.351h-8.7v9.351H0V262.6Z" transform="translate(0 -262.6)"/>
      <path id="Path_400" data-name="Path 400" class="cls-1" d="M140.219,278.1v9.027H133.1V278.1l-10-15.5h8.294l5.253,8.17,5.3-8.17h8.294Z" transform="translate(-96.921 -262.6)"/>
      <path id="Path_401" data-name="Path 401" class="cls-1" d="M265.2,262.6h11.548c5.55,0,10.08,4.056,10.08,9.027,0,4.932-4.487,8.989-9.931,8.989h-4.508v6.513H265.2Zm6.571,12.474h4.445a3.536,3.536,0,1,0,0-7.027h-4.445Z" transform="translate(-208.802 -262.6)"/>
      <path id="Path_402" data-name="Path 402" class="cls-1" d="M402.034,287.209H385.021v-5.332h9.825V277.9h-8.7v-5.427h8.7v-4.513H385V262.7h17.013v24.509Z" transform="translate(-303.125 -262.681)"/>
      <path id="Path_403" data-name="Path 403" class="cls-1" d="M507.565,287.129l-4.232-6.513h-4.445v6.513H491.7V262.6h11.548c5.55,0,10.08,4.056,10.08,9.027a8.621,8.621,0,0,1-3.254,6.608l5.806,8.894Zm-9.315-12.055h4.445a3.536,3.536,0,1,0,0-7.027H498.25Z" transform="translate(-387.133 -262.6)"/>
    </g>
  </g>
</svg>
