<svg id="Group_174" data-name="Group 174" xmlns="http://www.w3.org/2000/svg" viewBox="1267 990.139 169.1 61.861">
  <defs>
    <style>
      .cls-1 {
        fill: #fff;
      }

      .cls-2 {
        fill: #7ea0ff;
        font-size: 14px;
        font-family: Montserrat-Bold, Montserrat;
        font-weight: 700;
        letter-spacing: 0.09em;
      }
    </style>
  </defs>
  <g id="Group_51" data-name="Group 51" transform="translate(1267.1 990.039)">
    <path id="Path_362" data-name="Path 362" class="cls-1" d="M23.727,8.038c-2.461,0-4.91.011-7.371-.011-.454,0-.556.125-.556.567.011,4.91,0,9.821.023,14.731,0,.454-.079.6-.578.6-2.291-.034-4.57-.034-6.861,0-.476.011-.544-.147-.544-.567.011-4.91,0-9.821.023-14.731,0-.465-.113-.6-.59-.59C4.81,8.061,2.361,8.05-.1,8.05V.111C7.646.111,15.38.123,23.126.1c.488,0,.624.091.624.6-.034,2.268-.011,4.536-.011,6.793,0,.193-.023.374-.034.567Z" transform="translate(0 0)"/>
    <path id="Path_363" data-name="Path 363" class="cls-1" d="M217.738,69.9a1.128,1.128,0,0,1,.057.612c0,2.268.011,4.536-.011,6.8,0,.454.125.567.567.556,4.91-.011,9.821,0,14.731-.023.5,0,.635.113.624.612-.034,2.268-.023,4.536,0,6.8,0,.4-.057.544-.51.544q-11.414-.017-22.84,0c-.42,0-.533-.1-.533-.522q.017-7.332.011-14.675c0-.227-.011-.454-.023-.68l-.011.011,7.938-.034Z" transform="translate(-186.096 -61.884)"/>
    <path id="Path_364" data-name="Path 364" class="cls-1" d="M279.811,8.027c.011-1.622.034-3.243.045-4.865,0-.873.011-1.735-.011-2.608-.011-.329.068-.454.431-.454q7.536.017,15.083,0c.329,0,.408.091.408.408q-.017,3.572,0,7.145c0,.284-.068.4-.374.4q-7.774-.017-15.537-.023c-.023,0-.034-.011-.057-.011Z" transform="translate(-248.158)"/>
    <path id="Path_365" data-name="Path 365" class="cls-1" d="M891.793,57.838a8.272,8.272,0,0,1,.817-3.924,5.764,5.764,0,0,1,4.661-3.266,9.019,9.019,0,0,1,2.211.023,5.1,5.1,0,0,1,4.309,3.765c.091.238-.011.295-.181.363-.987.386-1.973.76-2.949,1.157-.25.1-.329-.011-.408-.215a5.714,5.714,0,0,0-.465-.907,1.942,1.942,0,0,0-3.311.045,4.36,4.36,0,0,0-.6,1.985,6.755,6.755,0,0,0,.363,3.289,2.094,2.094,0,0,0,3.731.5l.1-.136c.2-.284.374-.783.624-.817.306-.045.669.272,1,.442.6.318,1.191.658,1.8.941.363.17.4.329.193.669a6.018,6.018,0,0,1-6.407,3.107,5.781,5.781,0,0,1-5.217-4.706A9.193,9.193,0,0,1,891.793,57.838Z" transform="translate(-790.746 -44.765)"/>
    <path id="Path_366" data-name="Path 366" class="cls-1" d="M1409.906,52.726a5.408,5.408,0,0,1,1.917-.817,3.143,3.143,0,0,1,3.935,2.7,6.532,6.532,0,0,1,.125,1.236c.011,2.075,0,4.162.023,6.237,0,.352-.079.454-.431.442-.907-.023-1.815-.034-2.722,0-.4.011-.465-.136-.465-.488.011-1.735.011-3.482,0-5.217a5.154,5.154,0,0,0-.068-1.021,1.014,1.014,0,0,0-1.168-.907.976.976,0,0,0-1.077.93,4.79,4.79,0,0,0-.079.9c-.011,1.758-.023,3.516.011,5.273.011.442-.125.533-.533.522-.885-.034-1.78-.023-2.665,0-.329.011-.408-.1-.408-.42q.017-6.124,0-12.248a.494.494,0,0,1,.363-.544c.953-.352,1.905-.726,2.835-1.134.352-.147.408-.057.408.284-.011,1.213,0,2.416,0,3.629Z" transform="translate(-1246.906 -42.556)"/>
    <path id="Path_367" data-name="Path 367" class="cls-1" d="M791.184,47.5v4.672a6.252,6.252,0,0,1,1.905-.794,3.169,3.169,0,0,1,3.981,2.778,14.231,14.231,0,0,1,.113,2.6c.011,1.565-.011,3.141.011,4.706,0,.374-.057.533-.476.522-.885-.034-1.781-.034-2.665,0-.374.011-.488-.091-.476-.465.023-1.7.011-3.4.011-5.1a7.678,7.678,0,0,0-.045-1.021,1.035,1.035,0,0,0-1.123-1.032c-.68-.011-1.009.272-1.168.975a6.931,6.931,0,0,0-.068,1.531c-.011,1.554-.011,3.1,0,4.65,0,.363-.079.488-.465.476-.885-.034-1.78-.023-2.665,0-.329.011-.454-.057-.454-.42q.017-6.124.011-12.248c0-.181-.045-.386.193-.476C788.915,48.407,790.015,47.965,791.184,47.5Z" transform="translate(-698.37 -42.025)"/>
    <path id="Path_368" data-name="Path 368" class="cls-1" d="M497.834,52.311c1.78,0,3.55.011,5.33-.011.386,0,.533.079.51.5-.034.771-.034,1.554,0,2.325.023.42-.079.59-.544.567-.907-.045-1.814.011-2.722-.023-.5-.023-.669.091-.658.635.034,3.119,0,6.237.023,9.345,0,.476-.125.6-.59.59-.919-.034-1.849-.034-2.778,0-.442.023-.533-.125-.522-.533.023-3.13,0-6.271.023-9.4,0-.476-.091-.658-.612-.624-.964.045-1.928,0-2.892.023-.318.011-.42-.091-.408-.408q.034-1.276,0-2.552c-.011-.386.147-.42.465-.42C494.25,52.323,496.042,52.311,497.834,52.311Z" transform="translate(-436.286 -46.28)"/>
    <path id="Path_369" data-name="Path 369" class="cls-1" d="M1104.359,92.681a4.519,4.519,0,0,1-2.143.862,3.191,3.191,0,0,1-3.765-3.2c-.182-2.053-.045-4.117-.068-6.181-.011-1.27,0-1.27,1.247-1.27.624,0,1.248.023,1.871-.011.42-.023.5.125.488.51-.023,1.7-.011,3.4-.011,5.1a6.086,6.086,0,0,0,.057.907c.113.828.465,1.134,1.213,1.111.669-.023,1.055-.4,1.077-1.191.045-1.678.023-3.368.034-5.047,0-1.372,0-1.372,1.372-1.372.624,0,1.247.011,1.871-.011.306-.011.374.1.374.386q-.017,4.848,0,9.7c0,.306-.1.374-.386.374-.873-.023-1.735-.023-2.608,0C1104.529,93.372,1104.223,93.327,1104.359,92.681Z" transform="translate(-973.883 -73.392)"/>
    <path id="Path_370" data-name="Path 370" class="cls-1" d="M1209.341,81.9a5.064,5.064,0,0,1,1.973-.794,3.144,3.144,0,0,1,3.833,2.71,8.185,8.185,0,0,1,.136,1.293c.011,2.064,0,4.117.011,6.181,0,.329-.057.465-.431.454-.907-.034-1.814-.023-2.722,0-.374.011-.476-.091-.476-.465.023-1.78.011-3.55.011-5.33a5.992,5.992,0,0,0-.057-.907,1.151,1.151,0,0,0-2.257-.011,4.78,4.78,0,0,0-.079.9c-.011,1.78-.011,3.55,0,5.33,0,.352-.068.488-.454.476-.907-.034-1.814-.023-2.722,0-.329.011-.408-.091-.408-.408.011-3.209.011-6.43,0-9.64,0-.329.091-.42.408-.408.828.023,1.667.011,2.495.011C1209.25,81.287,1209.25,81.287,1209.341,81.9Z" transform="translate(-1069.055 -71.774)"/>
    <path id="Path_371" data-name="Path 371" class="cls-1" d="M597.506,87.619c-.873,0-1.735.023-2.608-.011-.442-.011-.465.147-.352.5a1.583,1.583,0,0,0,1.565,1.168,4.657,4.657,0,0,0,2.4-.544c.329-.17.488-.113.658.2.295.544.624,1.077.953,1.6.125.193.159.318-.079.442a7.307,7.307,0,0,1-5.727.771,4.231,4.231,0,0,1-2.88-3.164,7.468,7.468,0,0,1,0-4.026,4.459,4.459,0,0,1,4.786-3.4,4.279,4.279,0,0,1,4.2,3.8,11.572,11.572,0,0,1,.17,2.257c0,.329-.113.42-.42.408C599.286,87.607,598.391,87.619,597.506,87.619Zm-1.6-2.234c.374,0,.76-.011,1.134,0,.306.011.4-.079.318-.386a1.379,1.379,0,0,0-1.542-1.191,1.364,1.364,0,0,0-1.316,1.247c-.057.272.023.34.272.329Z" transform="translate(-524.21 -71.857)"/>
    <path id="Path_372" data-name="Path 372" class="cls-1" d="M1308.6,86.5a6.849,6.849,0,0,1,.465-2.608,4.343,4.343,0,0,1,4.015-2.756,4.388,4.388,0,0,1,4.309,2.053c.159.238.159.374-.091.544-.624.454-1.247.919-1.849,1.406-.261.2-.385.2-.544-.1a2.544,2.544,0,0,0-.465-.635,1.161,1.161,0,0,0-1.962.352,4.61,4.61,0,0,0-.034,3.538,1.268,1.268,0,0,0,1.939.567c.159-.1.284-.249.431-.363.261-.2.329-.7.68-.658.272.034.51.352.771.556.363.272.7.578,1.077.828.329.215.295.374.079.669a4.732,4.732,0,0,1-5.478,1.905,4.507,4.507,0,0,1-3.3-4.332C1308.611,87.151,1308.611,86.833,1308.6,86.5Z" transform="translate(-1160.285 -71.832)"/>
    <path id="Path_373" data-name="Path 373" class="cls-1" d="M689.8,86.537a8.144,8.144,0,0,1,.136-1.576,4.36,4.36,0,0,1,3.516-3.7,4.6,4.6,0,0,1,5.081,1.871c.2.295.2.454-.1.669-.635.442-1.247.919-1.849,1.395-.193.147-.295.159-.42-.068-.374-.692-.851-1.27-1.735-1.032s-.953,1.043-1.043,1.78a5.323,5.323,0,0,0,.1,2.03,1.388,1.388,0,0,0,2.472.692c.261-.249.363-.771.76-.714.306.045.578.4.862.624.363.272.714.567,1.077.828.2.147.193.261.057.465a4.7,4.7,0,0,1-5.205,2.109,4.362,4.362,0,0,1-3.55-3.72A7.579,7.579,0,0,1,689.8,86.537Z" transform="translate(-611.661 -71.83)"/>
    <path id="Path_374" data-name="Path 374" class="cls-1" d="M1021.033,82.135a3.249,3.249,0,0,1,3.425-.7c.351.113.465.284.363.669-.261,1.055-.488,2.121-.748,3.232-.227-.181-.408-.34-.6-.476a1.771,1.771,0,0,0-1.826-.193,1.4,1.4,0,0,0-.658,1.406c-.023,1.474-.011,2.949-.011,4.423,0,1.372,0,1.372-1.361,1.372-.624,0-1.247-.011-1.871,0-.272.011-.363-.079-.352-.352.011-3.243.011-6.5,0-9.742,0-.284.1-.352.363-.352.851.011,1.7,0,2.552,0C1020.965,81.432,1020.965,81.432,1021.033,82.135Z" transform="translate(-902.102 -71.919)"/>
  </g>
  <text id="HYP3R.COM" class="cls-2" transform="translate(1354 1048)"><tspan x="-48.16" y="0">HYP3R.COM</tspan></text>
</svg>
