<svg xmlns="http://www.w3.org/2000/svg" viewBox="1106.853 5531 110.151 14.28">
  <defs>
    <style>
      .cls-1 {
        fill: #767a84;
      }
    </style>
  </defs>
  <g id="Group_124" data-name="Group 124" transform="translate(1106.853 5531)">
    <path id="Path_362" data-name="Path 362" class="cls-1" d="M15.421,4.858c-1.6,0-3.2.007-4.8-.007-.3,0-.362.075-.362.34.007,2.943,0,5.886.015,8.829,0,.272-.052.36-.377.36-1.492-.02-2.977-.02-4.469,0-.31.007-.355-.088-.355-.34.007-2.943,0-5.886.015-8.829,0-.279-.074-.36-.384-.353-1.6.014-3.2.007-4.8.007V.107C4.945.107,9.984.114,15.029.1c.318,0,.406.054.406.36-.022,1.359-.007,2.719-.007,4.071,0,.116-.015.224-.022.34Z" transform="translate(0.1 -0.1)"/>
    <path id="Path_363" data-name="Path 363" class="cls-1" d="M214.971,69.9a.625.625,0,0,1,.037.367c0,1.359.007,2.719-.007,4.078,0,.272.081.34.369.333,3.2-.007,6.4,0,9.6-.014.325,0,.414.068.406.367-.022,1.359-.015,2.719,0,4.078,0,.238-.037.326-.332.326q-7.435-.01-14.878,0c-.273,0-.347-.061-.347-.313q.011-4.394.007-8.8c0-.136-.007-.272-.015-.408l-.007.007,5.171-.02Z" transform="translate(-194.294 -65.156)"/>
    <path id="Path_364" data-name="Path 364" class="cls-1" d="M279.807,4.851c.007-.972.022-1.944.03-2.916,0-.523.007-1.04-.007-1.563-.007-.2.044-.272.281-.272q4.909.01,9.825,0c.214,0,.266.054.266.245q-.011,2.141,0,4.282c0,.17-.044.238-.244.238q-5.064-.01-10.121-.014c-.015,0-.022-.007-.037-.007Z" transform="translate(-259.123 -0.1)"/>
    <path id="Path_365" data-name="Path 365" class="cls-1" d="M891.792,54.935a4.624,4.624,0,0,1,.532-2.352,3.759,3.759,0,0,1,3.036-1.957,6.382,6.382,0,0,1,1.44.014,3.25,3.25,0,0,1,2.807,2.257c.059.143-.007.177-.118.217-.643.231-1.285.455-1.921.693-.162.061-.214-.007-.266-.129a3.333,3.333,0,0,0-.3-.544,1.325,1.325,0,0,0-2.157.027,2.465,2.465,0,0,0-.392,1.189,3.747,3.747,0,0,0,.236,1.971,1.414,1.414,0,0,0,2.43.3l.067-.082c.133-.17.244-.469.406-.489.2-.027.436.163.65.265.392.19.776.394,1.175.564.236.1.259.2.126.4a4.035,4.035,0,0,1-4.174,1.862,3.667,3.667,0,0,1-3.4-2.821A5.089,5.089,0,0,1,891.792,54.935Z" transform="translate(-825.906 -47.159)"/>
    <path id="Path_366" data-name="Path 366" class="cls-1" d="M1408.649,50.872a3.692,3.692,0,0,1,1.248-.489A2.039,2.039,0,0,1,1412.461,52a3.608,3.608,0,0,1,.081.741c.008,1.244,0,2.494.015,3.738,0,.211-.052.272-.281.265-.591-.014-1.182-.02-1.773,0-.259.007-.3-.082-.3-.292.007-1.04.007-2.087,0-3.127a2.845,2.845,0,0,0-.044-.612c-.081-.387-.325-.551-.761-.544a.621.621,0,0,0-.7.557,2.65,2.65,0,0,0-.052.537c-.007,1.053-.015,2.107.007,3.161.007.265-.081.319-.347.313-.576-.02-1.16-.014-1.736,0-.214.007-.266-.061-.266-.251q.011-3.67,0-7.341a.3.3,0,0,1,.236-.326c.621-.211,1.241-.435,1.847-.68.229-.088.266-.034.266.17-.007.727,0,1.448,0,2.175Z" transform="translate(-1302.406 -44.837)"/>
    <path id="Path_367" data-name="Path 367" class="cls-1" d="M789.934,47.5v2.8a4.276,4.276,0,0,1,1.241-.476,2.052,2.052,0,0,1,2.593,1.665,7.856,7.856,0,0,1,.074,1.556c.007.938-.008,1.883.007,2.821,0,.224-.037.319-.31.313-.576-.02-1.16-.02-1.736,0-.244.007-.318-.054-.31-.279.015-1.02.007-2.039.007-3.059a4.225,4.225,0,0,0-.03-.612.655.655,0,0,0-.731-.619.664.664,0,0,0-.761.585,3.824,3.824,0,0,0-.044.918c-.007.931-.007,1.856,0,2.787,0,.218-.052.292-.3.285-.576-.02-1.16-.014-1.736,0-.214.007-.3-.034-.3-.251q.011-3.67.007-7.341c0-.109-.029-.231.126-.285Z" transform="translate(-729.411 -44.278)"/>
    <path id="Path_368" data-name="Path 368" class="cls-1" d="M495.8,52.307c1.16,0,2.312.007,3.472-.007.251,0,.347.048.332.3-.022.462-.022.931,0,1.393.015.251-.052.353-.355.34-.591-.027-1.182.007-1.773-.014-.325-.014-.436.054-.428.381.022,1.869,0,3.738.015,5.6,0,.285-.081.36-.384.353-.6-.02-1.2-.02-1.81,0-.288.014-.347-.075-.34-.319.015-1.876,0-3.759.015-5.635,0-.285-.059-.394-.4-.374-.628.027-1.256,0-1.884.014-.207.007-.273-.054-.266-.245q.022-.765,0-1.529c-.007-.231.1-.251.3-.251C493.463,52.314,494.63,52.307,495.8,52.307Z" transform="translate(-455.641 -48.752)"/>
    <path id="Path_369" data-name="Path 369" class="cls-1" d="M1102.266,88.754a3.091,3.091,0,0,1-1.4.517,2.032,2.032,0,0,1-2.453-1.917c-.118-1.23-.03-2.467-.044-3.7-.007-.761,0-.761.813-.761.406,0,.813.014,1.219-.007.273-.014.325.075.318.306-.015,1.02-.008,2.039-.008,3.059a3.365,3.365,0,0,0,.037.544.666.666,0,0,0,.79.666.652.652,0,0,0,.7-.714c.03-1.006.015-2.019.022-3.025,0-.822,0-.822.894-.822.406,0,.813.007,1.219-.007.2-.007.244.061.244.231q-.011,2.906,0,5.811c0,.184-.067.224-.251.224-.569-.014-1.13-.014-1.7,0C1102.376,89.169,1102.177,89.141,1102.266,88.754Z" transform="translate(-1017.209 -77.254)"/>
    <path id="Path_370" data-name="Path 370" class="cls-1" d="M1208.072,81.561a3.465,3.465,0,0,1,1.285-.476,2.035,2.035,0,0,1,2.5,1.624,4.51,4.51,0,0,1,.089.775c.007,1.237,0,2.467.007,3.7,0,.2-.037.279-.281.272-.591-.02-1.182-.014-1.773,0-.244.007-.31-.054-.31-.279.015-1.067.008-2.127.008-3.194a3.327,3.327,0,0,0-.037-.544.765.765,0,0,0-1.47-.007,2.65,2.65,0,0,0-.052.537c-.007,1.067-.007,2.127,0,3.194,0,.211-.044.292-.3.285-.591-.02-1.182-.014-1.773,0-.214.007-.266-.054-.266-.245.007-1.923.007-3.854,0-5.777,0-.2.059-.251.266-.245.539.014,1.086.007,1.625.007C1208.012,81.194,1208.012,81.194,1208.072,81.561Z" transform="translate(-1116.625 -75.553)"/>
    <path id="Path_371" data-name="Path 371" class="cls-1" d="M595.295,85.026c-.569,0-1.13.014-1.7-.007-.288-.007-.3.088-.229.3a1.023,1.023,0,0,0,1.019.7,3.251,3.251,0,0,0,1.566-.326c.214-.1.318-.068.428.122.192.326.406.646.621.958.081.116.1.19-.052.265a5.121,5.121,0,0,1-3.731.462,2.628,2.628,0,0,1-1.876-1.9,4.133,4.133,0,0,1,0-2.413,2.892,2.892,0,0,1,3.117-2.039,2.714,2.714,0,0,1,2.733,2.277,6.4,6.4,0,0,1,.111,1.353c0,.2-.074.251-.273.245C596.454,85.02,595.871,85.026,595.295,85.026Zm-1.042-1.339c.244,0,.495-.007.739,0,.2.007.259-.048.207-.231a.887.887,0,0,0-1-.714.862.862,0,0,0-.857.748c-.037.163.015.2.177.2Z" transform="translate(-547.484 -75.64)"/>
    <path id="Path_372" data-name="Path 372" class="cls-1" d="M1308.6,84.347a3.822,3.822,0,0,1,.3-1.563,2.834,2.834,0,0,1,2.615-1.652,2.95,2.95,0,0,1,2.807,1.23c.1.143.1.224-.059.326-.406.272-.813.551-1.2.843-.17.122-.251.122-.355-.061a1.54,1.54,0,0,0-.3-.381.787.787,0,0,0-1.278.211,2.56,2.56,0,0,0-.022,2.121.858.858,0,0,0,1.263.34c.1-.061.185-.15.281-.217.17-.122.214-.421.443-.394.177.02.333.211.5.333.236.163.458.347.7.5.214.129.192.224.052.4a3.223,3.223,0,0,1-3.568,1.142,2.752,2.752,0,0,1-2.15-2.6C1308.607,84.734,1308.607,84.544,1308.6,84.347Z" transform="translate(-1211.923 -75.613)"/>
    <path id="Path_373" data-name="Path 373" class="cls-1" d="M689.8,84.366a4.5,4.5,0,0,1,.089-.945,2.72,2.72,0,0,1,2.29-2.216,3.128,3.128,0,0,1,3.31,1.121c.133.177.133.272-.067.4-.414.265-.812.551-1.2.836-.126.088-.192.1-.273-.041-.244-.415-.554-.761-1.13-.619s-.621.625-.68,1.067a2.941,2.941,0,0,0,.067,1.217.926.926,0,0,0,1.61.415c.17-.15.236-.462.495-.428.2.027.377.238.561.374.236.163.465.34.7.5.133.088.125.156.037.279a3.181,3.181,0,0,1-3.391,1.264,2.725,2.725,0,0,1-2.312-2.229A4.19,4.19,0,0,1,689.8,84.366Z" transform="translate(-638.835 -75.612)"/>
    <path id="Path_374" data-name="Path 374" class="cls-1" d="M1019.764,81.767a2.254,2.254,0,0,1,2.231-.421c.229.068.3.17.236.4-.17.632-.318,1.271-.487,1.937-.148-.109-.266-.2-.392-.285a1.237,1.237,0,0,0-1.189-.116.814.814,0,0,0-.428.843c-.015.884-.007,1.767-.007,2.651,0,.822,0,.822-.887.822-.406,0-.812-.007-1.219,0-.177.007-.236-.048-.229-.211.007-1.944.007-3.895,0-5.838,0-.17.066-.211.236-.211.554.007,1.108,0,1.662,0C1019.719,81.346,1019.719,81.346,1019.764,81.767Z" transform="translate(-942.227 -75.705)"/>
  </g>
</svg>
