<svg id="Group_188" data-name="Group 188" xmlns="http://www.w3.org/2000/svg" viewBox="1135.853 5516 161.756 53.054">
  <defs>
    <style>
      .cls-1 {
        fill: #767a84;
      }
    </style>
  </defs>
  <g id="Group_124" data-name="Group 124" transform="translate(1135.853 5516)">
    <path id="Path_362" data-name="Path 362" class="cls-1" d="M15.421,4.858c-1.6,0-3.2.007-4.8-.007-.3,0-.362.075-.362.34.007,2.943,0,5.886.015,8.829,0,.272-.052.36-.377.36-1.492-.02-2.977-.02-4.469,0-.31.007-.355-.088-.355-.34.007-2.943,0-5.886.015-8.829,0-.279-.074-.36-.384-.353-1.6.014-3.2.007-4.8.007V.107C4.945.107,9.984.114,15.029.1c.318,0,.406.054.406.36-.022,1.359-.007,2.719-.007,4.071,0,.116-.015.224-.022.34Z" transform="translate(0.1 -0.1)"/>
    <path id="Path_363" data-name="Path 363" class="cls-1" d="M214.971,69.9a.625.625,0,0,1,.037.367c0,1.359.007,2.719-.007,4.078,0,.272.081.34.369.333,3.2-.007,6.4,0,9.6-.014.325,0,.414.068.406.367-.022,1.359-.015,2.719,0,4.078,0,.238-.037.326-.332.326q-7.435-.01-14.878,0c-.273,0-.347-.061-.347-.313q.011-4.394.007-8.8c0-.136-.007-.272-.015-.408l-.007.007,5.171-.02Z" transform="translate(-194.294 -65.156)"/>
    <path id="Path_364" data-name="Path 364" class="cls-1" d="M279.807,4.851c.007-.972.022-1.944.03-2.916,0-.523.007-1.04-.007-1.563-.007-.2.044-.272.281-.272q4.909.01,9.825,0c.214,0,.266.054.266.245q-.011,2.141,0,4.282c0,.17-.044.238-.244.238q-5.064-.01-10.121-.014c-.015,0-.022-.007-.037-.007Z" transform="translate(-259.123 -0.1)"/>
    <path id="Path_365" data-name="Path 365" class="cls-1" d="M891.792,54.935a4.624,4.624,0,0,1,.532-2.352,3.759,3.759,0,0,1,3.036-1.957,6.382,6.382,0,0,1,1.44.014,3.25,3.25,0,0,1,2.807,2.257c.059.143-.007.177-.118.217-.643.231-1.285.455-1.921.693-.162.061-.214-.007-.266-.129a3.333,3.333,0,0,0-.3-.544,1.325,1.325,0,0,0-2.157.027,2.465,2.465,0,0,0-.392,1.189,3.747,3.747,0,0,0,.236,1.971,1.414,1.414,0,0,0,2.43.3l.067-.082c.133-.17.244-.469.406-.489.2-.027.436.163.65.265.392.19.776.394,1.175.564.236.1.259.2.126.4a4.035,4.035,0,0,1-4.174,1.862,3.667,3.667,0,0,1-3.4-2.821A5.089,5.089,0,0,1,891.792,54.935Z" transform="translate(-825.906 -47.159)"/>
    <path id="Path_366" data-name="Path 366" class="cls-1" d="M1408.649,50.872a3.692,3.692,0,0,1,1.248-.489A2.039,2.039,0,0,1,1412.461,52a3.608,3.608,0,0,1,.081.741c.008,1.244,0,2.494.015,3.738,0,.211-.052.272-.281.265-.591-.014-1.182-.02-1.773,0-.259.007-.3-.082-.3-.292.007-1.04.007-2.087,0-3.127a2.845,2.845,0,0,0-.044-.612c-.081-.387-.325-.551-.761-.544a.621.621,0,0,0-.7.557,2.65,2.65,0,0,0-.052.537c-.007,1.053-.015,2.107.007,3.161.007.265-.081.319-.347.313-.576-.02-1.16-.014-1.736,0-.214.007-.266-.061-.266-.251q.011-3.67,0-7.341a.3.3,0,0,1,.236-.326c.621-.211,1.241-.435,1.847-.68.229-.088.266-.034.266.17-.007.727,0,1.448,0,2.175Z" transform="translate(-1302.406 -44.837)"/>
    <path id="Path_367" data-name="Path 367" class="cls-1" d="M789.934,47.5v2.8a4.276,4.276,0,0,1,1.241-.476,2.052,2.052,0,0,1,2.593,1.665,7.856,7.856,0,0,1,.074,1.556c.007.938-.008,1.883.007,2.821,0,.224-.037.319-.31.313-.576-.02-1.16-.02-1.736,0-.244.007-.318-.054-.31-.279.015-1.02.007-2.039.007-3.059a4.225,4.225,0,0,0-.03-.612.655.655,0,0,0-.731-.619.664.664,0,0,0-.761.585,3.824,3.824,0,0,0-.044.918c-.007.931-.007,1.856,0,2.787,0,.218-.052.292-.3.285-.576-.02-1.16-.014-1.736,0-.214.007-.3-.034-.3-.251q.011-3.67.007-7.341c0-.109-.029-.231.126-.285Z" transform="translate(-729.411 -44.278)"/>
    <path id="Path_368" data-name="Path 368" class="cls-1" d="M495.8,52.307c1.16,0,2.312.007,3.472-.007.251,0,.347.048.332.3-.022.462-.022.931,0,1.393.015.251-.052.353-.355.34-.591-.027-1.182.007-1.773-.014-.325-.014-.436.054-.428.381.022,1.869,0,3.738.015,5.6,0,.285-.081.36-.384.353-.6-.02-1.2-.02-1.81,0-.288.014-.347-.075-.34-.319.015-1.876,0-3.759.015-5.635,0-.285-.059-.394-.4-.374-.628.027-1.256,0-1.884.014-.207.007-.273-.054-.266-.245q.022-.765,0-1.529c-.007-.231.1-.251.3-.251C493.463,52.314,494.63,52.307,495.8,52.307Z" transform="translate(-455.641 -48.752)"/>
    <path id="Path_369" data-name="Path 369" class="cls-1" d="M1102.266,88.754a3.091,3.091,0,0,1-1.4.517,2.032,2.032,0,0,1-2.453-1.917c-.118-1.23-.03-2.467-.044-3.7-.007-.761,0-.761.813-.761.406,0,.813.014,1.219-.007.273-.014.325.075.318.306-.015,1.02-.008,2.039-.008,3.059a3.365,3.365,0,0,0,.037.544.666.666,0,0,0,.79.666.652.652,0,0,0,.7-.714c.03-1.006.015-2.019.022-3.025,0-.822,0-.822.894-.822.406,0,.813.007,1.219-.007.2-.007.244.061.244.231q-.011,2.906,0,5.811c0,.184-.067.224-.251.224-.569-.014-1.13-.014-1.7,0C1102.376,89.169,1102.177,89.141,1102.266,88.754Z" transform="translate(-1017.209 -77.254)"/>
    <path id="Path_370" data-name="Path 370" class="cls-1" d="M1208.072,81.561a3.465,3.465,0,0,1,1.285-.476,2.035,2.035,0,0,1,2.5,1.624,4.51,4.51,0,0,1,.089.775c.007,1.237,0,2.467.007,3.7,0,.2-.037.279-.281.272-.591-.02-1.182-.014-1.773,0-.244.007-.31-.054-.31-.279.015-1.067.008-2.127.008-3.194a3.327,3.327,0,0,0-.037-.544.765.765,0,0,0-1.47-.007,2.65,2.65,0,0,0-.052.537c-.007,1.067-.007,2.127,0,3.194,0,.211-.044.292-.3.285-.591-.02-1.182-.014-1.773,0-.214.007-.266-.054-.266-.245.007-1.923.007-3.854,0-5.777,0-.2.059-.251.266-.245.539.014,1.086.007,1.625.007C1208.012,81.194,1208.012,81.194,1208.072,81.561Z" transform="translate(-1116.625 -75.553)"/>
    <path id="Path_371" data-name="Path 371" class="cls-1" d="M595.295,85.026c-.569,0-1.13.014-1.7-.007-.288-.007-.3.088-.229.3a1.023,1.023,0,0,0,1.019.7,3.251,3.251,0,0,0,1.566-.326c.214-.1.318-.068.428.122.192.326.406.646.621.958.081.116.1.19-.052.265a5.121,5.121,0,0,1-3.731.462,2.628,2.628,0,0,1-1.876-1.9,4.133,4.133,0,0,1,0-2.413,2.892,2.892,0,0,1,3.117-2.039,2.714,2.714,0,0,1,2.733,2.277,6.4,6.4,0,0,1,.111,1.353c0,.2-.074.251-.273.245C596.454,85.02,595.871,85.026,595.295,85.026Zm-1.042-1.339c.244,0,.495-.007.739,0,.2.007.259-.048.207-.231a.887.887,0,0,0-1-.714.862.862,0,0,0-.857.748c-.037.163.015.2.177.2Z" transform="translate(-547.484 -75.64)"/>
    <path id="Path_372" data-name="Path 372" class="cls-1" d="M1308.6,84.347a3.822,3.822,0,0,1,.3-1.563,2.834,2.834,0,0,1,2.615-1.652,2.95,2.95,0,0,1,2.807,1.23c.1.143.1.224-.059.326-.406.272-.813.551-1.2.843-.17.122-.251.122-.355-.061a1.54,1.54,0,0,0-.3-.381.787.787,0,0,0-1.278.211,2.56,2.56,0,0,0-.022,2.121.858.858,0,0,0,1.263.34c.1-.061.185-.15.281-.217.17-.122.214-.421.443-.394.177.02.333.211.5.333.236.163.458.347.7.5.214.129.192.224.052.4a3.223,3.223,0,0,1-3.568,1.142,2.752,2.752,0,0,1-2.15-2.6C1308.607,84.734,1308.607,84.544,1308.6,84.347Z" transform="translate(-1211.923 -75.613)"/>
    <path id="Path_373" data-name="Path 373" class="cls-1" d="M689.8,84.366a4.5,4.5,0,0,1,.089-.945,2.72,2.72,0,0,1,2.29-2.216,3.128,3.128,0,0,1,3.31,1.121c.133.177.133.272-.067.4-.414.265-.812.551-1.2.836-.126.088-.192.1-.273-.041-.244-.415-.554-.761-1.13-.619s-.621.625-.68,1.067a2.941,2.941,0,0,0,.067,1.217.926.926,0,0,0,1.61.415c.17-.15.236-.462.495-.428.2.027.377.238.561.374.236.163.465.34.7.5.133.088.125.156.037.279a3.181,3.181,0,0,1-3.391,1.264,2.725,2.725,0,0,1-2.312-2.229A4.19,4.19,0,0,1,689.8,84.366Z" transform="translate(-638.835 -75.612)"/>
    <path id="Path_374" data-name="Path 374" class="cls-1" d="M1019.764,81.767a2.254,2.254,0,0,1,2.231-.421c.229.068.3.17.236.4-.17.632-.318,1.271-.487,1.937-.148-.109-.266-.2-.392-.285a1.237,1.237,0,0,0-1.189-.116.814.814,0,0,0-.428.843c-.015.884-.007,1.767-.007,2.651,0,.822,0,.822-.887.822-.406,0-.812-.007-1.219,0-.177.007-.236-.048-.229-.211.007-1.944.007-3.895,0-5.838,0-.17.066-.211.236-.211.554.007,1.108,0,1.662,0C1019.719,81.346,1019.719,81.346,1019.764,81.767Z" transform="translate(-942.227 -75.705)"/>
  </g>
  <g id="Group_149" data-name="Group 149" transform="translate(1136.073 5540.824)">
    <path id="Path_507" data-name="Path 507" class="cls-1" d="M146.165,14.572h1.13c.706,0,.894.235.894.894a26.246,26.246,0,0,1-.706,5.413c-.235.894-.518,1.789-.8,2.636a.809.809,0,0,0,.282.988l1.695,1.553c.377.329.329.565,0,.894-.612.565-1.177,1.177-1.789,1.789-.377.377-.612.424-.988.047a8.458,8.458,0,0,1-.894-.941c-.471-.518-.753-.565-1.365-.188a2.611,2.611,0,0,0-.377.282,5.857,5.857,0,0,1-8.284-.8,6.831,6.831,0,0,1-1.271-3.483,8.724,8.724,0,0,1,1.553-6.449,1.335,1.335,0,0,1,.424-.471c.565-.471.565-.612.377-1.318a35.5,35.5,0,0,1-.941-3.86,6.44,6.44,0,0,1,1.318-5.413,5.236,5.236,0,0,1,7.013-.565A4.053,4.053,0,0,1,144.8,8.406a7.116,7.116,0,0,1-2.73,6.731c-.235.188-.471.377-.753.565a1.015,1.015,0,0,0-.424,1.459c.377.706.847,1.318,1.271,1.977.329.471.659.941.988,1.365a1.133,1.133,0,0,0,.377.282,1.651,1.651,0,0,0,.235-.377,17.492,17.492,0,0,0,.565-5.178c0-.706.047-.706.753-.706a8.7,8.7,0,0,0,1.083.047Zm-8.143,4.66c-.047.047-.094.094-.094.141a8.618,8.618,0,0,0-.424,4.1c.424,2.353,2.259,2.73,3.719,1.789.565-.377.612-.659.235-1.177-.471-.612-.941-1.177-1.412-1.789C139.34,21.3,138.681,20.267,138.022,19.232Zm.471-8.849c.188.941.329,1.836.518,2.73.094.377.424.471.659.141.424-.565.894-1.083,1.271-1.695a3.571,3.571,0,0,0,.424-2.589,1.157,1.157,0,0,0-1.083-1.036,1.213,1.213,0,0,0-1.365.8A16.845,16.845,0,0,0,138.493,10.382Z" transform="translate(-70.819 -2.381)"/>
    <path id="Path_508" data-name="Path 508" class="cls-1" d="M302.832,29.564h-4.1c-.471,0-.612-.329-.706-.706l-2.259-7.625a1.316,1.316,0,0,0-1.412-1.083c-.518,0-.659.141-.659.659v7.767c0,.894-.094.988-.988.988h-2.306c-.424,0-.659-.188-.612-.612V6.265c0-.377.047-.565.518-.565,2.353.047,4.707,0,7.06.141,2.965.188,4.33,1.506,4.8,4.472a16.739,16.739,0,0,1-.047,5.931,3.9,3.9,0,0,1-2.165,3.012.669.669,0,0,0-.329.941c1.036,2.918,2.024,5.884,3.06,8.8A2.311,2.311,0,0,0,302.832,29.564Zm-9.179-16.757h.047v3.107c0,.8.377,1.177,1.177,1.13.565-.047,1.177-.094,1.742-.188a1.612,1.612,0,0,0,1.506-1.412c.047-1.553.094-3.107,0-4.613a1.575,1.575,0,0,0-1.553-1.6,16.723,16.723,0,0,0-2.165-.141c-.706-.047-.8.094-.8.8C293.653,10.784,293.653,11.819,293.653,12.808Z" transform="translate(-153.491 -3.017)"/>
    <path id="Path_509" data-name="Path 509" class="cls-1" d="M267.6,15.239V6.155c0-.377.094-.565.518-.565.659,0,1.318-.094,2.024-.094,1.177-.047,1.553.329,1.506,1.506l-.141,11.3c-.047,2.259-.047,4.472-.094,6.731a9.261,9.261,0,0,1-.141,1.13,4.152,4.152,0,0,1-3.389,3.389,9.947,9.947,0,0,1-4.707,0,4.36,4.36,0,0,1-3.483-4.283c-.047-.8-.094-1.6-.094-2.353V6.2a.607.607,0,0,1,.565-.565c.753-.047,1.553-.094,2.306-.094.8,0,1.177.329,1.177,1.13,0,.565-.094,1.13-.094,1.695v15.2a6.2,6.2,0,0,0,.188,1.6c.235.894.8,1.177,1.883,1.13.988-.047,1.553-.424,1.742-1.271a5.243,5.243,0,0,0,.094-.8v-8.9C267.508,15.239,267.555,15.239,267.6,15.239Z" transform="translate(-137.513 -2.907)"/>
    <path id="Path_510" data-name="Path 510" class="cls-1" d="M215.514,15.953c0,3.012.047,6.072,0,9.084-.094,2.918-1.506,4.472-4.377,4.754a13.628,13.628,0,0,1-3.907-.188c-2.259-.471-3.436-2.071-3.483-4.66-.047-3.154,0-6.354-.047-9.508V6.727c0-.941.094-1.036,1.036-1.036h2.306c.471,0,.612.188.659.612V23.2c0,.518,0,1.036.047,1.553a1.522,1.522,0,0,0,1.412,1.6,1.777,1.777,0,0,0,2.353-1.742c.047-.471.094-.941.094-1.412V6.868c0-1.083.141-1.224,1.224-1.177h1.93c.753,0,.847.094.847.847v9.414Z" transform="translate(-107.925 -3.008)"/>
    <path id="Path_511" data-name="Path 511" class="cls-1" d="M10.579,0A33.871,33.871,0,0,0,13.4,2.448a7.294,7.294,0,0,0,5.225,1.177,9.1,9.1,0,0,0,2.165-.753c.188-.047.377-.141.565-.188a2.363,2.363,0,0,1,.094.565V7.013c0,4.472-.047,8.9,0,13.368a4.119,4.119,0,0,1-3.107,4.377c-.988.329-2.071.518-3.107.753a6.971,6.971,0,0,0-4.283,2.448c-.047.094-.141.141-.235.235-.047.047-.141.047-.047,0-.8-.659-1.553-1.224-2.306-1.789-.988-.753-2.259-.753-3.389-1.083-.847-.235-1.695-.424-2.542-.706A3.743,3.743,0,0,1-.2,21.04a2.9,2.9,0,0,0,.094-.894V2.636C4.319,4.848,7.8,3.483,10.579,0Zm.188,11.391h0q-4.307-.071-8.614,0c-.847,0-1.083.188-1.083.988v8.473A2.633,2.633,0,0,0,2.577,23.3a10.892,10.892,0,0,0,3.2.941,10.268,10.268,0,0,1,4.566,2.024c.329.235.518.094.847-.047A12.623,12.623,0,0,1,13.5,24.9a24.476,24.476,0,0,1,3.2-.8,5.071,5.071,0,0,0,3.342-1.836,1.035,1.035,0,0,0,.188-.612c.047-3.06.047-6.166.047-9.226,0-.894-.094-.988-.988-.988C16.416,11.391,13.591,11.391,10.767,11.391Zm-1.836-.941a4.983,4.983,0,0,0,4.1-2.683A4.788,4.788,0,0,0,13.5,4.1a1.006,1.006,0,0,0-1.13-.847,3.633,3.633,0,0,0-.706.094A4.774,4.774,0,0,0,7.943,9.7C8.131,10.355,8.225,10.449,8.932,10.449Zm-3.813.282c.565-.8,1.13-.565,1.742-.188-.471-.8-.047-1.318.612-1.742a1.189,1.189,0,0,1-1.553-.847c-.141.706-.659.894-1.271,1.036C5.26,9.367,5.26,9.367,5.119,10.732ZM7.614,5.366c-.988.235-1.506-.047-1.647-.988-.235.8-.659,1.224-1.506,1.13.471.377.988.706.612,1.412h1.6C6.39,6.166,6.955,5.837,7.614,5.366Zm7.767-.753c-.235.612-.235.612-1.6.988.988.235.988.894.847,1.6a1.235,1.235,0,0,1,1.647-.188c-.612-.847.329-1.13.612-1.695C16.086,5.648,15.71,5.225,15.38,4.613ZM14.533,10.5a1.42,1.42,0,0,1,1.789-.047c-.518-.847.094-1.224.518-1.695-.988,0-.988,0-1.412-1.083-.235.659-.471,1.271-1.412,1.177A1.17,1.17,0,0,1,14.533,10.5Zm3.248-1.6c.8.282.612.894.612,1.6.565-.612,1.036-.235,1.553-.047-.047-1.083-.047-1.083.518-1.459-.988-.518-.988-.518-1.412-1.224C18.91,8.473,18.675,8.99,17.781,8.9ZM3.424,8.8c-.941.329-.894-.612-1.271-1.036-.188.941-.329,1.036-1.13,1.13.141.235.377.424.424.659a2.073,2.073,0,0,1-.094.753A1.865,1.865,0,0,0,3.424,8.8ZM1.4,5.648v.377c-.047.753.235,1.036.894.753a1.724,1.724,0,0,0,.612-.565c.141-.235.235-.471.377-.753-.753.094-.847-.565-1.177-1.177C2.012,5.178,1.636,5.554.93,5.648Zm16.8.094a1.845,1.845,0,0,1,.188.424c.047.282.094.518.424.565a.727.727,0,0,0,.847-.377A6.447,6.447,0,0,1,20.04,5.7c-.282-.377-.612-.753-.847-1.036A11.283,11.283,0,0,0,18.2,5.743Z" transform="translate(0)"/>
    <path id="Path_512" data-name="Path 512" class="cls-1" d="M320.647,17.556V6.541c.047-.8.141-.941.941-.941h8.9c.659,0,.8.141.8.847a12.344,12.344,0,0,0,.047,1.318c.047.988-.282,1.365-1.271,1.318-1.553-.047-3.107-.047-4.66-.094-.659,0-.8.094-.8.753v5.084c0,.706.094.8.8.8h3.577c.659,0,.8.141.8.8,0,.565-.047,1.177-.094,1.742a.784.784,0,0,1-.753.8c-.847.047-1.695.047-2.542.047a2.039,2.039,0,0,1-.235-.047c-1.318-.141-1.694.235-1.647,1.553.047,1.506.047,3.012.047,4.519,0,.847.094.988.988.988,1.553,0,3.107,0,4.66-.047.941,0,1.036.094,1.036,1.036,0,.424.047.847.047,1.271.047.847-.282,1.224-1.13,1.224-.565,0-1.13-.094-1.695-.094h-6.825c-.847,0-1.036-.188-1.036-1.036C320.647,24.852,320.647,21.18,320.647,17.556Z" transform="translate(-169.8 -2.964)"/>
    <path id="Path_513" data-name="Path 513" class="cls-1" d="M74.807,24.552c.518.235.988.471,1.459.706a5.1,5.1,0,0,0,2.777.424A2.277,2.277,0,0,0,81.3,23.234a5.284,5.284,0,0,0-2.259-4.472c-.847-.706-1.742-1.318-2.589-2.071A7.73,7.73,0,0,1,74.9,7.559a5.269,5.269,0,0,1,3.954-2.683,10.245,10.245,0,0,1,5.178.612c.706.282.894.659.565,1.318-.282.565-.565,1.13-.894,1.695a.71.71,0,0,1-.941.377,15.925,15.925,0,0,0-1.6-.377,3.039,3.039,0,0,0-1.13,0C78.29,8.83,77.866,9.913,78.2,11.89a4.181,4.181,0,0,0,1.647,2.353c.8.612,1.647,1.224,2.448,1.836a7.9,7.9,0,0,1,2.965,5.6,9.167,9.167,0,0,1-.377,3.907,5.3,5.3,0,0,1-4.1,3.577,9.417,9.417,0,0,1-6.5-.894c-.706-.377-.753-.612-.471-1.318Z" transform="translate(-39.093 -2.523)"/>
    <path id="Path_514" data-name="Path 514" class="cls-1" d="M183.964,5.7H188.2c.471,0,.659.188.659.659,0,.518.047.988.094,1.506.094.941-.282,1.365-1.224,1.365-1.318-.047-2.589-.094-3.907-.094-.612,0-.8.141-.8.753v5.79c0,.565.188.706.753.706h3.248c.424,0,.659.188.659.612,0,.565.047,1.177,0,1.742-.047.706-.282.941-1.036.988-.847.047-1.695.047-2.542.094s-1.036.188-1.036.988c-.047,2.448,0,4.942-.047,7.39v.329c.047.941-.188,1.177-1.13,1.13h-2.165c-.659,0-.847-.235-.753-.847a9.912,9.912,0,0,0,.094-1.177c0-6.919,0-13.886-.047-20.8a1.279,1.279,0,0,0,0-.424c-.047-.424.188-.565.612-.565,1.459-.141,2.871-.141,4.33-.141Z" transform="translate(-94.825 -3.017)"/>
    <path id="Path_515" data-name="Path 515" class="cls-1" d="M235.866,19.2V9.554c0-.329-.188-.518-.565-.518-.706,0-1.365,0-2.071-.047-.894-.094-1.13-.377-1.13-1.271,0-.518.047-1.036.094-1.553.047-.377.188-.565.612-.565h10.073c.424,0,.565.141.565.565,0,.612.094,1.224.094,1.789,0,.8-.329,1.13-1.13,1.13-.565,0-1.177-.094-1.742-.094-.706,0-.847.141-.847.847v18.5c0,1.036-.141,1.13-1.177,1.13h-2.071c-.612,0-.753-.141-.753-.753V26.264c0-2.306,0-4.707.047-7.06Z" transform="translate(-122.957 -2.964)"/>
    <path id="Path_516" data-name="Path 516" class="cls-1" d="M106.567,19.291v9.32c0,.706-.094.8-.753.8H103.46c-.518,0-.706-.235-.753-.706V10.019c0-.941-.141-1.036-1.083-1.083a10.232,10.232,0,0,1-1.695-.094c-.8-.094-1.083-.424-1.036-1.177.047-.518.141-1.036.141-1.6.047-.471.282-.565.706-.565h9.885c.471,0,.706.188.659.659-.047.706,0,1.459,0,2.165,0,.424-.141.612-.565.565h-2.448a.631.631,0,0,0-.706.659v.565c.047,3.107.047,6.119,0,9.179Z" transform="translate(-52.448 -2.911)"/>
    <path id="Path_517" data-name="Path 517" class="cls-1" d="M61.2,11.992V27.1c0,.518.047,1.036,0,1.553-.047.753-.235.894-.941.894-.471,0-.941,0-1.459.047-1.13.141-1.6-.282-1.6-1.412.047-6.025.094-12,.141-18.028,0-.847-.282-1.083-1.13-.941a1.931,1.931,0,0,1-.518.047c-.612,0-.8-.141-.847-.753A9.839,9.839,0,0,1,54.8,7.332a1,1,0,0,1,.847-.988,17.409,17.409,0,0,1,4.66-.659c.706.047.894.235.894.941q.071,2.683,0,5.366Z" transform="translate(-29.112 -3.002)"/>
    <path id="Path_518" data-name="Path 518" class="cls-1" d="M8.736,31.794V28.828a1.2,1.2,0,0,0-.424-1.083c-.377-.282-.235-.706-.094-1.083s.424-.235.706-.235H10.1c.282,0,.612-.047.706.282a1.725,1.725,0,0,1-.047.988,1.839,1.839,0,0,0-.377,1.271c0,2.636,0,5.319.047,7.955,0,.377-.094.518-.471.518a1.14,1.14,0,0,1-1.271-.847c-.471-1.318-.941-2.683-1.412-4.048a1.445,1.445,0,0,0-.377-.612v2.777c0,.188.235.377.329.565a2.385,2.385,0,0,1,.329.706c.047.612-.188.753-.8.565-.565-.141-1.083-.282-1.647-.471-.612-.235-.706-.753-.282-1.271a1.817,1.817,0,0,0,.377-.941c0-1.742,0-3.53,0-5.272a1.131,1.131,0,0,0-.424-.8c-.424-.329-.282-.753-.141-1.083.047-.141.377-.188.612-.282a.512.512,0,0,1,.235-.047,1.335,1.335,0,0,1,1.647,1.036c.188.471.282.988.424,1.459.329.988.659,1.93.941,2.918Z" transform="translate(-2.488 -13.954)"/>
    <path id="Path_519" data-name="Path 519" class="cls-1" d="M21.267,34.655v1.177a2.143,2.143,0,0,0,.377,1.506.822.822,0,0,1,.188.565c.094.659-.235.894-.847.612-.518-.188-1.036-.377-1.553-.612-.706-.329-.753-.8-.235-1.365a1.325,1.325,0,0,0,.282-.706c0-2.448.047-4.848,0-7.3a1.4,1.4,0,0,0-.377-.8.936.936,0,0,1-.141-1.13c.094-.377.424-.235.706-.235.941,0,1.836,0,2.777.047.518,0,1.224,0,1.412.565a4.109,4.109,0,0,1,0,1.695c0,.094-.377.235-.565.235a.868.868,0,0,1-.565-.235c-.094-.047-.094-.235-.141-.377a.692.692,0,0,0-.894-.329c-.329.047-.424.282-.424.612v1.553c0,.565.329.753.847.518a2.047,2.047,0,0,1,.329-.188c.471-.235.988-.188.894.565a9.046,9.046,0,0,0,0,1.13c0,.518-.141.612-.659.424a2.879,2.879,0,0,1-.565-.235c-.518-.188-.8-.047-.8.518-.047.565-.047,1.177-.047,1.789Z" transform="translate(-10.076 -13.944)"/>
    <path id="Path_520" data-name="Path 520" class="cls-1" d="M32.291,26.294h.329c.282-.047.612-.094.753.235a1.093,1.093,0,0,1-.094,1.13,2.625,2.625,0,0,0-.329.753c-.047,1.977-.047,3.954-.047,5.931a.538.538,0,0,0,.329.377c.377.047.753,0,.847-.471a7.022,7.022,0,0,0,.094-.988c.047-.518.377-.518.753-.518a.5.5,0,0,1,.565.565c0,.518.047,1.083.094,1.6.047.706-.329,1.13-1.083,1.318-1.083.235-2.165.565-3.295.8a1.457,1.457,0,0,1-.706-.047c-.047-.329-.141-.847,0-.988a2.161,2.161,0,0,0,.612-1.883V28.789a1.658,1.658,0,0,0-.471-1.271.675.675,0,0,1,.377-1.177,9.7,9.7,0,0,1,1.224-.141A.146.146,0,0,1,32.291,26.294Z" transform="translate(-16.204 -13.868)"/>
  </g>
</svg>
