<svg xmlns="http://www.w3.org/2000/svg" viewBox="1622.395 5543.824 84.024 27.154">
  <defs>
    <style>
      .cls-1 {
        fill: #767a84;
      }
    </style>
  </defs>
  <g id="Group_150" data-name="Group 150" transform="translate(1622.395 5543.635)">
    <path id="Path_521" data-name="Path 521" class="cls-1" d="M266.834,27.973c-.3-1.379-.566-2.757-.862-4.136-.468-2.191-.911-4.407-1.379-6.6-.517-2.487-1.034-5-1.576-7.484-.517-2.536-1.059-5.071-1.576-7.607C261.394,2,261.394,2,261.221,2h-5.539a2.791,2.791,0,0,0-1.009.148,3.174,3.174,0,0,0-1.994,1.9c-2.462,5.859-4.9,11.719-7.361,17.6L242.659,28c-.025.074-.1.172-.074.271h7.041a.065.065,0,0,0,.074-.074,8.889,8.889,0,0,1,.419-1.132c.32-.837.615-1.7.911-2.536.049-.123.1-.2.246-.172a4.346,4.346,0,0,0,.566,0H259.6c.222,0,.222,0,.271.222.148.689.3,1.4.443,2.093.1.492.2.985.3,1.453.025.1.049.172.172.148h6.105A1.817,1.817,0,0,1,266.834,27.973Zm-13.787-9.035a.265.265,0,0,1,.049-.2c.222-.591.443-1.182.64-1.773.172-.492.32-.985.517-1.453.788-2.043,1.5-4.087,2.24-6.13.025-.074.025-.148.1-.2.689,3.274,1.354,6.524,2.043,9.8C256.765,18.938,254.919,18.938,253.048,18.938Z" transform="translate(-182.86 -1.365)"/>
    <path id="Path_522" data-name="Path 522" class="cls-1" d="M31.857,1.925a.838.838,0,0,0-.246-.025H24.939a.237.237,0,0,0-.246.172c0,.025-.025.049-.025.1L17.873,19.306c-.049.123-.1.271-.172.419a.328.328,0,0,1-.074-.123l-.517-2.807c-.32-1.7-.64-3.373-.96-5.071-.3-1.625-.615-3.25-.911-4.875-.148-.812-.3-1.625-.468-2.437a3.084,3.084,0,0,0-1.8-2.24A3.357,3.357,0,0,0,11.5,1.9H.394c-.025.025-.1.025-.148.025s-.1,0-.123.074A5.042,5.042,0,0,1,0,2.589a.114.114,0,0,0,.074.123c.049,0,.074.025.123.025a36.995,36.995,0,0,1,3.594.985,18.877,18.877,0,0,1,3,1.256A2.581,2.581,0,0,1,8.1,6.5c.025.1.074.2.1.3.2.788.419,1.551.615,2.339q2.29,8.826,4.554,17.676c.1.419.222.837.32,1.231.025.123.074.148.2.148H20.8c.1.025.148-.049.172-.123a4.105,4.105,0,0,0,.2-.492c.246-.566.492-1.157.714-1.723.148-.419.369-.837.542-1.231Q27.155,13.4,31.857,2.146C31.832,2.048,31.881,2,31.857,1.925Z" transform="translate(0 -1.289)"/>
    <path id="Path_523" data-name="Path 523" class="cls-1" d="M183.162,14.422a9.251,9.251,0,0,0-2.191-1.97,30.606,30.606,0,0,0-2.757-1.576c-.591-.32-1.206-.615-1.773-.985a6.472,6.472,0,0,1-.911-.714,2.181,2.181,0,0,1-.517-.812,1.525,1.525,0,0,1,.394-1.526,3.19,3.19,0,0,1,1.453-.886,6.4,6.4,0,0,1,2.043-.271,12.711,12.711,0,0,1,4.6.837c.345.123.665.271,1.009.394a.356.356,0,0,0,.049-.172c.369-1.748.739-3.471,1.108-5.219.025-.172.025-.172-.123-.222A18.356,18.356,0,0,0,180.675.241a17.169,17.169,0,0,0-4.628.271,12.685,12.685,0,0,0-4.062,1.526,8.648,8.648,0,0,0-3.225,3.3,7.484,7.484,0,0,0-.862,4.185,5.909,5.909,0,0,0,1.182,3,9.457,9.457,0,0,0,2.24,2.068,18.874,18.874,0,0,0,2.659,1.5,15.965,15.965,0,0,1,1.994,1.132,5.193,5.193,0,0,1,.886.763,1.949,1.949,0,0,1-.074,2.683,3.024,3.024,0,0,1-.985.665,5.23,5.23,0,0,1-2.117.492,13.453,13.453,0,0,1-4.308-.443,19.012,19.012,0,0,1-2.782-1.059.606.606,0,0,0-.271-.1c-.025.049-.025.123-.049.172-.394,1.8-.763,3.594-1.157,5.367-.049.2-.049.2.148.271a10.643,10.643,0,0,0,1.9.615,23.256,23.256,0,0,0,3.89.615,19.214,19.214,0,0,0,3.57-.025,14.335,14.335,0,0,0,3.939-.911,9.86,9.86,0,0,0,2.413-1.28,8.156,8.156,0,0,0,2.757-3.3,7.909,7.909,0,0,0,.689-3.1A6.016,6.016,0,0,0,183.162,14.422Z" transform="translate(-124.446)"/>
    <path id="Path_524" data-name="Path 524" class="cls-1" d="M130.952,2.006a.228.228,0,0,0-.172-.025h-6.426c-.172,0-.172,0-.222.172-.2.886-.369,1.773-.566,2.659-.542,2.487-1.059,4.973-1.6,7.46-.1.443-.2.862-.271,1.3a5.726,5.726,0,0,0-.2.886c-.492,2.265-.96,4.53-1.453,6.795-.492,2.24-.96,4.505-1.453,6.746a.4.4,0,0,0-.025.246h6.647a.115.115,0,0,0,.148-.123c0-.049.025-.074.025-.123.148-.714.32-1.428.468-2.142.074-.419.2-.837.246-1.256.025-.025.025-.074.049-.123.3-1.329.566-2.683.862-4.013.591-2.807,1.206-5.613,1.8-8.42.64-3.028,1.3-6.081,1.945-9.109C130.829,2.621,130.9,2.3,130.952,2.006Z" transform="translate(-89.371 -1.346)"/>
  </g>
</svg>
