<svg xmlns="http://www.w3.org/2000/svg" xmlns:xlink="http://www.w3.org/1999/xlink" viewBox="1280 2050 70.749 71.614">
  <defs>
    <style>
      .cls-1 {
        fill: #192a58;
      }

      .cls-2 {
        fill: #71659f;
      }

      .cls-3 {
        fill: #aaa2c5;
      }

      .cls-4 {
        fill: #8075a9;
      }

      .cls-5 {
        fill: #5e5292;
      }

      .cls-6 {
        filter: url(#Path_395);
      }
    </style>
    <filter id="Path_395" x="1280" y="2050" width="70.749" height="71.614" filterUnits="userSpaceOnUse">
      <feOffset dy="3" input="SourceAlpha"/>
      <feGaussianBlur stdDeviation="3" result="blur"/>
      <feFlood flood-opacity="0.302"/>
      <feComposite operator="in" in2="blur"/>
      <feComposite in="SourceGraphic"/>
    </filter>
  </defs>
  <g id="Group_111" data-name="Group 111" transform="translate(637 -2192)">
    <g class="cls-6" transform="matrix(1, 0, 0, 1, -637, 2192)">
      <path id="Path_395-2" data-name="Path 395" class="cls-1" d="M0,0H52.749V53.614H0Z" transform="translate(1289 2056)"/>
    </g>
    <g id="Group_104" data-name="Group 104" transform="translate(664.156 4260.726)">
      <path id="Path_388" data-name="Path 388" class="cls-2" d="M35.79,104.506c-2.284-3.684-4.569-7.388-6.853-11.072-.679-1.111-1.358-2.223-2.037-3.313.144,0,.268-.021.412-.021.309.329.7.206,1.07.206h10.29c.082,0,.185.021.268.021A14.345,14.345,0,0,0,41,93.845a1.913,1.913,0,0,1-.021,2.531c-1.605,2.428-3.107,4.918-4.651,7.388-.144.226-.37.412-.329.72A.772.772,0,0,1,35.79,104.506Z" transform="translate(-21.364 -71.558)"/>
      <path id="Path_389" data-name="Path 389" class="cls-3" d="M45.592.1c-1.708,2.778-3.437,5.556-5.145,8.335-.206.329-.535.638-.391,1.111l-6.009.062c-.062-.021-.123-.021-.185-.041-.062-.062-.123-.144-.185-.206a3.42,3.42,0,0,0-.494-.988Q30.621,4.206,28.1.1Z" transform="translate(-22.317 -0.079)"/>
      <path id="Path_390" data-name="Path 390" class="cls-4" d="M11.439,45c.062.062.123.144.185.206-.535.823-1.07,1.646-1.585,2.511C8.723,49.9,7.22,52,6.027,54.261c-.144,0-.268.021-.412.021-1.564-2.449-3.107-4.9-4.672-7.326C.7,46.564.573,46.07.1,45.844v-.823C3.887,45.021,7.653,45,11.439,45Z" transform="translate(-0.079 -35.739)"/>
      <path id="Path_391" data-name="Path 391" class="cls-2" d="M11.36,9.261H0V8.849C1.955,5.968,3.766,2.984,5.556,0h.206q2.531,4.136,5.083,8.252A3.343,3.343,0,0,1,11.36,9.261Z"/>
      <path id="Path_393" data-name="Path 393" class="cls-4" d="M57,45.962l6.009-.062H74.163c.185.288,0,.432-.082.6q-2.531,4.044-5.042,8.088a1.094,1.094,0,0,1-1.05.659c-1.708-.041-3.416-.041-5.124-.041-.082,0-.185-.021-.268-.021,0-.412-.329-.659-.514-.988Q59.521,50.088,57,45.962Z" transform="translate(-45.27 -36.454)"/>
      <path id="Path_394" data-name="Path 394" class="cls-5" d="M34.683,46.121c1.688,2.737,3.4,5.495,5.063,8.252.185.309.514.576.514.988H29.97c-.37,0-.761.123-1.07-.206,1.194-2.264,2.675-4.363,3.992-6.544.514-.844,1.05-1.667,1.585-2.511C34.559,46.1,34.621,46.121,34.683,46.121Z" transform="translate(-22.953 -36.613)"/>
    </g>
  </g>
</svg>
