<?xml version="1.0" encoding="utf-8"?>
<!-- Generator: Adobe Illustrator 23.0.4, SVG Export Plug-In . SVG Version: 6.00 Build 0)  -->
<svg version="1.1" id="Layer_1" xmlns="http://www.w3.org/2000/svg" xmlns:xlink="http://www.w3.org/1999/xlink" x="0px" y="0px"
	 viewBox="0 0 204 65" style="enable-background:new 0 0 204 65;" xml:space="preserve">
<style type="text/css">
	.st0{fill:#00AD07;}
	.st1{enable-background:new    ;}
	.st2{fill:#FFFFFF;}
	.st3{fill:#13137C;}
</style>
<g id="Group_291" transform="translate(-22 -5036)">
	<g id="Group_269" transform="translate(0 77)">
		<path id="Rectangle_43" class="st0" d="M37,4959h174c8.3,0,15,6.7,15,15l0,0c0,8.3-6.7,15-15,15H37c-8.3,0-15-6.7-15-15l0,0
			C22,4965.7,28.7,4959,37,4959z"/>
		<g id="Group_266" transform="translate(-6 1302)">
			<g class="st1">
				<path class="st2" d="M47.3,3668.4c0.6,0.5,0.9,1.2,0.9,2.3c0,1-0.3,1.8-0.9,2.2c-0.6,0.5-1.5,0.7-2.7,0.7H43v2.5h-1.4v-8.4h2.9
					C45.8,3667.6,46.7,3667.9,47.3,3668.4z M46.3,3671.8c0.3-0.3,0.4-0.7,0.4-1.3s-0.2-1-0.5-1.2s-0.9-0.4-1.7-0.4H43v3.4h1.6
					C45.5,3672.3,46,3672.1,46.3,3671.8z"/>
				<path class="st2" d="M53,3670.9c-0.7,0-1.2,0.2-1.5,0.6c-0.3,0.4-0.5,1-0.5,1.7v2.7h-1.3v-6.4H51v1.3c0.2-0.4,0.5-0.7,0.9-1
					c0.4-0.3,0.8-0.4,1.2-0.4L53,3670.9C53,3670.9,53,3670.9,53,3670.9z"/>
				<path class="st2" d="M60.3,3673.4h-5c0,0.5,0.2,0.8,0.6,1.1c0.4,0.3,0.8,0.4,1.3,0.4c0.8,0,1.4-0.3,1.8-0.8l0.8,0.8
					c-0.7,0.7-1.6,1.1-2.7,1.1c-0.9,0-1.7-0.3-2.3-0.9s-0.9-1.4-0.9-2.4s0.3-1.8,1-2.4s1.4-0.9,2.3-0.9c0.9,0,1.6,0.3,2.2,0.8
					c0.6,0.5,0.9,1.2,0.9,2.2V3673.4z M55.3,3672.4H59c0-0.5-0.2-0.9-0.5-1.2c-0.3-0.3-0.8-0.4-1.2-0.4c-0.5,0-0.9,0.2-1.3,0.5
					C55.5,3671.5,55.3,3671.9,55.3,3672.4z"/>
				<path class="st2" d="M61.7,3673.1v-1.3h4v1.3H61.7z"/>
				<path class="st2" d="M72.1,3674.1c0,0.6-0.2,1.1-0.7,1.5c-0.4,0.4-1,0.5-1.7,0.5c-0.5,0-0.9-0.1-1.4-0.3
					c-0.5-0.2-0.9-0.4-1.3-0.7l0.6-1c0.7,0.6,1.5,0.8,2.2,0.8c0.3,0,0.5-0.1,0.7-0.2c0.2-0.1,0.3-0.3,0.3-0.5c0-0.3-0.4-0.6-1.3-0.9
					c-0.1,0-0.1,0-0.1,0c-1.3-0.4-2-1-2-1.8c0-0.6,0.2-1.1,0.7-1.4c0.5-0.4,1.1-0.5,1.8-0.5c0.7,0,1.4,0.2,2.1,0.6l-0.5,1
					c-0.5-0.3-1.1-0.5-1.7-0.5c-0.3,0-0.6,0.1-0.8,0.2c-0.2,0.1-0.3,0.3-0.3,0.5c0,0.2,0.1,0.4,0.3,0.5c0.1,0.1,0.3,0.1,0.6,0.2
					c0.3,0.1,0.5,0.1,0.7,0.2c0.2,0.1,0.4,0.1,0.6,0.2s0.4,0.2,0.6,0.3C71.9,3673.1,72.1,3673.5,72.1,3674.1z"/>
				<path class="st2" d="M79.5,3673.4h-5c0,0.5,0.2,0.8,0.6,1.1c0.4,0.3,0.8,0.4,1.3,0.4c0.8,0,1.4-0.3,1.8-0.8l0.8,0.8
					c-0.7,0.7-1.6,1.1-2.7,1.1c-0.9,0-1.7-0.3-2.3-0.9s-0.9-1.4-0.9-2.4s0.3-1.8,1-2.4s1.4-0.9,2.3-0.9c0.9,0,1.6,0.3,2.2,0.8
					c0.6,0.5,0.9,1.2,0.9,2.2V3673.4z M74.5,3672.4h3.7c0-0.5-0.2-0.9-0.5-1.2c-0.3-0.3-0.8-0.4-1.2-0.4c-0.5,0-0.9,0.2-1.3,0.5
					C74.7,3671.5,74.5,3671.9,74.5,3672.4z"/>
				<path class="st2" d="M87,3673.4h-5c0,0.5,0.2,0.8,0.6,1.1c0.4,0.3,0.8,0.4,1.3,0.4c0.8,0,1.4-0.3,1.8-0.8l0.8,0.8
					c-0.7,0.7-1.6,1.1-2.7,1.1c-0.9,0-1.7-0.3-2.3-0.9s-0.9-1.4-0.9-2.4s0.3-1.8,1-2.4s1.4-0.9,2.3-0.9c0.9,0,1.6,0.3,2.2,0.8
					c0.6,0.5,0.9,1.2,0.9,2.2V3673.4z M81.9,3672.4h3.7c0-0.5-0.2-0.9-0.5-1.2c-0.3-0.3-0.8-0.4-1.2-0.4c-0.5,0-0.9,0.2-1.3,0.5
					C82.1,3671.5,81.9,3671.9,81.9,3672.4z"/>
				<path class="st2" d="M88.9,3675.2c-0.6-0.6-0.9-1.4-0.9-2.4s0.3-1.8,0.9-2.4c0.6-0.6,1.4-0.9,2.2-0.9s1.5,0.4,2.1,1.1v-3.5h1.3
					v8.9h-1.3v-1c-0.5,0.7-1.2,1.1-2.2,1.1C90.2,3676.1,89.5,3675.8,88.9,3675.2z M89.4,3672.9c0,0.6,0.2,1.1,0.6,1.5
					c0.4,0.4,0.9,0.6,1.4,0.6s1-0.2,1.3-0.6c0.4-0.4,0.6-0.9,0.6-1.5c0-0.6-0.2-1.1-0.6-1.5c-0.4-0.4-0.8-0.6-1.4-0.6
					c-0.5,0-1,0.2-1.4,0.6C89.6,3671.7,89.4,3672.3,89.4,3672.9z"/>
				<path class="st2" d="M103.1,3670.9c-0.7,0-1.2,0.2-1.5,0.6c-0.3,0.4-0.5,1-0.5,1.7v2.7h-1.3v-6.4h1.3v1.3c0.2-0.4,0.5-0.7,0.9-1
					c0.4-0.3,0.8-0.4,1.2-0.4L103.1,3670.9C103.2,3670.9,103.2,3670.9,103.1,3670.9z"/>
				<path class="st2" d="M109.8,3675.2c-0.6,0.6-1.4,1-2.4,1s-1.8-0.3-2.4-1c-0.6-0.6-1-1.4-1-2.3c0-0.9,0.3-1.7,1-2.3
					c0.6-0.6,1.4-1,2.4-1s1.8,0.3,2.4,1c0.6,0.6,1,1.4,1,2.3C110.7,3673.8,110.4,3674.5,109.8,3675.2z M105.9,3674.3
					c0.4,0.4,0.9,0.6,1.4,0.6s1.1-0.2,1.4-0.6c0.4-0.4,0.6-0.9,0.6-1.5c0-0.6-0.2-1.1-0.6-1.5c-0.4-0.4-0.9-0.6-1.4-0.6
					s-1.1,0.2-1.4,0.6c-0.4,0.4-0.6,0.9-0.6,1.5C105.3,3673.5,105.5,3674,105.9,3674.3z"/>
				<path class="st2" d="M116.7,3673.1v-3.5h1.3v6.4h-1.3v-1.2c-0.2,0.4-0.5,0.7-0.9,0.9c-0.4,0.2-0.8,0.3-1.2,0.3
					c-0.7,0-1.3-0.2-1.7-0.7c-0.4-0.4-0.7-1.1-0.7-1.9v-3.9h1.3v3.5c0,1.2,0.5,1.8,1.5,1.8c0.5,0,0.9-0.2,1.2-0.5
					C116.5,3674.1,116.7,3673.7,116.7,3673.1z"/>
				<path class="st2" d="M121.3,3672.6v3.5H120v-6.4h1.3v1.2c0.2-0.4,0.5-0.7,0.9-0.9c0.4-0.2,0.8-0.3,1.2-0.3
					c0.7,0,1.3,0.2,1.7,0.7c0.4,0.4,0.7,1.1,0.7,1.9v3.9h-1.3v-3.5c0-1.2-0.5-1.8-1.5-1.8c-0.5,0-0.9,0.2-1.2,0.5
					C121.5,3671.5,121.3,3672,121.3,3672.6z"/>
				<path class="st2" d="M128.2,3675.2c-0.6-0.6-0.9-1.4-0.9-2.4s0.3-1.8,0.9-2.4c0.6-0.6,1.4-0.9,2.2-0.9s1.5,0.4,2.1,1.1v-3.5h1.3
					v8.9h-1.3v-1c-0.5,0.7-1.2,1.1-2.2,1.1C129.5,3676.1,128.8,3675.8,128.2,3675.2z M128.7,3672.9c0,0.6,0.2,1.1,0.6,1.5
					c0.4,0.4,0.9,0.6,1.4,0.6c0.5,0,1-0.2,1.3-0.6s0.6-0.9,0.6-1.5c0-0.6-0.2-1.1-0.6-1.5c-0.4-0.4-0.8-0.6-1.4-0.6s-1,0.2-1.4,0.6
					C128.9,3671.7,128.7,3672.3,128.7,3672.9z"/>
				<path class="st2" d="M141.5,3676.9v-0.9c-1.1-0.1-2.1-0.5-3-1.3l0.9-1c0.7,0.6,1.4,0.9,2.1,1v-2.3c-0.9-0.2-1.6-0.5-2-0.9
					c-0.4-0.4-0.6-0.9-0.6-1.6c0-0.7,0.2-1.3,0.7-1.7c0.5-0.4,1.1-0.7,1.9-0.7v-0.6h0.8v0.6c0.9,0.1,1.7,0.4,2.5,0.9l-0.8,1.1
					c-0.5-0.4-1.1-0.6-1.7-0.7v2.3h0c0.9,0.2,1.6,0.5,2,0.9c0.4,0.4,0.6,0.9,0.6,1.6s-0.2,1.3-0.7,1.7c-0.5,0.4-1.2,0.7-2,0.7v0.9
					H141.5z M140.7,3669.1c-0.2,0.2-0.3,0.4-0.3,0.7c0,0.3,0.1,0.5,0.2,0.6s0.5,0.3,0.9,0.5v-2.1
					C141.2,3668.9,140.9,3669,140.7,3669.1z M143.2,3674.4c0.2-0.2,0.3-0.4,0.3-0.7c0-0.3-0.1-0.5-0.3-0.7c-0.2-0.2-0.5-0.3-1-0.5
					v2.2C142.7,3674.7,143,3674.6,143.2,3674.4z"/>
				<path class="st2" d="M145.9,3667.6h3v8.4h-1.3v-7.1h-1.7V3667.6z"/>
				<path class="st2" d="M151.2,3675.9c-0.2-0.2-0.3-0.4-0.3-0.6s0.1-0.5,0.3-0.6s0.4-0.3,0.6-0.3s0.5,0.1,0.6,0.3s0.3,0.4,0.3,0.6
					s-0.1,0.5-0.3,0.6s-0.4,0.3-0.6,0.3S151.4,3676,151.2,3675.9z"/>
				<path class="st2" d="M153.5,3667.6h3v8.4h-1.3v-7.1h-1.7V3667.6z"/>
				<path class="st2" d="M160.3,3676h-1.4v-8.4h2.2l2.5,5.3l2.5-5.3h2.2v8.4h-1.4v-6.6l-2.9,5.8h-0.8l-2.9-5.8V3676z"/>
				<path class="st2" d="M170.3,3675.3c0-0.3,0.1-0.5,0.3-0.6c0.2-0.2,0.4-0.3,0.6-0.3c0.2,0,0.4,0.1,0.6,0.3
					c0.2,0.2,0.3,0.4,0.3,0.6c0,0.2-0.1,0.5-0.3,0.9l-0.7,1.2h-0.7l0.4-1.2C170.4,3675.9,170.3,3675.6,170.3,3675.3z"/>
				<path class="st2" d="M178.7,3676h-1.4v-8.4h2.2l2.5,5.3l2.5-5.3h2.2v8.4h-1.4v-6.6l-2.9,5.8h-0.8l-2.9-5.8V3676z"/>
				<path class="st2" d="M192.9,3676h-1.6l-3.4-8.4h1.6l2.6,6.3l2.6-6.3h1.6L192.9,3676z"/>
				<path class="st2" d="M203.2,3668.4c0.6,0.5,0.9,1.2,0.9,2.3c0,1-0.3,1.8-0.9,2.2c-0.6,0.5-1.5,0.7-2.7,0.7h-1.5v2.5h-1.4v-8.4
					h2.9C201.7,3667.6,202.6,3667.9,203.2,3668.4z M202.2,3671.8c0.3-0.3,0.4-0.7,0.4-1.3s-0.2-1-0.5-1.2c-0.4-0.2-0.9-0.4-1.7-0.4
					h-1.4v3.4h1.6C201.3,3672.3,201.9,3672.1,202.2,3671.8z"/>
			</g>
		</g>
	</g>
	<g id="Group_270" transform="translate(0 77)">
		<path id="Rectangle_44" class="st3" d="M37,4994h174c8.3,0,15,6.7,15,15l0,0c0,8.3-6.7,15-15,15H37c-8.3,0-15-6.7-15-15l0,0
			C22,5000.7,28.7,4994,37,4994z"/>
		<g id="Group_267" transform="translate(-14 1412)">
			<g class="st1">
				<path class="st2" d="M55,3601.1l-0.2,0c-1.2,0-2.3-0.4-3.1-1.2c-0.8-0.8-1.3-1.9-1.3-3.1s0.4-2.3,1.3-3.1
					c0.8-0.8,1.9-1.2,3.1-1.2s2.3,0.4,3.1,1.2c0.8,0.8,1.3,1.9,1.3,3.1c0,0.9-0.3,1.8-0.8,2.5c-0.5,0.7-1.2,1.2-2,1.6
					c0.3,0.4,0.6,0.5,1,0.5c0.3,0,0.6-0.1,0.9-0.2c0.3-0.2,0.5-0.4,0.7-0.6l0.8,1.1c-0.7,0.7-1.5,1.1-2.4,1.1c-0.5,0-1-0.1-1.5-0.4
					S55.2,3601.6,55,3601.1z M57,3594.6c-0.6-0.6-1.3-0.9-2.1-0.9s-1.5,0.3-2.1,0.9c-0.6,0.6-0.9,1.3-0.9,2.2s0.3,1.6,0.9,2.2
					c0.6,0.6,1.3,0.9,2.1,0.9s1.5-0.3,2.1-0.9c0.6-0.6,0.9-1.3,0.9-2.2S57.5,3595.2,57,3594.6z"/>
				<path class="st2" d="M65.3,3598.1v-3.5h1.3v6.4h-1.3v-1.2c-0.2,0.4-0.5,0.7-0.9,0.9c-0.4,0.2-0.8,0.3-1.2,0.3
					c-0.7,0-1.3-0.2-1.7-0.7c-0.4-0.4-0.7-1.1-0.7-1.9v-3.9h1.3v3.5c0,1.2,0.5,1.8,1.5,1.8c0.5,0,0.9-0.2,1.2-0.5
					C65.2,3599.1,65.3,3598.7,65.3,3598.1z"/>
				<path class="st2" d="M74.6,3598.4h-5c0,0.5,0.2,0.8,0.6,1.1c0.4,0.3,0.8,0.4,1.3,0.4c0.8,0,1.4-0.3,1.8-0.8l0.8,0.8
					c-0.7,0.7-1.6,1.1-2.7,1.1c-0.9,0-1.7-0.3-2.3-0.9s-0.9-1.4-0.9-2.4s0.3-1.8,1-2.4s1.4-0.9,2.3-0.9c0.9,0,1.6,0.3,2.2,0.8
					c0.6,0.5,0.9,1.2,0.9,2.2V3598.4z M69.5,3597.4h3.7c0-0.5-0.2-0.9-0.5-1.2c-0.3-0.3-0.8-0.4-1.2-0.4c-0.5,0-0.9,0.2-1.3,0.5
					C69.7,3596.5,69.5,3596.9,69.5,3597.4z"/>
				<path class="st2" d="M80.6,3599.1c0,0.6-0.2,1.1-0.7,1.5c-0.4,0.4-1,0.5-1.7,0.5c-0.5,0-0.9-0.1-1.4-0.3
					c-0.5-0.2-0.9-0.4-1.3-0.7l0.6-1c0.7,0.6,1.5,0.8,2.2,0.8c0.3,0,0.5-0.1,0.7-0.2c0.2-0.1,0.3-0.3,0.3-0.5c0-0.3-0.4-0.6-1.3-0.9
					c-0.1,0-0.1,0-0.1,0c-1.3-0.4-2-1-2-1.8c0-0.6,0.2-1.1,0.7-1.4c0.5-0.4,1.1-0.5,1.8-0.5c0.7,0,1.4,0.2,2.1,0.6l-0.5,1
					c-0.5-0.3-1.1-0.5-1.7-0.5c-0.3,0-0.6,0.1-0.8,0.2c-0.2,0.1-0.3,0.3-0.3,0.5c0,0.2,0.1,0.4,0.3,0.5c0.1,0.1,0.3,0.1,0.6,0.2
					c0.3,0.1,0.5,0.1,0.7,0.2c0.2,0.1,0.4,0.1,0.6,0.2s0.4,0.2,0.6,0.3C80.4,3598.1,80.6,3598.5,80.6,3599.1z"/>
				<path class="st2" d="M83.8,3595.7v3.2c0,0.3,0.1,0.5,0.2,0.7c0.2,0.2,0.4,0.3,0.7,0.3s0.6-0.1,0.8-0.4l0.6,0.9
					c-0.5,0.4-1,0.6-1.6,0.6c-0.6,0-1.1-0.2-1.5-0.6c-0.4-0.4-0.6-0.9-0.6-1.6v-3.2h-0.8v-1.1h0.8v-2h1.3v2h1.7v1.1H83.8z"/>
				<path class="st2" d="M92.1,3594.1v0.5h1.7v1.1h-1.7v5.3h-1.3v-5.3h-0.8v-1.1h0.8v-0.5c0-0.7,0.2-1.2,0.6-1.6
					c0.4-0.4,0.9-0.6,1.5-0.6c0.6,0,1.1,0.2,1.6,0.6l-0.6,0.9c-0.3-0.3-0.5-0.4-0.8-0.4s-0.5,0.1-0.7,0.3
					C92.1,3593.6,92.1,3593.8,92.1,3594.1z"/>
				<path class="st2" d="M100.2,3600.2c-0.6,0.6-1.4,1-2.4,1s-1.8-0.3-2.4-1c-0.6-0.6-1-1.4-1-2.3c0-0.9,0.3-1.7,1-2.3
					c0.6-0.6,1.4-1,2.4-1s1.8,0.3,2.4,1c0.6,0.6,1,1.4,1,2.3C101.2,3598.8,100.9,3599.5,100.2,3600.2z M96.4,3599.3
					c0.4,0.4,0.9,0.6,1.4,0.6s1.1-0.2,1.4-0.6c0.4-0.4,0.6-0.9,0.6-1.5c0-0.6-0.2-1.1-0.6-1.5c-0.4-0.4-0.9-0.6-1.4-0.6
					s-1.1,0.2-1.4,0.6c-0.4,0.4-0.6,0.9-0.6,1.5C95.8,3598.5,96,3599,96.4,3599.3z"/>
				<path class="st2" d="M106.1,3595.9c-0.7,0-1.2,0.2-1.5,0.6c-0.3,0.4-0.5,1-0.5,1.7v2.7h-1.3v-6.4h1.3v1.3c0.2-0.4,0.5-0.7,0.9-1
					c0.4-0.3,0.8-0.4,1.2-0.4L106.1,3595.9C106.1,3595.9,106.1,3595.9,106.1,3595.9z"/>
				<path class="st2" d="M113.2,3601.9v-0.9c-1.1-0.1-2.1-0.5-3-1.3l0.9-1c0.7,0.6,1.4,0.9,2.1,1v-2.3c-0.9-0.2-1.6-0.5-2-0.9
					c-0.4-0.4-0.6-0.9-0.6-1.6c0-0.7,0.2-1.3,0.7-1.7c0.5-0.4,1.1-0.7,1.9-0.7v-0.6h0.8v0.6c0.9,0.1,1.7,0.4,2.5,0.9l-0.8,1.1
					c-0.5-0.4-1.1-0.6-1.7-0.7v2.3h0c0.9,0.2,1.6,0.5,2,0.9c0.4,0.4,0.6,0.9,0.6,1.6s-0.2,1.3-0.7,1.7c-0.5,0.4-1.2,0.7-2,0.7v0.9
					H113.2z M112.3,3594.1c-0.2,0.2-0.3,0.4-0.3,0.7c0,0.3,0.1,0.5,0.2,0.6s0.5,0.3,0.9,0.5v-2.1
					C112.8,3593.9,112.5,3594,112.3,3594.1z M114.9,3599.4c0.2-0.2,0.3-0.4,0.3-0.7c0-0.3-0.1-0.5-0.3-0.7c-0.2-0.2-0.5-0.3-1-0.5
					v2.2C114.3,3599.7,114.6,3599.6,114.9,3599.4z"/>
				<path class="st2" d="M117.6,3592.6h3v8.4h-1.3v-7.1h-1.7V3592.6z"/>
				<path class="st2" d="M122.8,3600.9c-0.2-0.2-0.3-0.4-0.3-0.6s0.1-0.5,0.3-0.6c0.2-0.2,0.4-0.3,0.6-0.3c0.2,0,0.5,0.1,0.6,0.3
					s0.3,0.4,0.3,0.6s-0.1,0.5-0.3,0.6s-0.4,0.3-0.6,0.3C123.2,3601.1,123,3601,122.8,3600.9z"/>
				<path class="st2" d="M131,3592.6v1.3h-3.5v2.1c0.4-0.2,0.8-0.3,1.2-0.3c0.8,0,1.5,0.2,2,0.7c0.6,0.5,0.9,1.1,0.9,1.9
					s-0.3,1.5-0.9,2c-0.6,0.5-1.3,0.8-2.2,0.8c-1.1,0-2-0.4-2.7-1.1l0.8-1c0.1,0.1,0.1,0.1,0.3,0.2c0.1,0.1,0.3,0.2,0.7,0.4
					c0.3,0.1,0.7,0.2,1.1,0.2c0.4,0,0.8-0.1,1.1-0.4c0.3-0.2,0.5-0.6,0.5-1s-0.2-0.8-0.5-1.1c-0.3-0.3-0.8-0.4-1.3-0.4
					c-0.5,0-1,0.1-1.5,0.4l-0.6-0.6v-4H131z"/>
				<path class="st2" d="M134.7,3601h-1.4v-8.4h2.2l2.5,5.3l2.5-5.3h2.2v8.4h-1.4v-6.6l-2.9,5.8h-0.8l-2.9-5.8V3601z"/>
				<path class="st2" d="M150.9,3593.7c-0.4,0-0.8,0.1-1,0.3c-0.3,0.2-0.4,0.4-0.4,0.8c0,0.3,0.1,0.6,0.4,0.8
					c0.3,0.2,0.8,0.4,1.7,0.6c0.9,0.2,1.5,0.5,1.9,0.9c0.4,0.4,0.7,0.9,0.7,1.7c0,0.7-0.3,1.3-0.8,1.8s-1.3,0.7-2.2,0.7
					c-1.3,0-2.5-0.5-3.5-1.4l0.9-1.1c0.8,0.7,1.7,1.1,2.6,1.1c0.5,0,0.8-0.1,1.1-0.3c0.3-0.2,0.4-0.5,0.4-0.8s-0.1-0.6-0.4-0.8
					c-0.3-0.2-0.7-0.3-1.3-0.5s-1.1-0.3-1.4-0.4c-0.3-0.1-0.6-0.3-0.9-0.5c-0.5-0.4-0.7-1-0.7-1.7s0.3-1.4,0.8-1.8
					c0.6-0.4,1.3-0.6,2.1-0.6c0.5,0,1.1,0.1,1.6,0.3c0.5,0.2,1,0.4,1.4,0.7l-0.8,1.1c-0.2-0.2-0.6-0.4-1-0.6
					C151.7,3593.8,151.3,3593.7,150.9,3593.7z"/>
				<path class="st2" d="M161.6,3598.4h-5c0,0.5,0.2,0.8,0.6,1.1c0.4,0.3,0.8,0.4,1.3,0.4c0.8,0,1.4-0.3,1.8-0.8l0.8,0.8
					c-0.7,0.7-1.6,1.1-2.7,1.1c-0.9,0-1.7-0.3-2.3-0.9s-0.9-1.4-0.9-2.4s0.3-1.8,1-2.4c0.6-0.6,1.4-0.9,2.3-0.9s1.6,0.3,2.2,0.8
					c0.6,0.5,0.9,1.2,0.9,2.2V3598.4z M156.6,3597.4h3.7c0-0.5-0.2-0.9-0.5-1.2c-0.3-0.3-0.8-0.4-1.2-0.4s-0.9,0.2-1.3,0.5
					S156.6,3596.9,156.6,3597.4z"/>
				<path class="st2" d="M169.1,3598.4h-5c0,0.5,0.2,0.8,0.6,1.1c0.4,0.3,0.8,0.4,1.3,0.4c0.8,0,1.4-0.3,1.8-0.8l0.8,0.8
					c-0.7,0.7-1.6,1.1-2.7,1.1c-0.9,0-1.7-0.3-2.3-0.9s-0.9-1.4-0.9-2.4s0.3-1.8,1-2.4c0.6-0.6,1.4-0.9,2.3-0.9s1.6,0.3,2.2,0.8
					c0.6,0.5,0.9,1.2,0.9,2.2V3598.4z M164.1,3597.4h3.7c0-0.5-0.2-0.9-0.5-1.2c-0.3-0.3-0.8-0.4-1.2-0.4s-0.9,0.2-1.3,0.5
					S164.1,3596.9,164.1,3597.4z"/>
				<path class="st2" d="M171,3600.2c-0.6-0.6-0.9-1.4-0.9-2.4s0.3-1.8,0.9-2.4c0.6-0.6,1.4-0.9,2.2-0.9c0.9,0,1.5,0.4,2.1,1.1v-3.5
					h1.3v8.9h-1.3v-1c-0.5,0.7-1.2,1.1-2.2,1.1C172.3,3601.1,171.6,3600.8,171,3600.2z M171.5,3597.9c0,0.6,0.2,1.1,0.6,1.5
					c0.4,0.4,0.9,0.6,1.4,0.6c0.5,0,1-0.2,1.3-0.6s0.6-0.9,0.6-1.5c0-0.6-0.2-1.1-0.6-1.5c-0.4-0.4-0.8-0.6-1.4-0.6
					c-0.5,0-1,0.2-1.4,0.6C171.7,3596.7,171.5,3597.3,171.5,3597.9z"/>
				<path class="st2" d="M188.8,3595.4c0,1.4-0.6,2.3-1.8,2.6l2.2,3h-1.8l-2-2.8h-1.9v2.8h-1.4v-8.4h3.1c1.3,0,2.2,0.2,2.7,0.6
					C188.5,3593.7,188.8,3594.4,188.8,3595.4z M186.9,3596.6c0.3-0.2,0.4-0.6,0.4-1.2s-0.1-0.9-0.4-1.1s-0.8-0.3-1.6-0.3h-1.8v3h1.8
					C186.1,3596.9,186.6,3596.8,186.9,3596.6z"/>
				<path class="st2" d="M195.8,3600.2c-0.6,0.6-1.4,1-2.4,1s-1.8-0.3-2.4-1c-0.6-0.6-1-1.4-1-2.3c0-0.9,0.3-1.7,1-2.3
					c0.6-0.6,1.4-1,2.4-1s1.8,0.3,2.4,1c0.6,0.6,1,1.4,1,2.3C196.7,3598.8,196.4,3599.5,195.8,3600.2z M191.9,3599.3
					c0.4,0.4,0.9,0.6,1.4,0.6s1.1-0.2,1.4-0.6c0.4-0.4,0.6-0.9,0.6-1.5c0-0.6-0.2-1.1-0.6-1.5c-0.4-0.4-0.9-0.6-1.4-0.6
					s-1.1,0.2-1.4,0.6c-0.4,0.4-0.6,0.9-0.6,1.5C191.4,3598.5,191.6,3599,191.9,3599.3z"/>
				<path class="st2" d="M202.7,3598.1v-3.5h1.3v6.4h-1.3v-1.2c-0.2,0.4-0.5,0.7-0.9,0.9c-0.4,0.2-0.8,0.3-1.2,0.3
					c-0.7,0-1.3-0.2-1.7-0.7c-0.4-0.4-0.7-1.1-0.7-1.9v-3.9h1.3v3.5c0,1.2,0.5,1.8,1.5,1.8c0.5,0,0.9-0.2,1.2-0.5
					C202.6,3599.1,202.7,3598.7,202.7,3598.1z"/>
				<path class="st2" d="M207.4,3597.6v3.5H206v-6.4h1.3v1.2c0.2-0.4,0.5-0.7,0.9-0.9c0.4-0.2,0.8-0.3,1.2-0.3
					c0.7,0,1.3,0.2,1.7,0.7c0.4,0.4,0.7,1.1,0.7,1.9v3.9h-1.3v-3.5c0-1.2-0.5-1.8-1.5-1.8c-0.5,0-0.9,0.2-1.2,0.5
					C207.5,3596.5,207.4,3597,207.4,3597.6z"/>
				<path class="st2" d="M214.3,3600.2c-0.6-0.6-0.9-1.4-0.9-2.4s0.3-1.8,0.9-2.4s1.3-0.9,2.2-0.9c0.9,0,1.5,0.4,2.1,1.1v-3.5h1.3
					v8.9h-1.3v-1c-0.5,0.7-1.2,1.1-2.2,1.1C215.6,3601.1,214.9,3600.8,214.3,3600.2z M214.7,3597.9c0,0.6,0.2,1.1,0.6,1.5
					s0.9,0.6,1.4,0.6c0.5,0,1-0.2,1.3-0.6c0.4-0.4,0.6-0.9,0.6-1.5c0-0.6-0.2-1.1-0.6-1.5c-0.4-0.4-0.8-0.6-1.4-0.6s-1,0.2-1.4,0.6
					C214.9,3596.7,214.7,3597.3,214.7,3597.9z"/>
			</g>
		</g>
	</g>
</g>
</svg>
