<?xml version="1.0" encoding="utf-8"?>
<!-- Generator: Adobe Illustrator 23.0.4, SVG Export Plug-In . SVG Version: 6.00 Build 0)  -->
<svg version="1.1" id="Layer_1" xmlns="http://www.w3.org/2000/svg" xmlns:xlink="http://www.w3.org/1999/xlink" x="0px" y="0px"
	 viewBox="0 0 268 65" style="enable-background:new 0 0 268 65;" xml:space="preserve">
<style type="text/css">
	.st0{fill:#026DFF;}
	.st1{enable-background:new    ;}
	.st2{fill:#FFFFFF;}
	.st3{fill:#13137C;}
</style>
<g id="Group_290" transform="translate(-22 -3853)">
	<path id="Rectangle_40" class="st0" d="M37,3853h238c8.3,0,15,6.7,15,15l0,0c0,8.3-6.7,15-15,15H37c-8.3,0-15-6.7-15-15l0,0
		C22,3859.7,28.7,3853,37,3853z"/>
	<g id="Group_255" transform="translate(-6 196)">
		<g class="st1">
			<path class="st2" d="M44.2,3668.7c-0.4,0-0.8,0.1-1,0.3s-0.4,0.4-0.4,0.8c0,0.3,0.1,0.6,0.4,0.8c0.3,0.2,0.8,0.4,1.7,0.6
				s1.5,0.5,1.9,0.9s0.7,0.9,0.7,1.7c0,0.7-0.3,1.3-0.8,1.8c-0.6,0.5-1.3,0.7-2.2,0.7c-1.3,0-2.5-0.5-3.5-1.4l0.9-1.1
				c0.8,0.7,1.7,1.1,2.6,1.1c0.5,0,0.8-0.1,1.1-0.3c0.3-0.2,0.4-0.5,0.4-0.8s-0.1-0.6-0.4-0.8c-0.3-0.2-0.7-0.3-1.3-0.5
				s-1.1-0.3-1.4-0.4c-0.3-0.1-0.6-0.3-0.9-0.5c-0.5-0.4-0.7-1-0.7-1.7s0.3-1.4,0.8-1.8s1.3-0.6,2.1-0.6c0.5,0,1.1,0.1,1.6,0.3
				s1,0.4,1.4,0.7l-0.8,1.1c-0.2-0.2-0.6-0.4-1-0.6C45,3668.8,44.6,3668.7,44.2,3668.7z"/>
			<path class="st2" d="M54.3,3675.2c-0.6,0.6-1.4,1-2.4,1s-1.8-0.3-2.4-1c-0.6-0.6-1-1.4-1-2.3c0-0.9,0.3-1.7,1-2.3
				c0.6-0.6,1.4-1,2.4-1s1.8,0.3,2.4,1c0.6,0.6,1,1.4,1,2.3C55.3,3673.8,55,3674.5,54.3,3675.2z M50.5,3674.3
				c0.4,0.4,0.9,0.6,1.4,0.6s1.1-0.2,1.4-0.6c0.4-0.4,0.6-0.9,0.6-1.5c0-0.6-0.2-1.1-0.6-1.5c-0.4-0.4-0.9-0.6-1.4-0.6
				s-1.1,0.2-1.4,0.6c-0.4,0.4-0.6,0.9-0.6,1.5C49.9,3673.5,50.1,3674,50.5,3674.3z"/>
			<path class="st2" d="M58.2,3676h-1.3v-8.9h1.3V3676z"/>
			<path class="st2" d="M60.6,3675.2c-0.6-0.6-0.9-1.4-0.9-2.4s0.3-1.8,0.9-2.4c0.6-0.6,1.4-0.9,2.2-0.9s1.5,0.4,2.1,1.1v-3.5h1.3
				v8.9h-1.3v-1c-0.5,0.7-1.2,1.1-2.2,1.1C61.9,3676.1,61.2,3675.8,60.6,3675.2z M61,3672.9c0,0.6,0.2,1.1,0.6,1.5
				c0.4,0.4,0.9,0.6,1.4,0.6s1-0.2,1.3-0.6c0.4-0.4,0.6-0.9,0.6-1.5c0-0.6-0.2-1.1-0.6-1.5c-0.4-0.4-0.8-0.6-1.4-0.6
				c-0.5,0-1,0.2-1.4,0.6C61.2,3671.7,61,3672.3,61,3672.9z"/>
			<path class="st2" d="M73.1,3670.7v3.2c0,0.3,0.1,0.5,0.2,0.7c0.2,0.2,0.4,0.3,0.7,0.3s0.6-0.1,0.8-0.4l0.6,0.9
				c-0.5,0.4-1,0.6-1.6,0.6c-0.6,0-1.1-0.2-1.5-0.6c-0.4-0.4-0.6-0.9-0.6-1.6v-3.2H71v-1.1h0.8v-2h1.3v2h1.7v1.1H73.1z"/>
			<path class="st2" d="M81.8,3675.2c-0.6,0.6-1.4,1-2.4,1s-1.8-0.3-2.4-1c-0.6-0.6-1-1.4-1-2.3c0-0.9,0.3-1.7,1-2.3
				c0.6-0.6,1.4-1,2.4-1s1.8,0.3,2.4,1c0.6,0.6,1,1.4,1,2.3C82.7,3673.8,82.4,3674.5,81.8,3675.2z M77.9,3674.3
				c0.4,0.4,0.9,0.6,1.4,0.6s1.1-0.2,1.4-0.6c0.4-0.4,0.6-0.9,0.6-1.5c0-0.6-0.2-1.1-0.6-1.5c-0.4-0.4-0.9-0.6-1.4-0.6
				s-1.1,0.2-1.4,0.6c-0.4,0.4-0.6,0.9-0.6,1.5C77.3,3673.5,77.5,3674,77.9,3674.3z"/>
			<path class="st2" d="M89.1,3676h-1.4v-8.4h2.2l2.5,5.3l2.5-5.3h2.2v8.4h-1.4v-6.6l-2.9,5.8h-0.8l-2.9-5.8V3676z"/>
			<path class="st2" d="M102.2,3676.1c-0.9,0-1.7-0.3-2.3-0.9c-0.6-0.6-1-1.4-1-2.4c0-1,0.3-1.8,1-2.4c0.7-0.6,1.5-0.9,2.4-0.9
				s1.8,0.3,2.4,1l-0.8,1c-0.6-0.5-1.1-0.7-1.7-0.7c-0.6,0-1,0.2-1.5,0.6c-0.4,0.4-0.6,0.9-0.6,1.4s0.2,1.1,0.6,1.5
				c0.4,0.4,0.9,0.6,1.5,0.6c0.6,0,1.2-0.3,1.7-0.8l0.8,0.9C104.1,3675.7,103.2,3676.1,102.2,3676.1z"/>
			<path class="st2" d="M106.4,3667.6h1.4v4.1l3.8-4.1h1.8l-3.4,3.7l3.4,4.7h-1.7l-2.8-3.7l-1.2,1.3v2.4h-1.4V3667.6z"/>
			<path class="st2" d="M120.6,3673.4h-5c0,0.5,0.2,0.8,0.6,1.1c0.4,0.3,0.8,0.4,1.3,0.4c0.8,0,1.4-0.3,1.8-0.8l0.8,0.8
				c-0.7,0.7-1.6,1.1-2.7,1.1c-0.9,0-1.7-0.3-2.3-0.9s-0.9-1.4-0.9-2.4s0.3-1.8,1-2.4s1.4-0.9,2.3-0.9c0.9,0,1.6,0.3,2.2,0.8
				c0.6,0.5,0.9,1.2,0.9,2.2V3673.4z M115.6,3672.4h3.7c0-0.5-0.2-0.9-0.5-1.2c-0.3-0.3-0.8-0.4-1.2-0.4c-0.5,0-0.9,0.2-1.3,0.5
				C115.8,3671.5,115.6,3671.9,115.6,3672.4z"/>
			<path class="st2" d="M126.6,3674.1c0,0.6-0.2,1.1-0.7,1.5c-0.4,0.4-1,0.5-1.7,0.5c-0.5,0-0.9-0.1-1.4-0.3
				c-0.5-0.2-0.9-0.4-1.3-0.7l0.6-1c0.7,0.6,1.5,0.8,2.2,0.8c0.3,0,0.5-0.1,0.7-0.2c0.2-0.1,0.3-0.3,0.3-0.5c0-0.3-0.4-0.6-1.3-0.9
				c-0.1,0-0.1,0-0.1,0c-1.3-0.4-2-1-2-1.8c0-0.6,0.2-1.1,0.7-1.4c0.5-0.4,1.1-0.5,1.8-0.5c0.7,0,1.4,0.2,2.1,0.6l-0.5,1
				c-0.5-0.3-1.1-0.5-1.7-0.5c-0.3,0-0.6,0.1-0.8,0.2c-0.2,0.1-0.3,0.3-0.3,0.5c0,0.2,0.1,0.4,0.3,0.5c0.1,0.1,0.3,0.1,0.6,0.2
				c0.3,0.1,0.5,0.1,0.7,0.2c0.2,0.1,0.4,0.1,0.6,0.2s0.4,0.2,0.6,0.3C126.4,3673.1,126.6,3673.5,126.6,3674.1z"/>
			<path class="st2" d="M132.7,3674.1c0,0.6-0.2,1.1-0.7,1.5c-0.4,0.4-1,0.5-1.7,0.5c-0.5,0-0.9-0.1-1.4-0.3
				c-0.5-0.2-0.9-0.4-1.3-0.7l0.6-1c0.7,0.6,1.5,0.8,2.2,0.8c0.3,0,0.5-0.1,0.7-0.2c0.2-0.1,0.3-0.3,0.3-0.5c0-0.3-0.4-0.6-1.3-0.9
				c-0.1,0-0.1,0-0.1,0c-1.3-0.4-2-1-2-1.8c0-0.6,0.2-1.1,0.7-1.4c0.5-0.4,1.1-0.5,1.8-0.5c0.7,0,1.4,0.2,2.1,0.6l-0.5,1
				c-0.5-0.3-1.1-0.5-1.7-0.5c-0.3,0-0.6,0.1-0.8,0.2c-0.2,0.1-0.3,0.3-0.3,0.5c0,0.2,0.1,0.4,0.3,0.5c0.1,0.1,0.3,0.1,0.6,0.2
				c0.3,0.1,0.5,0.1,0.7,0.2c0.2,0.1,0.4,0.1,0.6,0.2s0.4,0.2,0.6,0.3C132.5,3673.1,132.7,3673.5,132.7,3674.1z"/>
			<path class="st2" d="M139.6,3675.2c-0.6,0.6-1.4,1-2.4,1s-1.8-0.3-2.4-1c-0.6-0.6-1-1.4-1-2.3c0-0.9,0.3-1.7,1-2.3
				c0.6-0.6,1.4-1,2.4-1s1.8,0.3,2.4,1c0.6,0.6,1,1.4,1,2.3C140.5,3673.8,140.2,3674.5,139.6,3675.2z M135.7,3674.3
				c0.4,0.4,0.9,0.6,1.4,0.6s1.1-0.2,1.4-0.6c0.4-0.4,0.6-0.9,0.6-1.5c0-0.6-0.2-1.1-0.6-1.5c-0.4-0.4-0.9-0.6-1.4-0.6
				s-1.1,0.2-1.4,0.6c-0.4,0.4-0.6,0.9-0.6,1.5C135.2,3673.5,135.4,3674,135.7,3674.3z"/>
			<path class="st2" d="M143.4,3672.6v3.5h-1.3v-6.4h1.3v1.2c0.2-0.4,0.5-0.7,0.9-0.9c0.4-0.2,0.8-0.3,1.2-0.3
				c0.7,0,1.3,0.2,1.7,0.7c0.4,0.4,0.7,1.1,0.7,1.9v3.9h-1.3v-3.5c0-1.2-0.5-1.8-1.5-1.8c-0.5,0-0.9,0.2-1.2,0.5
				C143.6,3671.5,143.4,3672,143.4,3672.6z"/>
			<path class="st2" d="M157.1,3674.7c0.5,0,0.9-0.1,1.3-0.2s0.7-0.4,1.1-0.8l0.9,0.9c-0.9,1-2,1.5-3.2,1.5c-1.3,0-2.3-0.4-3.2-1.2
				s-1.3-1.8-1.3-3.1s0.4-2.3,1.3-3.1s1.9-1.2,3.2-1.2c1.3,0,2.4,0.5,3.3,1.4l-0.9,1c-0.4-0.4-0.8-0.7-1.1-0.8
				c-0.4-0.2-0.8-0.2-1.3-0.2c-0.8,0-1.6,0.3-2.1,0.8c-0.6,0.5-0.9,1.2-0.9,2.1c0,0.9,0.3,1.6,0.9,2.1
				C155.7,3674.5,156.3,3674.7,157.1,3674.7z"/>
			<path class="st2" d="M167.1,3675.2c-0.6,0.6-1.4,1-2.4,1s-1.8-0.3-2.4-1c-0.6-0.6-1-1.4-1-2.3c0-0.9,0.3-1.7,1-2.3
				c0.6-0.6,1.4-1,2.4-1s1.8,0.3,2.4,1c0.6,0.6,1,1.4,1,2.3C168.1,3673.8,167.7,3674.5,167.1,3675.2z M163.3,3674.3
				c0.4,0.4,0.9,0.6,1.4,0.6s1.1-0.2,1.4-0.6c0.4-0.4,0.6-0.9,0.6-1.5c0-0.6-0.2-1.1-0.6-1.5c-0.4-0.4-0.9-0.6-1.4-0.6
				s-1.1,0.2-1.4,0.6c-0.4,0.4-0.6,0.9-0.6,1.5C162.7,3673.5,162.9,3674,163.3,3674.3z"/>
			<path class="st2" d="M172.9,3670.9c-0.7,0-1.2,0.2-1.5,0.6c-0.3,0.4-0.5,1-0.5,1.7v2.7h-1.3v-6.4h1.3v1.3c0.2-0.4,0.5-0.7,0.9-1
				c0.4-0.3,0.8-0.4,1.2-0.4L172.9,3670.9C173,3670.9,173,3670.9,172.9,3670.9z"/>
			<path class="st2" d="M177.8,3669.6c0.9,0,1.6,0.3,2.2,0.9c0.6,0.6,0.9,1.4,0.9,2.4c0,1-0.3,1.8-0.9,2.4c-0.6,0.6-1.3,0.9-2.1,0.9
				c-0.8,0-1.5-0.4-2.2-1.1v3.3h-1.3v-8.7h1.3v1.1C176.2,3670,176.9,3669.6,177.8,3669.6z M175.7,3672.9c0,0.6,0.2,1.1,0.6,1.5
				c0.4,0.4,0.8,0.6,1.3,0.6c0.5,0,1-0.2,1.4-0.6c0.4-0.4,0.6-0.9,0.6-1.5s-0.2-1.1-0.6-1.5c-0.4-0.4-0.8-0.6-1.4-0.6
				c-0.5,0-1,0.2-1.4,0.6C175.8,3671.7,175.7,3672.2,175.7,3672.9z"/>
			<path class="st2" d="M182.5,3675.9c-0.2-0.2-0.3-0.4-0.3-0.6s0.1-0.5,0.3-0.6s0.4-0.3,0.6-0.3s0.5,0.1,0.6,0.3s0.3,0.4,0.3,0.6
				s-0.1,0.5-0.3,0.6s-0.4,0.3-0.6,0.3S182.7,3676,182.5,3675.9z"/>
			<path class="st2" d="M190.7,3669.1v0.5h1.7v1.1h-1.7v5.3h-1.3v-5.3h-0.8v-1.1h0.8v-0.5c0-0.7,0.2-1.2,0.6-1.6
				c0.4-0.4,0.9-0.6,1.5-0.6s1.1,0.2,1.6,0.6l-0.6,0.9c-0.3-0.3-0.5-0.4-0.8-0.4s-0.5,0.1-0.7,0.3
				C190.8,3668.6,190.7,3668.8,190.7,3669.1z"/>
			<path class="st2" d="M198.9,3675.2c-0.6,0.6-1.4,1-2.4,1s-1.8-0.3-2.4-1c-0.6-0.6-1-1.4-1-2.3c0-0.9,0.3-1.7,1-2.3
				c0.6-0.6,1.4-1,2.4-1s1.8,0.3,2.4,1c0.6,0.6,1,1.4,1,2.3C199.8,3673.8,199.5,3674.5,198.9,3675.2z M195,3674.3
				c0.4,0.4,0.9,0.6,1.4,0.6s1.1-0.2,1.4-0.6c0.4-0.4,0.6-0.9,0.6-1.5c0-0.6-0.2-1.1-0.6-1.5c-0.4-0.4-0.9-0.6-1.4-0.6
				s-1.1,0.2-1.4,0.6c-0.4,0.4-0.6,0.9-0.6,1.5C194.5,3673.5,194.6,3674,195,3674.3z"/>
			<path class="st2" d="M204.7,3670.9c-0.7,0-1.2,0.2-1.5,0.6c-0.3,0.4-0.5,1-0.5,1.7v2.7h-1.3v-6.4h1.3v1.3c0.2-0.4,0.5-0.7,0.9-1
				c0.4-0.3,0.8-0.4,1.2-0.4L204.7,3670.9C204.8,3670.9,204.7,3670.9,204.7,3670.9z"/>
		</g>
		<g class="st1">
			<path class="st2" d="M211.7,3676.9v-0.9c-1-0.2-2-0.6-2.8-1.4l1.1-1.4c0.6,0.5,1.2,0.9,1.7,1v-1.8c-0.8-0.2-1.5-0.5-1.8-0.9
				c-0.4-0.4-0.6-0.9-0.6-1.6c0-0.7,0.2-1.2,0.7-1.7c0.4-0.4,1-0.7,1.8-0.8v-0.6h1.3v0.6c0.8,0.1,1.6,0.4,2.4,1l-1,1.4
				c-0.5-0.4-1-0.6-1.4-0.7v1.7c0.9,0.2,1.5,0.5,1.9,0.9s0.6,0.9,0.6,1.6c0,0.7-0.2,1.3-0.7,1.7c-0.5,0.4-1.1,0.7-1.8,0.8v0.8H211.7
				z M211.7,3669.2c-0.3,0.1-0.5,0.3-0.5,0.7s0.2,0.6,0.5,0.7V3669.2z M213.6,3673.6c0-0.2,0-0.3-0.1-0.4c-0.1-0.1-0.2-0.2-0.5-0.3
				v1.5C213.4,3674.2,213.6,3674,213.6,3673.6z"/>
			<path class="st2" d="M217,3669.2v-1.6h5.1v1.3l-1.7,2c0.7,0.1,1.2,0.4,1.6,0.8s0.6,1,0.6,1.6c0,0.9-0.3,1.6-0.9,2.1
				c-0.6,0.5-1.4,0.8-2.3,0.8s-1.9-0.3-2.8-1l0.8-1.5c0.8,0.6,1.5,0.8,2.1,0.8c0.4,0,0.7-0.1,0.9-0.3c0.2-0.2,0.4-0.5,0.4-0.8
				c0-0.3-0.1-0.6-0.4-0.8c-0.3-0.2-0.7-0.3-1.2-0.3c-0.3,0-0.6,0.1-1.1,0.2v-1.4l1.6-1.9H217z"/>
			<path class="st2" d="M231.7,3670.8l-2.3,4.6h-1.1l-2.3-4.6v5.3h-1.9v-8.4h2.5l2.2,4.6l2.2-4.6h2.5v8.4h-1.9V3670.8z"/>
		</g>
		<g class="st1">
			<path class="st2" d="M238.8,3668.4c-0.2-0.2-0.3-0.4-0.3-0.6s0.1-0.4,0.3-0.6s0.4-0.3,0.6-0.3s0.4,0.1,0.6,0.3s0.3,0.4,0.3,0.6
				s-0.1,0.4-0.3,0.6s-0.4,0.3-0.6,0.3S239,3668.5,238.8,3668.4z M240.1,3676h-1.3v-6.4h1.3V3676z"/>
			<path class="st2" d="M243.4,3672.6v3.5H242v-6.4h1.3v1.2c0.2-0.4,0.5-0.7,0.9-0.9c0.4-0.2,0.8-0.3,1.2-0.3c0.7,0,1.3,0.2,1.7,0.7
				c0.4,0.4,0.7,1.1,0.7,1.9v3.9h-1.3v-3.5c0-1.2-0.5-1.8-1.5-1.8c-0.5,0-0.9,0.2-1.2,0.5C243.5,3671.5,243.4,3672,243.4,3672.6z"/>
			<path class="st2" d="M256.5,3670.9c0.2-0.3,0.4-0.7,0.4-1s-0.1-0.6-0.4-0.9s-0.6-0.4-1-0.4c-0.7,0-1.3,0.4-1.7,1.1l-1.1-0.7
				c0.4-0.6,0.8-1,1.2-1.2c0.4-0.3,1-0.4,1.7-0.4s1.3,0.2,1.8,0.7c0.5,0.4,0.8,1,0.8,1.8c0,0.4-0.1,0.8-0.3,1.2
				c-0.2,0.4-0.6,0.9-1.2,1.5l-2,2h3.8v1.4h-5.7v-1.2l2.5-2.6C255.9,3671.7,256.3,3671.2,256.5,3670.9z"/>
			<path class="st2" d="M260.7,3674.9c-0.6-0.8-0.9-1.8-0.9-3.2s0.3-2.4,0.9-3.2c0.6-0.8,1.4-1.2,2.6-1.2c1.1,0,2,0.4,2.6,1.2
				s0.9,1.8,0.9,3.2s-0.3,2.4-0.9,3.2s-1.4,1.2-2.6,1.2C262.1,3676.1,261.3,3675.7,260.7,3674.9z M261.7,3669.5
				c-0.3,0.6-0.5,1.3-0.5,2.3c0,0.9,0.2,1.7,0.5,2.3c0.3,0.6,0.8,0.9,1.6,0.9c0.7,0,1.2-0.3,1.5-0.9c0.3-0.6,0.5-1.3,0.5-2.3
				c0-0.9-0.2-1.7-0.5-2.3c-0.3-0.6-0.8-0.9-1.5-0.9C262.6,3668.7,262.1,3668.9,261.7,3669.5z"/>
			<path class="st2" d="M267.8,3667.6h3v8.4h-1.3v-7.1h-1.7V3667.6z"/>
			<path class="st2" d="M277.8,3667.6v1.3h-3.5v2.1c0.4-0.2,0.8-0.3,1.2-0.3c0.8,0,1.5,0.2,2,0.7c0.6,0.5,0.9,1.1,0.9,1.9
				s-0.3,1.5-0.9,2c-0.6,0.5-1.3,0.8-2.2,0.8c-1.1,0-2-0.4-2.7-1.1l0.8-1c0.1,0.1,0.1,0.1,0.3,0.2c0.1,0.1,0.3,0.2,0.7,0.4
				c0.3,0.1,0.7,0.2,1.1,0.2s0.8-0.1,1.1-0.4s0.5-0.6,0.5-1s-0.2-0.8-0.5-1.1s-0.8-0.4-1.3-0.4c-0.5,0-1,0.1-1.5,0.4l-0.6-0.6v-4
				H277.8z"/>
		</g>
	</g>
	<path id="Rectangle_41" class="st3" d="M37,3888h148c8.3,0,15,6.7,15,15l0,0c0,8.3-6.7,15-15,15H37c-8.3,0-15-6.7-15-15l0,0
		C22,3894.7,28.7,3888,37,3888z"/>
	<g id="Group_254" transform="translate(-14 306)">
		<g class="st1">
			<path class="st2" d="M53.5,3593.7c-0.4,0-0.8,0.1-1,0.3s-0.4,0.4-0.4,0.8c0,0.3,0.1,0.6,0.4,0.8c0.3,0.2,0.8,0.4,1.7,0.6
				s1.5,0.5,1.9,0.9s0.7,0.9,0.7,1.7c0,0.7-0.3,1.3-0.8,1.8c-0.6,0.5-1.3,0.7-2.2,0.7c-1.3,0-2.5-0.5-3.5-1.4l0.9-1.1
				c0.8,0.7,1.7,1.1,2.6,1.1c0.5,0,0.8-0.1,1.1-0.3c0.3-0.2,0.4-0.5,0.4-0.8s-0.1-0.6-0.4-0.8c-0.3-0.2-0.7-0.3-1.3-0.5
				s-1.1-0.3-1.4-0.4c-0.3-0.1-0.6-0.3-0.9-0.5c-0.5-0.4-0.7-1-0.7-1.7s0.3-1.4,0.8-1.8s1.3-0.6,2.1-0.6c0.5,0,1.1,0.1,1.6,0.3
				s1,0.4,1.4,0.7l-0.8,1.1c-0.2-0.2-0.6-0.4-1-0.6C54.3,3593.8,53.9,3593.7,53.5,3593.7z"/>
			<path class="st2" d="M64.3,3598.4h-5c0,0.5,0.2,0.8,0.6,1.1c0.4,0.3,0.8,0.4,1.3,0.4c0.8,0,1.4-0.3,1.8-0.8l0.8,0.8
				c-0.7,0.7-1.6,1.1-2.7,1.1c-0.9,0-1.7-0.3-2.3-0.9s-0.9-1.4-0.9-2.4s0.3-1.8,1-2.4s1.4-0.9,2.3-0.9c0.9,0,1.6,0.3,2.2,0.8
				c0.6,0.5,0.9,1.2,0.9,2.2V3598.4z M59.3,3597.4h3.7c0-0.5-0.2-0.9-0.5-1.2c-0.3-0.3-0.8-0.4-1.2-0.4c-0.5,0-0.9,0.2-1.3,0.5
				C59.5,3596.5,59.3,3596.9,59.3,3597.4z"/>
			<path class="st2" d="M71.7,3598.4h-5c0,0.5,0.2,0.8,0.6,1.1c0.4,0.3,0.8,0.4,1.3,0.4c0.8,0,1.4-0.3,1.8-0.8l0.8,0.8
				c-0.7,0.7-1.6,1.1-2.7,1.1c-0.9,0-1.7-0.3-2.3-0.9s-0.9-1.4-0.9-2.4s0.3-1.8,1-2.4s1.4-0.9,2.3-0.9c0.9,0,1.6,0.3,2.2,0.8
				c0.6,0.5,0.9,1.2,0.9,2.2V3598.4z M66.7,3597.4h3.7c0-0.5-0.2-0.9-0.5-1.2c-0.3-0.3-0.8-0.4-1.2-0.4c-0.5,0-0.9,0.2-1.3,0.5
				C66.9,3596.5,66.7,3596.9,66.7,3597.4z"/>
			<path class="st2" d="M73.7,3600.2c-0.6-0.6-0.9-1.4-0.9-2.4s0.3-1.8,0.9-2.4c0.6-0.6,1.4-0.9,2.2-0.9s1.5,0.4,2.1,1.1v-3.5h1.3
				v8.9h-1.3v-1c-0.5,0.7-1.2,1.1-2.2,1.1C75,3601.1,74.3,3600.8,73.7,3600.2z M74.1,3597.9c0,0.6,0.2,1.1,0.6,1.5
				c0.4,0.4,0.9,0.6,1.4,0.6s1-0.2,1.3-0.6c0.4-0.4,0.6-0.9,0.6-1.5c0-0.6-0.2-1.1-0.6-1.5c-0.4-0.4-0.8-0.6-1.4-0.6
				c-0.5,0-1,0.2-1.4,0.6C74.3,3596.7,74.1,3597.3,74.1,3597.9z"/>
			<path class="st2" d="M91.4,3595.4c0,1.4-0.6,2.3-1.8,2.6l2.2,3H90l-2-2.8h-1.9v2.8h-1.4v-8.4h3.1c1.3,0,2.2,0.2,2.7,0.6
				C91.1,3593.7,91.4,3594.4,91.4,3595.4z M89.5,3596.6c0.3-0.2,0.4-0.6,0.4-1.2s-0.1-0.9-0.4-1.1s-0.8-0.3-1.6-0.3h-1.8v3h1.8
				C88.7,3596.9,89.2,3596.8,89.5,3596.6z"/>
			<path class="st2" d="M98.4,3600.2c-0.6,0.6-1.4,1-2.4,1s-1.8-0.3-2.4-1c-0.6-0.6-1-1.4-1-2.3c0-0.9,0.3-1.7,1-2.3
				c0.6-0.6,1.4-1,2.4-1s1.8,0.3,2.4,1c0.6,0.6,1,1.4,1,2.3C99.4,3598.8,99.1,3599.5,98.4,3600.2z M94.6,3599.3
				c0.4,0.4,0.9,0.6,1.4,0.6s1.1-0.2,1.4-0.6c0.4-0.4,0.6-0.9,0.6-1.5c0-0.6-0.2-1.1-0.6-1.5c-0.4-0.4-0.9-0.6-1.4-0.6
				s-1.1,0.2-1.4,0.6c-0.4,0.4-0.6,0.9-0.6,1.5C94,3598.5,94.2,3599,94.6,3599.3z"/>
			<path class="st2" d="M105.4,3598.1v-3.5h1.3v6.4h-1.3v-1.2c-0.2,0.4-0.5,0.7-0.9,0.9c-0.4,0.2-0.8,0.3-1.2,0.3
				c-0.7,0-1.3-0.2-1.7-0.7c-0.4-0.4-0.7-1.1-0.7-1.9v-3.9h1.3v3.5c0,1.2,0.5,1.8,1.5,1.8c0.5,0,0.9-0.2,1.2-0.5
				C105.2,3599.1,105.4,3598.7,105.4,3598.1z"/>
			<path class="st2" d="M110,3597.6v3.5h-1.3v-6.4h1.3v1.2c0.2-0.4,0.5-0.7,0.9-0.9c0.4-0.2,0.8-0.3,1.2-0.3c0.7,0,1.3,0.2,1.7,0.7
				c0.4,0.4,0.7,1.1,0.7,1.9v3.9h-1.3v-3.5c0-1.2-0.5-1.8-1.5-1.8c-0.5,0-0.9,0.2-1.2,0.5C110.2,3596.5,110,3597,110,3597.6z"/>
			<path class="st2" d="M116.9,3600.2c-0.6-0.6-0.9-1.4-0.9-2.4s0.3-1.8,0.9-2.4c0.6-0.6,1.4-0.9,2.2-0.9s1.5,0.4,2.1,1.1v-3.5h1.3
				v8.9h-1.3v-1c-0.5,0.7-1.2,1.1-2.2,1.1C118.2,3601.1,117.5,3600.8,116.9,3600.2z M117.3,3597.9c0,0.6,0.2,1.1,0.6,1.5
				c0.4,0.4,0.9,0.6,1.4,0.6s1-0.2,1.3-0.6c0.4-0.4,0.6-0.9,0.6-1.5c0-0.6-0.2-1.1-0.6-1.5c-0.4-0.4-0.8-0.6-1.4-0.6
				c-0.5,0-1,0.2-1.4,0.6C117.5,3596.7,117.3,3597.3,117.3,3597.9z"/>
		</g>
		<g class="st1">
			<path class="st2" d="M130,3601.9v-0.9c-1-0.2-2-0.6-2.8-1.4l1.1-1.4c0.6,0.5,1.2,0.9,1.7,1v-1.8c-0.8-0.2-1.5-0.5-1.8-0.9
				c-0.4-0.4-0.6-0.9-0.6-1.6c0-0.7,0.2-1.2,0.7-1.7c0.4-0.4,1-0.7,1.8-0.8v-0.6h1.3v0.6c0.8,0.1,1.6,0.4,2.4,1l-1,1.4
				c-0.5-0.4-1-0.6-1.4-0.7v1.7c0.9,0.2,1.5,0.5,1.9,0.9s0.6,0.9,0.6,1.6c0,0.7-0.2,1.3-0.7,1.7c-0.5,0.4-1.1,0.7-1.8,0.8v0.8H130z
				 M130,3594.2c-0.3,0.1-0.5,0.3-0.5,0.7s0.2,0.6,0.5,0.7V3594.2z M131.9,3598.6c0-0.2,0-0.3-0.1-0.4c-0.1-0.1-0.2-0.2-0.5-0.3v1.5
				C131.7,3599.2,131.9,3599,131.9,3598.6z"/>
			<path class="st2" d="M138.7,3594.1c-0.5,0-0.9,0.2-1.2,0.5c-0.3,0.3-0.5,0.8-0.5,1.4c0.5-0.3,1.1-0.5,1.7-0.5
				c0.8,0,1.4,0.3,2,0.8c0.5,0.5,0.8,1.2,0.8,2c0,0.9-0.3,1.5-0.8,2s-1.3,0.8-2.1,0.8c-0.6,0-1.1-0.1-1.5-0.3c-0.4-0.2-0.8-0.5-1-1
				c-0.5-0.8-0.7-1.8-0.7-3c0-0.8,0.1-1.4,0.3-2s0.4-1,0.8-1.4c0.6-0.7,1.4-1,2.4-1c0.4,0,0.8,0.1,1.1,0.2c0.4,0.1,0.6,0.2,0.8,0.4
				c0.2,0.1,0.4,0.3,0.6,0.5l-0.9,1.3c0,0-0.1-0.1-0.2-0.2s-0.3-0.2-0.5-0.3S138.9,3594.1,138.7,3594.1z M138.4,3597.1
				c-0.4,0-0.7,0.1-0.9,0.3c-0.3,0.2-0.4,0.5-0.4,0.9c0,0.4,0.1,0.7,0.4,0.9c0.2,0.3,0.5,0.4,0.9,0.4c0.4,0,0.7-0.1,0.9-0.3
				c0.2-0.2,0.4-0.5,0.4-0.9c0-0.4-0.1-0.7-0.3-0.9C139.1,3597.2,138.8,3597.1,138.4,3597.1z"/>
			<path class="st2" d="M148,3592.6v1.6h-3.3v1.4c0.2-0.1,0.5-0.1,0.9-0.1c0.8,0,1.5,0.2,2.1,0.7c0.6,0.5,0.9,1.1,0.9,2
				c0,0.8-0.3,1.5-0.9,2.1s-1.4,0.8-2.2,0.8c-1.1,0-2.1-0.4-2.8-1.3l1-1.4c0.1,0.1,0.2,0.2,0.3,0.3c0.1,0.1,0.3,0.2,0.7,0.4
				c0.3,0.2,0.6,0.3,1,0.3s0.6-0.1,0.9-0.3c0.2-0.2,0.4-0.5,0.4-0.9s-0.1-0.7-0.4-0.9c-0.3-0.2-0.6-0.3-1-0.3
				c-0.4,0-0.9,0.2-1.5,0.5l-0.8-0.8v-4.1H148z"/>
			<path class="st2" d="M153.3,3601.1c-1.2,0-2-0.4-2.6-1.2c-0.6-0.8-0.9-1.8-0.9-3.2c0-1.3,0.3-2.4,0.9-3.2
				c0.6-0.8,1.4-1.2,2.6-1.2c1.2,0,2,0.4,2.6,1.2c0.6,0.8,0.9,1.8,0.9,3.2c0,1.3-0.3,2.4-0.9,3.2
				C155.3,3600.7,154.4,3601.1,153.3,3601.1z M152,3594.8c-0.3,0.5-0.4,1.2-0.4,2s0.1,1.5,0.4,2c0.3,0.5,0.7,0.8,1.2,0.8
				c0.6,0,1-0.3,1.2-0.8s0.4-1.2,0.4-2s-0.1-1.5-0.4-2s-0.7-0.8-1.2-0.8C152.7,3594,152.3,3594.3,152,3594.8z"/>
			<path class="st2" d="M160.1,3601h-1.8v-8.9h1.8v4.6l2-2.1h2.3l-2.5,2.6l2.6,3.9h-2.1l-1.6-2.5l-0.6,0.6V3601z"/>
		</g>
		<g class="st1">
			<path class="st2" d="M165.3,3600.3c0-0.3,0.1-0.5,0.3-0.6c0.2-0.2,0.4-0.3,0.6-0.3c0.2,0,0.4,0.1,0.6,0.3s0.3,0.4,0.3,0.6
				c0,0.2-0.1,0.5-0.3,0.9l-0.7,1.2h-0.7l0.4-1.2C165.5,3600.9,165.3,3600.6,165.3,3600.3z"/>
			<path class="st2" d="M173.8,3601h-1.4v-8.4h2.2l2.5,5.3l2.5-5.3h2.2v8.4h-1.4v-6.6l-2.9,5.8h-0.8l-2.9-5.8V3601z"/>
			<path class="st2" d="M188,3601h-1.6l-3.4-8.4h1.6l2.6,6.3l2.6-6.3h1.6L188,3601z"/>
			<path class="st2" d="M198.2,3593.4c0.6,0.5,0.9,1.2,0.9,2.3c0,1-0.3,1.8-0.9,2.2c-0.6,0.5-1.5,0.7-2.7,0.7H194v2.5h-1.4v-8.4h2.9
				C196.7,3592.6,197.6,3592.9,198.2,3593.4z M197.2,3596.8c0.3-0.3,0.4-0.7,0.4-1.3s-0.2-1-0.5-1.2c-0.4-0.2-0.9-0.4-1.7-0.4H194
				v3.4h1.6C196.4,3597.3,196.9,3597.1,197.2,3596.8z"/>
		</g>
	</g>
</g>
</svg>
