<svg xmlns="http://www.w3.org/2000/svg" viewBox="1336.569 8608.107 214.036 51.218">
  <defs>
    <style>
      .cls-1 {
        fill: #ef5123;
      }

      .cls-2 {
        fill: #262323;
      }
    </style>
  </defs>
  <g id="Group_145" data-name="Group 145" transform="translate(1336.569 8608.107)">
    <path id="Path_486" data-name="Path 486" class="cls-1" d="M51.165,25.614A25.6,25.6,0,1,1,26.223-.013,25.6,25.6,0,0,1,51.165,25.614Z" transform="translate(0.03 0.017)"/>
    <path id="Path_487" data-name="Path 487" class="cls-2" d="M525.089,68.761c-.214,0-.428-.021-.642,0-1.262.214-1.925-.171-2.481-1.5-1.348-3.187-6.31-3.786-9.07-1.262a8.3,8.3,0,0,0-2.567,5.476c-.385,3.38-.086,6.653,2.481,9.241a6.39,6.39,0,0,0,6.952,1.2,4.463,4.463,0,0,0,2.7-3.1c.171-.749.535-.92,1.241-.877a21.443,21.443,0,0,0,3.1,0c1.048-.107,1.091.428.9,1.177a9.217,9.217,0,0,1-7.551,7.359A12.152,12.152,0,0,1,506.671,80.8c-3.23-5.562-2.139-13.669,2.417-17.819a12.612,12.612,0,0,1,14.525-1.177,9.152,9.152,0,0,1,4.043,6.268c.107.513.021.727-.535.685C526.458,68.718,525.773,68.761,525.089,68.761Z" transform="translate(-396.82 -47.195)"/>
    <path id="Path_488" data-name="Path 488" class="cls-2" d="M287.269,62.377c2.738,0,2.738,0,3.658,2.61q3.915,11.07,7.808,22.119c.257.706.257,1.005-.62.963-1.241-.064-2.5-.043-3.743,0-.6.021-.877-.128-1.048-.749-.364-1.348-.856-2.631-1.219-3.979a.837.837,0,0,0-.963-.727c-2.61.021-5.2.021-7.808,0a.779.779,0,0,0-.9.663c-.385,1.369-.856,2.717-1.241,4.086-.128.471-.321.727-.856.706-1.326-.043-2.631-.043-3.957,0-.663.021-.685-.214-.513-.749q4.236-12.129,8.45-24.258a.836.836,0,0,1,1.005-.685C285.986,62.4,286.628,62.377,287.269,62.377ZM283.932,78.57c2.1,0,4.086-.021,6.075,0,.77.021.449-.449.364-.749-1.048-3.4-2.182-6.76-3.1-10.525C286.285,71.254,285.045,74.827,283.932,78.57Z" transform="translate(-216.778 -49.025)"/>
    <path id="Path_489" data-name="Path 489" class="cls-2" d="M630.694,104.79c-1.925,0-3.85.043-5.776-.021-.877-.021-.9.278-.727.984a4.48,4.48,0,0,0,5.626,3.4,2.753,2.753,0,0,0,1.947-1.369,1.329,1.329,0,0,1,1.519-.77,20.108,20.108,0,0,0,2.781,0c1.048-.107.984.342.706,1.07a7.564,7.564,0,0,1-5.626,4.749,9.569,9.569,0,0,1-10.7-4.086c-2.7-4.642-1.284-11.145,2.973-13.755,5.647-3.487,12.279-.385,13.562,6.353a14.9,14.9,0,0,1,.278,2.759c.021.556-.171.727-.727.727C634.63,104.769,632.662,104.79,630.694,104.79Zm-2.588-3.423c1.07,0,2.139-.043,3.187.021.834.043.963-.257.77-.984a3.789,3.789,0,0,0-3.915-2.952,4,4,0,0,0-3.936,3.251c-.107.513,0,.706.556.685C625.881,101.325,626.993,101.368,628.105,101.368Z" transform="translate(-486.638 -73.534)"/>
    <path id="Path_490" data-name="Path 490" class="cls-2" d="M867.284,104.921H861.4c-.492,0-.792.021-.685.663a4.558,4.558,0,0,0,6.225,3.508,2.215,2.215,0,0,0,1.3-1.048c.385-.9,1.048-.984,1.882-.941q1.283.064,2.567,0c.77-.043,1.005.128.706.941a7.507,7.507,0,0,1-2.374,3.358c-3.808,3.038-10.418,2.2-13.37-1.647-2.952-3.872-2.481-10.439,1.005-13.626a8.9,8.9,0,0,1,9.155-1.9c3.38,1.048,4.963,3.722,5.711,6.974.193.856.193,1.775.364,2.631.171.834-.064,1.112-.963,1.091C871.049,104.857,869.167,104.921,867.284,104.921Zm-2.61-3.423c1.07,0,2.139-.043,3.209.021.877.064.941-.321.77-1.005a3.769,3.769,0,0,0-3.936-2.931,3.99,3.99,0,0,0-3.936,3.38c-.064.449.086.556.492.535C862.385,101.477,863.541,101.5,864.674,101.5Z" transform="translate(-672.66 -73.665)"/>
    <path id="Path_491" data-name="Path 491" class="cls-2" d="M719.692,96.929a6.255,6.255,0,0,1,4.963-2.995c4.257-.278,6.8,2.738,6.931,6.439.107,3.915.021,7.829.043,11.744,0,.556-.171.749-.727.727-1.134-.043-2.289-.064-3.423,0-.706.043-.813-.235-.813-.856.021-3.358.021-6.7.021-10.054,0-2.4-1.027-3.679-2.995-3.743a3.6,3.6,0,0,0-3.829,3.7c-.064,3.316-.043,6.631,0,9.947.021.813-.214,1.048-1.005,1.005-1.07-.064-2.139-.043-3.209,0-.513.021-.749-.086-.749-.685.021-5.69.021-11.4,0-17.092,0-.492.107-.685.642-.663,1.134.043,2.289.043,3.423,0,.663-.021.792.235.727.791C719.67,95.646,719.692,96.116,719.692,96.929Z" transform="translate(-561.967 -73.823)"/>
    <path id="Path_492" data-name="Path 492" class="cls-2" d="M802.127,84.189c0-1.669-.043-3.358.021-5.027.021-.749-.214-.963-.963-.963-1.626.043-1.626,0-1.626-1.6,0-.278.021-.578,0-.856-.064-.6.15-.791.77-.791,1.818,0,1.818-.043,1.818-1.84,0-1.027.021-2.075,0-3.1-.021-.578.128-.834.77-.813,1.134.043,2.289.043,3.423,0,.535-.021.663.171.663.685-.021,1.455.021,2.931-.021,4.385-.021.578.193.77.727.685h.214c.727.086,1.818-.342,2.118.193.364.706.107,1.733.15,2.61.021.406-.257.449-.556.449a17.188,17.188,0,0,1-1.818-.021c-.706-.064-.813.214-.813.856.021,2.888,0,5.776.021,8.663,0,1.562.471,2.1,2.054,2.011,1.07-.064,1.262.3,1.219,1.283-.086,2.4-.021,2.4-2.4,2.4-.535,0-1.07,0-1.6-.043a4.05,4.05,0,0,1-4.107-4.385C802.127,87.4,802.127,85.794,802.127,84.189Z" transform="translate(-628.509 -54.388)"/>
    <path id="Path_493" data-name="Path 493" class="cls-2" d="M450.646,84.431c0-1.711-.021-3.423.021-5.134.021-.663-.107-.941-.856-.941-1.711.021-1.711-.021-1.711-1.69,0-1.519,0-1.583,1.476-1.5.877.043,1.155-.193,1.112-1.112-.086-1.3,0-2.631-.043-3.957-.021-.578.193-.727.727-.706,1.112.043,2.2.043,3.316,0,.642-.021.77.235.749.813-.043,1.39.021,2.781-.021,4.171-.021.6.128.877.77.791a4.374,4.374,0,0,1,.749,0c1.669,0,1.669,0,1.669,1.647,0,1.6,0,1.6-1.626,1.6-1.54,0-1.54,0-1.54,1.6v7.594c0,1.9.449,2.417,2.31,2.332.813-.043,1.005.171,1.005.963-.043,2.7,0,2.7-2.738,2.7a8.541,8.541,0,0,1-2.332-.214,3.842,3.842,0,0,1-3.016-3.786C450.6,87.854,450.646,86.142,450.646,84.431Z" transform="translate(-352.239 -54.544)"/>
    <path id="Path_494" data-name="Path 494" class="cls-2" d="M397.429,98.185c1.155-2.1,2.588-3.187,4.792-3.1.685.021.941.257.9.963a24.126,24.126,0,0,0,0,2.781c.021.513-.107.727-.706.77-3.358.15-4.856,1.733-4.877,5.113,0,2.738-.021,5.476.021,8.214,0,.62-.107.9-.813.856a26.761,26.761,0,0,0-3.209,0c-.749.043-.963-.171-.941-.92.043-5.027.021-10.033.021-15.059,0-2.46,0-2.46,2.481-2.46,2.139,0,2.139,0,2.246,2.182A1.989,1.989,0,0,0,397.429,98.185Z" transform="translate(-308.606 -74.736)"/>
    <path id="Path_495" data-name="Path 495" class="cls-2" d="M955.842,98.25a18.358,18.358,0,0,1,1.519-1.925,4.5,4.5,0,0,1,3.658-1.112c.385.021.578.171.578.6-.021.471,0,.92,0,1.39a5.34,5.34,0,0,1-.086,2.2c-.321.62-1.283.171-1.968.321-2.182.492-3.487,2.225-3.508,4.856-.021,2.824-.021,5.626,0,8.45,0,.642-.107.877-.813.834-1.177-.064-2.353-.043-3.53,0-.449,0-.62-.128-.6-.6.021-5.733.021-11.487,0-17.22,0-.535.193-.642.685-.642,1.112.021,2.2.043,3.316,0,.6-.021.834.15.77.77C955.8,96.753,955.842,97.373,955.842,98.25Z" transform="translate(-747.635 -74.823)"/>
  </g>
</svg>
