<svg xmlns="http://www.w3.org/2000/svg" viewBox="705 3099 574.428 603.59">
  <defs>
    <style>
      .cls-1 {
        opacity: 0.541;
      }

      .cls-2 {
        fill: #050505;
      }

      .cls-3 {
        fill: #0c0c0c;
      }

      .cls-4 {
        fill: #fefefe;
      }

      .cls-5 {
        font-size: 3px;
        font-family: Montserrat-Medium, Montserrat;
        font-weight: 500;
      }

      .cls-6 {
        fill: none;
      }
    </style>
  </defs>
  <g id="Group_162" data-name="Group 162" class="cls-1" transform="translate(705.128 3099)">
    <g id="Group_159" data-name="Group 159">
      <path id="Path_525" data-name="Path 525" class="cls-2" d="M556.4,140c2,0,4.1.1,6.1,0,1.2,0,1.5.4,1.5,1.7-.1,4.7-.1,9.4-.1,14.2,0,.4.3,1-.4,1.2a1.2,1.2,0,0,1-1.3-.6c-.6-1.1-1.2-2.2-1.9-3.3-.2-.4-.4-1-1-.7a1.412,1.412,0,0,0-.8,1.6,3.293,3.293,0,0,0,.7,1.3c13.1,22.7.9,51.9-23.2,55.6-18.8,2.9-36.3-14-36.4-35.1,0-22.2,16.1-38.6,36-36.6a28.928,28.928,0,0,1,14.9,6.2c1,.8,1.5.3,2-.5.6-1-.4-1-.8-1.4-.8-.7-1.8-1.3-2.6-1.9a1.28,1.28,0,0,1-.6-1.4c.2-.7.7-.4,1.1-.4,2.4.1,4.6.1,6.8.1Zm-9,32.8c.3.2.2.4.1.6-1.2,2.8-.3,4.7,2.4,5.3a4.971,4.971,0,0,0,3.4-.3,3.2,3.2,0,0,0,2.1-3.2,2.952,2.952,0,0,0-2.1-3,5.178,5.178,0,0,0-5.1.4c-.2.2-.5.7-.8.2-.2-.2,0-.8-.5-.8a12.312,12.312,0,0,0-3.8.2c1.3,1.1,1.1,2.2-.9,4.7-.6-1.3-1.2-2.6-1.8-3.8.4-.6,1.3,0,1.2-.7,0-.8-.8-.4-1.2-.4a15.037,15.037,0,0,0-3,0c-.5,0-1.4-.4-1.6.4s.8.1,1.1.6c.2.3.5.7.7,1,.5,1,1,2.1,1.5,3.1,1.2,2.2,3.6,2.2,4.7,0a23.934,23.934,0,0,0,1.3-2.8C545.7,173.2,546.3,172.6,547.4,172.8Zm-26.9-.1c.4.3,0,.5-.1.7a3.382,3.382,0,0,0,1.7,4.9,5.521,5.521,0,0,0,4.7-.2,3.035,3.035,0,0,0,1.7-2.9,2.878,2.878,0,0,0-1.8-2.8,5.542,5.542,0,0,0-5.3.1c-.3.1-.5.8-.9.2-.7-1-2.5-1.2-4.2-.4-.2.8,1.4,0,.8,1.2a16.331,16.331,0,0,1-1.9,3.4c-.5-1.2-1-2.2-1.5-3.2-.2-.5-.5-.9.3-.9.3,0,.6-.1.6-.4,0-.5-.5-.4-.8-.4H510c-.4,0-1.2-.4-1.2.4-.1.8.7.2,1,.5a3.592,3.592,0,0,1,.7,1l1.8,3.3c1.1,2,3.4,2,4.5-.1.5-1,1-1.9,1.4-2.9C518.8,173.1,519.4,172.6,520.5,172.7Zm11.8,9.1H510.4c-1.5,0-1.7.4-1.3,1.9,3.2,10.8,12.6,18.5,22.8,18.6,10.7.1,20.3-7.5,23.5-18.6.6-1.9.6-1.9-1.4-1.9Zm-.2-13.1h22.1c1.4,0,1.7-.4,1.2-1.9a28.87,28.87,0,0,0-6.7-11.5c-12.8-13.2-34.2-7.2-39.6,11.2-.6,2-.6,2.1,1.4,2.1C517.8,168.7,525,168.7,532.1,168.7Zm4.8,6.8c-.7.3-.7,1.1-1.1,1.5a2.578,2.578,0,0,1-2.2.7.8.8,0,0,1-.7-.9c.3-1.6-.9-3.7,1.5-4.6-1.9-.2-3.8-.5-5.6.2.6.5,1.4.4,1.4,1.5a24.375,24.375,0,0,0,.1,2.7c0,.5-.2,1-.8.9-.3,0-.6,0-.6.4,0,.5.4.5.7.5h5.3C537.5,178.5,537.5,178.5,536.9,175.5Z"/>
      <path id="Path_526" data-name="Path 526" class="cls-3" d="M254.5,179.6a86.335,86.335,0,0,1,3.1-21.4,4.79,4.79,0,0,0-.9-4.8,24.051,24.051,0,0,0-2.1-2.4c-1.1-.9-.8-1.6-.1-2.7,1.9-2.7,4.3-5.2,4.6-8.9,0-.5.5-.7.9-.9,2.3-1,4.6-2.1,6.9-3.1a1.72,1.72,0,0,1,1.4-.1,11.432,11.432,0,0,0,7.5.7,67.25,67.25,0,0,1,24.9.1,8.628,8.628,0,0,0,5.5-.6,2.55,2.55,0,0,1,2.4,0c2.2,1,4.3,1.9,6.4,2.9.5.2,1,.4,1,1.1.3,3.5,2.4,5.9,4.3,8.3,1.2,1.6,1.2,2.6-.3,3.8-.7.5-1.1,1.4-1.7,2a4.7,4.7,0,0,0-.7,4.6c2.1,8.3,3.6,16.7,2.8,25.4-.8,8.4-5.1,14.8-10.5,20.2a27.7,27.7,0,0,1-13.4,7.3,14.929,14.929,0,0,0-8.1,4.7c-.7.8-1.1.9-1.8.1a15.833,15.833,0,0,0-8.3-4.7c-11.8-3.1-19.3-11.3-23.2-23.8C254.6,184.6,254.7,181.8,254.5,179.6Zm38.8-4.5c.1.2.1.4.3.2.1-.1,0-.3,0-.5-.2-.9-.3-1.8-.5-2.7-.4-1.3-.1-1.9,1.2-2.1,2.2-.5,4.4-1.2,6.6-1.8,4.1-1.2,4.1-1.2,1.7-5.3a19.2,19.2,0,0,1-1.5,1.4c-.7.6-1.2,1.6-2.1,1.6-3.2,0-6.2-1-9.8-1.4,2-1.4,3.9-1.9,5.7-2.9-1.9-.9-3.6-1.7-5.2-2.5a25.7,25.7,0,0,1-4.9-2.6,1.734,1.734,0,0,1,1.6-.5c4-.4,8-.8,12.1-1.3a2.149,2.149,0,0,1,2.4,1.1c2.1,2.9,4.2,5.7,6.3,8.6,2.5,3.5,2.5,3.5,6.2,1.6,4-2,4-2,2.8-6.7a7.114,7.114,0,0,1,.9-6.2c.1-.2.4-.4.2-.8H258.1c2.4,2.5,1.9,5.2,1.2,8.1a86.551,86.551,0,0,0-2.7,16.8c-.2,5.1.1,10,2.4,14.7.5,1,.9,1.2,1.8.7,2.5-1.3,5-2.6,7.5-3.8.7-.3.9-.7.8-1.6-.6-3.5-1-7-1.5-10.5-.9-6.6-1.5-4.6,2.7-9.1,2.5-2.7,5-5.2,7.6-7.8.1.1.2.1.3.2-1,3.8-2.1,7.6-3.2,11.8,1.9-1.1,3.5-2,5-2.9a1.38,1.38,0,0,1,.3.4c-1.4,2.5-2.9,5-4.3,7.5a3.283,3.283,0,0,1-2.5,1.8c-3.1.5-3,.5-1.7,3.7.4,1,.8,1.3,1.7.5,2.5-2,5-3.8,7.5-5.8,1.1-.9,1.8-1,2.4.5a23.5,23.5,0,0,0,1.9,3c-.2-2.1-.3-3.7-.4-5.2-.1-.8.1-1.2.9-1.1a3.162,3.162,0,0,0,3.7-1.7c.5-.9,1-.9,1.7,0A18.334,18.334,0,0,0,293.3,175.1Zm-9.9,7.3c-.1-.3-.3-.2-.5-.1-7.3,3.7-14.7,7.4-22,11.1-.9.4-.6.8-.3,1.5,4.4,7.5,10.4,12.5,18.3,14.4a16.778,16.778,0,0,1,7.8,3.8c.8.8,1.3.6,2.1,0a16.013,16.013,0,0,1,6.7-3.5c7.2-1.5,13-5.5,17.6-11.8,3.8-5.4,6.2-11.3,6-18.2a82.125,82.125,0,0,0-1.5-13.1c-.2-1.3-.5-1.5-1.6-.9-6.6,3.4-13.2,6.7-19.8,10-.2.1-.7.1-.6.6a18.734,18.734,0,0,0,4.1,0c-.1,2.5-.2,2.6-2.3,2.6h-1.8a.566.566,0,0,0-.6.7c0,.4.3.4.6.4a14.336,14.336,0,0,0,3.6-.1c1.8-.6,1.2.6,1.1,1.5a.945.945,0,0,1-1.1.9h-2.3c-.5,0-1.3-.4-1.2.6,0,.8.8.7,1.3.7a16.279,16.279,0,0,0,3.1-.3c.8-.2.9,0,.9.8-.1,1-.4,1.6-1.4,1.6a16.95,16.95,0,0,0-2.2.1c-.4,0-1-.3-1,.5s.6.8,1.1.7c1.3,0,2.7.2,4-.6.2,2.5.1,2.7-1.9,2.7-2.3,0-2.7.3-2.4,2.8a14.333,14.333,0,0,1-3.3,10.7c-2.6,3.3-5.7,3.8-9,4.4a2.355,2.355,0,0,1-2.3-1c-1.5-1.7-3.2-3.2-4.8-4.8-.3-.3-.7-.4-.5-1,.1-.1.2-.4.1-.4-.2-.1-.3,0-.4.2-1-.1-2,1.3-2.7.5-.3-.4.4-2,.7-3,.2-.8.4-1.6.7-2.5.5-1.9,1.1-3.8,1.6-5.7a.6.6,0,0,1,.4.1c.2,3,.5,6,.7,9,0,.4-.3.8.3,1a30.835,30.835,0,0,1,4.8,3.2c.2.1.4.5.7.3,1.8-1.2,3.9-1.4,5.6-3.1,2.2-2.3,2.1-4.8,1.6-7.7a8.991,8.991,0,0,0-1.6,1.8c-1.5,1.7-2,1.6-3.3-.4,1.6-.5,2.5-2,3.5-3.2.2-.3.4-.6.1-.9-.3-.4-.6-.1-.8.1-.6.6-1.1,1.2-1.7,1.8-1.4,1.5-1.9,1.4-3.3-.7,2,0,2.5-2.1,3.8-3.2a.564.564,0,0,0,.1-.9c-.3-.3-.6-.1-.8.2-.6.7-1.2,1.3-1.7,2-1,1.2-2,1.1-2.8-.1-.3-.5-.4-.9.2-1,1.6-.4,2.1-2.2,3.3-3.2a.605.605,0,0,0,.1-.8c-.3-.4-.6-.1-.8.1-.6.6-1.2,1.3-1.8,2-1.4,1.6-1.8,1.5-3.3-.4a4.573,4.573,0,0,0,2.8-2.8.215.215,0,0,1,.2-.2c-.1,0-.1,0-.2-.1Zm35-33.7c-1-1.6-2.3-2.9-2.6-4.5-.8-3.6-3.2-4.7-5.9-5.7-.5-.2-.9-.4-1.4-.6a1.72,1.72,0,0,0-1.4-.1,18.431,18.431,0,0,1-8.4.5c-7.5-1-15.1-1.5-22.6.1a11.788,11.788,0,0,1-6.7-.3,3.83,3.83,0,0,0-3.3.3,25.573,25.573,0,0,1-2.4,1.1,4.4,4.4,0,0,0-3.3,3.6c-.3,1.6-1.4,2.9-2.3,4.2-.3.4-.8.7-.6,1.4Zm-30.7,2.6h9.8c.6,0,1.2,0,1.2-1s-.6-.8-1.1-.8H278c-.6,0-1.3-.2-1.2.9,0,1.1.7.9,1.3.9Zm-31.5-1.6a2.221,2.221,0,0,0,2.4,1.6h16.3c.6,0,1.4.3,1.4-.9s-.8-.9-1.4-.9H257.6A1.467,1.467,0,0,0,256.2,149.7Zm63.1,0a1.421,1.421,0,0,0-.6-.2H300.2c-.6,0-.9.2-.9.9,0,.8.3.9.9.9h17A2.184,2.184,0,0,0,319.3,149.7Zm-27.6,42.4c0,.1.1.1.1.2l.1-.1a.349.349,0,0,0-.1-.2Z"/>
      <path id="Path_527" data-name="Path 527" class="cls-2" d="M516.7,34.1c-1,0-.8-.9-.8-1.4-.2-6.4-.3-12.7-.4-19.1a3.664,3.664,0,0,1,1.7-3.3c4.8-3.2,9.6-6.4,14.3-9.6a2.4,2.4,0,0,1,3,0c4.9,3,9.9,6,14.8,9a3.207,3.207,0,0,1,1.6,3c.1,6.3.2,12.5.4,18.7a3.337,3.337,0,0,1-1.6,3.2c-4.8,3.2-9.7,6.4-14.5,9.6a2.586,2.586,0,0,1-2.8.2c-5-3.1-10.1-6.1-15.1-9.1-.3-.2-.6-.4-.4-.8.2-.1.4-.3.6-.4a6.724,6.724,0,0,0,1.1-.7c7.7-5,15.1-10.6,22.7-15.8.8-.6.8-1.1.2-1.9a9.186,9.186,0,0,0-12.3-3,11.785,11.785,0,0,0-5.1,12.9c.4,1.6.2,2.6-1.1,3.5-1.7,1.2-3.2,2.6-4.8,3.9-.3.2-.6.5-.9.7C517.1,33.8,516.9,34,516.7,34.1Zm16.8.2c3.8,0,6.5-1.8,8.5-4.9.3-.5.6-.9.1-1.5-.3-.3-.6-.7-1-.4a3.45,3.45,0,0,0-.8.9c-3.2,4.4-7.8,5-11.8,1.6a1.794,1.794,0,0,0-.7-.5c-.6-.3-1.1.1-1.5.5-.6.6.2.8.4,1.1A8.617,8.617,0,0,0,533.5,34.3Z"/>
      <path id="Path_528" data-name="Path 528" class="cls-2" d="M194.5,185.1a12.243,12.243,0,0,1-8.4-2.6,1.389,1.389,0,0,0-1.9,0c-5.1,3.6-10.3,3.6-15.4,0a1.4,1.4,0,0,0-1.9.1c-5,3.5-10.1,3.5-15.1.1a1.694,1.694,0,0,0-2.3,0c-5.1,3.4-10.3,3.4-15.3-.3-4.7-3.6-6.7-8.8-5.8-15,1-6.5,4.6-10.8,10.4-12.4a11.643,11.643,0,0,1,10.6,2,1.694,1.694,0,0,0,2.3.1q7.5-5.1,15,0a1.543,1.543,0,0,0,2.1,0c5-3.4,10-3.4,15-.1,1,.7,1.5.5,2.4-.1,5.1-3.4,10.3-3.4,15.1.3,5,3.7,6.9,9.2,5.7,15.7-1.2,6.3-4.9,10.3-10.5,11.9A13.806,13.806,0,0,1,194.5,185.1Zm-63.2-13.8a11.346,11.346,0,0,0,5.6,9c3.5,2.2,7.1,2,10.6-.1.9-.5,1-.9.4-1.9a16.294,16.294,0,0,1-.1-16.9c.7-1.3.3-1.6-.6-2.2C140.1,154.9,131.3,160.7,131.3,171.3Zm73.3-1.8c-.2-4.3-2-7.9-5.6-10.1a9.516,9.516,0,0,0-10.6,0c-.9.5-1.1.9-.5,2a16.252,16.252,0,0,1,0,17c-.7,1.2-.3,1.5.5,2C195.6,184.8,204.6,178.9,204.6,169.5Zm-28-11.7a10.75,10.75,0,0,0-5.6,1.7c-.8.5-.9.8-.4,1.8a16.179,16.179,0,0,1,0,17.2c-.6,1-.3,1.3.4,1.8a9.706,9.706,0,0,0,10.6.2c1-.6,1.3-1,.5-2.3-2.9-4.9-2.9-10.1-.7-15.4.4-.9,1.7-1.7,1.1-2.8-.5-.9-1.7-1.2-2.7-1.6A10.7,10.7,0,0,0,176.6,157.8Zm-17.2,0a11,11,0,0,0-5.8,1.8c-.7.4-.7.8-.3,1.5a16.528,16.528,0,0,1,0,17.4c-.4.7-.5,1,.2,1.5a10.3,10.3,0,0,0,11.3.1c.6-.5.7-.8.3-1.6-3.3-5.8-3.4-11.6,0-17.4.5-.9.3-1.2-.4-1.7A9.981,9.981,0,0,0,159.4,157.8Zm25.8,5c-3,3.7-2.9,10.7.1,14C188.1,172.4,188.1,166.7,185.2,162.8Zm-17.2,0c-3,3.5-3,10.4,0,14.1A12.511,12.511,0,0,0,168,162.8Zm-17.3,0c-3,3.6-3,10.5,0,14A12.352,12.352,0,0,0,150.7,162.8Z"/>
      <path id="Path_529" data-name="Path 529" class="cls-2" d="M438.8.4c.3,1-.3,2.2.3,2.9s1.8-.1,2.6.4c.1.1.2.3.3.4,0,.4.1.7.1,1.1,0,3.9,0,3.9,3.6,3.9,1.1,0,2.2.1,3.3,0,1-.1,1.3.3,1.3,1.4-.1,3.6,0,7.1-.1,10.7,0,1.2.3,1.4,1.3,1.4,2.9,0,2.9,0,2.9,3.1,0,1.5-.1,2.9,0,4.4.1,1.4-.4,1.6-1.5,1.6H422.7c-.1-.1-.1-.2-.2-.3,0-10,0-20-.1-30,0-1,.3-1.4,1.2-1.4,4.9.1,9.7.1,14.6.1A1.047,1.047,0,0,1,438.8.4Z"/>
      <path id="Path_530" data-name="Path 530" class="cls-2" d="M288.9,344.2c-18.2,0-33-16.3-33.1-36.4,0-20.5,14.7-36.6,33.5-36.6,18.1,0,32.8,16.4,32.8,36.7C322.2,327.9,307.3,344.2,288.9,344.2Zm2.4-68.7c-11.3,0-18.4,2.7-24.6,8.1a14.626,14.626,0,0,0-5.1,8.6c-2.4,13.2-.8,25.6,5.5,37.2a18.155,18.155,0,0,0,8.7,8.2,33.02,33.02,0,0,0,25.8.4,18.619,18.619,0,0,0,10.6-10.7,59.831,59.831,0,0,0,4.7-30.2c-.7-6.9-3.1-12.3-8.7-15.7C302.1,277.5,295.6,275.5,291.3,275.5Z"/>
      <path id="Path_531" data-name="Path 531" class="cls-2" d="M197.3,561.8c1.1,3.8.8,7.7.8,11.5,0,.9,0,1.4,1.1,1.5,1.3,0,1.6,1.3,1.8,2.5a13.654,13.654,0,0,1-1.7,7.7c.3.5.8.2,1.2.4a1.909,1.909,0,0,1,.6,1.6c-.1.8-.7.5-1,.5h-2.7a15.952,15.952,0,0,1,.1,7.2c-1.5,6.2-7.3,10-12.9,8.6-1.1-.3-1.6-.7-1.5-2.1.1-1.1,0-2.2,0-3.3.8-.3,1.3.3,1.9.5a5.878,5.878,0,0,0,6.8-2.1,7.52,7.52,0,0,0,1.2-7.5,1.616,1.616,0,0,0-1.7-1.3c-3.8.1-7.5.1-11.3,0-.6,0-1.6.7-1.8-.6s.6-1.7,1.8-1.7a18.665,18.665,0,0,1-1.7-5.2,10.887,10.887,0,0,1,.1-3.6c.2-.8.7-1.6,1.4-1.5,1.8.3,1.6-.9,1.6-2.1a51.81,51.81,0,0,1,.3-8.8c.5-2.7,1.4-5,3.6-6.6a3.766,3.766,0,0,0,.9-1.5c2.1-5,4-6.3,9-6.4a4.156,4.156,0,0,1,4.3,3.3c.3.9.7,1.1,1.4,1,1.4,0,2.8.1,4.1,0,1.3-.2,1.7.5,1.6,1.8a5.565,5.565,0,0,1-3,4.9C201.8,561.6,199.6,561.7,197.3,561.8Zm-5.4-6.5c-.3,2.3-.4,4.6-1.4,6.7-.5,1-1.2,2.1-2.3,1.6-1.3-.6-1.4.2-1.5,1.2-.6,4.6-.3,9.3-.2,14a6.028,6.028,0,0,0,.6,2.3,2.758,2.758,0,0,0,2.6,1.9,2.669,2.669,0,0,0,2.6-1.9,9.594,9.594,0,0,0,.7-4.1v-9a11.437,11.437,0,0,0-1.2-5.8c-.4-.6-.1-1.2,0-1.7A11.447,11.447,0,0,0,191.9,555.3Z"/>
      <path id="Path_532" data-name="Path 532" class="cls-2" d="M370.2,305.5c-.5-6,2-10.3,6.4-13.4,3.3-2.3,6.8-4.5,11-3.7,3.7.7,4.7,3.4,2.5,6.7a28.625,28.625,0,0,1-8,7.9c-.4.3-1.2.3-1,1.2a33.974,33.974,0,0,0,1.2,3.4c0,.1.7-.2,1-.3a11.374,11.374,0,0,1,4-1.1c1.9.1,2.6,1.2,1.9,3.1a12.425,12.425,0,0,1-3.6,4.8,2.228,2.228,0,0,0-.8,2.6,53.848,53.848,0,0,1,.9,13.3,8.519,8.519,0,0,1-.4,2.3c-.4,1.4-1.3,1.9-2.6,1.4a7.992,7.992,0,0,1-2.7-1.8c-5.3-5.2-7.9-12-9.3-19.5A39.348,39.348,0,0,1,370.2,305.5Z"/>
      <path id="Path_533" data-name="Path 533" class="cls-2" d="M419.1,448.3c-4.1,5.3-9.9,5.7-14.7.7-.6-.6-.8-.8-1.4.1a8.893,8.893,0,0,1-11.5,2.2,9.131,9.131,0,0,1-1.3-.8c-.4.6.3,1.5-.4,1.8a1.974,1.974,0,0,1-2-.6c-1.1-.9-1.1-7.4-1.4-9.9,0-.3-.1-.7-.1-1a6.067,6.067,0,0,0-6.1-5.5c-2.8.1-5.2,2.6-5.4,5.9-.2,2.3-.1,4.7-.1,7,0,2.2-.9,3.5-2.5,4-.7.2-1.2.2-1.1-.9.1-3.7,0-7.5.2-11.2a9.635,9.635,0,0,1,7.1-8.7c4-1.1,7.9.7,10.2,4.5,1.1-3.1,3.5-4.1,6.1-4.7,2.7-.6,5.1.5,7.4,1.9,0,.2.1.3.3.2.1,0,0-.3,0-.4-.5-2.7-.1-5.5-.2-8.3,0-.8.4-.9.9-.8a3.224,3.224,0,0,1,2.7,3.4,49.234,49.234,0,0,1-.2,9.4c-.4,2.3.2,4.4.5,6.5a5.758,5.758,0,0,0,5.9,5.1,6.058,6.058,0,0,0,5.5-5.4,18.814,18.814,0,0,0,.5-3.3,8.6,8.6,0,0,1,1.5-4c2.5-3.7,5.4-5,9.3-4.4,2.4.4,4.2,1.9,6,3.7.5.5,1,1.1,1.5,1.7,1.7,1.8,1.6,1.7,0,3.6-.9,1-1.5.9-2.3-.1a24.223,24.223,0,0,0-3.1-3.3,5.155,5.155,0,0,0-6.1-.9,6.086,6.086,0,0,0-3.4,5.4l-.3,2.1A17.425,17.425,0,0,1,419.1,448.3Zm-21.8-12.8a6.293,6.293,0,0,0-7.1,6.6,6.431,6.431,0,0,0,4.4,6,5.379,5.379,0,0,0,5.8-2C403.6,441.3,400.8,436.1,397.3,435.5Z"/>
      <path id="Path_534" data-name="Path 534" class="cls-2" d="M21.9,571c3.4,1.1,3.9,3.8,3.7,6.7-.1,1.8.2,3.7-.2,5.5-.5,2.4-1.5,3.4-3.6,3.7-3.9.5-7.7.2-11.6.3-.8,0-.9-.4-.9-1.1V558.5c0-.6,0-1.1.8-1,3.5.2,7.1-.3,10.6.4,2.3.5,3.6,2,4.1,4.5a19.806,19.806,0,0,1,.3,4.2C25.2,568.6,24.4,570.2,21.9,571Zm-3.3,6.7a24.319,24.319,0,0,0,0-2.7c-.1-1.2-1-1.2-1.8-1.2-1-.1-.6.8-.6,1.3a46.844,46.844,0,0,0,0,5.3c0,.5-.4,1.4.5,1.4.8,0,1.7-.1,1.8-1.4A11.984,11.984,0,0,0,18.6,577.7Zm-2.4-12.1v2c0,.5-.3,1.3.6,1.3.7,0,1.4,0,1.6-.9a11.363,11.363,0,0,0,0-4.5c-.2-1-1-1.1-1.7-1-.9.1-.5.9-.5,1.4Z"/>
      <path id="Path_535" data-name="Path 535" class="cls-2" d="M35.5,557.3c1.3,0,2.6.1,3.8,0,1-.1,1.3.3,1.5,1.3,1.3,7.6,2.7,15.1,4.1,22.7.3,1.4.4,2.9.8,4.3.2,1,.2,1.4-.9,1.4a52.308,52.308,0,0,0-5.6,0c-1,0-1.3-.3-1.2-1.3v-1.3c-.1-2.7-.1-2.6-2.6-2.7-1.3-.1-1.5.4-1.6,1.7-.2,3.6-.3,3.7-3.5,3.6-1.6,0-3.7.8-4.5-.4-.6-.9.4-3.2.6-4.9,1.3-7.6,2.7-15.3,3.9-22.9.2-1.3.6-1.6,1.7-1.5S34.3,557.3,35.5,557.3Zm.3,8.1h-.2c-.3,3.3-.7,6.5-1,9.8-.2,1.6.9,1,1.5,1,.5.1,1.3.3,1.1-.9C36.7,572,36.3,568.7,35.8,565.4Z"/>
      <path id="Path_536" data-name="Path 536" class="cls-2" d="M59.8,571.6c2.8.9,3.4,3.1,3.4,5.8-.1,2.8-.1,5.5,0,8.3,0,1-.2,1.3-1.1,1.3-1.7-.1-3.8.6-4.8-.3-1-.8-.2-3.3-.3-5.1-.1-1.1-.1-2.2-.1-3.3a1.478,1.478,0,0,0-1.5-1.7c-2.4-.3-2.4-.4-2.4,2.3v6.8c0,1-.2,1.4-1.2,1.4-1.7-.1-3.9.6-5-.3-1.1-1-.3-3.6-.3-5.4V559.1c0-1.3.2-1.8,1.5-1.8,3,.2,6.1.1,9.1.2,3.8.2,5.5,1.9,6,6.1.1,1,.1,2,.1,2.9C63,569.6,62.5,570.4,59.8,571.6Zm-3.6-5.8h0c-.1-.6,0-1.2-.1-1.8-.2-1.5-1.3-1.4-2.3-1.5-1.3-.1-.6,1.1-.7,1.6a18.188,18.188,0,0,0,0,3.3c0,.6-.4,1.5.7,1.4.8-.1,1.9.3,2.2-1.1C56.1,567.1,56.1,566.5,56.2,565.8Z"/>
      <path id="Path_537" data-name="Path 537" class="cls-2" d="M64.2,569c0-3.3.1-6.6,0-9.9,0-1.4.4-1.8,1.6-1.7a28.052,28.052,0,0,0,4.1,0c1.1-.1,1.5.1,1.4,1.6-.3,5.7-.7,11.4-.1,17.1a29.311,29.311,0,0,0,.5,2.9c.2.7.5,1.4,1.3,1.4s1-.6,1.2-1.3a23.376,23.376,0,0,0,.7-4.5,130.161,130.161,0,0,0,0-15.3c-.1-1.3.1-2,1.5-1.9a22.557,22.557,0,0,0,4.5,0c.8,0,1,.3,1,1.2,0,6.8.1,13.6-.1,20.4-.1,4.9-2.9,7.9-7.3,8.2-6.6.6-10.7-2.1-10.3-10.9C64.3,573.9,64.2,571.5,64.2,569Z"/>
      <path id="Path_538" data-name="Path 538" class="cls-2" d="M282.2,580.6c-.8-2.3-1.5-4.1-2.2-6.3-.8,2.2-1.5,4-2.3,6.3-1.3-3.9-2.5-7.4-3.8-11a14.3,14.3,0,0,0-1.5,3.9c-.4,1-.7,2.1-1.1,3.1-1.5,4.3-1.5,4.3-5.9,3.9,2.8-8,5.5-15.9,8.4-24.3,2.1,6.1,4.1,11.7,6.1,17.7,2.1-5.9,4-11.6,6.2-17.7,1.4,3.9,2.6,7.4,4,11.3,1.4-3.9,2.6-7.4,4-11.3,2.9,8.4,5.6,16.3,8.4,24.1-.2.1-.3.2-.4.2-4.1.2-4.1.2-5.5-4-.8-2.2-1.5-4.5-2.4-7.2-1.4,4-2.6,7.5-4,11.5-1.4-3.9-2.6-7.5-4-11.5C284.7,573.3,283.5,576.7,282.2,580.6Z"/>
      <path id="Path_539" data-name="Path 539" class="cls-2" d="M531,460.6c-6.8-.2-13.1-5.3-15.6-12.7-2.5-7.2-.7-15.8,4.1-20.9,1-1,1.3-.8,1.7.5a23.4,23.4,0,0,0,.9,2.4c1.1,2.6,1.9,3.2,4.4,2.4,1.3-.4,1.6.4,1.9,1.4s1.2,2-.2,3c-2.4,1.7-2.6,2.4-1.6,5.4a24.888,24.888,0,0,0,1.1,2.9c1.1,2.4,1.8,2.7,4.3,2,.9-.3,1.7-.2,1.9,1,.3,1.1,1.5,2.2-.1,3.3-2.5,1.8-2.8,2.8-1.7,5.9a6.116,6.116,0,0,0,.5,1.2C533.4,460.7,533.4,460.7,531,460.6Z"/>
      <path id="Path_540" data-name="Path 540" class="cls-2" d="M549.9,441.8a21.1,21.1,0,0,1-5,13c-.8,1-1.4,1.3-1.8-.4a13.3,13.3,0,0,0-1.1-3c-1-2.2-2.1-2.7-4.2-1.9-.8.3-1.6.9-2-.5-.3-1.3-1.6-2.6.3-3.8,2.3-1.5,2.5-2,1.8-4.9a12.658,12.658,0,0,0-1.8-4.3c-.9-1.5-2-2-3.5-1.2-.7.4-1.6.8-1.9-.4s-1.7-2.5,0-3.7c2.5-1.9,2.7-2.5,1.7-5.8-.1-.2-.1-.5-.2-.7-1.1-3-1.1-3,1.9-2.7C543.2,422.2,550.8,432,549.9,441.8Z"/>
      <path id="Path_541" data-name="Path 541" class="cls-2" d="M405.6,311.5c0,2.8-.2,5.6,1.3,8.2.6,1-.3,1.9-1.7,1.7a8.75,8.75,0,0,1-6.3-3.9,22.891,22.891,0,0,1-1.4-2.7c-.7-1.4-1.7-2.3-3.2-2a3.381,3.381,0,0,0-2.1,3.4A2.8,2.8,0,0,0,395,319c3.4.1,5,2,4.7,5.1a5.61,5.61,0,0,1-6.5,4.8c-3.3-.6-5.7-4-5.7-8.4,0-4.9,1.9-8.9,5.9-11.3.7-.4,1.9-.3,1.6-1.8-.3-1.7-.6-3.4-2.5-3.9a2.885,2.885,0,0,0-1.8.3c-.6.2-1.2.9-1.8.1s0-1.5.3-2.2a7.89,7.89,0,0,1,8-4.5c3.3.2,5.7,2.1,7.1,5.5C405.4,305.4,405.3,308.5,405.6,311.5Z"/>
      <path id="Path_542" data-name="Path 542" class="cls-2" d="M146.1,586.8c-1.6,0-3.2.5-4.2-.1-1.6-1-2.5.1-3.6.5-4.3,1.4-8.1-1.1-9.3-6.2a14.723,14.723,0,0,1-.4-3.6V566c.1-7.3,5.3-11.4,11.5-9,.4-2.8.3-3.7-1-8,1.1,0,2.1.1,3.2,0,1.7-.3,2.3.8,2.5,2.3a25.282,25.282,0,0,1,.1,2.8v22.6C144.9,580,144.5,583.4,146.1,586.8Zm-5.9-15.2v-5.7A6.452,6.452,0,0,0,139,562c-1.5-2-3.7-1.7-4.7.6a9.366,9.366,0,0,0-.7,3.7v11.4a7.026,7.026,0,0,0,1,4,2.036,2.036,0,0,0,3.4.5,6.442,6.442,0,0,0,2.2-4.9Z"/>
      <path id="Path_543" data-name="Path 543" class="cls-2" d="M18.2,163.1a4.336,4.336,0,0,1-1,3.6,19.474,19.474,0,0,0-3.3,15.4c1.1,4.8,4.2,7.6,8.2,9.4A28.331,28.331,0,0,0,32.7,194a62.141,62.141,0,0,0,35.1-8.1l.8-.4v4.7c0,1.4-1,1.8-1.9,2.3a62.761,62.761,0,0,1-20,6.2c-7.2,1-14.3,1.1-21.4-1a34.861,34.861,0,0,1-5.3-2.2c-8.9-4.8-12-15.4-7.4-25.1A24.568,24.568,0,0,1,18.2,163.1Z"/>
      <path id="Path_544" data-name="Path 544" class="cls-2" d="M323.8,561.2c-1.2,0-2.3.1-3.4,0-1.2-.1-1.4.3-1,1.6,1.9,5.4,3.7,10.7,5.6,16.1.2.5.3,1,.5,1.5a1.236,1.236,0,0,0-.3.2c-3.7.2-3.7.2-5-3.6-1.7-4.9-3.4-9.7-5-14.6-.4-1-3.9-1.8-4.5-1-.3.5,0,.9.2,1.4,1.3,3.7,2.6,7.4,3.8,11.2,1.2,3.6,0,6.1-3.5,6.6a20.614,20.614,0,0,1-4.3.1c-2.3-.2-3.6-1.8-4.4-4-1.7-4.6-3.3-9.2-4.9-13.9-.6-1.6-1.1-3.2-1.7-4.8-.3-.9-.4-1.3.7-1.3,3.2-.1,3.2-.2,4.4,3.2,1.6,4.7,3.3,9.5,4.9,14.2.3.8.5,1.7,1.3,2.1a3.073,3.073,0,0,0,3.2-.1c1-.8.3-1.8,0-2.7-1.7-4.9-3.4-9.7-5-14.6-.7-2.1-.7-2.1,1.2-2.1,4.6,0,9.3.1,13.9,0a2.117,2.117,0,0,1,2.4,1.8C323.1,559.3,323.5,560.1,323.8,561.2Z"/>
      <path id="Path_545" data-name="Path 545" class="cls-2" d="M170.4,572.1c0,2.7.3,5.5-.3,8.2-1,4.6-3.8,7.2-8,7.2-4.5,0-7.4-2.3-8.1-7.2a54.742,54.742,0,0,1,.2-17.6c.6-3.3,2.3-5.7,5.4-6.5,3.2-.7,6.2-.5,8.5,2.5a12.036,12.036,0,0,1,2.2,7.2C170.5,568.1,170.4,570.1,170.4,572.1Zm-11.6.1h-.2v3.1a24.183,24.183,0,0,0,.4,4.7c.5,1.7,1.2,2.9,3,2.9s2.5-1.3,3-2.9a12.589,12.589,0,0,0,.4-2.7c0-3.3.1-6.6,0-9.9a9.8,9.8,0,0,0-1.1-5.1c-1.1-2.1-3.4-2.1-4.6,0a10.217,10.217,0,0,0-1,3.9C158.8,568.1,158.8,570.1,158.8,572.2Z"/>
      <path id="Path_546" data-name="Path 546" class="cls-2" d="M409.9,299c3.1-6.1,8.6-6.9,13.1-2.2,4.5,4.8,5.8,12.4,2.9,17.8-1.1,2-2.6,3.3-4.7,3.1-2.1-.1-3.4-2.1-3.1-4.7.3-2.9,1.6-5.6,1.7-8.6a10.777,10.777,0,0,0-.7-4.7,2.973,2.973,0,0,0-2.8-2.2,3.276,3.276,0,0,0-3,2.3,9.173,9.173,0,0,0-.1,5.9,48.072,48.072,0,0,1,1.8,6.5,6.984,6.984,0,0,1-.2,3.8,3.7,3.7,0,0,1-3.2,2.7,3.217,3.217,0,0,1-3.5-2.2,9.657,9.657,0,0,1-.9-4.4c0-2.7.1-5.4.1-8.1a12.439,12.439,0,0,0-.6-4.3c-.2-.7-.6-1.6.2-2.2.8-.7,1.3.1,1.9.5A9.955,9.955,0,0,0,409.9,299Z"/>
      <path id="Path_547" data-name="Path 547" class="cls-2" d="M408.9,277c-.4-1.6-.4-1.6.9-1.6,6.4-.1,10.8,4.5,11.2,12-2.6-1.9-5-1.1-7.4.6-2.6,1.9-5.1,3.9-8.3,4.5-.2-.6.5-1.1.1-1.9a6.23,6.23,0,0,1-7.1.9,15.114,15.114,0,0,1-6.3-5.3c4.4,0,6.4-3.9,9.1-6.4a20.185,20.185,0,0,1,2.7-2.4C405.4,276.3,407,275.8,408.9,277Z"/>
      <path id="Path_548" data-name="Path 548" class="cls-2" d="M375.7,48.8c.9-.5,1.7-1.1,2.6-1.5a5.7,5.7,0,0,1,8,3.1c2.7,5.9.4,15-8,14.9-2.9,0-2.8,0-2.9,3.2-.1,1.7.1,2.9,1.9,2.9.8,0,.8.6.8,1.3,0,.9-.5.8-1,.8h-8.6c-.5,0-1,0-1-.8-.1-.7.1-1.2.8-1.3,1.6-.1,1.7-1.1,1.7-2.6-.1-5.6-.1-11.2,0-16.7,0-1.2-.2-1.9-1.4-1.7-.5.1-1.3.5-1.4-.7-.1-1.1.5-1.2,1.2-1.4,1.5-.5,3-1,4.4-1.5C375.1,46.1,375.3,46.3,375.7,48.8Zm5.8,7.5c0-4-1.9-6.2-4.9-5.7-.8.1-1.1.4-1.1,1.4.1,3.3.1,6.5,0,9.8,0,1.2.5,1.3,1.3,1.2C379.8,62.8,381.5,60.4,381.5,56.3Z"/>
      <path id="Path_549" data-name="Path 549" class="cls-2" d="M396.5,58c1.7-3.2,3.5-6.4,5.2-9.6.7-1.2,3.4-2.1,4.5-1.4.6.4.3,1,.3,1.5,0,3.9,0,7.7.2,11.7,1.6-2.7,4.5-4.5,3.9-8.5a19.218,19.218,0,0,1,0-2.4c0-2.1.5-2.8,2.2-2.9a3.073,3.073,0,0,1,3.2,2.8,4.955,4.955,0,0,1-1,3.6c-2.7,4-5.5,7.9-8.2,11.8-.6.9-1.4.7-2.2.7-3-.2-3-.2-3-3.5v-7c-.1-.1-.2-.1-.3-.2-.8,1.4-1.6,2.8-2.3,4.2-.7,1.2-1.3,2.4-2,3.6-1.7,3.1-1.7,3.1-4.9,2.9-1-.1-.8-.8-.8-1.4,0-3.7-.1-7.4,0-11,.1-1.8-.3-2.8-2.1-2.6-.8.1-1.3-.1-1.2-1.2.1-.5.1-.8.6-.9,2.1-.4,4.1-1.2,6.2-1.3,1-.1,1.5.2,1.4,1.5-.1,3.2,0,6.3,0,9.5A1.006,1.006,0,0,0,396.5,58Z"/>
      <path id="Path_550" data-name="Path 550" class="cls-2" d="M527.9,318.6v-8.5c0-1.1.3-1.6,1.2-1.8a27.868,27.868,0,0,1,9.1-.8c4.1.4,6.6,3.2,7,7.6.4,4.1.1,8.2.2,12.3,0,.9-.3,1.1-1.1,1.1-4.7.2-4.7.3-4.7-4.9a60.97,60.97,0,0,0-.2-7.4c-.4-2.8-2.9-4.3-5.2-3-.6.3-.6.8-.6,1.4,0,3.9,0,7.9.1,11.8,0,1.5-.2,2.4-1.8,2.1h-.3c-3.7-.1-3.7-.1-3.7-4.1Z"/>
      <path id="Path_551" data-name="Path 551" class="cls-3" d="M531.9,397.6c22.6.3,38.1,19.5,39,40,.8,19.2-6.7,33.6-22.4,42.4l-.6.3c-.6.3-1.1.3-1.4-.4s0-1.1.6-1.4a45.941,45.941,0,0,0,6.6-4.2c9.1-7.1,13.7-17.1,15.3-29.1,2.7-21.3-13.4-45.7-37.2-45.2a36.278,36.278,0,0,0-10.3,1.6c-.4.1-.8.3-1.3.4-.7.2-1.2-.2-1.4-1-.2-.9.4-1,.9-1.2a39.914,39.914,0,0,1,8.3-1.9C529.4,397.8,530.8,397.7,531.9,397.6Z"/>
      <path id="Path_552" data-name="Path 552" class="cls-3" d="M531.9,482a34.7,34.7,0,0,0,11.9-2.1l.9-.3c.6-.2,1.1-.1,1.3.6.3.9-.3,1-.8,1.2a34.372,34.372,0,0,1-15.5,2.4c-13.1-1.1-23.5-7.8-30.6-20-4.4-7.5-5.6-16.1-5.8-25-.4-14.8,6.4-25.1,16.6-33.4a44.988,44.988,0,0,1,4.5-3.1c.7-.4,1.5-1.3,2.1,0s-.4,1.5-1.1,1.9c-8.7,4.9-14.7,12.5-18.1,22.7-8,24,6.2,50.8,29.1,54.6A24.479,24.479,0,0,0,531.9,482Z"/>
      <path id="Path_553" data-name="Path 553" class="cls-2" d="M167.3,434.6a24.5,24.5,0,0,0-6.4-13.3,10.468,10.468,0,0,1-1.6-11.2c1.5-3.4,5.3-5.8,8.7-5.4a9.35,9.35,0,0,1,7.9,7.2,10.442,10.442,0,0,1-2.7,10C169.8,425.8,168.3,429,167.3,434.6Zm-1.5-23.8a2.6,2.6,0,0,0-2.6,2.1c-.4,2,2.2,6.1,4,6.3a.735.735,0,0,0,.6-.2,8.5,8.5,0,0,0,3.5-4.2c.7-1.9-.5-4.2-2.1-4C167.9,411,166.7,411.9,165.8,410.8Z"/>
      <path id="Path_554" data-name="Path 554" class="cls-2" d="M524.9,318.2c0,6.1-4.2,10.7-9.6,10.7s-9.7-4.7-9.8-10.6c0-6.1,4.2-10.9,9.7-10.9C520.7,307.5,524.9,312.2,524.9,318.2Zm-9.6,5a4.736,4.736,0,0,0,4.5-5,4.96,4.96,0,0,0-4.5-5.1c-2.6,0-4.6,2.2-4.6,5.1C510.8,321.1,512.7,323.2,515.3,323.2Z"/>
      <path id="Path_555" data-name="Path 555" class="cls-2" d="M56.2,148.3c5.1,0,10.6.7,15.8,3.7s8.6,7.5,8.4,14.4c-.3,7.3-3.6,12.4-9.4,15.7-.9.5-1.1.4-1.2-.8a5.08,5.08,0,0,1,1.8-4.6c7.6-6.5,6.6-17.5-2-22.3-5.5-3.1-11.4-3.6-17.5-3.2a61.944,61.944,0,0,0-24.7,7c-.5.2-1.2,1.3-1.6.3-.4-.8.5-1.4,1.1-1.8a52.751,52.751,0,0,1,10.4-5.1A56.012,56.012,0,0,1,56.2,148.3Z"/>
      <path id="Path_556" data-name="Path 556" class="cls-3" d="M506.1,572.7c3-3.7,5.7-7.8,8.5-11.7,1.7-2.4,3.3-4.8,5.7-6.5-3.4,6.4-4.2,13.8-7.4,20.4a1.689,1.689,0,0,0,1.6-1.1c3.9-5,7.5-10.5,11.9-15,4.2-4.3,8.9-7.6,14.7-8.7.3,0,.5-.1.8-.1.6,0,1.3.1,1.3.8,0,1-.8.6-1.3.6-4.1-.2-7.4,1.9-10.7,4.1-5,3.3-8.4,8.4-12.1,13.2-3.2,4.1-6.1,8.4-9.9,11.8a11.865,11.865,0,0,1-2.3,1.6c4.3-5.8,5.2-13.2,7.9-19.8-5.5,7-10.1,14.9-17.5,19.8,1.1-1.8,2.5-3.3,3.5-5.1a44.688,44.688,0,0,0,5.7-13.7,12.946,12.946,0,0,0,.2-4.8c-.6-3.3-3.5-4.8-6.9-3.6a12.316,12.316,0,0,0-5,3.5c-2.8,3.1-5.2,6.7-5.7,11.3a7.757,7.757,0,0,0,.4,4,3.963,3.963,0,0,0,5.5,2.2c4.5-2.3,6.8-6.5,7.7-11.6.5-2.7-.8-3.9-3.1-3.4.1.7,1.2.7.9,1.7a1.916,1.916,0,0,1-1.2,1.4.954.954,0,0,1-1.2-.3,2.117,2.117,0,0,1-.2-1.9,2.917,2.917,0,0,1,3.3-1.8c1.4.4,2.5,2.6,2.1,4.5a18.453,18.453,0,0,1-5.7,10.5,6.508,6.508,0,0,1-4.7,2c-2.6-.1-4.7-2.4-4.9-5.4-.4-5.4,1.9-9.4,5.2-12.9a16.334,16.334,0,0,1,6.6-4.4c5.7-1.9,9.5,3.2,9,8.7a23.71,23.71,0,0,1-2.6,7.9,4.6,4.6,0,0,0-.7,1.6c-.6.3-.7.9-1,1.5-.2.1-.5.4-.3.6.3.3.4-.2.6-.3A8.3,8.3,0,0,0,506.1,572.7Zm7.1,2.6a.349.349,0,0,0-.1-.2l-.1.1a.349.349,0,0,0,.1.2Zm-9.1-.2h0c-.1.1-.1.2,0,.2l.1-.1A.1.1,0,0,1,504.1,575.1Z"/>
      <path id="Path_557" data-name="Path 557" class="cls-2" d="M492.6,316.1c.2-3.3-.4-7.4.3-11.4.7-4.3,3.2-6.8,7.1-7,1.8-.1,3.6.1,5.5,0,1.1,0,1.3.5,1,1.6v.2c-.3,1.2-.3,2.8-1,3.6-.7.9-2.1,0-3.1.1-2.5.2-3.7,1.3-3.9,3.6,0,.8.2,1.1.9,1.1h4.1c1.1-.1,1.3.5,1,1.4v.2c-.8,4.1-.8,4.2-4.7,4.1-1.3,0-1.5.5-1.5,1.7.1,3.9,0,7.8.1,11.8,0,1.2-.2,1.9-1.5,1.7-1.4-.2-3.3.7-4.1-.4-.7-.9-.2-2.9-.2-4.4C492.6,321.5,492.6,319.1,492.6,316.1Z"/>
      <path id="Path_558" data-name="Path 558" class="cls-2" d="M426.9,282.6a5.73,5.73,0,0,1,3.9,3c.8,1.3,1.7,1.8,3,1.2a.9.9,0,0,1,.5-.1c1.8-.2,3.5.5,4,1.9a3.647,3.647,0,0,1-1.5,4.3c-1.8,1.1-1.9,2.4-1.7,4.4a20.162,20.162,0,0,1-1.4,9.7,14.459,14.459,0,0,1-2.2,3.6c-.5.6-1.1,1.6-1.9,1.2-.8-.5-.1-1.4.1-2.1,1-4.9-.5-9.2-2.5-13.3-.3-.6-.8-.6-1.3-.7a12.769,12.769,0,0,1-4.8-2.4c-.4-.4-.8-.8-.7-1.4s.7-.7,1.2-.9c1-.3,2.3-.3,2.9-1,.7-.8-.2-2.1-.3-3.3C423.9,284.3,424.9,282.6,426.9,282.6Z"/>
      <path id="Path_559" data-name="Path 559" class="cls-3" d="M141.2,453.7V462c0,1.1-.1,1.5-1.2,1.5-3.5,0-3.5.1-3.5-3.9,0-3.5,0-3.5-3.2-3.5-2.2,0-2.2,0-2.2,2.4v2.2c0,2.8,0,2.6-2.5,2.8-1.6.1-2.3-.3-2.2-2.3.2-5.2.1-10.4,0-15.7,0-1.2.3-1.6,1.4-1.5,3.3,0,3.3,0,3.3,3.6,0,3.3,0,3.3,3,3.3h1.2c.9.1,1.4-.2,1.2-1.3a13.333,13.333,0,0,1,0-2c.1-1.1-.5-2.9.2-3.3,1.1-.6,2.6-.2,3.9-.3.8,0,.6.7.6,1.2Z"/>
      <path id="Path_560" data-name="Path 560" class="cls-2" d="M54.7,32.4a17.634,17.634,0,0,0-2.3,0c-1.1.1-1.6-.3-2.2-1.4A5.932,5.932,0,0,0,43,27.7a6.824,6.824,0,0,0-4.5,6.9A7.063,7.063,0,0,0,42.8,41a6.112,6.112,0,0,0,6.9-2.2c.6-.7.6-2.1,1.5-2.3a13.551,13.551,0,0,1,3.5-.1c-.2,4.9-4.7,9.1-9.8,9.2-5.4,0-9.9-4.6-10.2-10.3-.3-6.3,3.6-11.4,9.1-12.1C49,22.6,53.9,26.6,54.7,32.4Z"/>
      <path id="Path_561" data-name="Path 561" class="cls-2" d="M208.3,463.4h-4.6a1.291,1.291,0,0,1-1.3-.9c-.6-1.1-1.2-2.2-1.7-3.3a1.517,1.517,0,0,0-1.2-1c-1.5-.1-2.2.1-2.1,2.1.2,3.1,0,3-2.7,3.1-1.6.1-2-.4-2-2.2q.15-7.8,0-15.6c0-1.4.4-1.8,1.6-1.7,1.9.1,3.8,0,5.6,0a6.125,6.125,0,0,1,5.9,3.9,7.207,7.207,0,0,1-.7,7.6,1.543,1.543,0,0,0,0,2.1C206.2,459.4,207.1,461.3,208.3,463.4ZM197,451.1c.1,1.3-.6,3,1.7,2.8,2.2-.2,3.5-1,3.5-2.7.1-1.8-1.2-2.6-3.5-2.9C196.4,448.1,197.2,449.8,197,451.1Z"/>
      <path id="Path_562" data-name="Path 562" class="cls-2" d="M23.7,24.2c2.5,0,5,.1,7.5,0,1.1,0,1.4.3,1.2,1.4a3.788,3.788,0,0,0,0,1.5c.2,1.2-.3,1.4-1.3,1.4-3.7-.1-7.3,0-11-.1-1.1,0-1.5.3-1.5,1.6.1,3.2,0,3.2,3,3.2,2.9,0,5.8.1,8.6,0,1.2,0,1.6.4,1.4,1.6a2.054,2.054,0,0,0,0,1.1c.2,1.3-.2,1.7-1.4,1.6-3.4-.1-6.9,0-10.3-.1-1,0-1.4.2-1.3,1.4.1,1.5,0,2.9,0,4.4,0,.9-.1,1.3-1,1.3-2.8.1-2.8.1-2.8-3,0-5.2.1-10.4,0-15.6,0-1.6.4-1.9,1.7-1.9A57.723,57.723,0,0,0,23.7,24.2Z"/>
      <path id="Path_563" data-name="Path 563" class="cls-3" d="M9.4,307.5c0,3.4-.1,6.8,0,10.1.1,2.3-1.5,1.5-2.4,1.7-1.4.3-.9-1-.9-1.7V297.7c0-.6-.5-1.9.7-1.8,1.1.1,2.5-.9,3.1,1.2a98.1,98.1,0,0,0,3.7,10.8c0-3.5.1-7,0-10.5-.1-1.7.6-1.7,1.7-1.7s1.7.1,1.6,1.6c-.1,6.3,0,12.6,0,19,0,.7.3,1.9-.9,1.7-1.1-.2-2.6,1.4-3.3-.9-1-3.3-2.1-6.5-3.1-9.8C9.6,307.5,9.5,307.5,9.4,307.5Z"/>
      <path id="Path_564" data-name="Path 564" class="cls-2" d="M450.3,298.9a15.485,15.485,0,0,1-1,5.2,7.138,7.138,0,0,0-.2,5c.5,1.1-.2,1.2-1,1-2.6-.6-4.2-2.6-4.6-5.5l-.3-2.4a1.7,1.7,0,0,0-1.7-1.4c-.9,0-1.4.6-1.7,1.5a1.626,1.626,0,0,0,.9,1.9c.1.1.2.1.3.2,1.2.7,2.3,1.5,1.7,3.3a2.846,2.846,0,0,1-3.7,1.5,3.768,3.768,0,0,1-2.8-3.5,6.7,6.7,0,0,1,1.8-6.2,5.417,5.417,0,0,1,4-1.5c1,0,1.1-.5.7-1.4a2.822,2.822,0,0,0-3.1-1.6c-.5,0-1,.3-1.3-.4-.2-.6.2-1,.5-1.4a6.771,6.771,0,0,1,7.8-1.7C449.1,292.8,450.3,295.2,450.3,298.9Z"/>
      <path id="Path_565" data-name="Path 565" class="cls-2" d="M426.2,48.7c-3.6,1.1-5.1,5.1-3.8,9.5,1.2,4.2,3.5,4.7,9.4,2.2.7,3.1.6,3.2-1.9,4.2a14.874,14.874,0,0,1-5.5,1c-4.4,0-7.7-3-8.4-7.7s1.5-9.2,5.5-10.8A9.752,9.752,0,0,1,429,47a4.748,4.748,0,0,1,2.7,2.5,3.439,3.439,0,0,1-.8,4.1,3.921,3.921,0,0,1-4.4-.1c-.4-.4-.3-.8-.3-1.2Q426.2,50.65,426.2,48.7Z"/>
      <path id="Path_566" data-name="Path 566" class="cls-2" d="M162.2,453.7v-8.5c0-1,.3-1.3,1.1-1.2,2.1.1,4.2,0,6.3,0a6.94,6.94,0,0,1,6.5,7.3,6.792,6.792,0,0,1-6.6,6.9c-2.6,0-2.7,0-2.6,3,.1,1.8-.4,2.3-2,2.2-2.7-.2-2.7,0-2.7-3Zm6-5.3c-2.1-.7-1.8,1-1.7,2.5,0,3,.7,3.6,3.4,2.8a2.8,2.8,0,0,0,1.2-4.5A3.448,3.448,0,0,0,168.2,448.4Z"/>
      <path id="Path_567" data-name="Path 567" class="cls-2" d="M262.2,567.5h5.6c.6,0,.6.3.4.8-1.3,3.8-2.7,7.6-4,11.5a1.063,1.063,0,0,1-.9.8c-5.2.7-10.5-3.5-11.7-9.2-1.3-6,1.6-12.2,6.6-14.3.7-.3,1.2-.2,1.4.6,0,.2.1.3.2.5.9,2.5.9,2.4-1.1,3.9a7.47,7.47,0,0,0-3,7.4,6.419,6.419,0,0,0,4.4,5.6c1,.3,1.7.3,2-1.1a14.276,14.276,0,0,1,.8-2.2C263.2,570.5,264.1,568.9,262.2,567.5Z"/>
      <path id="Path_568" data-name="Path 568" class="cls-3" d="M444.8,590.5c-1.6,0-3.3,0-4.9.1-1.3.1-1.9-.4-1.7-1.9a8.533,8.533,0,0,0,0-1.6h0c1.2.4,1.8,0,1.6-1.6-.1-1.4,0-2.8-.1-4.2,0-.8.4-1.8-1-2-.8-.1-.5-1.5-.5-2.3-.1-.8.6-.9,1.1-1,2.1-.1,4.1-.2,5.3,2.5a28.1,28.1,0,0,0,3.5,4.9V580c0-.3-.1-.5-.3-.5-2-.2-.8-1.8-.8-2.7-.1-1.2,1-.7,1.7-.8a26.158,26.158,0,0,1,2.8,0c.8,0,1.7,0,1.8,1.1.1.9.5,2.2-1.1,2.3-.4,0-.5.4-.4.8a18.286,18.286,0,0,0,.2,3.3,20.9,20.9,0,0,0,.1-2.5c-.1-.8,0-1.3.8-1.4,1.3-.2.3-1.6,1.3-2.5-.4,1.4.8,2.9-1.3,3.3-.5.1-.3.7-.3,1.1,0,2.5.1,5,0,7.5,0,.8.4,2-.7,2.1-1,.2-2.1.6-3.1-.5-2-2.3-3.4-5.2-5.6-7.6v3c0,.2,0,.7.1.7,2.5.9,1.2,2.7,1.5,3.8Z"/>
      <path id="Path_569" data-name="Path 569" class="cls-3" d="M189.3,453.7V462c0,1-.1,1.5-1.2,1.5-2.9-.1-5.7-.1-8.6,0-1,0-1.1-.4-1.2-1.4,0-3,0-3,2.7-3a13.351,13.351,0,0,1,2,0c1.6.3,1.7-.7,1.6-2,0-.8-.3-1.1-1-1-1,.1-2.1-.1-3.1,0-1.2.1-1.6-.4-1.4-1.6a4.845,4.845,0,0,0,0-1.7c-.1-.9.2-1.2,1-1.2.9.1,1.8-.1,2.6,0,1.5.2,1.9-.4,1.9-2.1,0-1.2-.4-1.4-1.4-1.4-1.3.1-2.5,0-3.8,0-.9.1-1.1-.3-1.1-1.2-.1-3.1-.1-3.1,2.6-3.1,2.4,0,4.8.1,7.1,0,1.1,0,1.3.4,1.3,1.5C189.3,448.2,189.3,450.9,189.3,453.7Z"/>
      <path id="Path_570" data-name="Path 570" class="cls-2" d="M65.7,22.5c3.9,7.5,7.7,14.7,11.7,22.2H73.5c-.9,0-1.1-.8-1.4-1.4-2.1-4-4.2-8-6.4-12.2-2.1,4-4.2,7.8-6.1,11.7-.7,1.5-1.6,2.1-3.1,1.9a19.051,19.051,0,0,0-2.4,0C58,37.2,61.8,30,65.7,22.5Z"/>
      <path id="Path_571" data-name="Path 571" class="cls-2" d="M558,287.4a23.348,23.348,0,0,1,12.1,3.5,1.866,1.866,0,0,1,.9,2.6c-1.2,3.9-1.1,3.8-4.3,2-6.1-3.5-12.3-3.2-18.1.8-1.3.9-1.8.8-2.4-.8-1.4-3.7-1.4-3.9,1.8-5.6A23.09,23.09,0,0,1,558,287.4Z"/>
      <path id="Path_572" data-name="Path 572" class="cls-2" d="M151.6,450.4a49.236,49.236,0,0,0,2.6-5.1,1.918,1.918,0,0,1,2.1-1.3c1.2.1,2.4,0,3.6,0,.3.6-.1.9-.3,1.3a61.909,61.909,0,0,1-3,5.7,15.729,15.729,0,0,0-2.7,11c.2,1.3-.4,1.5-1.4,1.5-3.3,0-3.4,0-3.2-3.6a11.906,11.906,0,0,0-1.6-6.7c-1.7-2.9-3.1-5.9-4.8-9.1h4.7c.7,0,.9.5,1.2,1C149.7,446.7,150.6,448.5,151.6,450.4Z"/>
      <path id="Path_573" data-name="Path 573" class="cls-3" d="M78.4,301.7c.6-1.8,1.1-3.1,1.6-4.4.4-1.1,2.8-1.9,3.6-1.2.5.4.1.8,0,1.1-1,2.8-2,5.7-3.1,8.5a2.967,2.967,0,0,0,0,2.6c1.1,3.3,2.1,6.6,3.2,9.9.4,1.2.1,1.3-.9,1.3-1.6-.1-2.7-.6-3-2.6a45.912,45.912,0,0,0-1.4-4.5,35.61,35.61,0,0,0-1.9,4.7,2.644,2.644,0,0,1-3.6,1c-.5-.4-.1-.8.1-1.1,1-2.8,2-5.7,3.1-8.5a4.417,4.417,0,0,0,0-3.2c-.9-2.7-1.7-5.4-2.6-8.1-.3-.9-.2-1.1.7-1.2,1.7-.2,2.8.2,3.2,2.3A23.732,23.732,0,0,0,78.4,301.7Z"/>
      <path id="Path_574" data-name="Path 574" class="cls-2" d="M396.6,588.1c-.1-.3-.1-.8.1-.8,1.5.2,1.3-1,1.3-2,0-1.2.1-2.3,0-3.5-.1-.9.7-2.3-1.2-2.5-.7-.1-.4-1.5-.3-2.3,0-.8.6-.8,1.2-.8,2.1.1,4.2,0,6.3,0,4.1,0,5.8,2.3,5.1,6.8,0,.3,0,.5.3.5a2.769,2.769,0,0,0,.1.9c-.2.6-.5,1.2-1.2,1.1-.2-.2-.3-.4-.5-.5-.1,0-.1-.1-.2-.1,0,.1.1.1.1.2l.5.5c-.9,1-.6,1.6.5,1.6,1.8,0,1.1,1.3,1.2,2.3.1,1.3-.7,1.1-1.4,1.1H407c-1.3.1-2.7.4-2.4-2,.1-.8-.8-1.7-1.5-2.3-.3-.3-1-.6-1.3.1-.2.5-.2,1.1.6,1.2,1.4.2.6,1.4.7,2.2.1,1-.7.9-1.3.9-1.7,0-3.4-.1-5.1-.1A21.743,21.743,0,0,1,396.6,588.1Zm6.5-5.2c1-.1,2.4.1,2.4-1.7a1.556,1.556,0,0,0-1.9-1.7c-1.1.1-2.2-.2-2.1,1.7C401.7,582.5,402,583.1,403.1,582.9Z"/>
      <path id="Path_575" data-name="Path 575" class="cls-2" d="M419.9,448.5a2.523,2.523,0,0,0,1,1.5,9.4,9.4,0,0,0,5.6,2.4c3.4.3,5.9-1.6,8.2-4,1.8-1.9,3.4-4.2,5.5-5.7l-.1.1c-.1-.3.1-.5.4-.4l-.1.1c0-.7.6-1,.9-1.4,2.2-2.7,4.4-5.3,6.7-7.9,1-1.1.5-1.5-.4-1.8-1.6-.6-2.8.2-3.9,1.4-4,4.3-7.9,8.7-12,13q-5.7,6-10.2-1.2C421.6,444.5,420.5,448.3,419.9,448.5Z"/>
      <path id="Path_576" data-name="Path 576" class="cls-3" d="M537.3,580.5c-2.1.6-2.8-.1-3.2-3.1-.6-.2-.6,1.1-1.4.7h0c2-3.8,4.4-6.9,8.4-8.3a1.683,1.683,0,0,1,2.4,1c1.6-3,3.2-5.9,4.8-8.8a10.916,10.916,0,0,1,.6-1.1,1.737,1.737,0,0,1,2.3-.3c.7.5-.2,1.1-.5,1.6-2.7,5-5.5,10-8.3,15-.4.8-1.4,2-.5,2.8.9.7,1.6-.7,2.2-1.3a14.882,14.882,0,0,0,2.4-3.2,12.588,12.588,0,0,1,7-5.7c.3-.1.7-.3.8-.1,1.2,1.2,2.6,0,4.1.5-1.3,2.4-2.6,4.8-3.8,7.1-.4.9-1.4,2.1-.5,2.8.8.6,1.7-.7,2.2-1.4,1.8-2.3,3.5-4.7,5.2-7.1.1.1.2.2.2.3-1.6,2.3-3.1,4.7-4.8,6.9a4.561,4.561,0,0,1-1.2,1.2c-1.9,1.5-3.1.9-3.7-2.2-1.2,1.1-1.9,2.9-3.6,3.1-1.2.1-2.2-1.3-2.6-3.3-.6.6-1.4,1.3-2.1,2-2.1,2-3.4,1.6-4-1.4-.1-.3-.1-.5-.4-.5-.1-.1-.2-.2-.2-.3,1-1.8,2.4-3.4,3.1-5.3.2-.4.6-1,.1-1.5a1.009,1.009,0,0,0-1.5-.1,14.131,14.131,0,0,0-5.5,7.9c-.3,1-.1,2,1.3,1.8C537.1,580.3,537.2,580.4,537.3,580.5Zm18.1-9.4c-.1-.6-.4-.9-.9-.8a3.805,3.805,0,0,0-1.7.8,17.354,17.354,0,0,0-4.7,7.1c-.2.8-.2,1.3.3,1.8.6.5,1.1,0,1.5-.3a25.934,25.934,0,0,0,4.4-5.9C554.7,572.9,555,572,555.4,571.1Z"/>
      <path id="Path_577" data-name="Path 577" class="cls-3" d="M57.1,176c-1.1,0-2.2.1-3.3,0-1.3-.1-1.2.6-.8,1.6a3.367,3.367,0,0,0,5.2,1.1c1.7-1.4,2.1.6,2.8,1.3.8.9-.5,1.3-1,1.6a6.9,6.9,0,0,1-8.2.1c-2.8-2-3.1-5.2-2.7-8.5.5-3.8,2.7-6.3,5.7-6.6,5.1-.4,7.1,3.8,7,8.6,0,.8-.4.9-1,.9C59.6,176,58.4,176,57.1,176Zm.5-2.9a.623.623,0,0,0,.3-.5,2.219,2.219,0,0,0-1.4-2.4,2.411,2.411,0,0,0-3.2.9,1.845,1.845,0,0,0-.5,1.7c.1.2.1.3.2.3C53.3,173.2,57.6,173.1,57.6,173.1Z"/>
      <path id="Path_578" data-name="Path 578" class="cls-2" d="M27.6,174.6c0-2.1.1-4.3,0-6.4-.1-1.2.4-1.4,1.3-1.4,2.1.1,4.2,0,6.3,0,2.5.1,3.9,1.4,4,4.1.2,3.6.1,7.1.1,10.7,0,.8-.3,1-1,1-2.7,0-2.7,0-2.7-3,0-2.4,0-4.8.1-7.2,0-.9.1-1.9-.8-2.2a6.171,6.171,0,0,0-3.3-.1c-.5.1-.3.9-.3,1.3,0,3.2-.1,6.4,0,9.6.1,1.9-.9,1.5-1.9,1.6-1,0-2,.3-1.8-1.6C27.7,178.9,27.6,176.8,27.6,174.6Z"/>
      <path id="Path_579" data-name="Path 579" class="cls-2" d="M386.1,590.6c-1.7,0-3.4-.1-5,0-1.4.1-2-.4-1.6-1.9.3-.3.2-.8.2-1.2a2.012,2.012,0,0,0,1.7-1.6c.6-1.5,1.3-3,1.9-4.5.2-.6,1.2-1.5-.4-2-.7-.2-.3-1.7-.3-2.5.1-.8.8-.6,1.2-.6a21.562,21.562,0,0,0,4.4,0c1.5-.3,1.3,1.5,2.1,2.1h-.1a1.955,1.955,0,0,0,.7,1.5v-.1a6.715,6.715,0,0,0,1,2.3V582c.1.3-.1.7.4.8v-.1a3.69,3.69,0,0,0,.7,2.3v-.1c.3,1,.3,2.2,1.7,2.3.7,0,.6.7.6,1.2,0,.7.1,1.4.1,2.1v-.1h-4.9c-.5,0-1.4.3-1.6-.6a2.677,2.677,0,0,1,.2-2.3c.3-.3.7-.4.5-.9-.2-.6-.7-.4-1.1-.4-.9,0-1.7-.1-2.6-.1-.5,0-1.3.6-.8.9,1.4,1.1.6,2.5,1,3.6Zm1.2-10c-.5.8-1.1,1.5-.7,2.4.2.4,1.2.5,1.4,0C388.5,582.1,387.7,581.4,387.3,580.6Z"/>
      <path id="Path_580" data-name="Path 580" class="cls-3" d="M431.8,183.5c1.3-1.7,2.4-3.2,3.7-5-2.1,0-3.9-.1-5.7,0-1.5.1-2.1-.3-2-2.1.2-4.1-.7-4,3.5-3.9,2.5.1,5,0,7.5,0a1.961,1.961,0,0,0,2-.9c1.1-2.1,2.8-2.5,4.8-2.3a24.018,24.018,0,0,0,2.7,0c-.8,1.1-1.5,2-2.1,2.8-2.5,3.2-5,6.4-7.4,9.7a3.231,3.231,0,0,1-3.3,1.6C434.4,183.4,433.3,183.5,431.8,183.5Zm7-8.8a.9.9,0,0,0-.1-.5h-7.2v.6A59.284,59.284,0,0,0,438.8,174.7Zm-1.6,2.2a1.952,1.952,0,0,0-.1-.7h-4.9c-.3,0-.6-.1-.7.3a.35.35,0,0,0,.3.5A32.269,32.269,0,0,0,437.2,176.9Z"/>
      <path id="Path_581" data-name="Path 581" class="cls-2" d="M571.1,286.4c-8.6-4.6-17-4.6-25.4-.1.9-5.7,5.3-9,12.4-9.2C563.4,277,569.5,279,571.1,286.4Z"/>
      <path id="Path_582" data-name="Path 582" class="cls-3" d="M20.4,306.9v-9.4c0-1.2.2-1.6,1.3-1.6a56.1,56.1,0,0,0,5.8,0c1.2-.1,1.1.8,1,1.5s.6,2-.9,2h-.2c-3.8.2-3.8.2-3.5,4.6,0,.8.2,1.1,1,1,.5-.1,1,.1,1.5,0,1.4-.3,1.6.4,1.6,1.8,0,1.5-.3,1.9-1.7,1.8-2.4-.1-2.4,0-2.4,2.7,0,2.6,0,2.6,2.4,2.4.3,0,.6-.1.8-.1.6,0,1.6-.5,1.4.9-.1,1,.7,2.6-1.3,2.6a49.042,49.042,0,0,0-5.4.4c-1.1.2-1.4-.1-1.4-1.4C20.5,313.2,20.4,310,20.4,306.9Z"/>
      <path id="Path_583" data-name="Path 583" class="cls-2" d="M434.2,590.2c-2.2.6-4.4,1.2-6.7.2-3.2-1.4-4.8-4.3-4.3-8.3.5-3.5,2.7-5.7,6-5.9H432c2.3.2,3.8,1.7,4.8,4,.2.8.3,1.7.5,2.5.5,1.3-.4,2.5-.2,3.8v-.1c-.4.1-.4.5-.4.8v-.1a.523.523,0,0,0-.4.8v-.1c-.4-.2-.3.2-.4.4-.6,0-.9.3-.9,1-.2.2-.5.3-.7.5h0c0,.2-.2.2-.1.5Zm-6.6-8.8c-.5,0-.3.5-.3.7a4.092,4.092,0,0,0,1.8,5,3.2,3.2,0,0,0,4.3-2.1,3.831,3.831,0,0,0-1.9-5.1,2.253,2.253,0,0,0-2.6,0c-.2.1-.5,0-.3.4-.4-.3-.5,0-.7.3C427.6,580.8,427.4,581,427.6,581.4Z"/>
      <path id="Path_584" data-name="Path 584" class="cls-3" d="M291,440.1c.1,2.1-1.1,2-2.3,2-3.4-.1-3.4,0-3.4-3.7v-5.3a2.542,2.542,0,0,1-2.8.9c-.6,0-.9.1-.9.9,0,.7.2,1,.9.9h1c.7-.1,1,.3.9,1,0,.7-.1,1.3-.9,1.1-1.9-.5-2.1.7-1.9,2.3,0,.6.3,1.3-.3,1.7a2.515,2.515,0,0,1-1.5.1c-.5-.1-.4-.7-.4-1.1V433c0-.5-.1-1.2.7-1.1,1.5.2,3.1-.6,4.6.5a.494.494,0,0,0,.3.1,1.328,1.328,0,0,1,2-.4c.7.7.2,1.8.3,2.8a22.853,22.853,0,0,1,0,3.7c-.1,1.2.3,1.5,1.3,1.4a17.651,17.651,0,0,1,2.3,0c-.9-4.3-.2-6.7,2.4-7.8a4.305,4.305,0,0,1,5.7,1.9,5.975,5.975,0,0,1-.8,7C296.3,442.8,293.7,442.5,291,440.1Zm6.6-2.9c0-1.9-1.2-3.3-2.7-3.3a2.6,2.6,0,0,0-2.3,2.8c0,1.9,1.2,3.3,2.7,3.2C296.7,439.9,297.6,438.8,297.6,437.2Z"/>
      <path id="Path_585" data-name="Path 585" class="cls-2" d="M375.4,590.6c-1.5,0-3,.5-4.6.1-3.3-.7-5-2.9-5.3-6.8-.2-3.5,1.4-6.3,4.4-7.3a7.325,7.325,0,0,1,7,.8c1.3.9,1,2.3.9,3.6-.1.9-1,.5-1.5.5-.6,0-1.4.4-1.6-.7-.1-.5,0-1-.7-.9h.1a2.25,2.25,0,0,0-2.7,0h.1a.735.735,0,0,0-.8.4c-.4,0-.5.2-.5.6-.4.2-.5.4-.4.9h.1a3.586,3.586,0,0,0,4.6,5.2c.4-.2.8-.4.6-.9-.2-.7-.8-.5-1.2-.4-1.9.2-2.3-.2-2-2.1.1-.6.4-.9.8-.9,1.6,0,3.2.1,4.8,0,.8,0,.9.4.9,1.1-.1,1.6-.1,3.3-.2,4.9v-.1c-.3-.1-.4.2-.5.4-1,.3,0,.9-.2,1.4a2.575,2.575,0,0,1-1.6.7A.821.821,0,0,1,375.4,590.6Z"/>
      <path id="Path_586" data-name="Path 586" class="cls-2" d="M414.7,581.3c-.1-1,.2-1.5,1.1-1,.4.2.5,0,.6-.2.1-.3-.2-.4-.4-.4-.7.1-1.5-.2-1.7,1.1-.2,1.6-1.5.8-2.3.9-.9.1-.8-.8-.8-1.4,0-3.7,0-3.7,3.4-3.9,2.1-.1,4.2,0,6.3,0,.6,0,1.3-.1,1,1a13.036,13.036,0,0,0-2,4.3.812.812,0,0,0-.4.8v-.1c-.3-.1-.3.2-.4.4v-.1a.812.812,0,0,0-.4.8v-.1c-.3-.1-.3.2-.4.4v-.1a.812.812,0,0,0-.4.8v-.1c-.3-.1-.3.2-.4.4v-.1a.812.812,0,0,0-.4.8v-.1c-.4,0-.4.3-.4.6v-.1c-.6.4-.7.7.1.8,1.5.2,1.9-.8,2.1-2.1h0c2.8,0,2.8,0,2.8,3,0,2.6,0,2.6-2.3,2.5-2.9-.2-5.8.2-8.7-.2v-1.3c1.2-2.1,2.4-4.2,3.5-6.3.6-.2.6-.9.8-1.4C415.3,581.4,415,581.3,414.7,581.3Z"/>
      <path id="Path_587" data-name="Path 587" class="cls-3" d="M203.6,41.8c.3.5.6.8.8,1.2.6.8,1.1,2.1,1.8,2.3s1.1-1.3,1.7-2c.5-.5,1-.9,1.6-.4a1.192,1.192,0,0,1,.1,1.8c-2,1.9-1.9,3.7,0,5.6a1.173,1.173,0,0,1-.1,1.9c-.6.4-1.1.2-1.6-.5-.5-.8-1-1.6-1.6-2.4-.6.9-1.1,1.7-1.6,2.4s-1.1.9-1.7.3-.4-1.2.1-1.8a.349.349,0,0,0,.1-.2c1.8-2.8,1.8-2.8-.1-5.4l-1.8-2.4a.759.759,0,0,0-.9-.3c-.4.1-.3.6-.4.9v2.9c0,.8-.3,1.3-1.1,1.3s-1.2-.5-1.2-1.4v-11c0-1,.4-1.5,1.3-1.5h2.8c2.5.1,3.9,1.1,4.4,3.3A4.774,4.774,0,0,1,203.6,41.8ZM200,38.9c.1.6.6.8,1.5.7,1.7-.2,2.5-.7,2.4-2.1-.1-1.8-1.2-1.7-2.5-1.9-1.1-.1-1.5.3-1.5.9Z"/>
      <path id="Path_588" data-name="Path 588" class="cls-2" d="M249.8,40.6c0-2.7-.4-3.2-2.9-3.2-2.1,0-2.4-.3-2.4-2.7s.3-2.8,2.5-2.8c2.5,0,2.8-.4,2.8-3.2,0-2.3.3-2.6,2.5-2.6,2.1,0,2.5.4,2.5,2.6,0,2.5-.3,2.9-2.6,2.9-2.4,0-2.8.5-2.8,3.1s.5,3.1,2.9,3.1c2.2,0,2.5.4,2.5,2.8,0,2.3-.4,2.7-2.4,2.7-2.5,0-2.8.4-2.8,3.2,0,1.1.1,2.4-1.1,2.5s-2.8.9-3.6-.8a4.085,4.085,0,0,1,.2-4c.5-.8,1.4-.6,2.2-.6C249.5,43.6,249.8,43.1,249.8,40.6Z"/>
      <path id="Path_589" data-name="Path 589" class="cls-3" d="M532.8,578c-.2,1.1-1.9,2.9-2.8,2.8-1.5-.2-1.9-1.4-1.9-3-1.7.9-2.4,3.8-4.7,2.7-1-.4-1.2-1.7-1.1-2.9a25.74,25.74,0,0,1-2.1,2.4c-.7.7-1.5,1.2-2.4.6a3.1,3.1,0,0,1-1.5-2.4,6.559,6.559,0,0,1,2.2-5.4,16.031,16.031,0,0,1,3.8-2.6c1-.4,2-1,3.2-.1.5.4,1.7-.3,2.7-.1-.9,2.4-2.4,4.4-3.4,6.6-.2.5-.5,1-.7,1.5-.2.6-.8,1.4-.1,1.9.7.4,1.2-.4,1.7-.8a35.15,35.15,0,0,0,5.7-8.5c1.7-3.1,3.3-6.2,4.9-9.3.7-1.3,1.6-.6,2.7-1a20.33,20.33,0,0,1-2.4,4.9c-2,3.9-4.1,7.7-6.1,11.5-.5,1-1.5,2.3-.7,3.1.9.8,1.7-.8,2.4-1.5a2.093,2.093,0,0,0,.6-.4Zm-15,1c0,.4-.1.9.4,1.1.6.3,1.1-.1,1.5-.5a26.182,26.182,0,0,0,5.1-7.5c.2-.5.5-1.3,0-1.7-.6-.5-1.3-.1-1.8.4a20.052,20.052,0,0,0-4.5,5.8A3.415,3.415,0,0,0,517.8,579Z"/>
      <path id="Path_590" data-name="Path 590" class="cls-2" d="M90.2,434.4c-2.2-.8-4.2-1-6.3.2-.4.2-.7-.1-1.1-.2-.8-.4-1.8-1-2.5-.6-3.4,1.7-7-1.1-10.5.7A10.871,10.871,0,0,1,80.5,427,10.575,10.575,0,0,1,90.2,434.4Z"/>
      <path id="Path_591" data-name="Path 591" class="cls-3" d="M44.4,306.2c0-2.9.1-5.8,0-8.7,0-1.3.4-1.7,1.5-1.6a50.451,50.451,0,0,0,5.5,0c1.3-.1,1.1.8,1.1,1.7-.1.8.5,1.9-1,1.9-1.1,0-2.7-.6-3.3.3s-.1,2.6-.2,3.9c-.1,1,.1,1.5,1.1,1.3a3.352,3.352,0,0,1,1,0,2.132,2.132,0,0,1,1.8,3.2c-.3.8-1,.4-1.5.4-2.4.1-2.4,0-2.4,2.7,0,1.2-.1,2.4,0,3.5.2,1.8-.7,1.8-1.8,1.8-1.2,0-1.8-.1-1.7-1.7C44.5,312,44.4,309.1,44.4,306.2Z"/>
      <path id="Path_592" data-name="Path 592" class="cls-2" d="M126.9,44.4a5.251,5.251,0,0,1,1.5-3.6c2-2.2,4-4.5,6-6.6,2.1-2.3,4.9-2.3,6.8-.2a5.444,5.444,0,0,1-.2,7.5c-2.1,2.4-4.2,4.7-6.4,6.9a4,4,0,0,1-5.1.8C127.8,48.4,126.9,46.8,126.9,44.4Zm4.5,4.5c1.5,0,5.3-2.7,5.3-4.1.1-1.5-1.5-2-2.2-3.1l-.4-.4c-2.9-2.9-2.9-2.9-5.5.4a4.275,4.275,0,0,0-.6,4.6A3.8,3.8,0,0,0,131.4,48.9Zm6.5-14.1c-.1-.5-.4-1-.8-.8a3.007,3.007,0,0,0-1.8,2c-.1.4.4.9.7.8A4.1,4.1,0,0,0,137.9,34.8Z"/>
      <path id="Path_593" data-name="Path 593" class="cls-3" d="M265.9,39.6c.7-2.2,2.2-2.3,3.7-2.3.4,0,1,.3,1.1-.5a1.055,1.055,0,0,0-1-1.2c-.6,0-1.2-.2-1.7.4-.8.8-1.1-.2-1.4-.6-.5-.6.1-.9.5-1.1a4.154,4.154,0,0,1,4.3-.2c1.3.6,1.4,1.9,1.4,3.3v1.5c0,4.2-.2,4.4-4.1,4-1.4-.2-2.4-.9-2.7-3-.8,1.8-1.8,2.8-3.3,2.9-1.4.1-2.8.2-4-.7-.4-.3-1.2-.5-.7-1.3.4-.6.8-1.3,1.7-.5a3.051,3.051,0,0,0,3.2.4,1.31,1.31,0,0,0,.9-1.5,1.3,1.3,0,0,0-1-1.3c-.8-.2-1.6-.3-2.4-.5a2.8,2.8,0,0,1-2.2-2.6,3.657,3.657,0,0,1,1.3-3.7,4.5,4.5,0,0,1,5.3.2c.3.2,1,.5.4,1.1-.4.4-.6,1.3-1.4.7a2.977,2.977,0,0,0-2.2-.6,1.52,1.52,0,0,0-1.5,1.4c-.1,1,.5,1.4,1.3,1.6.4.1.8.1,1.1.2C265,36.1,265.4,36.6,265.9,39.6Zm3.7-.6c-.8,0-1.6,0-1.6,1.1,0,.9.7.9,1.3.9.8,0,1.4-.3,1.4-1.3C270.7,38.6,269.9,39.2,269.6,39Z"/>
      <path id="Path_594" data-name="Path 594" class="cls-3" d="M184.5,39.7c-.7,1.4-1.4,2.7-2.1,4.1-.9,1.6-1.7,1.6-2.5,0a23.209,23.209,0,0,0-2.5-4.2v5.9c0,.9-.1,1.8-1.2,1.8-1,0-1-.9-1-1.7V34.9c0-.7,0-1.4.8-1.6.8-.3,1.2.4,1.5,1,1.2,2.3,2.4,4.6,3.7,7.2,1.3-2.5,2.4-4.7,3.5-6.9.4-.7.7-1.6,1.7-1.3.9.3.7,1.2.8,2V45.4c0,.9,0,1.9-1.1,1.9-1.2,0-1.2-1-1.2-2V39.8A.756.756,0,0,0,184.5,39.7Z"/>
      <path id="Path_595" data-name="Path 595" class="cls-3" d="M190.1,309.2c1.3,1,2.5,1.9,3.7,2.9-3.7,1.3-6.2-1.1-8.7-3.2a1.237,1.237,0,0,1-.3-1.5,1.291,1.291,0,0,1,1.3-.9,7.383,7.383,0,0,0,3.9-.4c.6-.3,1.4-.5,1.3-1.4,0-.9-.8-1.1-1.4-1.4a5.708,5.708,0,0,0-2.9-.4c-2.9.1-3.4.8-3.4,3.9v4.4c.1,1.2-.6,1.1-1.3,1.1s-1.3.1-1.3-1.1c.1-2.2,0-4.4,0-6.6a3.689,3.689,0,0,1,2.1-3.3,7.865,7.865,0,0,1,8.7,0c2.9,1.8,2.8,5.1,0,6.9A12.756,12.756,0,0,1,190.1,309.2Z"/>
      <path id="Path_596" data-name="Path 596" class="cls-3" d="M167.5,306.1v-4.2c0-1.1.5-1.7,1.5-1.7h8c1.2,0,.8.9.8,1.5.1.7.2,1.3-.8,1.3-1.8-.1-3.6,0-5.5,0-.6,0-1.5-.4-1.5,1,0,1.3.8.9,1.4.9,1.7,0,3.4.1,5.1,0,1.1-.1,1.3.4,1.3,1.5,0,1-.2,1.4-1.2,1.4-1.8-.1-3.6,0-5.5,0-.7,0-1.2,0-1.1,1,0,1,.6.8,1.1.8,1.8,0,3.6.1,5.5,0,.9,0,1.3.2,1.2,1.3-.1.9.1,1.7-1.1,1.6-2.5-.1-5,0-7.5,0-1.2,0-1.8-.6-1.8-2C167.5,308.9,167.5,307.5,167.5,306.1Z"/>
      <path id="Path_597" data-name="Path 597" class="cls-3" d="M34.7,308.1c0-2.3-.1-4.7,0-7,0-1.2-.2-1.8-1.4-1.7-1.5.1-2.3-1.5-1.7-3.1.2-.6.6-.4,1-.4h7.6c1.5,0,.9,1.2,1,1.9.1.8.2,1.9-1.1,1.6-1.9-.4-2.1.6-2.1,2.4.1,4.5,0,9.1.1,13.6,0,1.6-.9,1.3-1.6,1.3s-1.9.7-1.8-1.1C34.8,313.1,34.7,310.6,34.7,308.1Z"/>
      <path id="Path_598" data-name="Path 598" class="cls-2" d="M41.9,171.1c0-2.4.1-4.8,0-7.2,0-1.1.2-1.6,1.3-1.4a2.854,2.854,0,0,0,1.3,0c.9-.1,1.2.3,1.1,1.3v1.5c-.2,1.3.3,1.9,1.4,1.6,1.2-.2,1.3.5,1.3,1.6s0,2-1.4,1.7c-1-.2-1.5.2-1.4,1.5a58.055,58.055,0,0,1,0,5.9c0,1.1.4,1.8,1.4,1.6,1.3-.2,1.3.6,1.3,1.6,0,1.1-.1,1.8-1.4,1.9-3.6.1-5-1.4-5-5.3C41.9,175.2,41.9,173.1,41.9,171.1Z"/>
      <path id="Path_599" data-name="Path 599" class="cls-2" d="M558.3,297.6a13.191,13.191,0,0,1,8,2.6c.8.6,1,1.1.2,1.8l-.1.1c-.7,1-1.3,2.3-2.3,2.9s-1.9-.8-2.9-1.2a8.026,8.026,0,0,0-7.5.9c-.9.6-1.5.6-2-.4a16.964,16.964,0,0,0-1-1.4c-1.5-2-1.5-2.1.6-3.4A12.533,12.533,0,0,1,558.3,297.6Z"/>
      <path id="Path_600" data-name="Path 600" class="cls-2" d="M55.6,306.4c0-3,.1-6,0-9-.1-1.7.8-1.4,1.7-1.4s1.9-.4,1.8,1.4c-.1,4.8,0,9.7-.1,14.5,0,1.3.3,1.8,1.5,1.6a2.879,2.879,0,0,1,1.3.1c1.8.1,2.3,1.1,1.9,3.1-.2.8-.6.5-1,.5-2-.1-4-.3-6-.3-.9,0-1.1-.4-1.1-1.3C55.6,312.5,55.6,309.4,55.6,306.4Z"/>
      <path id="Path_601" data-name="Path 601" class="cls-3" d="M326.8,445.9c-3.4.1-6.8-.1-10.2.1a181.467,181.467,0,0,0-22,2.9c-10,1.8-20.1,1.3-30.2.6V449c4.1,0,8.1.1,12.2,0,9.2-.3,18.4-2,27.5-3,7.4-.8,14.8-1.4,22.2-.1C326.4,445.8,326.6,445.9,326.8,445.9Z"/>
      <path id="Path_602" data-name="Path 602" class="cls-3" d="M155.9,39.7h1.7a1.016,1.016,0,0,1,1,.5c.7,1.1.2,5-.9,5.8a6.571,6.571,0,0,1-7.1.8c-2.2-1-2.7-3.2-2.9-5.5a12.212,12.212,0,0,1,.1-2.7c.6-4.8,5.4-7.2,9.1-4.5a4.741,4.741,0,0,1,1,1,1.272,1.272,0,0,1,.1,1.8c-.5.6-1.1.4-1.6-.2a3.7,3.7,0,0,0-3.8-1.2,2.664,2.664,0,0,0-2,1.7,8.569,8.569,0,0,0,0,6.3c.7,1.9,4.3,2.5,5.7,1,.6-.6.4-1.4.3-2.1s-.7-.3-1.1-.4h-.2c-.8-.1-2.1.2-2-1.2,0-1.5,1.3-.9,2.1-1,.1-.2.3-.1.5-.1Z"/>
      <path id="Path_603" data-name="Path 603" class="cls-3" d="M131.7,312.4a8.079,8.079,0,0,1-5.7-2.1,5.382,5.382,0,0,1-.1-8.1c2.8-2.7,8.2-2.9,11.1-.4.3.3,1.3.6.5,1.3-.5.5-.8,1.9-2.1.9a6.045,6.045,0,0,0-6.9-.5,2.98,2.98,0,0,0-1.9,2.6,2.89,2.89,0,0,0,1.8,2.6,6.02,6.02,0,0,0,6.9-.5c1.3-1.1,1.7.2,2.2.7.8.9-.3,1.2-.7,1.6A6.921,6.921,0,0,1,131.7,312.4Z"/>
      <path id="Path_604" data-name="Path 604" class="cls-3" d="M518.7,53.2a3.87,3.87,0,0,1,3.3-2,3.2,3.2,0,0,1,3.4,3.2c.2,2.6.1,5.1.2,7.7,0,.8-.3.9-.9.9s-1.1,0-1.1-.9V55.7c0-1.4-.4-2.6-1.9-2.7-1.3-.1-2.2.8-2.2,2.5-.1,2.1-.1,4.3-.1,6.4,0,.7,0,1.2-.8,1.1-.8,0-1.1-.3-1.1-1.1V55.8c0-2-.8-3-2.1-2.9-1.4.1-2.2,1.3-2.2,3.1,0,2,0,3.9.1,5.9,0,.9-.3,1.2-1.1,1.1-.8,0-.9-.4-.9-1.1V52.5c0-.5-.1-1,.5-1.2.5-.1.9-.1,1.1.5.2.8.5.5.9.2C516,50.6,517.1,50.8,518.7,53.2Z"/>
      <path id="Path_605" data-name="Path 605" class="cls-2" d="M67.5,171.5v9.6c0,1.2-.3,1.5-1.3,1.1a3.37,3.37,0,0,1-2.3-3.4c-.1-5.8,0-11.7-.1-17.5,0-.9.3-1,1-1a9.651,9.651,0,0,0,1.7,0c.9-.1,1.1.3,1.1,1.3C67.4,164.8,67.5,168.2,67.5,171.5Z"/>
      <path id="Path_606" data-name="Path 606" class="cls-2" d="M456,169.4c-3.6,4.7-7,9.1-10.4,13.5a1.466,1.466,0,0,1-1.3.6h-4.5c-.1-.8.5-1.1.8-1.5,2.8-3.7,5.6-7.2,8.4-10.9a3.275,3.275,0,0,1,3.1-1.6C453.2,169.5,454.4,169.4,456,169.4Z"/>
      <path id="Path_607" data-name="Path 607" class="cls-3" d="M209.6,312.2c-1.8.2-3.2.4-4-1.7-.3-.8-6.6-.6-7.1,0-1.5,1.8-1.5,1.8-3.9,1.6,2.2-3.9,4.2-7.7,6.4-11.4.7-1.2,1.6-1,2.3.2C205.4,304.6,207.4,308.3,209.6,312.2Zm-9.1-5h3.3c-.6-1.1-1.1-2-1.7-3C201.6,305.2,201.1,306.1,200.5,307.2Z"/>
      <path id="Path_608" data-name="Path 608" class="cls-3" d="M549.3,58.7c-.7,0-1.6-.4-1.6.9,0,1,1,.8,1.6.9,1,.1,2.1.1,3.1.3,2.1.4,2.9,2.4,1.6,4.4-1.5,2.5-6.5,2.9-8.4.7-.4-.5-.9-1.3-.6-1.8,1.1-1.6.7-3.5,1.3-5.2.2-.4.6-.7.1-1.3a3.912,3.912,0,0,1-.4-4.7c1.1-1.8,2.9-1.9,4.6-1.5a18.009,18.009,0,0,0,3.2.6c.3,0,.6-.1.7.3a.7.7,0,0,1-.4.9c-.5.2-.9.3-.9,1.2C553.6,57.3,552.3,58.7,549.3,58.7Zm.4,7.1a12.233,12.233,0,0,0,1.7-.3c.8-.3,1.6-.7,1.4-1.9a1.533,1.533,0,0,0-1.7-1.3h-1.3c-1.2,0-2.8-.5-2.9,1.6C546.7,66,548.5,65.5,549.7,65.8Zm2.1-10.6a2.134,2.134,0,0,0-2.3-2.4,1.974,1.974,0,0,0-2.1,2.2,2.1,2.1,0,0,0,2.3,2.3A2.051,2.051,0,0,0,551.8,55.2Z"/>
      <path id="Path_609" data-name="Path 609" class="cls-3" d="M422.7,31.4c.1.1.1.2.2.3-.1,4.4-.1,4.4-4,4.4H407.8c-1.1,0-1.3-.3-1.3-1.4,0-3.1,0-3.1,2.8-3.1h11.8A2.966,2.966,0,0,0,422.7,31.4Z"/>
      <path id="Path_610" data-name="Path 610" class="cls-2" d="M66.8,306.9c0-3.2.1-6.4,0-9.6-.1-1.7.9-1.3,1.7-1.3s1.7-.4,1.7,1.3c-.1,6.4,0,12.8,0,19.1,0,.7.1,1.6-.9,1.2-.9-.4-2.5.9-2.6-1.2-.1-3.1,0-6.3.1-9.5Z"/>
      <path id="Path_611" data-name="Path 611" class="cls-3" d="M308.7,37.1V31.7c0-1,.1-1.4,1.2-1.4,1.2,0,1.1.6,1.1,1.5v9.6c0,.5.4,1.4-.5,1.4-.7,0-1.4.3-1.9-.7a48.689,48.689,0,0,0-3.7-6c0,1.8-.1,3.7,0,5.5,0,1.1-.4,1.2-1.2,1.2s-1-.3-1-1.2V31.8c0-.5-.4-1.4.4-1.5.7-.1,1.5-.3,2,.8,1,2.1,2.2,4,3.3,6Z"/>
      <path id="Path_612" data-name="Path 612" class="cls-3" d="M140.3,303.7v-1.8c-.1-1.1,0-1.8,1.3-1.8,1.4,0,1.3.9,1.3,1.8v3.7c0,2.3,1.4,3.9,3.3,4,2,.1,3.5-1.6,3.6-3.9a32.3,32.3,0,0,0,0-4.4c-.1-1.1.5-1.2,1.2-1.1.6,0,1.2-.2,1.3,1a38.748,38.748,0,0,1-.1,5.9,6,6,0,0,1-6.2,5.3,6.481,6.481,0,0,1-5.7-6.3Q140.3,304.9,140.3,303.7Z"/>
      <path id="Path_613" data-name="Path 613" class="cls-3" d="M308,442.1v-9c0-.9.1-1.3,1.1-1.3.8,0,1,.4,1,1.2v7.9c0,.9-.2,1.2-1,1.1-.4-.1-.9-.3-1.1-.2-2.1.9-3.1-.3-4-2.1-.3-.5-.5-1.5-1.2-1.2-.6.3-.2,1.2-.2,1.9-.1.9.3,1.9-1.2,1.7-.8-.1-.9-.4-.9-1.1v-7.9c0-.4-.1-.8.4-1.1,1.1-.6,4.3-.1,5,.9a3.157,3.157,0,0,1,.1,3.9,1.422,1.422,0,0,0-.1,2A32.7,32.7,0,0,0,308,442.1Zm-4.9-8.2c-.8,0-.6.7-.6,1.3s-.1,1.1.7,1.1c.7,0,1.2-.3,1.2-1.1C304.3,434.2,303.8,434,303.1,433.9Z"/>
      <path id="Path_614" data-name="Path 614" class="cls-3" d="M421.8,176.8c-.9-.6-1.8-.3-2.8-.4-.6,0-1-.2-1-.9s.6-.6,1-.6c1.9,0,3.9.1,5.8,0,1.2,0,1.2.8,1.2,1.7s.3,2-1.1,1.9c-3.5-.1-7-.1-10.4-.3-1.4-.1-3-.5-3.1-2.4s1.4-2.5,2.7-2.9c3-.7,6.2-.4,9.2-.5a7.568,7.568,0,0,1,1.5.1c.5,0,1.3-.3,1.2.7-.1.9-.8.7-1.3.7h-5a18.412,18.412,0,0,0-3.3.3c-.7.1-1.4.4-1.4,1.2,0,.7.6,1.1,1.3,1.3A9.39,9.39,0,0,0,421.8,176.8Z"/>
      <path id="Path_615" data-name="Path 615" class="cls-3" d="M297.2,35.5c-.2-1.4,1.5-1.9,1.2-3.4-.1-.5.9-.6,1.4-.6.5-.1.4.6.4,1,0,.7-.3,1.7,1,1.5.5-.1.4.4.4.8s.1.9-.3.9c-1.6-.1-1,1.1-1.1,2v2c0,.7,0,1.2.8,1.2.9,0,.5.7.6,1.2.1.8-.5.6-.9.7-1.5.1-2.4-.8-2.4-2.5V36.8c0-.5.1-1-.6-1.1-.9-.1-.4.6-.4,1,0,1.7-.1,3.3,0,5,0,.9-.3,1.1-1,1.1s-.9-.3-.9-1.1V37.5c0-1-.3-1.7-1.3-1.8-1.1-.1-1.5.7-1.5,1.7,0,1.4-.1,2.8,0,4.2,0,.9-.3,1.1-1.1,1.1s-.9-.4-.9-1.1V34.8c0-.4-.2-1.1.6-1a13.475,13.475,0,0,0,3.5-.2A3,3,0,0,1,297.2,35.5Z"/>
      <path id="Path_616" data-name="Path 616" class="cls-3" d="M325.1,35.6c-.7.3-1,1-1.7.5-1.1-.6-1.7.1-1.8,1.3a29.436,29.436,0,0,0,0,4.2c0,.9-.3,1.1-1,1.1s-.9-.3-.9-1.1c0-2.3.1-4.5,0-6.8,0-1.2.6-1.3,1.2-1,1.5.7,3.4-1.1,4.7,1,0,0,.5-.3.8-.5,2.6-1.6,5.1,0,5.3,3.3.2,3.2-.6,4.8-2.5,5.2-2.3.5-3.9-.8-4.2-3.3A8.648,8.648,0,0,1,325.1,35.6Zm1.7,2.8c.2,1-.1,2.5,1.4,2.4,1.4-.1,1.3-1.5,1.3-2.5s0-2.3-1.3-2.3C326.8,35.9,327,37.3,326.8,38.4Z"/>
      <path id="Path_617" data-name="Path 617" class="cls-3" d="M370.1,172.6c1.8.1,4-.3,6.1.6,1,.4,2.1.8,2.1,2.2,0,1.5-1.1,2.1-2.2,2.6a5.7,5.7,0,0,1-2.6.4c-2.7.1-5.3,0-8,0-1,0-1.6-.3-1.6-1.7,0-4.3,0-4.3,3.8-4.3A8.6,8.6,0,0,0,370.1,172.6Zm.1,4.3h0a13.128,13.128,0,0,0,2.8-.1c.6-.1,1.5-.4,1.5-1.2,0-.9-.8-1.3-1.6-1.3-1.4-.1-2.9-.1-4.3-.2-1,0-1.3.5-1.3,1.6,0,1.2.5,1.3,1.3,1.3A4.454,4.454,0,0,1,370.2,176.9Z"/>
      <path id="Path_618" data-name="Path 618" class="cls-3" d="M401.6,172.5c2.1.1,4.2-.2,6.2.6,1,.4,2.2.9,2.1,2.4,0,1.5-1.2,2-2.2,2.3a26.483,26.483,0,0,1-11.2.4c-2-.3-.4-3-.8-4.6-.3-1,.6-1.2,1.4-1.2A33.81,33.81,0,0,0,401.6,172.5Zm.6,4.4h2.3c.8,0,1.5-.2,1.6-1.2.1-1.1-.7-1.4-1.5-1.5a15.4,15.4,0,0,0-4.3-.1c-1.1,0-1.1.9-1.1,1.8,0,1.2.6,1,1.3,1Z"/>
      <path id="Path_619" data-name="Path 619" class="cls-3" d="M529.6,470.6c.8-1.3,1.6-.5,2.6-.1-.1-1.6,0-3.1,2.1-2.1,1-1.3,2.8.8,3.7-1.1.2-.4.8-.1,1,.2.3.4,0,.5-.3.8-.6.5.2.4.3.5.7.4,1.2,1,.7,1.9a1.145,1.145,0,0,1-1.3.6c-.3-.1-.6-.1-.6-.5-.1-.8.8-.4,1-1-.7.1-1.1-1-1.7-.4a1.3,1.3,0,0,0,0,1.9c-.3.5-.7.1-.9.2-1.6.9-1.4-.5-1.5-1.5-.2-1.2-.2-1.2-1.6-.7.7.4,2.1.8.3,1.4.1.7,1,.2,1,1.1-.7.2-1.6,1-2.1-.5-.1-.4-.3-.3-.6-.1-2.4,1.4-2.8,1.2-3.9-1.7-.4,1.5-1.3,1.9-2.4,1.6-.6-.2-.1-.9-.3-1.3-1.6,1.3-2.2,1.1-2.7-.7a5.02,5.02,0,0,0,.2-1.2c.2-.4.6-1,.2-1.2s-.4.5-.5.9l-.3,1.2a1.226,1.226,0,0,1-2,.2c-.8-.6-.2-1.2,0-1.8.9-2.1.7-1.5,2.6-.8,2.6.8-.1,2.3.9,3.2,1.3-.1.3-2.7,1.9-2.4,1.1.2,2.4.2,2.6,1.9,1.8-1.5,2.5-1.4,3.5.3-.8.2-1.7-1.1-2.4.1a.926.926,0,0,0,.3,1.4c.2.4.7.5.7.3C530.4,470.7,529.8,470.9,529.6,470.6Z"/>
      <path id="Path_620" data-name="Path 620" class="cls-3" d="M290.4,445.8c-17.2,3-35.4,2.3-40.7-1.4C263.2,446.9,276.8,446,290.4,445.8Z"/>
      <path id="Path_621" data-name="Path 621" class="cls-3" d="M506.4,450a6.109,6.109,0,0,0,3-.8c.7-.3,1.3-.3,1.5.7.2.9.1,1.5-.9,1.8-2,.6-4,1.3-6,2-.5.2-1.1.6-1.4-.2a1.966,1.966,0,0,1,.1-2.2c.7-.9,1.5-1.8,2.2-2.8.2-.3.5-.5.3-.9-.2-.3-.5-.1-.8,0a14.579,14.579,0,0,0-1.9.7c-.8.4-1.3.2-1.6-.8s.1-1.4.9-1.7c2-.6,3.9-1.2,5.9-1.9.6-.2,1.1-.7,1.6.2.3.8.5,1.5-.1,2.2A15.015,15.015,0,0,0,506.4,450Zm-.9-2.6-.1-.1a.349.349,0,0,1-.1.2l.1.1C505.4,447.5,505.5,447.5,505.5,447.4Z"/>
      <path id="Path_622" data-name="Path 622" class="cls-3" d="M386.5,178.6c-1.6-.2-3.7,0-5.6-1a2.279,2.279,0,0,1-1.6-2.1,2.035,2.035,0,0,1,1.6-1.9,15.11,15.11,0,0,1,11.8-.2c.9.3,1.9.8,1.9,2.2,0,1.3-1.1,1.8-2,2.2C390.8,178.6,388.9,178.6,386.5,178.6Zm.5-1.4a24.746,24.746,0,0,0,2.9-.6,1.281,1.281,0,0,0,1-1.1,1.187,1.187,0,0,0-.8-1,8.052,8.052,0,0,0-6.1,0,1.187,1.187,0,0,0-.8,1,1.175,1.175,0,0,0,1,1.1A19.552,19.552,0,0,0,387,177.2Z"/>
      <path id="Path_623" data-name="Path 623" class="cls-3" d="M532.2,63.2c-3.3,0-5.2-2.3-5.1-6.4.1-3.6,2.2-5.8,5.3-5.6a4.643,4.643,0,0,1,4,4.9c0,.9-.4,1.2-1.1,1.1-1.7,0-3.3.1-5,0-1.3-.1-1.3.6-1.1,1.6a3.04,3.04,0,0,0,4.3,2.3,9.144,9.144,0,0,0,1.4-.7c.5-.3.8.1,1.1.5.3.5-.1.8-.4,1A4.76,4.76,0,0,1,532.2,63.2Zm-.5-7.4h1.7c1.4.1,1.3-.6.8-1.6a2.579,2.579,0,0,0-4.3-.5c-.4.5-.9,1.1-.7,1.8s1,.2,1.5.3A3.352,3.352,0,0,0,531.7,55.8Z"/>
      <path id="Path_624" data-name="Path 624" class="cls-3" d="M554.5,430.5c-2.6,0-4.7-2.5-4.7-5.3a4.769,4.769,0,0,1,4.7-5c2.6,0,4.6,2.3,4.6,5.2A4.841,4.841,0,0,1,554.5,430.5Zm-.1-2.7a2.737,2.737,0,0,0,2.6-2.7,2.416,2.416,0,0,0-2.3-2.4,2.993,2.993,0,0,0-2.6,2.8A2.152,2.152,0,0,0,554.4,427.8Z"/>
      <path id="Path_625" data-name="Path 625" class="cls-3" d="M62.8,435.9c1.2.1,2.6-.3,3.3,1.4a5,5,0,0,1-1.3,4.9c-.4.4-.6.6-.4,1.2a21.716,21.716,0,0,1,.7,2.4c.1.4.7,1.1-.2,1.3-.6.1-1.4.4-1.7-.6-.2-.9-.5-1.7-.7-2.6-.2-.7-.4-1.2-1.2-1.1-.9.1-.6.9-.7,1.4a16.353,16.353,0,0,0-.2,2.2c-.1,1.1-.8.8-1.3.8-.8.1-.6-.6-.6-1.1.3-3,.6-6,.9-8.9.1-1,.5-1.3.9-1.3Zm-.6,5c1.5.4,1.8-.6,1.9-1.8.1-1.5-.9-1.2-1.7-1.3-1.8-.3-1.3,1.3-1.5,2.3C60.7,441.4,61.8,440.7,62.2,440.9Z"/>
      <path id="Path_626" data-name="Path 626" class="cls-3" d="M509.7,426.1c-.8.2-1.1.9-1.3,1.6-.3,1,.5,1.2,1.1,1.6.7.4,1.9.5,1.2,2-.4.9-.9,1.2-1.7.8-2-1.1-3.9-2.3-5.9-3.4-.9-.5-.7-1.2-.4-2,.4-.9.9-.8,1.6-.4.6.4,1.2,1.3,2,.4,1-1,.8-2-.4-2.7-.8-.5-1.9-.8-1-2.2.4-.7.8-.9,1.5-.5,1.9,1.1,3.9,2.3,5.9,3.4.9.5.9,1.2.5,2s-.9.9-1.6.4A13.034,13.034,0,0,0,509.7,426.1Z"/>
      <path id="Path_627" data-name="Path 627" class="cls-3" d="M560.3,51.1a4.642,4.642,0,0,1,4.4,4.7c0,1-.2,1.5-1.2,1.4-1.7-.1-3.4,0-5.1,0-1,0-1.1.4-.9,1.3a3.184,3.184,0,0,0,4.5,2.6l1.2-.6c.5-.3.8-.1,1.1.3.4.6,0,.9-.4,1.2a4.968,4.968,0,0,1-5.3.8c-2.3-1-3.6-4.1-3-7.3C556.1,52.8,557.9,51.1,560.3,51.1Zm-.2,4.7a10.819,10.819,0,0,1,1.8,0c1.3.1,1.1-.6.8-1.4a2.562,2.562,0,0,0-4.5-.5,1.734,1.734,0,0,0-.5,1.6c.2.6.9.2,1.3.3A4.034,4.034,0,0,0,560.1,55.8Z"/>
      <path id="Path_628" data-name="Path 628" class="cls-3" d="M12.4,435.9h1c1.2.1,2.8-.2,3.1,1.6.3,1.7.3,3.5-1.2,4.6a1.136,1.136,0,0,0-.5,1.5,15.452,15.452,0,0,1,.6,2.3c.1.4.8,1.1-.2,1.2-.6.1-1.4.4-1.6-.7-.2-.9-.6-1.9-.8-2.8-.2-.8-.6-.9-1.2-.9-.7,0-.5.6-.6,1.1l-.3,2.4c0,1.2-.8.9-1.4,1-.8,0-.6-.6-.6-1.1.3-3,.6-6.1.9-9.1.1-.8.3-1.1,1-1A11.483,11.483,0,0,1,12.4,435.9Zm.3,5c1.3.3,1.9-.5,2-1.8.1-1.4-.8-1.2-1.7-1.4-1.8-.2-1.4,1.2-1.5,2.2C11.2,441.4,12.2,440.8,12.7,440.9Z"/>
      <path id="Path_629" data-name="Path 629" class="cls-3" d="M518.8,417.6c0,2.8-2.1,5.2-4.5,5.3-2.6.1-4.7-2.2-4.8-5a5.1,5.1,0,0,1,4.7-5.3A4.879,4.879,0,0,1,518.8,417.6Zm-4.4,2.8a2.268,2.268,0,0,0,2.2-2.4,2.75,2.75,0,0,0-2.5-2.8,2.333,2.333,0,0,0-2.2,2.4A2.614,2.614,0,0,0,514.4,420.4Z"/>
      <path id="Path_630" data-name="Path 630" class="cls-3" d="M162.7,43.2c-.1,0-.2.2-.2.4a1.339,1.339,0,0,0,.8,1.4,2.636,2.636,0,0,0,2.7-.2c.6-.4,1.3-.6,1.7.3.3.8-.3,1.2-.8,1.6a5,5,0,0,1-5.5-.4c-1.3-1.3-1.7-4.7-.7-6.7a3.891,3.891,0,0,1,4.7-2,4.155,4.155,0,0,1,2.6,4.5c-.1.7-.4,1.1-1.1,1.1h-4.2Zm2.7-1.9a.458.458,0,0,0,.4-.5c.1-1-.7-1.4-1.6-1.4a1.569,1.569,0,0,0-1.7,1.4c0,.4.1.5.3.5Z"/>
      <path id="Path_631" data-name="Path 631" class="cls-2" d="M24.4,174.8c0,2.2-.1,4.4,0,6.6,0,1.3-.4,1.4-1.4,1a3.5,3.5,0,0,1-2.3-3.5c-.1-3.7,0-7.5-.1-11.2,0-.9.3-1,1-1a9.652,9.652,0,0,0,1.7,0c.9-.1,1.1.3,1.1,1.2Q24.4,171.5,24.4,174.8Z"/>
      <path id="Path_632" data-name="Path 632" class="cls-3" d="M555.9,435c-.5.1-1.1.1-1.6.2-1,.2-1.1-.4-1.2-1.2s0-1.3.8-1.5c2.2-.4,4.5-.8,6.7-1.3.5-.1,1.1-.2,1.2.6a34.412,34.412,0,0,1,.5,4.5c-.1,2.1-2.6,3.5-4.1,2.3-1-.8-1.7-.5-2.4.3-.4.4-.9,1.4-1.5.7a1.865,1.865,0,0,1,.2-2.5c.6-.7,1.5-1,2-1.9a.6.6,0,0,1,.1-.4A3.1,3.1,0,0,0,555.9,435Zm4.2-.1c0-.9-.7-.6-1.2-.6-.6,0-1.3-.1-1.2,1,.1.7.5,1.3,1.2,1.2C559.8,436.4,560.1,435.8,560.1,434.9Z"/>
      <path id="Path_633" data-name="Path 633" class="cls-3" d="M546.5,414a3.112,3.112,0,0,1-2.5-2.3,1.659,1.659,0,0,0-2.5-1,2.9,2.9,0,0,0-1.6,3.3,2.042,2.042,0,0,0,2.2,2c.1,0,.2-.1.3-.1,1.1-.5,2.2-.6,3,.5.4.5-1.4,1.8-2.8,2-2.8.3-5-1.8-5.2-4.8-.1-3,2.1-5.4,4.8-5.2C545.2,408.3,546.8,410.6,546.5,414Z"/>
      <path id="Path_634" data-name="Path 634" class="cls-3" d="M318.5,439.2c-1.7,2.5-4,3.1-6.7,2.9-.9-.1-1.2-.4-1.2-1.4q.15-3.75,0-7.5c0-1,.3-1.3,1.1-1.3a16.133,16.133,0,0,0,2.2,0c3.3.2,5.1,2.7,4.6,6.3,0,.3-.3.7,0,1Zm-5.7-2.4v2.4c0,.5.2.7.7.7,1.2,0,2.3-.2,2.7-1.5a3.365,3.365,0,0,0-.6-3.5,2.352,2.352,0,0,0-2.4-.8c-.7.3-.2,1.3-.3,2C312.7,436.3,312.8,436.5,312.8,436.8Z"/>
      <path id="Path_635" data-name="Path 635" class="cls-2" d="M160,300.2c1.4,0,2.9.1,4.3,0,1-.1,1,.6,1,1.4,0,.7.1,1.4-1,1.4-1,0-2.4-.6-3,.3-.5.8-.2,2.2-.2,3.4,0,1.5-.1,3.1,0,4.6.1,1.2-.5,1.1-1.2,1.1s-1.3.1-1.3-1.1c.1-2.3,0-4.5,0-6.8,0-1.1-.2-1.8-1.3-1.6a7.518,7.518,0,0,1-1.5,0c-.9.1-1.4-.1-1.4-1.4,0-1.2.4-1.5,1.3-1.4C157.2,300.2,158.6,300.2,160,300.2Z"/>
      <path id="Path_636" data-name="Path 636" class="cls-2" d="M416.7,438.8c-1.6-2.9-4.2-3.6-7.1-3.5a2.71,2.71,0,0,1-2.5-1.1,2.563,2.563,0,0,1-.6-2.5c.4-.8,1.2-.4,1.8-.3a26.408,26.408,0,0,1,5.6.4,1.952,1.952,0,0,1,.7.1,6.747,6.747,0,0,1,3.5,2.3,1.407,1.407,0,0,1,.6,1.2A12.308,12.308,0,0,0,416.7,438.8Z"/>
      <path id="Path_637" data-name="Path 637" class="cls-3" d="M509.5,437a5.3,5.3,0,0,1-3.8,5.4,4.566,4.566,0,0,1-5.2-3.2,5.408,5.408,0,0,1,2.1-6.3c.4-.3.9-.7,1.3-.3s.2,1,.1,1.6a2.944,2.944,0,0,1-1,1.6c-1.1.9-1,2-.3,3.1a2.4,2.4,0,0,0,3.6.5,2.131,2.131,0,0,0,.6-3,4.627,4.627,0,0,1-.8-2.5c0-1.2.5-1.2,1.2-.6A4.248,4.248,0,0,1,509.5,437Z"/>
      <path id="Path_638" data-name="Path 638" class="cls-3" d="M275.4,42.5V45c.1.9-.1,1.3-1.1,1.3-.9,0-1-.5-1-1.2V35c0-.6,0-1.2.7-1a8.257,8.257,0,0,0,3.1-.2,1.9,1.9,0,0,1,1.4.4c1.4.8,2,4.2,1.2,6.8-.6,1.8-1.7,2.4-3.8,1.9C275.9,42.6,275.7,42.6,275.4,42.5Zm2.8-4.2a7.719,7.719,0,0,0-.2-1.5,1.27,1.27,0,0,0-1.5-1.1c-1.2.2-1.2,1.3-1.2,2.3,0,1.1-.3,2.4,1.1,2.9a1.164,1.164,0,0,0,1.5-.8A13.488,13.488,0,0,0,278.2,38.3Z"/>
      <path id="Path_639" data-name="Path 639" class="cls-3" d="M192.4,43.8c.7-2,1.3-3.5,1.8-5,.3-.8.7-1.5,1.6-1,.8.4.6,1.1.3,1.9-1.2,2.9-2.3,5.8-3.5,8.7a4.363,4.363,0,0,1-3.1,2.8c-.7.1-1.4.1-1.6-.8-.1-.9.4-1.1,1.1-1.3,1.8-.6,2.4-2.1,1.7-3.9l-2.1-5.4c-.3-.8-.5-1.6.4-2s1.3.3,1.6,1.1C191.1,40.3,191.7,41.8,192.4,43.8Z"/>
      <path id="Path_640" data-name="Path 640" class="cls-3" d="M53.3,447.2c-2.9,0-3,0-2.7-3.3.2-2.3.5-4.6.7-6.9.1-.8.3-1.1,1-1h4.1c.5,0,1-.1.9.8-.1.6-.1,1.2-.9,1.2a9.652,9.652,0,0,1-1.7,0c-1.1-.2-1.8.1-1.8,1.6,0,1.7,1.1.8,1.7.9.9.1,1.9-.1,1.4,1.5-.3,1.1-1.2.4-1.8.6s-1.5-.4-1.6.9c-.2,1.3,0,2.1,1.5,1.9a9.633,9.633,0,0,1,1.7,0c.4,0,.9-.1.8.7-.1.6.1,1.3-.8,1.3A10.977,10.977,0,0,0,53.3,447.2Z"/>
      <path id="Path_641" data-name="Path 641" class="cls-3" d="M37.6,447.2c-3,0-3,0-2.7-3.2.2-2.3.5-4.6.7-6.9.1-1,.4-1.2,1.2-1.2,1.3.1,2.7,0,4,0,.6,0,1,0,.9.9-.1.6,0,1.2-.9,1.2-.7-.1-1.3.1-2,0-1.1-.2-1.4.4-1.5,1.5-.1,1.5.9.8,1.5.9.9.1,2.1-.4,1.6,1.5-.3,1.2-1.2.4-1.8.6-.5.2-1.4-.4-1.6.8-.2,1.3-.2,2.3,1.4,2a9.633,9.633,0,0,1,1.7,0c.4,0,.9-.1.8.7-.1.6,0,1.3-.8,1.3A21.756,21.756,0,0,0,37.6,447.2Z"/>
      <path id="Path_642" data-name="Path 642" class="cls-3" d="M16.8,447.2c1.4-3.7,2.8-7.1,4.1-10.6.3-.9.9-.7,1.5-.7.7-.1.8.5.9,1,.6,3.1,1.1,6.2,1.7,9.4.1.4.3,1-.3,1s-1.4.5-1.6-.6c-.2-.8-.4-1.4-1.3-1.2s-2.1-.6-2.5.9C18.7,447.7,17.7,447,16.8,447.2Zm5-7.4a.367.367,0,0,1-.3-.1c-.3.8-.6,1.7-.9,2.5-.1.4-.6.9-.2,1.1a2.25,2.25,0,0,0,1.4.1c.7-.2.3-.8.3-1.2A19.67,19.67,0,0,0,21.8,439.8Z"/>
      <path id="Path_643" data-name="Path 643" class="cls-3" d="M535.8,415.8a1.351,1.351,0,0,1-1.6-.7c-1-1.2-2.1-1.1-3.2-.2-.5.4-.8.7-1.5.6-1-.1-1.4-.3-.9-1.6,1-2.3,2-4.7,2.9-7a1.47,1.47,0,0,1,1.5-1.1,1.322,1.322,0,0,1,1.4,1.2c.7,2.5,1.4,4.9,2.2,7.3C536.9,415.4,537,416.1,535.8,415.8Zm-3.1-5.9c-.3.7-1.1,1.4-.3,2.2.1.1.7.1.7,0C533.7,411.3,533,410.6,532.7,409.9Z"/>
      <path id="Path_644" data-name="Path 644" class="cls-3" d="M69.3,445.4h1.2c.7,0,.9-.5,1.1-1.1a1.112,1.112,0,0,0-.7-1.5,8.427,8.427,0,0,0-1.4-.6c-1.6-.4-2.2-1.5-2-3.2.2-1.9,1-3,2.7-3.1a22.532,22.532,0,0,1,2.6,0c.6,0,1.2,0,1.1,1.1-.1.9-.5,1-1.2.9a12.749,12.749,0,0,0-2-.1,1.17,1.17,0,0,0-1.2,1c-.2.8.2,1.1.8,1.4a4.874,4.874,0,0,0,1.1.4c2,.8,2.4,1.5,2.2,3.4-.3,2.3-1,3.1-3.1,3.2a11.108,11.108,0,0,1-2.6-.1c-.5,0-1.2,0-1-1,.1-.9.4-1.3,1.3-1C68.4,445.3,68.6,445.3,69.3,445.4Z"/>
      <path id="Path_645" data-name="Path 645" class="cls-3" d="M138.7,199.4c-1.4.4-2.3.3-2.7-1.2-.2-.6-.6-.6-1.1-.6h-3.1a1.081,1.081,0,0,0-1.1.7c-.4,1.6-1.4,1.4-2.7,1.2,1.4-3,2.8-6,4.2-8.8a1.373,1.373,0,0,1,2.4.2C136,193.7,137.3,196.5,138.7,199.4Zm-5.3-7c-.6,1.3-1,2.3-1.5,3.4H135A27.521,27.521,0,0,1,133.4,192.4Z"/>
      <path id="Path_646" data-name="Path 646" class="cls-3" d="M318.5,439.2c1.2-1.3,1.3-3.2,2.1-4.7.3-.6.5-1.3.8-2a.9.9,0,0,1,1-.7.991.991,0,0,1,1.1.8c1.1,3.1,2.3,6.2,3.4,9.4-1.4.5-2.5.3-2.8-1.5-.2-1.1-.8-1.3-1.7-1.2-.9,0-1.7,0-1.9,1.2-.3,1.6-1.2,2-2.6,1.6-.1-1.2,1-1.9.6-2.9Z"/>
      <path id="Path_647" data-name="Path 647" class="cls-3" d="M508,461.5a3.173,3.173,0,0,1,1.9-2.8,2.069,2.069,0,0,1,2.9.3c.9,1,1.8,1.4,2.7,0,.7-.9,1.1-.2,1.6.3.7.5.4,1-.1,1.5-1.5,1.7-3.1,3.5-4.6,5.3-.8.9-1.4.8-2-.1C509.6,464.4,508,463.6,508,461.5Zm3.2-.7a1.018,1.018,0,0,0-.9,1.1c.1.6.3,1.3,1,1.2a1.12,1.12,0,0,0,1-1.2C512.4,461.2,511.8,460.9,511.2,460.8Z"/>
      <path id="Path_648" data-name="Path 648" class="cls-3" d="M29.5,443.1c.7-1.9,1.4-3.7,2-5.6.4-1.5,1.1-1.9,2.6-1.4l-3.9,10.5c-.3.9-1,.5-1.5.6-.6.1-.8-.3-.9-.9-.5-3.1-1.1-6.1-1.6-9.2-.1-.4-.5-1.2.4-1.2.6,0,1.4-.4,1.6.9.3,2.1.7,4.1,1.1,6.2C29.2,443.1,29.3,443.1,29.5,443.1Z"/>
      <path id="Path_649" data-name="Path 649" class="cls-3" d="M287.5,39a3.352,3.352,0,0,0-1,0c-.5.1-1.3-.4-1.4.4a1.447,1.447,0,0,0,1.4,1.5,1.875,1.875,0,0,0,1.6-.4c.7-.8,1.1,0,1.5.5.6.7-.1.9-.5,1.2-2.3,1.8-5.3.5-5.9-2.6-.7-3.9,1.5-6.7,4.5-5.7,1.6.5,2.7,2.8,2.3,4.6-.1.5-.3.6-.7.6A10.869,10.869,0,0,0,287.5,39Zm-1-1.6c.4-.4,1.4.6,1.4-.7a1.266,1.266,0,0,0-1.4-1.2,1.344,1.344,0,0,0-1.4,1.3C285.2,37.8,286,37.1,286.5,37.4Z"/>
      <path id="Path_650" data-name="Path 650" class="cls-2" d="M440.4,442.5c.6-.4.9.1,1.2.5,2.2,2.5,4.3,5.1,6.6,7.5.8.9.4,1.3-.3,1.7a2.928,2.928,0,0,1-3.7-.6c-1.8-1.9-3.5-3.9-5.3-5.8-.5-.5-.5-.8,0-1.3a10.916,10.916,0,0,0,1.3-1.7l-.1.1c.3-.1.4-.2.3-.4Z"/>
      <path id="Path_651" data-name="Path 651" class="cls-3" d="M155.9,194.8c0,1.2-.1,2.5,0,3.7.1,1.3-.8,1.4-1.3,1-.6-.5-1-.2-1.6,0-1.5.4-2.9.5-4-.9a3.614,3.614,0,0,1-.3-4.1,2.9,2.9,0,0,1,3.7-1.6c1.3.3,1.9.2,1.7-1.5-.1-.6,0-1.2.8-1.2.9,0,1,.4,1,1.2C155.9,192.5,155.9,193.7,155.9,194.8Zm-1.8,1.3c.2-1.7-.9-1.7-1.9-1.8a1.661,1.661,0,0,0-1.9,1.8,1.766,1.766,0,0,0,1.9,2C153.3,198.1,154.4,197.8,154.1,196.1Z"/>
      <path id="Path_652" data-name="Path 652" class="cls-3" d="M497.4,61.9c.8-.6,1.2-1.1,1.7-1.4a2.32,2.32,0,0,0,1-2.7c-.7-4.6,3-8.2,6.7-6.6a3.882,3.882,0,0,1,1.5,1.1c1.2,1.3,1.1,2.2-.3,3.1-2.9,2-5.8,3.9-8.8,5.9A1.99,1.99,0,0,1,497.4,61.9Zm4.6-3.7c1.5-1.2,2.9-2.2,4.2-3.2.4-.3,1.1-.5,1-1.1-.1-.7-.8-1-1.4-1.2a2.815,2.815,0,0,0-3.2,1.3A5.665,5.665,0,0,0,502,58.2Z"/>
      <path id="Path_653" data-name="Path 653" class="cls-3" d="M4.4,435.9h3c.3,0,.7-.2.9.2a.9.9,0,0,1-.4,1.1,1.794,1.794,0,0,1-1,.6c-2-.4-2,1.1-2.1,2.6-.2,1.9-.4,3.8-.5,5.7-.1,1.2-.7,1.1-1.5,1.1-1,0-.6-.7-.6-1.3.2-2,.3-4,.6-6,.3-1.6,0-2.3-1.6-2-.6.1-1.5.4-1.3-1.1.1-.7.3-1,.9-.9Z"/>
      <path id="Path_654" data-name="Path 654" class="cls-3" d="M559.5,444.4a5.167,5.167,0,0,0,1.8,1.2,1.412,1.412,0,0,1,.8,1.6c-.1.5.1,1.1-.3,1.4-.5.4-.9-.2-1.3-.5-2-1.4-3.8-3.2-6.4-3.2-.7,0-.8-.5-.6-1.2.2-.6-.1-1.7,1-1.4,2.5.7,4.6-.5,6.9-1.2.5-.1.9-.6,1.3,0a1.566,1.566,0,0,1-.2,1.6c-.3.6-.7,1.1-1.4,1.1A10.413,10.413,0,0,0,559.5,444.4Z"/>
      <path id="Path_655" data-name="Path 655" class="cls-3" d="M42.2,595.4a13.352,13.352,0,0,0,0,2c.1,1-.3,1.1-1,1.1s-1-.3-.9-1.1v-4.8c0-.5-.3-1.2.4-1.4a1.423,1.423,0,0,1,1.6.5c.6.9,1.2,1.7,1.9,2.6a3.165,3.165,0,0,0,.2-2.1c0-.9.3-1.1,1.1-1.1.9,0,.9.4.9,1.2-.1,1.6,0,3.2,0,4.8,0,.4.2,1.1-.4,1.2-.5.1-1.1.2-1.5-.4-.6-.9-1.2-1.8-1.9-2.7C42.4,595.3,42.3,595.4,42.2,595.4Z"/>
      <path id="Path_656" data-name="Path 656" class="cls-3" d="M526.2,406.3c.9-.1,1,.5,1.2,1.2.2.9-.3,1.1-.9,1.2a1.421,1.421,0,0,0-.6.2c-.4.1-.8.3-.7.8.1.6.4.7,1,.5.7-.3,1.5-.6,1.8.7.2,1.1-.4,1.3-1.2,1.5-1.1.3-.8,1.2-.6,2,.2.9.7,1.7-.6,2.1s-1.3-.5-1.5-1.4c-.5-2.1-1-4.1-1.5-6.2-.3-1.1-.2-1.9,1.1-2C524.5,406.8,525.3,406.5,526.2,406.3Z"/>
      <path id="Path_657" data-name="Path 657" class="cls-3" d="M549.3,73.7v1.5c0,.6.2,1.5-.9.8-.7-.4-1.6.8-2.4.3a2.894,2.894,0,0,0-3.1,0,2.014,2.014,0,0,1-2.8-1.2,4.142,4.142,0,0,1,.2-4.3,2.4,2.4,0,0,1,3-.9c.4.1,1,.3.9.9-.2.8-.7.3-1.1.1a1.394,1.394,0,0,0-2,.8,3.1,3.1,0,0,0,.1,3.1c.5.9,1.2.8,2.1.4.7-.3,1.3-.4,1.7-1.4.3-.9,1.4-.8,2.2-1.1.5-.2,1.2-.1.9-1.1-.2-.8-.7-.9-1.4-.9-.5,0-1.4,1.2-1.5.1-.1-.9,1-1.1,1.8-1.1,1.3-.1,2.1.6,2.3,2.1v1.9Zm-1.9-.3c-.5.4-1.6-.1-1.6,1.2,0,.7.5.9,1.1.8a1.411,1.411,0,0,0,1.3-1.6C548.1,73.4,547.8,73.3,547.4,73.4Z"/>
      <path id="Path_658" data-name="Path 658" class="cls-3" d="M172.4,47.2a2.394,2.394,0,0,1-2.4-2.5c-.1-1,0-2.1,0-3.1,0-.9.3-1.8-.9-2.2-.5-.2-.6-1-.2-1.2a2.5,2.5,0,0,0,1.2-2.5.876.876,0,0,1,.9-.8c.7,0,1,.5,1,1.2,0,.9,0,1.6,1.1,1.7.3,0,.6.4.6.8,0,.5-.3.9-.6.9-1.2,0-1,1-1,1.8v2.2c0,.8-.1,1.6.9,1.8a.863.863,0,0,1,.6,1.1A.946.946,0,0,1,172.4,47.2Z"/>
      <path id="Path_659" data-name="Path 659" class="cls-3" d="M45.4,447.1c-2.7.1-2.8.1-2.5-2.9.2-2.4.5-4.7.7-7.1.1-1.2.6-1.2,1.4-1.2,1,0,.6.8.6,1.3-.2,2.2-.4,4.4-.7,6.6-.1,1.1,0,1.6,1.2,1.5a5.437,5.437,0,0,1,1.8,0c.4,0,1.1-.4,1.2.4a1.244,1.244,0,0,1-1.1,1.4A22.525,22.525,0,0,1,45.4,447.1Z"/>
      <path id="Path_660" data-name="Path 660" class="cls-3" d="M78.6,598.2c-2.3,1.2-2.6-1.2-3.7-2.1-.6.5-.3,1-.3,1.4.1.9-.4,1-1,1-.7,0-1-.1-1-1,.1-1.7,0-3.4,0-5.2,0-.3,0-.8.2-.8a8.57,8.57,0,0,1,3.9-.1,1.946,1.946,0,0,1,1.6,1.9c.1.4.1,1.1-.1,1.2C76.4,596,77.8,597,78.6,598.2ZM75,592.9c-.3-.1-.5.2-.5.8,0,.8.4.9.9.8.5,0,.9-.1,1-.7C76.4,593,75.8,592.9,75,592.9Z"/>
      <path id="Path_661" data-name="Path 661" class="cls-3" d="M146.7,196.4v1.1c0,1.4.2,3-1.9,1.7-.2-.1-.7.2-1,.3-2.6.8-4.1-.4-4.1-3.4v-2.2c-.1-.8.2-1.1,1-1.1.7,0,1,.2,1,1a16.151,16.151,0,0,0,0,2.2c0,1.2.4,2,1.6,2s1.8-.6,1.7-2a13.333,13.333,0,0,1,0-2c-.1-.9.2-1.2,1-1.2s.9.4.9,1.1A7.248,7.248,0,0,0,146.7,196.4Z"/>
      <path id="Path_662" data-name="Path 662" class="cls-3" d="M540.1,53.1c1.1-1.3,2.1-2.1,3.5-1.9.6.1,1.1.3,1,1.1-.1.7-.3,1-1,1.1-2.7.1-3.4.9-3.4,3.9v4.4c0,.8,0,1.4-1,1.4s-.9-.6-.9-1.3V53.2c0-.6-.4-1.5.5-1.7C539.6,51.1,539.8,52,540.1,53.1Z"/>
      <path id="Path_663" data-name="Path 663" class="cls-3" d="M554,416.5c.1,1-1.1,1.9-1.7,1.3-.8-.8-1.1-.1-1.6.4a37.96,37.96,0,0,0-2.9,3.8c-.4.6-.7.9-1.2.2-.4-.6-1.6-.9-.7-2,1.1-1.3,2.1-2.7,3.2-4,.4-.5.7-.9,0-1.5-.8-.6-.2-1.2.2-1.7.4-.6.9-.5,1.4,0,.9,1,1.9,1.9,2.8,2.8A5,5,0,0,1,554,416.5Z"/>
      <path id="Path_664" data-name="Path 664" class="cls-3" d="M62.4,598.4c.9-2.3,1.7-4.5,2.6-6.5a1.5,1.5,0,0,1,2.4-.1c.9,1.9,1.6,3.9,2.4,5.9.1.3.2.7-.1.7-.6.1-1.2.3-1.7-.3-1.1-1.2-2.4-1.3-3.4-.1C63.9,598.8,63.3,598.3,62.4,598.4Zm3.9-4.7c-.4.6-.8,1.1-.5,1.7.1.3.7.3.9,0C67,594.8,66.5,594.3,66.3,593.7Z"/>
      <path id="Path_665" data-name="Path 665" class="cls-3" d="M518.9,73v-.6c.1-.9-.2-1.8.2-2.7,1.1.9,2.4-.9,3.5.3.5.6.9.1,1.3-.1,1.7-.8,2.8-.1,2.9,2,.1,1.2,0,2.3,0,3.5,0,.4.1.8-.4.8s-.6-.3-.6-.8c0-1.2,0-2.3-.1-3.5,0-.7-.3-1.3-1.1-1.3a1.164,1.164,0,0,0-1.1,1.3v3.3c0,.5,0,.9-.6.9s-.5-.5-.5-.9V72.1c0-.8-.2-1.5-1.1-1.5-.8.1-1.1.7-1.2,1.5v2.8c0,.5.3,1.3-.5,1.3-1,0-.5-.9-.6-1.4A5.457,5.457,0,0,1,518.9,73Z"/>
      <path id="Path_666" data-name="Path 666" class="cls-3" d="M327,448.6a70.574,70.574,0,0,0-13,.1c-4.3.4-8.7.9-12.8,1.3C304.5,448.4,322.9,445.8,327,448.6Z"/>
      <path id="Path_667" data-name="Path 667" class="cls-3" d="M315.4,38.5c-.2-1.2.4-2.4-.8-3.2-.2-.1-.1-1.1.1-1.2.7-.4.7-.9.7-1.6,0-1.1.9-1,1.4-1.1.9-.2.5.7.5,1.1.1.6-.2,1.4.8,1.3.5-.1.6.3.6.8s0,1.1-.6,1c-.8-.1-.9.5-.8,1.1v2.6c0,.7-.1,1.5.9,1.5.8,0,.5.8.5,1.3,0,.7-.5.5-.8.6-1.4.1-2.3-.6-2.6-2.2C315.3,39.9,315.4,39.1,315.4,38.5Z"/>
      <path id="Path_668" data-name="Path 668" class="cls-2" d="M267.9,556.7c-.9,4.4-.9,4.4-4.9,4.3-2.7,0-1.6-2.9-2.9-4.3Z"/>
      <path id="Path_669" data-name="Path 669" class="cls-3" d="M548,465.8c-.1,1.2-1.8.4-1.7,1.8,0,0-.5-.1-.6-.4-.4-.7-.8-1.3-1.2-2-.2-.3-.3-.8.1-.9,1.9-.4,2.3-2.5,3.8-3.5.5-.3.9-1.1,1.5-.7.7.4,1.8.7,1.9,1.8a1.3,1.3,0,0,1-1,1.6c-.4.1-.5.5-.7.9-.4.7-.8,1.4-1.7,1a10.477,10.477,0,0,0-.8-1.1c-.3-.3-.4-1-.9-.8-.1,0-.3.4-.3.6a1.392,1.392,0,0,0,.5,1.4A1.008,1.008,0,0,0,548,465.8Z"/>
      <path id="Path_670" data-name="Path 670" class="cls-3" d="M261.8,439.9c.9.6,1.5,1.2,2.5,1.1a1.5,1.5,0,0,0,1.4-1.1,1.428,1.428,0,0,0-.6-1.7,13.24,13.24,0,0,1-2-1.2,3,3,0,0,1-.8-4,2.893,2.893,0,0,1,4-.7c.4.3.4.6.2,1.1s-.5.3-.8.1a6.116,6.116,0,0,0-1.2-.5,1.187,1.187,0,0,0-1.3.9,1.382,1.382,0,0,0,.4,1.6c.8.5,1.6.9,2.3,1.4a2.506,2.506,0,0,1,1.1,2.8,2.662,2.662,0,0,1-2.2,2.4,3.1,3.1,0,0,1-3.1-.9C261.4,440.9,261.7,440.4,261.8,439.9Z"/>
      <path id="Path_671" data-name="Path 671" class="cls-3" d="M253.6,440c.8-2.4,1.6-4.6,2.4-6.8a6.118,6.118,0,0,1,.5-1.2.527.527,0,0,1,.7-.2c.4.1.3.5.2.8-1,2.9-2,5.8-3.1,8.7-.2.4-.4.7-.9.7s-.6-.4-.8-.8c-1-2.7-2-5.5-2.9-8.2-.1-.3-.7-.9.1-1.2.5-.2.8.1,1,.7.7,2.2,1.5,4.3,2.3,6.5Z"/>
      <path id="Path_672" data-name="Path 672" class="cls-3" d="M570.6,579.2c-.9,1-1.6,2.2-3.1,1.3-1.2-.7-1.5-2.2-.7-3.8.7-1.4,1.6-2.8,2.4-4.2.3-.6.9-1.3.4-2-.4-.6-1.1.1-1.7.2a4.33,4.33,0,0,1-.5.1c1.2-1.3,2.1-1.6,2.9-.8a2.719,2.719,0,0,1,.7,3.4c-.7,1.6-1.6,3-2.4,4.6-.3.6-1.1,1.4-.3,2.1.6.5,1.2-.3,1.7-.7C570.1,579.1,570.3,579,570.6,579.2Z"/>
      <path id="Path_673" data-name="Path 673" class="cls-3" d="M555.3,455c.7,1.2,0,1.7-.5,2.7-.6,1.1-2.6,1.1-1.8,3.1.1.4-.4.6-.7.3a4.728,4.728,0,0,1-.7-1.2c-.3-.7-1.2-1.4-.8-2.1.4-.8,1.3,0,2,.1.4,0,.9.5,1.2-.1.2-.6-.5-.7-.8-.9-1.4-1-1.5-1.6,0-2.5.5-.3.7-.4.4-1a1.212,1.212,0,0,1,.2-1.5c.5-.5.9-.3,1.1.4.1.3.4,0,.6,0a1.093,1.093,0,0,1,1.6,1,1.189,1.189,0,0,1-1.4,1.4c-.2-.2-.1-.5-.1-.7.1-.1.4-.3.2-.5-.2-.3-.3,0-.5.1-.5.2-1.1.4-1.7.6A2.465,2.465,0,0,0,555.3,455Z"/>
      <path id="Path_674" data-name="Path 674" class="cls-3" d="M563,570.3c1-1.4,2-.5,2.2.5.3,1.1.7,2.4-.2,3.7a25.088,25.088,0,0,0-2.6,4.5c-.7,1.6-1.6,2.1-3.1,1.6.3-1.5,1.3-2.5,1.9-3.7a55.2,55.2,0,0,0,2.8-5.4c.3-.7.4-1.5-.7-.9C563.2,570.4,563.1,570.4,563,570.3Z"/>
      <path id="Path_675" data-name="Path 675" class="cls-3" d="M512.9,454.3a3.4,3.4,0,0,1-.6.6c-2,1.3-4,2.6-5.9,4-.8.6-1.1.1-1.6-.6-.5-.8-.4-1.3.3-1.8,2-1.3,3.9-2.6,5.8-3.9.4-.3.9-.5,1.2,0S512.9,453.5,512.9,454.3Z"/>
      <path id="Path_676" data-name="Path 676" class="cls-3" d="M11.3,594.8c0-.7-.1-1.5-.1-2.2,0-.6-.3-1.4.8-1.4.8,0,1.2.3,1.1,1.2a10.454,10.454,0,0,1,0,2.5c-.3,1.7.5,1.8,1.6,1.7.6,0,1.5-.6,1.5.9-.1,1.3-.9.7-1.5.7h-.3C11.3,598.4,11.3,598.4,11.3,594.8Z"/>
      <path id="Path_677" data-name="Path 677" class="cls-3" d="M30,591.2h2c.5,0,.9.1.8.8,0,.6.1,1.2-.7,1-1.2-.2-1.2.6-1.1,1.5a24.319,24.319,0,0,0,0,2.7c.1.9-.1,1.2-1,1.2s-1-.4-.9-1.2a16.152,16.152,0,0,0,0-2.2c0-1,.3-2.3-1.4-2.1-.5.1-.5-.5-.5-.9,0-.5.2-.8.7-.8a7.389,7.389,0,0,0,2.1,0Z"/>
      <path id="Path_678" data-name="Path 678" class="cls-3" d="M274.1,437.6a10.818,10.818,0,0,1,0-1.8c.2-1.8-.1-3.1-2.2-2.6-.5.1-.9,0-.9-.7,0-.6.4-.6.8-.6h5.6c.4,0,.8-.1.8.6s-.4.8-.9.8h-1.2c-.8-.1-1,.2-1,1.1.1,2.2,0,4.4,0,6.6,0,.4.2,1.1-.5,1.1-.7.1-.8-.5-.8-1.1A13.432,13.432,0,0,0,274.1,437.6Z"/>
      <path id="Path_679" data-name="Path 679" class="cls-3" d="M558.3,313.3c-.9-1.4-1.7-2.7-2.6-3.9-.5-.7-.4-1.1.3-1.4a5.1,5.1,0,0,1,4.8,0c.6.3.8.7.3,1.4A47.324,47.324,0,0,0,558.3,313.3Z"/>
      <path id="Path_680" data-name="Path 680" class="cls-3" d="M80.7,440.2c0,1.6.1,3.2,0,4.8a2.275,2.275,0,0,1-1.7,2.2,1.879,1.879,0,0,1-2.1-1,.9.9,0,0,1-.1-1.1c.4-.4.7-.2.9.2.3.5.7.8,1.3.5s.5-1,.5-1.6v-8.3c0-.5-.3-1.4.6-1.4.7,0,.6.8.6,1.3,0,1.5,0,3,0,4.4Z"/>
      <path id="Path_681" data-name="Path 681" class="cls-3" d="M313.7,38.4v3.3c0,.7-.1,1.1-.9,1.1s-1.1-.2-1.1-1.1c0-2.3.1-4.5,0-6.8,0-1,.4-1,1.1-1.1.8-.1.9.4.8,1.1C313.6,36.1,313.7,37.3,313.7,38.4Z"/>
      <path id="Path_682" data-name="Path 682" class="cls-3" d="M530.5,76.3c-2,0-3.1-1.2-3.1-3.4,0-2,1.1-3.4,2.8-3.4a2.215,2.215,0,0,1,2.2,1.6c.4,1.1.5,2.1-1.1,1.9a2.438,2.438,0,0,0-1.2,0c-.5.2-1.5-.6-1.5.7,0,1,.8,1.5,1.7,1.6.1,0,.2-.1.3-.1.6.1,1.5-1.1,1.6,0C532.4,76.2,531.1,76.3,530.5,76.3Zm-.4-4c.3-.5,1.3.6,1.3-.7,0-.7-.6-1-1.2-1-.7,0-1.4.3-1.4,1.2C528.8,72.6,529.6,72,530.1,72.3Z"/>
      <path id="Path_683" data-name="Path 683" class="cls-3" d="M177,583.9a2.63,2.63,0,0,1-2.3,2.7,2.61,2.61,0,0,1-.2-5.2A2.309,2.309,0,0,1,177,583.9Z"/>
      <path id="Path_684" data-name="Path 684" class="cls-3" d="M150.2,586.5a2.523,2.523,0,0,1-2.4-2.5,2.373,2.373,0,1,1,4.7,0A2.375,2.375,0,0,1,150.2,586.5Z"/>
      <path id="Path_685" data-name="Path 685" class="cls-3" d="M517.8,73.6v1.7c0,.6.1,1.4-.9.8-.6-.4-1.2.2-1.7.3-.9.1-1.7,0-2-1.1a1.624,1.624,0,0,1,1.2-2.2c.4-.1.9-.3,1.3-.4.5-.1,1.2-.1.9-1.1-.2-.8-.7-.9-1.4-.9-.5,0-1.3,1.3-1.6.1-.2-.8,1-.9,1.7-1.1,1.5-.3,2.4.5,2.5,2.3A8.53,8.53,0,0,1,517.8,73.6Zm-2.5,1.9c.8-.2,1.3-.5,1.3-1.5,0-.5-.2-.7-.6-.5-.6.3-1.6.1-1.7,1.1C514.2,75.2,514.7,75.4,515.3,75.5Z"/>
      <path id="Path_686" data-name="Path 686" class="cls-3" d="M282.6,38.4v3.1c.1.9-.2,1.3-1.1,1.3-1,0-.9-.7-.9-1.3V34.9c0-.8.2-1.1.9-1.1s1.1.2,1.1,1.1Z"/>
      <path id="Path_687" data-name="Path 687" class="cls-3" d="M552.3,69.6a7.594,7.594,0,0,1,1.1.4.887.887,0,0,1,.4.5c0,.4-.3.4-.6.4a2.353,2.353,0,0,0-.8-.2.863.863,0,0,0-1.1.6c-.2.6.3.8.7,1,.2.1.3.2.5.2a1.763,1.763,0,0,1,1.6,1.8,2.019,2.019,0,0,1-.9,1.8,2.622,2.622,0,0,1-2.7-.1.6.6,0,0,1-.4-.7c.1-.3.4-.3.7-.3.1,0,.2.1.3.1.6.2,1.5.5,1.7-.4.3-1.1-.7-1.2-1.3-1.4-.9-.4-1.6-.9-1.4-2.1C550.2,69.9,551.1,69.6,552.3,69.6Z"/>
      <path id="Path_688" data-name="Path 688" class="cls-3" d="M437.3,582.7c-.2-.8-.3-1.7-.5-2.5,1.2.6,1.3,1.9,1.4,3.2s0,2.5,0,3.8h0c-.8,0-.6.8-.9,1.3-1.9,3.3-6.7,4.6-9.8,2.4,2.3.3,4.6.8,6.6-.7H434c.2-.1.5,0,.4-.4h0c.5.3.6,0,.7-.5,0-.7.3-1,.9-1,.3.1.4-.1.4-.4v.1a.91.91,0,0,0,.4-.8v.1c.4-.1.3-.5.4-.8v.1C437.5,585.3,438.2,584.1,437.3,582.7Z"/>
      <path id="Path_689" data-name="Path 689" class="cls-3" d="M24.4,162.7c.6,2.9-1.4,1.7-2.5,2-.9.2-1.2-.2-1.2-1.3.1-2.6,0-2.5,2-2.7C24.2,160.6,24.7,161.1,24.4,162.7Z"/>
      <path id="Path_690" data-name="Path 690" class="cls-3" d="M37.3,594.9v2.4c0,.7,0,1.2-.8,1.2s-1.1-.3-1.1-1.2v-5.1c0-.9.3-1,1-1,.6,0,1.1.1,1,1A12.212,12.212,0,0,0,37.3,594.9Z"/>
      <path id="Path_691" data-name="Path 691" class="cls-3" d="M505.4,63.3a4.979,4.979,0,0,1-2.9-.9c-.4-.3-1.1-.4-.8-1.1a.961.961,0,0,1,1.3-.6,4.512,4.512,0,0,0,5.3-.3c.4-.3.7.1.9.5.3.5,0,.8-.3,1.1A5.256,5.256,0,0,1,505.4,63.3Z"/>
      <path id="Path_692" data-name="Path 692" class="cls-2" d="M160,196.4v2.2c0,.8-.2,1-.9,1-.8,0-.9-.4-.9-1.1v-4.6c0-.8.3-1,.9-1,.8,0,.9.4.9,1.1A19.218,19.218,0,0,0,160,196.4Z"/>
      <path id="Path_693" data-name="Path 693" class="cls-2" d="M258.9,436.9v-4c0-.5-.1-1,.6-1s.6.5.6,1v8.2c0,.5,0,1-.7.9-.5,0-.6-.5-.6-.9C258.9,439.7,258.9,438.3,258.9,436.9Z"/>
      <path id="Path_694" data-name="Path 694" class="cls-3" d="M533.4,72.9V71.1c.1-.6-.4-2.1,1.1-.9.4.4.7-.5,1.2-.6s1.1-.2,1.2.5-.5.6-.9.7c-1.1.1-1.5.9-1.5,2v2.4c0,.4.1.9-.5,1-.7,0-.6-.6-.6-1Z"/>
      <path id="Path_695" data-name="Path 695" class="cls-3" d="M423.3,586.2V591c0,.4-.2.7-.6.7H412.2c.1-.9.7-.7,1.1-.7,2.7,0,5.4-.1,8.1,0,1.2,0,1.4-.4,1.4-1.6C422.6,588.3,422.2,587.1,423.3,586.2Z"/>
      <path id="Path_696" data-name="Path 696" class="cls-3" d="M75.1,553.6c0,1-1.9,3.5-2.5,3.4-.5-.1-1-.4-1-1-.1-.8,1.5-3.8,1.8-3.7A3.256,3.256,0,0,1,75.1,553.6Z"/>
      <path id="Path_697" data-name="Path 697" class="cls-3" d="M419.9,581.7a15.412,15.412,0,0,1,2-4.3c.9.2.9.7.5,1.5l-2.7,4.8c-.2.4-.9.7-.3,1.4h0c-1-.5-.8.5-.9,1-.3.9-.7.9-1.2.3v.1c.1-.2.3-.4.4-.6v.1a.812.812,0,0,0,.4-.8v.1c.3.1.3-.2.4-.4v.1a.812.812,0,0,0,.4-.8v.1c.3.1.3-.2.4-.4v.1a.812.812,0,0,0,.4-.8v.1c.4.1.3-.2.4-.4v.1A3.994,3.994,0,0,1,419.9,581.7Z"/>
      <path id="Path_698" data-name="Path 698" class="cls-2" d="M269.9,437v4c0,.5,0,1-.7,1-.6,0-.5-.5-.5-.9v-8.3c0-.5-.1-1,.6-1,.6,0,.5.5.5.9C269.9,434.2,269.9,435.6,269.9,437Z"/>
      <path id="Path_699" data-name="Path 699" class="cls-3" d="M537.7,72.8V70.4c0-.4.1-.7.6-.7.3,0,.4.3.4.6v5.1c0,.4,0,.7-.5.7s-.5-.3-.5-.7Z"/>
      <path id="Path_700" data-name="Path 700" class="cls-3" d="M142.1,50.9h-.8c-.3,0-.8.1-.8-.4s.4-.5.7-.5c1.2.2,1.6-.3,1.5-1.6-.1-.4,0-.9.5-.9s.4.5.4.9C144,50.3,143.7,50.9,142.1,50.9Z"/>
      <path id="Path_701" data-name="Path 701" class="cls-3" d="M396.6,588.1v2.3c-.5,1.3-1.5,1.4-2.6,1.2-1.2-.2-2.5.3-3.7-.8H393c.8,0,1.6.4,2.3-.3v.1C395.9,589.9,395.2,588.4,396.6,588.1Z"/>
      <path id="Path_702" data-name="Path 702" class="cls-3" d="M266.1,587.2c-1.2-1.2-1.2-1.2-2,.3v-2.2c-.1-.9.2-1.2,1-1.1.9.1,1.3.6.9,1.4C265.6,586.2,266,586.7,266.1,587.2Z"/>
      <path id="Path_703" data-name="Path 703" class="cls-3" d="M444.8,590.6c.9-.5-.1-1.6.6-2.1,1.1,2.2.6,3.2-1.4,3.2h-4.7c.6-1.1,1.3-.6,1.9-.7,1.2-.4,2.5.4,3.6-.4Z"/>
      <path id="Path_704" data-name="Path 704" class="cls-3" d="M142.1,29.9c1.3,0,2.1,1.8,1.4,3.1-.1.1-.2.3-.4.3a.338.338,0,0,1-.3-.5c.2-1.5-.2-2.2-1.6-1.9a.533.533,0,0,1-.7-.5c0-.5.5-.4.8-.4C141.6,29.8,141.8,29.9,142.1,29.9Z"/>
      <path id="Path_705" data-name="Path 705" class="cls-3" d="M411.3,589.1v1.3c-1,1.3-3.7,1.7-5.8.8a4.875,4.875,0,0,1,2.3-.3c2.3,0,2.3,0,2.6-2.4C410.8,588.3,410.7,589.4,411.3,589.1Z"/>
      <path id="Path_706" data-name="Path 706" class="cls-3" d="M386,590.6c.6-.6,0-1.4.5-2.2a3.054,3.054,0,0,1,.3,2.6c-.1.9-1,.5-1.5.6a16.322,16.322,0,0,1-4.4-.3c1.7-.9,3.6.2,5.1-.7Z"/>
      <path id="Path_707" data-name="Path 707" class="cls-3" d="M124.9,47.3c.5.2.5.6.5,1-.1,1.2.2,1.8,1.4,1.7.3,0,.8-.1.8.4.1.7-.5.4-.8.5C124.5,51.1,124.2,50.5,124.9,47.3Z"/>
      <path id="Path_708" data-name="Path 708" class="cls-3" d="M377.4,590.5c.2-.4-.8-1.1.2-1.4.3,0,.5-.1.5-.4v.1c1.1-1.4.1-3.3.7-5,1.1,1.1-.3,2.8.9,3.6,0,.4.1.9-.2,1.2C378.5,588.8,378.3,590.2,377.4,590.5Z"/>
      <path id="Path_709" data-name="Path 709" class="cls-3" d="M325.4,585.6c-.4.4-1.2,0-1.2.9.1.9,1,0,1.3.8-.6.2-1.5.5-1.8-.2a3.585,3.585,0,0,1,0-2.5c.2-.7,1-.4,1.6-.2-.2.8-1.3-.1-1.2.7C324.2,585.7,325,585.2,325.4,585.6Z"/>
      <path id="Path_710" data-name="Path 710" class="cls-3" d="M403.7,588.7c.8,2.6.6,3.1-1.6,3-1.5-.1-3,.3-4.6-.3a7.12,7.12,0,0,1,3.8-.4C402.7,591,403.9,590.9,403.7,588.7Z"/>
      <path id="Path_711" data-name="Path 711" class="cls-3" d="M124.6,31.4c.1-.5-.3-1.4.3-1.6a10.445,10.445,0,0,1,2.5,0c.1,0,.2.3.2.4-.1.5-.5.4-.8.4-1-.1-1.6.1-1.4,1.4.1.4.1,1.1-.3,1.1-.7,0-.3-.7-.4-1.1C124.6,31.9,124.6,31.7,124.6,31.4Z"/>
      <path id="Path_712" data-name="Path 712" class="cls-3" d="M276.1,587.3c-.8,0-1.7.4-1.9-.3a3.585,3.585,0,0,1,0-2.5c.2-.6,1.1-.3,1.7-.2-.2.8-1.2-.1-1.2.7,0,.7.7.2,1,.6-.2.5-1.1,0-1,.8C274.8,587.3,275.7,586.5,276.1,587.3Z"/>
      <path id="Path_713" data-name="Path 713" class="cls-3" d="M286.4,587.2c-.8-.7-1.5-1.3-2.1,0-.2,0-.3-.2-.2-.4.5-.8.3-2.6,1.1-2.6C286.2,584.4,286,586.1,286.4,587.2Z"/>
      <path id="Path_714" data-name="Path 714" class="cls-3" d="M370.1,580.9c0-.4.1-.6.5-.6.3,0,.7.1.8-.4h2.5c0,.2.6.6-.1.7-3.4.3-3.6.6-4,4.4a5.854,5.854,0,0,1-.1-3.2h-.1C370.1,581.6,370.1,581.3,370.1,580.9Z"/>
      <path id="Path_715" data-name="Path 715" class="cls-3" d="M312.8,32.5c-.7.1-1.1,0-1.1-.9s.4-.9,1-1c.7,0,1,.1,1,1C313.8,32.5,313.4,32.6,312.8,32.5Z"/>
      <path id="Path_716" data-name="Path 716" class="cls-3" d="M313.2,584.1c.9.5.6,1.6,1.2,2,.6-.5.2-1.6,1.1-1.9,0,.2.1.4,0,.5-.5.8-.2,2.6-1.2,2.4C313.5,587,313.5,585.4,313.2,584.1Z"/>
      <path id="Path_717" data-name="Path 717" class="cls-3" d="M159.1,192c-.6.1-1,0-.9-.8,0-.8.2-1.1.9-1.1s.9.3.9,1.1S159.6,192.1,159.1,192Z"/>
      <path id="Path_718" data-name="Path 718" class="cls-3" d="M281.8,32.5c-.6,0-1.2.2-1.2-.8,0-.7.2-1.1.9-1.1.6.1,1.2-.1,1.2,1C282.7,32.4,282.3,32.5,281.8,32.5Z"/>
      <path id="Path_719" data-name="Path 719" class="cls-3" d="M392.1,580.8a36.88,36.88,0,0,1,2.4,6.1c-1-.4-.8-1.6-1.5-1.9v.1a3.69,3.69,0,0,0-.7-2.3v.1c-.1-.3,0-.7-.4-.8v.1c-.1-.3-.1-.7-.2-1C392,581,392.1,580.9,392.1,580.8Z"/>
      <path id="Path_720" data-name="Path 720" class="cls-3" d="M256.1,584.4c-.6.2-1.4.3-1.4,1.3,0,1.1.7,1.2,1.8,1.3-.9.5-1.5.5-2-.2a1.983,1.983,0,0,1-.1-2.1C254.7,584,255.4,584.1,256.1,584.4Z"/>
      <path id="Path_721" data-name="Path 721" class="cls-3" d="M294.7,584.3a2.76,2.76,0,0,1,2,0c-1.3.6-.4,2-.9,3.1C294.8,586.6,296.2,584.8,294.7,584.3Z"/>
      <path id="Path_722" data-name="Path 722" class="cls-3" d="M410,571.8v-5A7.78,7.78,0,0,1,410,571.8Z"/>
      <path id="Path_723" data-name="Path 723" class="cls-3" d="M410.1,545.4a10.567,10.567,0,0,1,0,5Z"/>
      <path id="Path_724" data-name="Path 724" class="cls-3" d="M375.4,590.6a2.092,2.092,0,0,0,.4.6,6.911,6.911,0,0,1-5.8-.1C371.8,591.2,373.6,591.6,375.4,590.6Z"/>
      <path id="Path_725" data-name="Path 725" class="cls-3" d="M405.9,547.1c1.1,1,1.2,2.5,1.5,4C406.9,549.8,406.4,548.4,405.9,547.1Z"/>
      <path id="Path_726" data-name="Path 726" class="cls-3" d="M542.9,469.4c-.2-.5-1.1-.3-1-1,.1-.4.1-1.1.8-.9.4.1,1,0,.9.7C543.5,468.7,543.4,469.2,542.9,469.4Z"/>
      <path id="Path_727" data-name="Path 727" class="cls-3" d="M558.1,449a.876.876,0,0,1-.7.9.765.765,0,0,1-.9-.8c-.1-.5.2-.8.7-.9A.861.861,0,0,1,558.1,449Z"/>
      <path id="Path_728" data-name="Path 728" class="cls-3" d="M412.9,551l1.5-3.9c.1,0,.2.1.3.1-.5,1.3-.9,2.6-1.4,3.9C413.1,551.1,413,551.1,412.9,551Z"/>
      <path id="Path_729" data-name="Path 729" class="cls-3" d="M414.4,570.2c-.5-1.3-1-2.6-1.6-4A6.246,6.246,0,0,1,414.4,570.2Z"/>
      <path id="Path_730" data-name="Path 730" class="cls-3" d="M402.6,558.1a5.774,5.774,0,0,1-3.2,0C400.2,558,401.4,557.5,402.6,558.1Z"/>
      <path id="Path_731" data-name="Path 731" class="cls-3" d="M405.9,570.2c.5-1.3,1-2.7,1.5-4A5.851,5.851,0,0,1,405.9,570.2Z"/>
      <path id="Path_732" data-name="Path 732" class="cls-3" d="M417.5,567.1l-2.5-2.5C416.3,564.9,416.9,566.1,417.5,567.1Z"/>
      <path id="Path_733" data-name="Path 733" class="cls-3" d="M414.7,581.3c.3,0,.5.1.8.1-.2.5-.2,1.1-.8,1.4a8.611,8.611,0,0,1-2.7-.2C412.9,581.6,414.3,582.6,414.7,581.3Z"/>
      <path id="Path_734" data-name="Path 734" class="cls-3" d="M403.2,556.4a2.671,2.671,0,0,1-2.9-.8C401.2,555.8,402.2,556.1,403.2,556.4Z"/>
      <path id="Path_735" data-name="Path 735" class="cls-3" d="M518,465.7c0,.6-.3.9-.7.8-.4,0-.7-.2-.7-.8s.3-.9.8-.9A.875.875,0,0,1,518,465.7Z"/>
      <path id="Path_736" data-name="Path 736" class="cls-3" d="M411.5,551.1a28.677,28.677,0,0,0,.5-3.1C412.4,549,412.4,549,411.5,551.1Z"/>
      <path id="Path_737" data-name="Path 737" class="cls-3" d="M400.1,560.2c.9-.8,2-.5,2.9-.9C402.2,560.3,401.1,560,400.1,560.2Z"/>
      <path id="Path_738" data-name="Path 738" class="cls-3" d="M411.9,566.1l.6,3c-.1,0-.3.1-.4.1l-.6-3C411.6,566.2,411.7,566.1,411.9,566.1Z"/>
      <path id="Path_739" data-name="Path 739" class="cls-3" d="M409.3,584.4a2.769,2.769,0,0,0-.1-.9,18.816,18.816,0,0,0,.5-3.3C410,581.7,410.3,583.1,409.3,584.4Z"/>
      <path id="Path_740" data-name="Path 740" class="cls-3" d="M573.2,576a12.4,12.4,0,0,1-2.7,3.2,14.253,14.253,0,0,1,2.5-3.4A.215.215,0,0,0,573.2,576Z"/>
      <path id="Path_741" data-name="Path 741" class="cls-3" d="M405,549.4a6.244,6.244,0,0,1,1.7,2.8A5.75,5.75,0,0,1,405,549.4Z"/>
      <path id="Path_742" data-name="Path 742" class="cls-3" d="M304.9,587.2a7.962,7.962,0,0,1-.1-3.5A4.275,4.275,0,0,1,304.9,587.2Z"/>
      <path id="Path_743" data-name="Path 743" class="cls-3" d="M406.9,565.1c-.6,1-1.1,1.9-1.7,2.9A3.975,3.975,0,0,1,406.9,565.1Z"/>
      <path id="Path_744" data-name="Path 744" class="cls-3" d="M420.1,558.6a2.672,2.672,0,0,1-2.6,0Z"/>
      <path id="Path_745" data-name="Path 745" class="cls-3" d="M390.4,578.4c0-.3-.1-.7.1-.8.3-.2.5.1.6.4a14.273,14.273,0,0,1,.8,2.2l-.3.3c-.3,0-.2-.6-.5-.5v.1c-.1-.8-.2-1.4-.7-1.7Z"/>
      <path id="Path_746" data-name="Path 746" class="cls-3" d="M573,575.8a3.011,3.011,0,0,1,1.3-1.9,4.217,4.217,0,0,1-1.1,2.1A.215.215,0,0,1,573,575.8Z"/>
      <path id="Path_747" data-name="Path 747" class="cls-3" d="M561.8,571.5a3,3,0,0,1,1.2-1.3l.2.2c-.4.4-.8.9-1.2,1.3Z"/>
      <path id="Path_748" data-name="Path 748" class="cls-3" d="M539.8,577.7c-.2.5-.4.8-1.3.5.5-.3.8-.5,1.1-.7Z"/>
      <path id="Path_749" data-name="Path 749" class="cls-3" d="M537.1,580.2a1.272,1.272,0,0,1,.9-.7.887.887,0,0,1-.7.9A.215.215,0,0,1,537.1,580.2Z"/>
      <path id="Path_750" data-name="Path 750" class="cls-3" d="M415.6,552.6c0,.3-.2.4-.4.3-.2-.2.1-.3.2-.5A.215.215,0,0,0,415.6,552.6Z"/>
      <path id="Path_751" data-name="Path 751" class="cls-3" d="M417,550.6c.2-.2.3-.7.6-.4s-.1.5-.3.6C417.2,550.7,417.1,550.7,417,550.6Z"/>
      <path id="Path_752" data-name="Path 752" class="cls-3" d="M391.8,580.1c.1.2.2.5.3.7l-.3.3c-.1-.2-.2-.5-.3-.7Z"/>
      <path id="Path_753" data-name="Path 753" class="cls-3" d="M415.9,552.3c0,.2-.1.3-.4.3l-.2-.2c.1-.1.2-.3.4-.4C415.8,552.1,415.9,552.2,415.9,552.3Z"/>
      <path id="Path_754" data-name="Path 754" class="cls-3" d="M415.7,552c.1-.1.2-.3.3-.4.1.1.1.2.2.3a1.38,1.38,0,0,0-.3.4C415.9,552.2,415.8,552.1,415.7,552Z"/>
      <path id="Path_755" data-name="Path 755" class="cls-3" d="M416.6,551.5a1.38,1.38,0,0,0-.3.4c-.1-.1-.1-.2-.2-.3a1.38,1.38,0,0,0,.3-.4C416.5,551.3,416.5,551.4,416.6,551.5Z"/>
      <path id="Path_756" data-name="Path 756" class="cls-3" d="M416.4,551.2l.3-.3c.1.1.1.2.2.3a1.38,1.38,0,0,0-.3.4C416.5,551.4,416.5,551.3,416.4,551.2Z"/>
      <path id="Path_757" data-name="Path 757" class="cls-3" d="M417.3,550.8a1.38,1.38,0,0,0-.3.4c-.1-.1-.1-.2-.2-.3l.3-.3C417.1,550.7,417.2,550.7,417.3,550.8Z"/>
      <path id="Path_758" data-name="Path 758" class="cls-3" d="M442.1,4.1c-.1-.1-.2-.3-.3-.4C442.1,3.7,442.1,3.8,442.1,4.1Z"/>
      <path id="Path_759" data-name="Path 759" class="cls-3" d="M438.8.4l-.3-.3C438.7,0,438.9.1,438.8.4Z"/>
      <path id="Path_760" data-name="Path 760" class="cls-4" d="M551.2,177.6a2.458,2.458,0,0,0,2.1-2.6c0-1.4-1.1-2.7-2.3-2.6a2.594,2.594,0,0,0-2.1,2.8C549.1,176.7,550,177.7,551.2,177.6Z"/>
      <path id="Path_761" data-name="Path 761" class="cls-4" d="M402.2,433.1c0,.2.1.4,0,.4-.2.1-.2-.1-.3-.2C402,433.2,402.1,433.1,402.2,433.1Z"/>
      <path id="Path_762" data-name="Path 762" class="cls-3" d="M407.6,585.1c0-.1-.1-.1-.1-.2a.35.35,0,0,1,.1.2Z"/>
      <path id="Path_763" data-name="Path 763" class="cls-3" d="M407.6,585c.2.2.3.4.5.5v.1a2.65,2.65,0,0,1-.5-.6Z"/>
      <path id="Path_764" data-name="Path 764" class="cls-4" d="M440.5,442.4a.366.366,0,0,1-.4.4C440.1,442.5,440.2,442.4,440.5,442.4Z"/>
      <path id="Path_765" data-name="Path 765" class="cls-4" d="M555.9,435c.1,0,.3-.1.4-.1a.6.6,0,0,1-.1.4Q556.2,435.15,555.9,435Z"/>
      <path id="Path_766" data-name="Path 766" class="cls-2" d="M524.2,172.4c1.2,0,2.1,1.2,2.1,2.7s-.9,2.5-2.1,2.4c-1.4-.1-2.1-1-2.1-2.5A2.385,2.385,0,0,1,524.2,172.4Z"/>
      <path id="Path_767" data-name="Path 767" class="cls-3" d="M551.2,177.6a2.334,2.334,0,0,1-2.2-2.4,2.446,2.446,0,0,1,2.1-2.8c1.2-.1,2.3,1.2,2.3,2.6A2.616,2.616,0,0,1,551.2,177.6Z"/>
      <path id="Path_768" data-name="Path 768" class="cls-3" d="M260.7,147c1.2-1.9,2.2-3.6,3.3-5.1a2.4,2.4,0,0,1,4.1.3,26.012,26.012,0,0,0,2.5,3.6v-4.2c0-1,.3-1.4,1.2-1.4,1.7-.1,3.4-.3,5.1-.4,1.9-.1,2.7.9,2,2.8-.4,1.1.6,1.3.4,2.5a41.254,41.254,0,0,0,2.1-4.3c.5-1.3,1.4-1.4,2.5-1.5,1.2-.1,1.5.7,1.9,1.6a32.79,32.79,0,0,0,2.4,4.5v-4.8c0-.8.1-1.2,1-1.1,5.7.4,11.4.5,17.1,1.3.9.1,1.4.3,1.2,1.4-.1.9.3,1.3,1.1,1.3a9.079,9.079,0,0,1,2.3.3c.6.1,1,0,1-.8-.1-1,.3-1.1,1.1-1,.7.1,1.1.3,1.1,1.3a28.032,28.032,0,0,0,0,2.9c0,.5.1,1.1-.6,1-.6,0-1.4.4-1.6-.5-.2-1.7-1.3-1.4-2.2-1.4s-2.3-.7-2.3,1.5c0,.7-.8.3-1.3.4s-.9-.1-.9-.7c0-.9-.1-1.8-.1-2.8-.1-2.3-1.7-1.1-2.6-1.4-1.1-.4-1.1.6-1.1,1.4v2c.1,1-.2,1.4-1.2,1.4s-1.2-.5-1.2-1.4a6.694,6.694,0,0,0,0-2c-.1-.6.5-1.6-.7-1.6-.9,0-1.9-.4-2,1.3,0,.7-.4,1.4-.1,2.2.2.5.5,1.4-.3,1.5-.6.1-1.6.7-1.9-.8-.3-1.4-1.5-.6-2.3-.7-.5-.1-1.4-.5-1.6.7-.1.6-.2,1-.8.9-1.4-.3-3,.7-4.3-1-.5-.7-3.7-.2-4.3.5a1.56,1.56,0,0,1-1.5.5,69.417,69.417,0,0,0-7.9.1c-2.3.3-4.2-1.1-6.4-1.1-1.4,0-2.3,1.5-3.7,1C261.4,147.1,261.2,147.1,260.7,147Zm31.8-3.7h1c.5,0,1.1.1,1.1-.7a.93.93,0,0,0-1-1.1,17.651,17.651,0,0,0-2.3,0c-.6,0-.7.4-.7,1s.2.9.8.8Zm-17.5,1c-.6.4-2-.4-2.1.6,0,.9,1.4.4,2.1.4.6,0,1.8.5,1.8-.5C276.8,143.9,275.6,144.7,275,144.3Zm-2.7-1.9a7.554,7.554,0,0,0,4.2.1c.1,0,.2-.3.2-.4,0-.3-.2-.4-.5-.4A8.71,8.71,0,0,0,272.3,142.4Zm11.3-.8c-.4.9-1.2,1.5-.8,2.3.1.2,1.3.3,1.5,0C284.8,143.1,283.9,142.6,283.6,141.6Zm-16.7,2.9c-.4-.7-.5-1.5-1.1-1.5-.5.1-.7.9-.9,1.5Z"/>
      <path id="Path_769" data-name="Path 769" class="cls-2" d="M525.7,22.6c.2-3.6,1.4-6.6,4.5-8.3a6.765,6.765,0,0,1,8.1.5c1.6,1.2,1.6,1.3,0,2.4-3.5,2.6-7.1,5.2-10.6,7.8-1.6,1.2-1.7,1.1-2-1.1A5.635,5.635,0,0,0,525.7,22.6Z"/>
      <path id="Path_770" data-name="Path 770" class="cls-2" d="M289.5,280.6a42.088,42.088,0,0,1,16.4,2.9c4,1.7,5.8,4.9,6,9.4a103.324,103.324,0,0,1-5.1,36.3,6.828,6.828,0,0,1-3.3,4.1,23.167,23.167,0,0,1-9.5,2.8,37.345,37.345,0,0,1-17.5-1.9,8.55,8.55,0,0,1-5.3-5.5,92.435,92.435,0,0,1-5.1-38,7.151,7.151,0,0,1,4.5-6.6,47.279,47.279,0,0,1,17.4-3.4A7.57,7.57,0,0,1,289.5,280.6Zm-2,27.8v13.2c0,1,0,1.6,1.2,1.6s1.2-.6,1.2-1.6c0-3.7.1-7.5,0-11.2,0-1.1.3-1.5,1.2-1.3a2.854,2.854,0,0,0,1.3,0c1.1-.2,1.4.3,1.4,1.5-.1,3.6,0,7.2,0,10.9,0,1.2.1,1.7,1.4,1.7s1.3-.7,1.3-1.6V301a6.963,6.963,0,0,0-.5-2.5c-2.1-4.8-2.1-4.8-6.9-4.8-1.3,0-1.6.5-1.6,1.8C287.6,299.8,287.5,304.1,287.5,308.4Zm-15.1.1v13.2c0,1,.1,1.5,1.2,1.4,1-.1,1.5-.2,1.4-1.5-.1-3.2,0-6.4,0-9.6,0-3,0-3,2.6-3,.5,0,1.1.4,1.4-.5.5-1.6-.1-2.6-1.6-2.7-.4,0-.8-.2-1.2-.1-1.2.3-1.3-.5-1.3-1.5a54.184,54.184,0,0,0,0-5.7c-.1-1.2.2-1.8,1.4-1.7.9.1,1.8-.1,2.7,0,1.5.2,1-1,1.1-1.8.1-1-.2-1.4-1.2-1.4a46.851,46.851,0,0,1-5.3,0c-1,0-1.3.3-1.3,1.4C272.4,299.7,272.4,304.1,272.4,308.5Zm27.5,1.5h.1v11.6c0,1.2.3,1.5,1.4,1.6,1.2,0,1.3-.6,1.3-1.6V299c0-1.3.1-2.1,1.6-1.8,1.8.3,1.1-1.4,1.2-2.2.3-1.3-.7-1-1.3-1h-5.6c-.7,0-1.5-.2-1.3,1.2.1,1-.5,2.4,1.3,2.1,1.1-.2,1.4.3,1.4,1.5C299.9,302.4,299.9,306.2,299.9,310Zm-15.7-1.6V295.3c0-1.1-.2-1.5-1.4-1.5-1.1,0-1.3.3-1.3,1.4v26.7c0,1.3.4,1.3,1.4,1.3,1.1,0,1.3-.3,1.3-1.4C284.1,317.3,284.2,312.8,284.2,308.4Z"/>
      <path id="Path_771" data-name="Path 771" class="cls-3" d="M428.5,580.2c.2-.1.5,0,.3-.4h2.7c0,.5-.3.4-.6.4-2.1.4-2.8,1.2-3.7,4.6a6.717,6.717,0,0,1-.1-2.8c.3-.1.3-.4.3-.7.2-.2.6-.3.3-.8C428.2,580.9,428.3,580.5,428.5,580.2Z"/>
      <path id="Path_772" data-name="Path 772" class="cls-3" d="M290,301a19.217,19.217,0,0,1,0-2.4c.1-.6-.5-1.6.7-1.7.9-.1,1.8-.3,2.3,1.1a16.63,16.63,0,0,1,1,5.9c0,1.2-.4,1.4-1.3,1.4-2.7,0-2.7.1-2.7-2.9Z"/>
    </g>
    <text id="FIAT_CHRYSLER_AUTOMOBILES" data-name="FIAT CHRYSLER AUTOMOBILES" class="cls-5" transform="translate(7.906 55.489)"><tspan x="0" y="0">FIAT CHRYSLER AUTOMOBILES</tspan></text>
    <path id="Path_773" data-name="Path 773" class="cls-2" d="M401.9,428v7.4h.6Z"/>
    <g id="Group_160" data-name="Group 160">
      <path id="Path_774" data-name="Path 774" d="M506.7,590.8c.2,0,.3,0,.4-.1.1,0,.1-.2.1-.4V588c0-.2,0-.3-.1-.4s-.2-.1-.4-.1v-.1h1.4v.1c-.2,0-.3,0-.4.1s-.1.2-.1.4v2.3c0,.2,0,.3.1.4.1,0,.2.1.4.1v.1l-1.4-.1Z"/>
      <path id="Path_775" data-name="Path 775" d="M509.4,590.8c.2,0,.3-.1.4-.1.1-.1.1-.2.1-.5v-2.3l-.1-.1-.2-.2h-.2v-.1h.8L512,590v-1.7c0-.3,0-.5-.1-.6,0-.1-.2-.1-.3-.1v-.1h1.1v.1c-.2,0-.3.1-.4.1-.1.1-.1.2-.1.5v2.7h-.1l-2.1-2.8v2c0,.3,0,.5.1.6,0,.1.2.1.3.1v.1l-1-.1Z"/>
      <path id="Path_776" data-name="Path 776" d="M514,587.5h2.6v.9h-.1c-.1-.3-.1-.5-.2-.5a.749.749,0,0,0-.5-.1h-.3v2.6c0,.2,0,.3.1.4.1,0,.2.1.4.1v.1h-1.4v-.1c.2,0,.3-.1.4-.1,0-.1.1-.2.1-.4v-2.6h-.3c-.3,0-.4,0-.5.1a.764.764,0,0,0-.2.5H514Z"/>
      <path id="Path_777" data-name="Path 777" d="M517.9,590.8a.438.438,0,0,0,.3-.1c.1,0,.1-.2.1-.4V588c0-.2,0-.3-.1-.4,0-.1-.2-.1-.3-.1v-.1h2.5v.7h-.1c0-.2-.1-.4-.2-.4a.749.749,0,0,0-.5-.1h-.7v1.3h.7c.2,0,.3,0,.4-.1s.1-.2.1-.4h.1v1.2H520c0-.2-.1-.3-.1-.4s-.2-.1-.4-.1h-.7v1.3c0,.1,0,.2.1.2h.5a1.483,1.483,0,0,0,.7-.1.918.918,0,0,0,.4-.6h.1l-.2.9Z"/>
      <path id="Path_778" data-name="Path 778" d="M521.9,590.8a.438.438,0,0,0,.3-.1c0-.1.1-.2.1-.4v-2.2c0-.2,0-.3-.1-.4,0-.1-.2-.1-.3-.1v-.1h1.3a1.483,1.483,0,0,1,.7.1.792.792,0,0,1,.5.8.845.845,0,0,1-.2.6l-.6.3,1,1.3.2.2c.1.1.1.1.2.1v.1h-.7l-1.2-1.6h-.2v1c0,.2,0,.3.1.4a.367.367,0,0,0,.3.1v.1l-1.4-.2Zm1.6-1.7a.675.675,0,0,0,.4-.6.6.6,0,0,0-.3-.6.749.749,0,0,0-.5-.1h-.2v1.4C523.1,589.2,523.4,589.1,523.5,589.1Z"/>
      <path id="Path_779" data-name="Path 779" d="M526.2,590.8c.2,0,.3-.1.4-.1s.1-.2.1-.5v-2.3l-.1-.1-.2-.2h-.2v-.1h.8l1.8,2.5v-1.7c0-.3,0-.5-.1-.6,0-.1-.2-.1-.3-.1v-.1h1.1v.1c-.2,0-.3.1-.4.1-.1.1-.1.2-.1.5v2.7h-.1l-2.1-2.8v2c0,.3,0,.5.1.6,0,.1.2.1.3.1v.1l-1-.1Z"/>
      <path id="Path_780" data-name="Path 780" d="M530.7,590.9h0c.1-.1.2-.2.3-.2a1.541,1.541,0,0,0,.3-.7l1-2.5h.1l1.2,2.9c.1.2.1.3.2.4a.349.349,0,0,0,.2.1v.1h-1.2v-.1h.3l.1-.1v-.1c0-.1,0-.1-.1-.2l-.2-.5h-1.2a3.937,3.937,0,0,0-.2.6v.2c0,.1,0,.1.1.2h.2v.1h-1.1Zm2-1.3-.5-1.4-.5,1.4Z"/>
      <path id="Path_781" data-name="Path 781" d="M534.8,587.5h2.6v.9h-.1c-.1-.3-.1-.5-.2-.5a.749.749,0,0,0-.5-.1h-.3v2.6c0,.2,0,.3.1.4.1,0,.2.1.4.1v.1h-1.4v-.1c.2,0,.3-.1.4-.1,0-.1.1-.2.1-.4v-2.6h-.3c-.3,0-.4,0-.5.1a.764.764,0,0,0-.2.5h-.1Z"/>
      <path id="Path_782" data-name="Path 782" d="M538.7,590.8c.2,0,.3,0,.4-.1.1,0,.1-.2.1-.4V588c0-.2,0-.3-.1-.4s-.2-.1-.4-.1v-.1h1.4v.1c-.2,0-.3,0-.4.1s-.1.2-.1.4v2.3c0,.2,0,.3.1.4.1,0,.2.1.4.1v.1l-1.4-.1Z"/>
      <path id="Path_783" data-name="Path 783" d="M542,587.9a1.433,1.433,0,0,1,1.1-.5,1.606,1.606,0,0,1,1.1.5,1.9,1.9,0,0,1,.5,1.3,1.728,1.728,0,0,1-.5,1.3,1.284,1.284,0,0,1-1,.4,1.606,1.606,0,0,1-1.1-.5,1.844,1.844,0,0,1-.4-1.3A1.1,1.1,0,0,1,542,587.9Zm.3,2.5a.812.812,0,0,0,1.4,0,2.133,2.133,0,0,0,.3-1.2,1.737,1.737,0,0,0-.3-1.2,1.012,1.012,0,0,0-.7-.4.755.755,0,0,0-.7.4,2.133,2.133,0,0,0-.3,1.2A1.737,1.737,0,0,0,542.3,590.4Z"/>
      <path id="Path_784" data-name="Path 784" d="M546,590.8c.2,0,.3-.1.4-.1.1-.1.1-.2.1-.5v-2.3l-.1-.1-.2-.2H546v-.1h.8l1.8,2.5v-1.7c0-.3,0-.5-.1-.6,0-.1-.2-.1-.3-.1v-.1h1.1v.1c-.2,0-.3.1-.4.1-.1.1-.1.2-.1.5v2.7h-.1l-2.1-2.8v2c0,.3,0,.5.1.6,0,.1.2.1.3.1v.1l-1-.1Z"/>
      <path id="Path_785" data-name="Path 785" d="M550.5,590.9h0c.1-.1.2-.2.3-.2a1.541,1.541,0,0,0,.3-.7l1-2.5h.1l1.2,2.9c.1.2.1.3.2.4a.349.349,0,0,0,.2.1v.1h-1.2v-.1h.3l.1-.1v-.1c0-.1,0-.1-.1-.2l-.2-.5h-1.2a3.937,3.937,0,0,0-.2.6v.2c0,.1,0,.1.1.2h.2v.1h-1.1Zm2-1.3-.5-1.4-.5,1.4Z"/>
      <path id="Path_786" data-name="Path 786" d="M555,590.8a.438.438,0,0,0,.3-.1c.1,0,.1-.2.1-.4V588c0-.2,0-.3-.1-.4,0-.1-.2-.1-.3-.1v-.1h1.3v.1c-.2,0-.3,0-.3.1a.367.367,0,0,0-.1.3v2.6l.1.1h.3c.4,0,.7,0,.8-.1a1.538,1.538,0,0,0,.4-.6h.1l-.2.9Z"/>
    </g>
    <path id="Path_787" data-name="Path 787" class="cls-2" d="M412.7,563.8a16.078,16.078,0,0,1-3.1.1c-2.3-.5-3.5-2-3.7-4.7a4.742,4.742,0,0,1,3-5.1,5.14,5.14,0,0,1,4.8.6c.9.7.7,1.6.6,2.5,0,.6-.7.4-1.1.4s-1,.3-1.1-.5c-.1-.3,0-.7-.5-.6h0a1.654,1.654,0,0,0-1.9,0h0a.6.6,0,0,0-.6.3.366.366,0,0,0-.4.4.6.6,0,0,0-.3.6h0a2.5,2.5,0,0,0,3.2,3.6c.2-.1.5-.3.4-.6-.1-.5-.5-.3-.9-.3-1.3.1-1.6-.2-1.4-1.4.1-.4.2-.6.6-.6,1.1,0,2.2.1,3.3,0,.5,0,.6.3.6.8-.1,1.1-.1,2.3-.1,3.4v-.1c-.2-.1-.3.1-.4.3-.7.2,0,.6-.1.9a2.22,2.22,0,0,1-1.1.5A.42.42,0,0,0,412.7,563.8Z"/>
    <g id="Group_161" data-name="Group 161">
      <path id="Path_788" data-name="Path 788" class="cls-6" d="M57.5,595.5c-.4,0-.9-.1-1,.6,0,.8.5.6,1,.7.3-.1,1,.2,1-.7C58.5,595.5,57.9,595.5,57.5,595.5Z"/>
      <path id="Path_789" data-name="Path 789" class="cls-3" d="M60.1,595.1a1.128,1.128,0,0,1-.1-.8c.5-2.3-.1-3-2.2-3-3.2-.1-3.2-.1-3.2,3.4,0,4.2,0,4.2,3.7,3.7C60.3,598.1,60.8,597.1,60.1,595.1Zm-2.6,1.7c-.5-.1-1,.2-1-.7,0-.8.6-.6,1-.6s1-.1,1,.6C58.5,597,57.8,596.7,57.5,596.8Zm0-2.6c-.5-.1-1,.2-1-.7,0-.8.6-.6,1-.6s1-.1,1,.6C58.5,594.4,57.8,594,57.5,594.2Z"/>
    </g>
    <path id="Path_790" data-name="Path 790" class="cls-3" d="M18,598.4c.9-2.3,1.7-4.5,2.6-6.5a1.5,1.5,0,0,1,2.4-.1c.9,1.9,1.6,3.9,2.4,5.9.1.3.2.7-.1.7-.6.1-1.2.3-1.7-.3-1.1-1.2-2.4-1.3-3.4-.1C19.5,598.8,18.9,598.3,18,598.4Zm3.9-4.7c-.4.6-.8,1.1-.5,1.7.1.3.7.3.9,0C22.6,594.8,22.1,594.3,21.9,593.7Z"/>
  </g>
</svg>
