<svg xmlns="http://www.w3.org/2000/svg" viewBox="0 0 71.164 44.075">
  <defs>
    <style>
      .cls-1 {
        fill: #fff;
      }
    </style>
  </defs>
  <g id="Group_147" data-name="Group 147" transform="translate(0.002 -0.051)">
    <path id="Path_502" data-name="Path 502" class="cls-1" d="M31.471,10.131a17.107,17.107,0,0,0-6.164-2.468A14.848,14.848,0,0,0,15.02,9.156,14.346,14.346,0,0,0,7.369,20.98a14.146,14.146,0,0,0,3.015,10.161,14.342,14.342,0,0,0,8.745,5.449,13.961,13.961,0,0,0,9.144-1.136A15.072,15.072,0,0,0,36.3,26.127a2.125,2.125,0,0,0,.049-.245H20.679c-.007-.147-.021-.259-.021-.372q0-3.419-.007-6.837c0-.281.063-.379.365-.379q7.174.011,14.341,0a.488.488,0,0,1,.5.33q2.5,5.039,5.035,10.056c.379.75.771,1.494,1.129,2.251a.624.624,0,0,1,.007.477,22.305,22.305,0,0,1-16.6,12.44A22.01,22.01,0,0,1,5.707,36.856,21.581,21.581,0,0,1,.069,23.792,21.518,21.518,0,0,1,3.806,9.724,22.074,22.074,0,0,1,23.063.075c1.129.049,2.244.266,3.366.421a.532.532,0,0,1,.337.238q2.3,4.555,4.6,9.123C31.387,9.914,31.408,9.977,31.471,10.131Z" transform="translate(0 0)"/>
    <path id="Path_503" data-name="Path 503" class="cls-1" d="M648.009,49.636c-.294-.568-.547-1.066-.8-1.557q-1.652-3.282-3.31-6.557a.563.563,0,0,1,.007-.575q5.964-11.9,11.921-23.8,2.651-5.3,5.3-10.6a.535.535,0,0,1,.554-.351c2.581.014,5.168.007,7.749.007h.407C662.56,20.688,655.3,35.12,648.009,49.636Z" transform="translate(-598.676 -5.718)"/>
  </g>
</svg>
