<svg xmlns="http://www.w3.org/2000/svg" xmlns:xlink="http://www.w3.org/1999/xlink" width="945.037" height="501.822" viewBox="0 0 945.037 501.822">
  <defs>
    <filter id="Rectangle_7" x="182.617" y="62.906" width="236.644" height="61.136" filterUnits="userSpaceOnUse">
      <feOffset dy="3" input="SourceAlpha"/>
      <feGaussianBlur stdDeviation="3" result="blur"/>
      <feFlood flood-opacity="0.161"/>
      <feComposite operator="in" in2="blur"/>
      <feComposite in="SourceGraphic"/>
    </filter>
    <filter id="Rectangle_7-2" x="182.617" y="0" width="200.813" height="61.136" filterUnits="userSpaceOnUse">
      <feOffset dy="3" input="SourceAlpha"/>
      <feGaussianBlur stdDeviation="3" result="blur-2"/>
      <feFlood flood-opacity="0.161"/>
      <feComposite operator="in" in2="blur-2"/>
      <feComposite in="SourceGraphic"/>
    </filter>
    <filter id="Rectangle_27" x="447.011" y="62.906" width="246.644" height="61.136" filterUnits="userSpaceOnUse">
      <feOffset dy="3" input="SourceAlpha"/>
      <feGaussianBlur stdDeviation="3" result="blur-3"/>
      <feFlood flood-opacity="0.161"/>
      <feComposite operator="in" in2="blur-3"/>
      <feComposite in="SourceGraphic"/>
    </filter>
    <filter id="Rectangle_7-3" x="407.281" y="0" width="275.401" height="61.136" filterUnits="userSpaceOnUse">
      <feOffset dy="3" input="SourceAlpha"/>
      <feGaussianBlur stdDeviation="3" result="blur-4"/>
      <feFlood flood-opacity="0.161"/>
      <feComposite operator="in" in2="blur-4"/>
      <feComposite in="SourceGraphic"/>
    </filter>
    <filter id="Rectangle_7-4" x="186.977" y="182.907" width="225.077" height="61.135" filterUnits="userSpaceOnUse">
      <feOffset dy="3" input="SourceAlpha"/>
      <feGaussianBlur stdDeviation="3" result="blur-5"/>
      <feFlood flood-opacity="0.161"/>
      <feComposite operator="in" in2="blur-5"/>
      <feComposite in="SourceGraphic"/>
    </filter>
    <filter id="Rectangle_7-5" x="438.601" y="182.907" width="144.198" height="61.135" filterUnits="userSpaceOnUse">
      <feOffset dy="3" input="SourceAlpha"/>
      <feGaussianBlur stdDeviation="3" result="blur-6"/>
      <feFlood flood-opacity="0.161"/>
      <feComposite operator="in" in2="blur-6"/>
      <feComposite in="SourceGraphic"/>
    </filter>
    <filter id="Rectangle_7-6" x="209.443" y="246.712" width="191.173" height="61.135" filterUnits="userSpaceOnUse">
      <feOffset dy="3" input="SourceAlpha"/>
      <feGaussianBlur stdDeviation="3" result="blur-7"/>
      <feFlood flood-opacity="0.161"/>
      <feComposite operator="in" in2="blur-7"/>
      <feComposite in="SourceGraphic"/>
    </filter>
    <filter id="Rectangle_7-7" x="426.919" y="246.712" width="404.621" height="61.135" filterUnits="userSpaceOnUse">
      <feOffset dy="3" input="SourceAlpha"/>
      <feGaussianBlur stdDeviation="3" result="blur-8"/>
      <feFlood flood-opacity="0.161"/>
      <feComposite operator="in" in2="blur-8"/>
      <feComposite in="SourceGraphic"/>
    </filter>
    <filter id="Rectangle_33" x="609.346" y="182.907" width="148.691" height="61.135" filterUnits="userSpaceOnUse">
      <feOffset dy="3" input="SourceAlpha"/>
      <feGaussianBlur stdDeviation="3" result="blur-9"/>
      <feFlood flood-opacity="0.161"/>
      <feComposite operator="in" in2="blur-9"/>
      <feComposite in="SourceGraphic"/>
    </filter>
    <filter id="Rectangle_33-2" x="785.346" y="182.907" width="159.691" height="61.135" filterUnits="userSpaceOnUse">
      <feOffset dy="3" input="SourceAlpha"/>
      <feGaussianBlur stdDeviation="3" result="blur-10"/>
      <feFlood flood-opacity="0.161"/>
      <feComposite operator="in" in2="blur-10"/>
      <feComposite in="SourceGraphic"/>
    </filter>
    <filter id="Rectangle_7-8" x="196.135" y="368.233" width="249.433" height="61.136" filterUnits="userSpaceOnUse">
      <feOffset dy="3" input="SourceAlpha"/>
      <feGaussianBlur stdDeviation="3" result="blur-11"/>
      <feFlood flood-opacity="0.161"/>
      <feComposite operator="in" in2="blur-11"/>
      <feComposite in="SourceGraphic"/>
    </filter>
    <filter id="Rectangle_7-9" x="468.428" y="368.233" width="271.9" height="61.136" filterUnits="userSpaceOnUse">
      <feOffset dy="3" input="SourceAlpha"/>
      <feGaussianBlur stdDeviation="3" result="blur-12"/>
      <feFlood flood-opacity="0.161"/>
      <feComposite operator="in" in2="blur-12"/>
      <feComposite in="SourceGraphic"/>
    </filter>
    <filter id="Rectangle_7-10" x="196.135" y="432.038" width="340.198" height="61.136" filterUnits="userSpaceOnUse">
      <feOffset dy="3" input="SourceAlpha"/>
      <feGaussianBlur stdDeviation="3" result="blur-13"/>
      <feFlood flood-opacity="0.161"/>
      <feComposite operator="in" in2="blur-13"/>
      <feComposite in="SourceGraphic"/>
    </filter>
    <filter id="Rectangle_7-11" x="563.167" y="432.34" width="307.198" height="61.136" filterUnits="userSpaceOnUse">
      <feOffset dy="3" input="SourceAlpha"/>
      <feGaussianBlur stdDeviation="3" result="blur-14"/>
      <feFlood flood-opacity="0.161"/>
      <feComposite operator="in" in2="blur-14"/>
      <feComposite in="SourceGraphic"/>
    </filter>
  </defs>
  <g id="Group_203" data-name="Group 203" transform="translate(-664.584 -1335.515)">
    <g id="Group_64" data-name="Group 64" transform="translate(687.353 1384.331)">
      <path id="Path_12" data-name="Path 12" d="M38.435,67.2c-.963-1.055-2.141-1.87-3.163-2.864A37.369,37.369,0,0,1,25.6,48.808a37.336,37.336,0,0,1,5.744-33.887A37.422,37.422,0,0,1,63.423.067,36.616,36.616,0,0,1,81.71,6.111a37.257,37.257,0,0,1,12.9,14.405,36.343,36.343,0,0,1,3.594,11.071,37.461,37.461,0,0,1-7.528,28.922,39.528,39.528,0,0,1-6.4,6.408,2.141,2.141,0,0,0-.246.279c-.212.009-.425.025-.637.025q-22.033,0-44.066,0C39.03,67.221,38.732,67.2,38.435,67.2ZM86.593,48.873a11.676,11.676,0,0,0,.417-2.865c.847-.137,1.081-.423,1.1-1.271a13.524,13.524,0,0,0-.477-3.732,16.635,16.635,0,0,0-9.163-11.126.805.805,0,0,1-.538-.814,16.719,16.719,0,0,0-14.12-16.189A15.888,15.888,0,0,0,51.88,15.559a16.29,16.29,0,0,0-7.192,11.806c-.1.741.164,1.64-.242,2.178-.421.557-1.306.748-1.955,1.151a16.237,16.237,0,0,0-8.059,12.894A16.72,16.72,0,0,0,51.013,61.66a16.256,16.256,0,0,0,9.806-3.2.591.591,0,0,1,.833,0,16.685,16.685,0,0,0,25.5-7.875C87.465,49.694,87.371,49.407,86.593,48.873Z" transform="translate(-17.712 0)" fill="#7ea0ff"/>
      <path id="Path_13" data-name="Path 13" d="M73.905,262.346c.3.009.6.025.893.025q22.033,0,44.066,0c.212,0,.425-.017.637-.025.448.007.9,0,1.344.026a1.01,1.01,0,1,1,.04,2.017c-.212.021-.426.019-.639.019q-23.531,0-47.062,0a6.894,6.894,0,0,1-.766-.034.95.95,0,0,1-.921-.966.964.964,0,0,1,.937-1.019C72.922,262.341,73.415,262.357,73.905,262.346Z" transform="translate(-53.183 -195.15)"/>
      <path id="Path_14" data-name="Path 14" d="M120.9,279.515h15.165c.171,0,.341,0,.512,0a1.154,1.154,0,0,1,1.208,1.065A1.17,1.17,0,0,1,136.6,281.6c-.128.006-.256,0-.384,0H105.626c-.171,0-.342.009-.512-.006a1.039,1.039,0,1,1-.019-2.077c.212-.02.426-.009.64-.009Z" transform="translate(-77.387 -207.919)" fill="#7ea0ff"/>
      <path id="Path_15" data-name="Path 15" d="M146.974,298.736c-.981,0-1.962.006-2.943,0a1.021,1.021,0,0,1-1.154-1,.959.959,0,0,1,1.031-1.113c2.089-.039,4.18-.034,6.269,0a1.063,1.063,0,0,1,1.106,1.018,1.135,1.135,0,0,1-1.238,1.1C149.021,298.746,148,298.736,146.974,298.736Z" transform="translate(-106.28 -220.622)" fill="#7ea0ff"/>
      <path id="Path_16" data-name="Path 16" d="M21.229,28.11a.561.561,0,0,1,.585.563,1.487,1.487,0,0,0,1.523,1.549.6.6,0,0,1,.633.6.576.576,0,0,1-.592.564,1.571,1.571,0,0,0-1.572,1.6.526.526,0,0,1-.611.511c-.356-.012-.476-.253-.5-.549a1.534,1.534,0,0,0-1.538-1.559c-.339-.033-.644-.193-.619-.595.024-.38.328-.518.662-.584,1.079-.214,1.3-.433,1.484-1.5A.615.615,0,0,1,21.229,28.11Z" transform="translate(-13.788 -20.91)" fill="#7ea0ff"/>
      <path id="Path_17" data-name="Path 17" d="M184.543,298.663c-.277,0-.555.013-.832,0a1.123,1.123,0,0,1-1.062-1.007.979.979,0,0,1,.83-1.053,5.522,5.522,0,0,1,2.094-.017.965.965,0,0,1,.864,1.088,1.049,1.049,0,0,1-1.062.988C185.1,298.679,184.82,298.663,184.543,298.663Z" transform="translate(-135.867 -220.55)" fill="#7ea0ff"/>
      <path id="Path_18" data-name="Path 18" d="M331.975,116.945a.3.3,0,0,1-.275.3.829.829,0,0,0-.759.738c-.038.157-.109.291-.28.3s-.265-.11-.3-.269a.869.869,0,0,0-.8-.777.327.327,0,0,1-.292-.3c-.018-.2.144-.243.289-.276.426-.1.754-.286.8-.774a.259.259,0,0,1,.3-.252c.138,0,.26.064.271.216.037.521.379.721.828.82A.251.251,0,0,1,331.975,116.945Z" transform="translate(-244.929 -86.022)" fill="#7ea0ff"/>
      <path id="Path_19" data-name="Path 19" d="M301.518,230.388a.343.343,0,0,1,.32.327.813.813,0,0,0,.683.743c.167.052.361.084.334.308a.34.34,0,0,1-.311.284.71.71,0,0,0-.7.691.373.373,0,0,1-.333.342c-.246.022-.229-.213-.288-.356-.143-.346-.291-.665-.744-.683a.322.322,0,0,1-.3-.293.2.2,0,0,1,.162-.242,1.089,1.089,0,0,0,.934-.922A.257.257,0,0,1,301.518,230.388Z" transform="translate(-223.291 -171.378)" fill="#7ea0ff"/>
      <path id="Path_20" data-name="Path 20" d="M2.719,188.861a.38.38,0,0,1-.312.332.893.893,0,0,0-.786.8.24.24,0,0,1-.246.239.29.29,0,0,1-.319-.252.93.93,0,0,0-.8-.79A.277.277,0,0,1,0,188.939a.257.257,0,0,1,.2-.288,1.014,1.014,0,0,0,.888-.864c.046-.247.422-.309.468-.072a1.221,1.221,0,0,0,1.016.995C2.64,188.728,2.683,188.822,2.719,188.861Z" transform="translate(-0.002 -139.524)" fill="#7ea0ff"/>
      <path id="Path_21" data-name="Path 21" d="M198.642,137.473a11.677,11.677,0,0,1-.417,2.865c-.812-.065-1.17.415-1.418,1.106a13.977,13.977,0,0,1-4.541,6.368,14.327,14.327,0,0,1-12.634,2.827,12.709,12.709,0,0,1-5.75-2.909c.06-.545.7-.72.8-1.238a1.05,1.05,0,0,0,1.385-.172,1.077,1.077,0,0,0-.005-1.4,7.406,7.406,0,0,1,.674-1.407,1.047,1.047,0,0,0,1.261-.573c.268-.567-.008-.963-.4-1.33l.39-1.475c.551-.107,1.032-.307,1.1-.956a1.062,1.062,0,0,0-.748-1.122l.03-1.5a1.118,1.118,0,0,0,.905-1.367l2.239-1.09a1.032,1.032,0,0,0,1.349-.009,1.129,1.129,0,0,0,.173-1.456,4.963,4.963,0,0,0,1.757-1.63,1.054,1.054,0,0,0,1.374-1.567,4.271,4.271,0,0,1,.257-.7,8.317,8.317,0,0,0,.792-1.543,1.038,1.038,0,0,0,1.244-.612,1.071,1.071,0,0,0-.5-1.354l.544-2.265a1.933,1.933,0,0,1,.77.271,14.535,14.535,0,0,1,8.424,12.935C197.733,136.844,197.94,137.316,198.642,137.473Z" transform="translate(-129.345 -91.465)" fill="#fdfdfd"/>
      <path id="Path_22" data-name="Path 22" d="M117.65,82.726c-.7-.157-.909-.629-.948-1.308a14.535,14.535,0,0,0-8.424-12.935,1.929,1.929,0,0,0-.77-.271,1.418,1.418,0,0,1-1.076-1.76,12.856,12.856,0,0,0-1.078-6.033A14.469,14.469,0,0,0,89.64,51.651c-6.044,1.039-9.951,4.613-11.8,10.427a10.471,10.471,0,0,0-.5,4.4,1.419,1.419,0,0,1-1.1,1.734,1.854,1.854,0,0,0-.713.251,14.207,14.207,0,0,0-8.34,11.673,14.6,14.6,0,0,0,17.046,15.94,13.279,13.279,0,0,0,6.631-3.082c.892-.7,1.119-.7,2.03-.011a12.707,12.707,0,0,0,5.75,2.909,14.327,14.327,0,0,0,12.634-2.827,13.975,13.975,0,0,0,4.541-6.368c.248-.692.606-1.172,1.418-1.106.779.533.872.821.557,1.716a16.685,16.685,0,0,1-25.5,7.875.591.591,0,0,0-.833,0,16.568,16.568,0,0,1-20.983-1.164,16.038,16.038,0,0,1-5.4-13.713,16.237,16.237,0,0,1,8.059-12.894c.649-.4,1.535-.594,1.955-1.151.405-.537.145-1.437.242-2.178a16.289,16.289,0,0,1,7.192-11.806,15.888,15.888,0,0,1,11.928-2.682,16.719,16.719,0,0,1,14.12,16.189.805.805,0,0,0,.538.814,16.633,16.633,0,0,1,9.163,11.126,13.515,13.515,0,0,1,.477,3.732C118.731,82.3,118.5,82.589,117.65,82.726Z" transform="translate(-48.353 -36.718)"/>
      <path id="Path_23" data-name="Path 23" d="M108.862,116.369a1.419,1.419,0,0,0,1.1-1.734,3.533,3.533,0,0,0,1.971-.537c.1.814.38,1.143.994,1.161.632.018.969-.347,1.071-1.159l2.121.032c-.046.949.528,1.52,1.29,1.292.416-.124.56-.485.746-.813a20.279,20.279,0,0,0,2.021.527c-.24.742-.09,1.278.428,1.527s1.061.008,1.429-.651a7.541,7.541,0,0,0,1.768,1.2,1.07,1.07,0,0,0-.174,1.348.983.983,0,0,0,1.042.469c.829-.113,1.085-.991.537-1.82a8.142,8.142,0,0,0,1.781-1.2c.339.637.842.884,1.362.668.566-.235.736-.777.485-1.545.709-.045,1.334-.413,2.026-.524.4.74.774.971,1.326.823.536-.143.749-.542.709-1.322l2.115-.011c.116.812.454,1.175,1.082,1.159s.9-.343.98-1.162a3.232,3.232,0,0,0,1.988.51,1.419,1.419,0,0,0,1.076,1.76l-.544,2.265a1.073,1.073,0,0,0-1.354.621c-.264.646.136,1.021.615,1.345a8.316,8.316,0,0,1-.792,1.543,4.272,4.272,0,0,0-.257.7c-.7-.413-1.114-.4-1.52.046-.383.422-.337.905.146,1.521a4.961,4.961,0,0,1-1.757,1.63c-.7-.4-1.165-.406-1.548.022a1.034,1.034,0,0,0,.026,1.443l-2.239,1.09c-.346-.648-.8-.872-1.381-.657a.937.937,0,0,0-.651,1.1c.095.623.551.858,1.126.923l-.03,1.5a1.065,1.065,0,0,0-1.093.474c-.407.624-.16,1.154.739,1.6l-.39,1.475c-.793-.143-1.254.014-1.433.529a1.074,1.074,0,0,0,.568,1.374,7.4,7.4,0,0,0-.674,1.407,1.065,1.065,0,0,0-1.48.052c-.394.4-.351.9.1,1.521-.1.518-.736.694-.8,1.238-.911-.691-1.138-.689-2.03.011-.087-.531-.588-.8-.8-1.249.46-.623.506-1.123.108-1.527a1.056,1.056,0,0,0-1.484-.041,5.471,5.471,0,0,0-.676-1.411c.619-.446.816-.944.572-1.447-.231-.476-.725-.634-1.437-.458a4.061,4.061,0,0,0-.39-1.475c.551-.243,1.049-.563.9-1.261a1.033,1.033,0,0,0-1.246-.812l-.034-1.506c.766-.134,1.134-.459,1.148-1.033a.925.925,0,0,0-.705-1,1.029,1.029,0,0,0-1.335.639,7.148,7.148,0,0,1-1.07-.512c-.339-.234-.827-.262-1.015-.708a1.211,1.211,0,0,0-.048-1.2c-.459-.6-1.192-.525-1.793.193a1.374,1.374,0,0,0-.451-.672,7.611,7.611,0,0,1-1.154-1.252c.479-.63.524-1.1.145-1.527-.4-.451-.807-.464-1.522-.049a4.326,4.326,0,0,0-.256-.7,8.326,8.326,0,0,1-.791-1.542c.487-.323.885-.7.621-1.351a1.042,1.042,0,0,0-1.359-.611Q109.136,117.5,108.862,116.369Zm14.829,13.385a1.052,1.052,0,0,0-1.015-1.023,1.072,1.072,0,0,0-1.029,1.016,1.1,1.1,0,0,0,1.024,1.026A1.06,1.06,0,0,0,123.691,129.754Zm-.951-8.634a.932.932,0,0,0-.93-1,1,1,0,0,0-1.076.946,1.045,1.045,0,0,0,.984,1.057A.984.984,0,0,0,122.74,121.119Zm5.535-.006a1,1,0,0,0-1.013-1,.932.932,0,0,0-1,.984,1,1,0,0,0,.995,1.018A1.026,1.026,0,0,0,128.275,121.114Zm-.17,3.686a.968.968,0,0,0,.992,1.023,1.031,1.031,0,0,0,1.012-1.023,1.045,1.045,0,0,0-.978-1A1.007,1.007,0,0,0,128.105,124.8Zm-.758,4.912a1.05,1.05,0,0,0-1.063-.979,1.03,1.03,0,0,0-.952,1.022,1.043,1.043,0,0,0,1.02,1.018A1.086,1.086,0,0,0,127.347,129.711ZM120.9,124.9a1,1,0,0,0-.923-1.093,1.056,1.056,0,0,0-1.083.959,1.043,1.043,0,0,0,.917,1.053A.97.97,0,0,0,120.9,124.9Z" transform="translate(-80.979 -84.874)" fill="#edecec"/>
      <path id="Path_24" data-name="Path 24" d="M188.086,169.931c-.575-.065-1.032-.3-1.126-.923a.937.937,0,0,1,.651-1.1c.582-.215,1.035.009,1.381.657A1.118,1.118,0,0,1,188.086,169.931Z" transform="translate(-139.062 -124.842)" fill="#3f3951"/>
      <path id="Path_25" data-name="Path 25" d="M187.2,183.947c-.9-.449-1.147-.98-.739-1.6a.992.992,0,0,1,1.841.648C188.235,183.641,187.754,183.84,187.2,183.947Z" transform="translate(-138.563 -135.279)" fill="#3f3951"/>
      <path id="Path_26" data-name="Path 26" d="M183.135,197.526a1.074,1.074,0,0,1-.568-1.374c.179-.515.64-.672,1.433-.529.388.367.665.763.4,1.33A1.048,1.048,0,0,1,183.135,197.526Z" transform="translate(-135.75 -145.48)" fill="#3f3951"/>
      <path id="Path_27" data-name="Path 27" d="M175.916,209.472c-.452-.623-.5-1.124-.1-1.521a1.065,1.065,0,0,1,1.48-.052,1.077,1.077,0,0,1,.005,1.4A1.05,1.05,0,0,1,175.916,209.472Z" transform="translate(-130.583 -154.445)" fill="#3f3951"/>
      <path id="Path_28" data-name="Path 28" d="M202.784,161.318a1.034,1.034,0,0,1-.026-1.443c.383-.428.844-.427,1.548-.022a1.129,1.129,0,0,1-.173,1.456A1.033,1.033,0,0,1,202.784,161.318Z" transform="translate(-150.615 -118.685)" fill="#3f3951"/>
      <path id="Path_29" data-name="Path 29" d="M215.316,148.942c-.483-.616-.529-1.1-.146-1.521.406-.446.818-.459,1.52-.046a1.054,1.054,0,0,1-1.374,1.567Z" transform="translate(-159.868 -109.404)" fill="#3f3951"/>
      <path id="Path_30" data-name="Path 30" d="M223.911,133.662c-.479-.324-.879-.7-.615-1.345a1,1,0,1,1,1.859.733A1.038,1.038,0,0,1,223.911,133.662Z" transform="translate(-166.04 -97.936)" fill="#3f3951"/>
      <path id="Path_31" data-name="Path 31" d="M85.979,131.012a7.6,7.6,0,0,0,1.154,1.252,1.375,1.375,0,0,1,.451.672,1.114,1.114,0,0,0,.528,1.294c.522.286.92.013,1.313-.284.188.446.676.475,1.015.708a7.137,7.137,0,0,0,1.07.512c-.023.929.164,1.221.892,1.392l.034,1.506a1.049,1.049,0,0,0-.727,1.181c.089.613.562.783,1.077.892a4.061,4.061,0,0,1,.39,1.475c-.386.366-.671.765-.4,1.327a1.069,1.069,0,0,0,1.264.578,5.471,5.471,0,0,1,.676,1.411,1.063,1.063,0,0,0,0,1.393,1.04,1.04,0,0,0,1.378.175c.212.451.713.717.8,1.249a13.279,13.279,0,0,1-6.631,3.082,14.6,14.6,0,0,1-17.046-15.94,14.206,14.206,0,0,1,8.34-11.673,1.858,1.858,0,0,1,.713-.251l.548,2.266a1.062,1.062,0,0,0-.505,1.342c.222.561.708.654,1.243.62a8.325,8.325,0,0,0,.791,1.542,4.327,4.327,0,0,1,.256.7l-.186.348c-.168.034-.275.09-.1.256l.009.262c-.188.184-.057.229.112.257A1.1,1.1,0,0,0,85.979,131.012Z" transform="translate(-54.387 -91.469)" fill="#fdfdfd"/>
      <path id="Path_32" data-name="Path 32" d="M142.079,72.506a3.232,3.232,0,0,1-1.988-.51,1.052,1.052,0,0,0-2.062,0l-2.115.01a1.061,1.061,0,0,0-1.128-.66c-.62.111-.84.587-.907,1.158-.692.11-1.317.479-2.026.524l-.241-.25c-.023-.161-.031-.349-.253-.134-.976-.068-1.355.285-1.353,1.26a8.133,8.133,0,0,1-1.781,1.2l-.446-.2q-.26-.533-.517,0l-.441.2a7.542,7.542,0,0,1-1.768-1.2,1.078,1.078,0,0,0-.605-1.205c-.522-.252-.884.031-1.251.329a20.279,20.279,0,0,1-2.021-.527c-.073-.569-.291-1.05-.914-1.153a1.057,1.057,0,0,0-1.121.674L117.019,72c-.194-.485-.483-.872-1.065-.847a1.067,1.067,0,0,0-1,.845,3.531,3.531,0,0,1-1.971.537,10.47,10.47,0,0,1,.5-4.4c1.854-5.815,5.761-9.389,11.8-10.427A14.469,14.469,0,0,1,141,66.473,12.858,12.858,0,0,1,142.079,72.506Z" transform="translate(-84.001 -42.771)" fill="#fdfdfd"/>
      <path id="Path_33" data-name="Path 33" d="M145.825,169.967c-.728-.172-.915-.463-.892-1.392a1.03,1.03,0,0,1,1.335-.639.925.925,0,0,1,.705,1C146.959,169.508,146.591,169.833,145.825,169.967Z" transform="translate(-107.81 -124.878)" fill="#3f3951"/>
      <path id="Path_34" data-name="Path 34" d="M150.839,197.473a1.069,1.069,0,0,1-1.264-.578c-.272-.562.013-.96.4-1.327.712-.176,1.206-.019,1.437.458C151.655,196.529,151.458,197.027,150.839,197.473Z" transform="translate(-111.184 -145.424)" fill="#3f3951"/>
      <path id="Path_35" data-name="Path 35" d="M167.143,125.487l.446.2c.548.83.292,1.707-.537,1.82a.983.983,0,0,1-1.042-.469,1.07,1.07,0,0,1,.174-1.348l.441-.2Z" transform="translate(-123.365 -93.346)" fill="#3f3951"/>
      <path id="Path_36" data-name="Path 36" d="M152.7,116.917c.367-.3.729-.581,1.251-.329a1.078,1.078,0,0,1,.605,1.205c-.368.658-.9.9-1.429.651S152.464,117.659,152.7,116.917Z" transform="translate(-113.509 -86.654)" fill="#3f3951"/>
      <path id="Path_37" data-name="Path 37" d="M120.849,111.641a1.068,1.068,0,0,1,1-.845c.581-.026.871.361,1.065.847-.1.811-.439,1.176-1.071,1.159C121.229,112.785,120.947,112.455,120.849,111.641Z" transform="translate(-89.896 -82.417)" fill="#3f3951"/>
      <path id="Path_38" data-name="Path 38" d="M210.942,111.654a1.052,1.052,0,0,1,2.062,0c-.082.818-.358,1.145-.98,1.162S211.058,112.467,210.942,111.654Z" transform="translate(-156.913 -82.427)" fill="#3f3951"/>
      <path id="Path_39" data-name="Path 39" d="M194.739,112.684c.066-.571.287-1.047.907-1.158a1.062,1.062,0,0,1,1.128.66c.041.779-.173,1.178-.709,1.322C195.513,113.655,195.14,113.424,194.739,112.684Z" transform="translate(-144.86 -82.948)" fill="#3f3951"/>
      <path id="Path_40" data-name="Path 40" d="M146.751,183.968c-.516-.109-.988-.278-1.077-.892a1.049,1.049,0,0,1,.727-1.181,1.033,1.033,0,0,1,1.246.812C147.8,183.4,147.3,183.726,146.751,183.968Z" transform="translate(-108.351 -135.3)" fill="#3f3951"/>
      <path id="Path_41" data-name="Path 41" d="M158.078,209.458a1.04,1.04,0,0,1-1.378-.175,1,1,0,1,1,1.486-1.352C158.585,208.335,158.538,208.836,158.078,209.458Z" transform="translate(-116.371 -154.431)" fill="#3f3951"/>
      <path id="Path_42" data-name="Path 42" d="M160.825,172.25a1.061,1.061,0,0,1-1.019,1.019,1.1,1.1,0,0,1-1.024-1.026,1.072,1.072,0,0,1,1.029-1.016A1.052,1.052,0,0,1,160.825,172.25Z" transform="translate(-118.113 -127.37)" fill="#3f3951"/>
      <path id="Path_43" data-name="Path 43" d="M157.217,138.592a.984.984,0,0,1-1.022,1,1.045,1.045,0,0,1-.984-1.057,1,1,0,0,1,1.076-.946A.932.932,0,0,1,157.217,138.592Z" transform="translate(-115.456 -102.346)" fill="#3f3951"/>
      <path id="Path_44" data-name="Path 44" d="M178.81,138.592a1.026,1.026,0,0,1-1.018,1.005.994.994,0,0,1-.995-1.018.932.932,0,0,1,1-.984A1,1,0,0,1,178.81,138.592Z" transform="translate(-131.514 -102.352)" fill="#3f3951"/>
      <path id="Path_45" data-name="Path 45" d="M183.991,152.976a1.008,1.008,0,0,1,1.026-1,1.045,1.045,0,0,1,.978,1A1.031,1.031,0,0,1,184.982,154,.967.967,0,0,1,183.991,152.976Z" transform="translate(-136.865 -113.051)" fill="#3f3951"/>
      <path id="Path_46" data-name="Path 46" d="M175.182,172.2a1.086,1.086,0,0,1-.994,1.06,1.042,1.042,0,0,1-1.02-1.018,1.03,1.03,0,0,1,.952-1.022A1.05,1.05,0,0,1,175.182,172.2Z" transform="translate(-128.814 -127.367)" fill="#3f3951"/>
      <path id="Path_47" data-name="Path 47" d="M150.022,153.086a.97.97,0,0,1-1.088.919,1.043,1.043,0,0,1-.917-1.053,1.056,1.056,0,0,1,1.083-.959A1,1,0,0,1,150.022,153.086Z" transform="translate(-110.104 -113.061)" fill="#3f3951"/>
      <path id="Path_48" data-name="Path 48" d="M110.026,133.629c-.535.034-1.021-.058-1.243-.62a1.062,1.062,0,0,1,.505-1.342,1.042,1.042,0,0,1,1.359.611C110.911,132.928,110.513,133.306,110.026,133.629Z" transform="translate(-80.857 -97.905)" fill="#3f3951"/>
      <path id="Path_49" data-name="Path 49" d="M116.957,147.705l.186-.348c.716-.415,1.12-.4,1.522.049.38.426.335.9-.145,1.527a1.1,1.1,0,0,1-1.541-.453.24.24,0,0,0-.112-.257l-.009-.262A.252.252,0,0,0,116.957,147.705Z" transform="translate(-86.928 -109.391)" fill="#3f3951"/>
      <path id="Path_50" data-name="Path 50" d="M131.376,161.17c-.394.3-.791.57-1.313.284a1.114,1.114,0,0,1-.528-1.294c.6-.718,1.334-.8,1.793-.193A1.211,1.211,0,0,1,131.376,161.17Z" transform="translate(-96.337 -118.694)" fill="#3f3951"/>
      <path id="Path_51" data-name="Path 51" d="M137.184,112.229a1.057,1.057,0,0,1,1.121-.674c.623.1.841.584.914,1.153-.186.328-.33.688-.746.813C137.712,113.75,137.138,113.178,137.184,112.229Z" transform="translate(-102.045 -82.972)" fill="#3f3951"/>
      <path id="Path_52" data-name="Path 52" d="M179.618,117.878c0-.975.377-1.329,1.353-1.26a.243.243,0,0,0,.253.134l.241.25c.251.768.081,1.309-.485,1.545C180.46,118.762,179.957,118.515,179.618,117.878Z" transform="translate(-133.612 -86.742)" fill="#3f3951"/>
      <path id="Path_53" data-name="Path 53" d="M116.694,149.588a.252.252,0,0,1-.1.256C116.419,149.679,116.526,149.622,116.694,149.588Z" transform="translate(-86.664 -111.274)" fill="#edecec"/>
      <path id="Path_54" data-name="Path 54" d="M116.626,151.611a.24.24,0,0,1,.112.257C116.569,151.84,116.438,151.795,116.626,151.611Z" transform="translate(-86.686 -112.778)" fill="#edecec"/>
      <path id="Path_55" data-name="Path 55" d="M169.421,124.714l-.517,0Q169.161,124.181,169.421,124.714Z" transform="translate(-125.642 -92.573)" fill="#edecec"/>
      <path id="Path_56" data-name="Path 56" d="M185.153,116.5a.243.243,0,0,1-.253-.134C185.122,116.146,185.13,116.334,185.153,116.5Z" transform="translate(-137.541 -86.485)" fill="#edecec"/>
    </g>
    <g id="Group_176" data-name="Group 176" transform="translate(280)">
      <g transform="matrix(1, 0, 0, 1, 384.58, 1335.51)" filter="url(#Rectangle_7)">
        <rect id="Rectangle_7-12" data-name="Rectangle 7" width="218.644" height="43.136" rx="8" transform="translate(191.62 68.91)" fill="#fff"/>
      </g>
      <text id="INDUSTRY_RESEARCH" data-name="INDUSTRY RESEARCH" transform="translate(596.165 1417.9)" font-size="14" font-family="Montserrat-Medium, Montserrat" font-weight="500" letter-spacing="0.1em"><tspan x="0" y="14">INDUSTRY RESEARCH</tspan></text>
    </g>
    <g id="Group_70" data-name="Group 70" transform="translate(856.201 1341.515)">
      <g id="Group_39" data-name="Group 39" transform="translate(0 0)">
        <g transform="matrix(1, 0, 0, 1, -191.62, -6)" filter="url(#Rectangle_7-2)">
          <rect id="Rectangle_7-13" data-name="Rectangle 7" width="182.813" height="43.136" rx="8" transform="translate(191.62 6)" fill="#fff"/>
        </g>
        <text id="TEAM_BUILDING" data-name="TEAM BUILDING" transform="translate(17.269 13.48)" font-size="14" font-family="Montserrat-Medium, Montserrat" font-weight="500" letter-spacing="0.1em"><tspan x="5.2" y="14">TEAM BUILDING</tspan></text>
      </g>
    </g>
    <g id="Group_177" data-name="Group 177" transform="translate(280)">
      <g transform="matrix(1, 0, 0, 1, 384.58, 1335.51)" filter="url(#Rectangle_27)">
        <rect id="Rectangle_27-2" data-name="Rectangle 27" width="228.644" height="43.136" rx="8" transform="translate(456.01 68.91)" fill="#fff"/>
      </g>
      <text id="CUSTOMER_RESEARCH" data-name="CUSTOMER RESEARCH" transform="translate(860.56 1417.002)" font-size="14" font-family="Montserrat-Medium, Montserrat" font-weight="500" letter-spacing="0.1em"><tspan x="0" y="14">CUSTOMER RESEARCH</tspan></text>
    </g>
    <g id="Group_78" data-name="Group 78" transform="translate(1080.865 1341.515)">
      <g id="Group_39-2" data-name="Group 39" transform="translate(0 0)">
        <g transform="matrix(1, 0, 0, 1, -416.28, -6)" filter="url(#Rectangle_7-3)">
          <rect id="Rectangle_7-14" data-name="Rectangle 7" width="257.402" height="43.136" rx="8" transform="translate(416.28 6)" fill="#fff"/>
        </g>
        <text id="LEADERSHIP_BY_EXAMPLE" data-name="LEADERSHIP BY EXAMPLE" transform="translate(23.066 13.48)" font-size="14" font-family="Montserrat-Medium, Montserrat" font-weight="500" letter-spacing="0.1em"><tspan x="0" y="14">LEADERSHIP BY EXAMPLE</tspan></text>
      </g>
    </g>
    <g id="Group_86" data-name="Group 86" transform="translate(758.035 1357.69)">
      <path id="Path_380" data-name="Path 380" d="M2327.632,1210.363h24.049c44.99,0,23.264-62.906,70.168-62.906" transform="translate(-2322.764 -1142.064)" fill="none" stroke="#7ea0ff" stroke-width="3"/>
      <g id="Rectangle_28" data-name="Rectangle 28" transform="translate(94.571)" fill="#7ea0ff" stroke="#000" stroke-width="2">
        <rect width="10.784" height="10.784" stroke="none"/>
        <rect x="1" y="1" width="8.784" height="8.784" fill="none"/>
      </g>
    </g>
    <g id="Group_79" data-name="Group 79" transform="translate(1032.337 1357.69)">
      <path id="Path_381" data-name="Path 381" d="M0,0H44.933" transform="translate(5.841 5.841)" fill="none" stroke="#7ea0ff" stroke-width="3"/>
      <g id="Rectangle_29" data-name="Rectangle 29" transform="translate(44.933)" fill="#7ea0ff" stroke="#000" stroke-width="2">
        <rect width="10.784" height="10.784" stroke="none"/>
        <rect x="1" y="1" width="8.784" height="8.784" fill="none"/>
      </g>
      <g id="Rectangle_30" data-name="Rectangle 30" fill="#7ea0ff" stroke="#000" stroke-width="2">
        <rect width="10.784" height="10.784" stroke="none"/>
        <rect x="1" y="1" width="8.784" height="8.784" fill="none"/>
      </g>
    </g>
    <g id="Group_80" data-name="Group 80" transform="translate(1070.169 1420.596)">
      <path id="Path_381-2" data-name="Path 381" d="M0,0H44.933" transform="translate(5.841 5.841)" fill="none" stroke="#7ea0ff" stroke-width="3"/>
      <g id="Rectangle_29-2" data-name="Rectangle 29" transform="translate(44.933)" fill="#7ea0ff" stroke="#000" stroke-width="2">
        <rect width="10.784" height="10.784" stroke="none"/>
        <rect x="1" y="1" width="8.784" height="8.784" fill="none"/>
      </g>
      <g id="Rectangle_30-2" data-name="Rectangle 30" fill="#7ea0ff" stroke="#000" stroke-width="2">
        <rect width="10.784" height="10.784" stroke="none"/>
        <rect x="1" y="1" width="8.784" height="8.784" fill="none"/>
      </g>
    </g>
    <g id="Group_95" data-name="Group 95" transform="translate(358 -11)">
      <path id="Path_382" data-name="Path 382" d="M2333.1,1147.457h89.3" transform="translate(-1923.283 289.532)" fill="none" stroke="#7ea0ff" stroke-width="3"/>
      <g id="Rectangle_31" data-name="Rectangle 31" transform="translate(494.606 1430.901)" fill="#7ea0ff" stroke="#000" stroke-width="2">
        <rect width="10.784" height="10.784" stroke="none"/>
        <rect x="1" y="1" width="8.784" height="8.784" fill="none"/>
      </g>
    </g>
    <text id="ADD_BUSINESS_VALUE" data-name="ADD BUSINESS
 VALUE" transform="translate(723.584 1490.307)" font-size="13" font-family="Montserrat-Medium, Montserrat" font-weight="500" letter-spacing="0.1em"><tspan x="-58.214" y="0">ADD BUSINESS</tspan><tspan x="-27.424" y="16" xml:space="preserve"> VALUE</tspan></text>
    <g id="Group_200" data-name="Group 200" transform="translate(280 -13)">
      <g id="Group_65" data-name="Group 65" transform="translate(406.84 1559.373)">
        <path id="Path_57" data-name="Path 57" d="M19.116,68.909a1.462,1.462,0,0,0,.75.074q23.485,0,46.971,0a1.462,1.462,0,0,0,.75-.073.6.6,0,0,0,.671-.414.715.715,0,0,0-.008-1.069l-.025-.044A.693.693,0,0,0,67.461,67l-1.4-.067a2.172,2.172,0,0,1,.245-.278A39.838,39.838,0,0,0,72.6,60.37a37.3,37.3,0,0,0,7.579-28.907A36.126,36.126,0,0,0,76.6,20.437,37.08,37.08,0,0,0,63.749,6.089,37.211,37.211,0,0,0,31.425,1.97,36.915,36.915,0,0,0,13.7,14.719,36.63,36.63,0,0,0,6.143,35.19a36.174,36.174,0,0,0,1.7,13.375A37.2,37.2,0,0,0,19.1,65.542a8.04,8.04,0,0,1,1.545,1.391l-1.4.069a.678.678,0,0,0-.751.38l-.038.017,0,.041a.694.694,0,0,0,0,1.045A.589.589,0,0,0,19.116,68.909Zm24.3,2.407H28.184a5.192,5.192,0,0,0-.637.012,1.03,1.03,0,0,0,0,2.059,5.77,5.77,0,0,0,.7.012H58.078c.3,0,.6.008.892,0a1.164,1.164,0,0,0,1.192-1.01,1.147,1.147,0,0,0-1.2-1.069c-.17-.007-.34,0-.51,0Zm-2.852,6.493c1.02,0,2.039.012,3.059,0a1.145,1.145,0,0,0,1.215-1.058A1.1,1.1,0,0,0,43.7,75.69c-2.06-.027-4.121-.032-6.181,0a.973.973,0,0,0-1.061,1.141c.043.619.457.969,1.176.973C38.609,77.814,39.587,77.809,40.564,77.809Zm43.479-18.4c.357-.066.472-.28.528-.62.168-1.027.466-1.317,1.435-1.5.342-.064.7-.118.705-.574s-.342-.569-.685-.6a1.513,1.513,0,0,1-1.467-1.54c-.036-.343-.2-.56-.56-.566-.376-.006-.529.262-.547.579a1.519,1.519,0,0,1-1.473,1.536c-.367.054-.694.183-.682.6.012.387.356.487.676.556,1.076.232,1.293.441,1.465,1.519A.657.657,0,0,0,84.043,59.407Zm-35.679,18.4c.369,0,.668.018.964,0a1.045,1.045,0,0,0,1.046-1,.962.962,0,0,0-.872-1.075,5.878,5.878,0,0,0-2.087.019.987.987,0,0,0-.811.874,1.037,1.037,0,0,0,.532,1.012C47.55,77.931,48,77.747,48.364,77.808ZM10.141,9.249a.293.293,0,0,0-.206-.293.972.972,0,0,1-.869-.865c-.025-.12-.105-.245-.265-.221a.379.379,0,0,0-.333.339.7.7,0,0,1-.691.69.354.354,0,0,0-.315.279c-.037.217.15.282.312.333a.875.875,0,0,1,.719.778.329.329,0,0,0,.31.278c.2.017.259-.142.287-.281A.932.932,0,0,1,9.9,9.5.264.264,0,0,0,10.141,9.249ZM79.924,9.24a.3.3,0,0,0-.215-.288.968.968,0,0,1-.863-.875.242.242,0,0,0-.279-.207.315.315,0,0,0-.255.256c-.1.424-.285.746-.782.785a.311.311,0,0,0-.283.3c-.008.183.145.246.289.291a.946.946,0,0,1,.761.758.321.321,0,0,0,.282.3c.227.015.285-.176.32-.332a.9.9,0,0,1,.728-.711C79.768,9.484,79.92,9.435,79.924,9.24ZM1.337,43.133c.111-.007.235-.032.249-.152a.98.98,0,0,1,.843-.895.273.273,0,0,0,.222-.277c-.008-.177-.142-.256-.292-.29a.846.846,0,0,1-.74-.758c-.022-.175-.107-.276-.286-.268a.263.263,0,0,0-.271.226.87.87,0,0,1-.772.8c-.147.036-.287.106-.291.289s.132.264.282.292a.879.879,0,0,1,.761.744A.323.323,0,0,0,1.337,43.133Z" transform="translate(0 -0.001)" fill="#ba77ff"/>
        <path id="Path_58" data-name="Path 58" d="M38.379,66.933a8.032,8.032,0,0,0-1.545-1.391A37.2,37.2,0,0,1,25.579,48.565a36.174,36.174,0,0,1-1.7-13.375A37.329,37.329,0,0,1,49.16,1.97,37.208,37.208,0,0,1,81.484,6.089,37.08,37.08,0,0,1,94.335,20.437a36.129,36.129,0,0,1,3.579,11.027,37.3,37.3,0,0,1-7.579,28.907,39.817,39.817,0,0,1-6.294,6.285,2.155,2.155,0,0,0-.245.278H70.773c.225-.259.3-.359.391-.449.885-.889,1.778-1.769,2.656-2.664.7-.711.7-1.207.02-1.918a11.832,11.832,0,0,0-.995-.988c-.414-.342-.376-.615-.04-1a22.075,22.075,0,0,0,3.92-6.369,23.2,23.2,0,0,0,.84-15.35c-.134-.475-.258-.952-.4-1.493a1.081,1.081,0,0,1,.584.4c1.6,1.591,3.176,3.2,4.79,4.769a.768.768,0,0,1,.176,1.036,4.389,4.389,0,1,0,7.493-.97,4.168,4.168,0,0,0-4.734-1.434,1.485,1.485,0,0,1-1.971-.57,3.5,3.5,0,0,0-.311-.32Q79.2,35.63,75.2,31.648c-.334-.33-.376-.529,0-.845a12.354,12.354,0,0,0,1.173-1.17,1.049,1.049,0,0,0,0-1.589q-2.306-2.338-4.645-4.643a1.011,1.011,0,0,0-1.578-.025c-.427.382-.832.791-1.222,1.213-.283.306-.484.292-.779,0Q63.7,20.108,59.22,15.657a.549.549,0,0,1-.136-.762,4.364,4.364,0,0,0-1.051-5.17,4.611,4.611,0,0,0-5.349-.388,4.437,4.437,0,0,0-1.414,5.805,4.364,4.364,0,0,0,5.656,1.882.677.677,0,0,1,.926.178C59.42,18.789,61,20.36,62.578,21.943c.14.141.363.248.314.517-.218.105-.412,0-.61-.065a23.622,23.622,0,0,0-22.6,4.723c-.284.248-.443.21-.674-.039-.39-.42-.8-.826-1.216-1.218a1.1,1.1,0,0,0-1.739-.023q-2.324,2.275-4.6,4.6a1.011,1.011,0,0,0,.008,1.582q2.3,2.342,4.648,4.641a1.014,1.014,0,0,0,1.585.012q2.372-2.317,4.685-4.693a1.011,1.011,0,0,0-.018-1.535,9.342,9.342,0,0,0-1.078-1.084c-.458-.373-.407-.625.025-.984a21.569,21.569,0,0,1,21.154-3.741A22.386,22.386,0,0,1,66.2,26.412c.4.234.524.443.114.8a7.429,7.429,0,0,0-.885.916.937.937,0,0,0,.047,1.47q2.322,2.367,4.683,4.695A1.069,1.069,0,0,0,71.7,34.3a6.933,6.933,0,0,0,.813-.809c.388-.478.6-.331.872.128A21.331,21.331,0,0,1,76.315,46.7a21.075,21.075,0,0,1-4.88,11.683c-.5.61-.508.606-1.09.023q-.383-.383-.769-.764c-.794-.783-1.277-.794-2.053-.023q-2.148,2.135-4.284,4.284c-.7.7-.7,1.2,0,1.907.882.892,1.774,1.773,2.656,2.665.107.108.3.188.193.462Z" transform="translate(-17.736 0)" fill="#7ea0ff"/>
        <path id="Path_59" data-name="Path 59" d="M59.6,92.214H87.311c.111-.273-.086-.354-.193-.462-.882-.892-1.774-1.773-2.656-2.665-.7-.71-.7-1.2,0-1.907q2.136-2.148,4.284-4.284c.776-.771,1.259-.76,2.053.023q.386.38.769.764c.581.582.586.586,1.09-.023a21.076,21.076,0,0,0,4.88-11.683A21.331,21.331,0,0,0,94.607,58.9c-.268-.46-.483-.606-.872-.128a6.9,6.9,0,0,1-.813.809,1.069,1.069,0,0,1-1.547-.015q-2.358-2.331-4.683-4.695a.937.937,0,0,1-.047-1.47,7.468,7.468,0,0,1,.885-.916c.41-.353.291-.561-.114-.8a22.386,22.386,0,0,0-3.733-1.776A21.569,21.569,0,0,0,62.53,53.656c-.432.358-.483.611-.025.984a9.34,9.34,0,0,1,1.078,1.084,1.011,1.011,0,0,1,.018,1.535q-2.313,2.375-4.685,4.693a1.014,1.014,0,0,1-1.585-.012q-2.348-2.3-4.648-4.641a1.011,1.011,0,0,1-.008-1.582q2.279-2.32,4.6-4.6a1.1,1.1,0,0,1,1.739.023c.419.392.826.8,1.216,1.218.231.249.391.288.674.039a23.622,23.622,0,0,1,22.6-4.723c.2.062.392.17.61.065.049-.268-.174-.376-.314-.517-1.574-1.583-3.158-3.155-4.727-4.742a.677.677,0,0,0-.926-.178,4.364,4.364,0,0,1-5.656-1.882A4.437,4.437,0,0,1,73.9,34.617a4.612,4.612,0,0,1,5.349.388,4.364,4.364,0,0,1,1.051,5.17.549.549,0,0,0,.136.762q4.471,4.456,8.926,8.927c.3.3.5.31.779,0,.389-.421.795-.83,1.222-1.213a1.011,1.011,0,0,1,1.578.025q2.339,2.305,4.645,4.643a1.049,1.049,0,0,1,0,1.589,12.323,12.323,0,0,1-1.173,1.17c-.375.317-.333.515,0,.845q4.011,3.969,7.989,7.971a3.465,3.465,0,0,1,.311.32,1.485,1.485,0,0,0,1.971.57,4.168,4.168,0,0,1,4.734,1.434,4.4,4.4,0,1,1-7.493.97.768.768,0,0,0-.176-1.036c-1.614-1.572-3.194-3.178-4.79-4.769a1.08,1.08,0,0,0-.584-.4c.146.541.27,1.018.4,1.493a23.2,23.2,0,0,1-.84,15.35,22.071,22.071,0,0,1-3.92,6.369c-.336.382-.374.655.04,1a11.871,11.871,0,0,1,.995.988c.678.711.678,1.206-.02,1.918-.878.9-1.771,1.776-2.656,2.664-.089.089-.166.19-.391.449h13.022l1.4.067c.126.386.469.336.765.382l.025.044q0,.535.008,1.069a.6.6,0,0,1-.671.414c-.19-.2-.439-.121-.663-.121q-23.573-.006-47.146,0c-.223,0-.472-.084-.663.12a.589.589,0,0,1-.662-.424q0-.522,0-1.045l0-.041.038-.017c.289-.05.63,0,.751-.38ZM95.442,54.132a3.245,3.245,0,0,0-.243-.318c-.926-.93-1.861-1.852-2.781-2.789-.228-.232-.378-.17-.573.028q-1.386,1.4-2.788,2.786c-.222.219-.193.368.016.573q1.383,1.358,2.742,2.739c.257.261.44.227.682-.022.889-.909,1.795-1.8,2.692-2.7C95.277,54.341,95.35,54.241,95.442,54.132ZM89.755,91.39c.166-.017.249-.149.352-.252.886-.883,1.761-1.777,2.66-2.646.283-.274.268-.456,0-.721-.9-.871-1.786-1.751-2.653-2.652-.28-.291-.451-.267-.717.007q-1.306,1.347-2.654,2.654c-.285.275-.276.438,0,.709.9.867,1.775,1.763,2.66,2.647C89.506,91.239,89.592,91.368,89.755,91.39ZM58.182,59.754a1.162,1.162,0,0,0,.18-.127c.96-.958,1.915-1.921,2.878-2.876.247-.245.095-.4-.08-.579-.9-.9-1.805-1.789-2.694-2.7-.247-.253-.419-.267-.675,0q-1.33,1.367-2.7,2.7c-.256.248-.267.411,0,.666.927.9,1.832,1.823,2.745,2.738A.427.427,0,0,0,58.182,59.754Zm47.433,10.135a2.288,2.288,0,0,0,2.362,2.369,2.33,2.33,0,0,0,2.346-2.276,2.382,2.382,0,0,0-2.35-2.421A2.342,2.342,0,0,0,105.616,69.888ZM73.99,38.317a2.282,2.282,0,0,0,2.355,2.31A2.322,2.322,0,0,0,78.7,38.3a2.375,2.375,0,0,0-2.4-2.364A2.344,2.344,0,0,0,73.99,38.317Zm10.328,9.495c-.013-.012-.026-.034-.039-.034s-.027.021-.041.032l.059.037Z" transform="translate(-38.954 -25.282)"/>
        <path id="Path_60" data-name="Path 60" d="M120.911,279.518h15.042c.17,0,.34-.005.51,0a1.147,1.147,0,0,1,1.2,1.069,1.165,1.165,0,0,1-1.192,1.01c-.3.011-.595,0-.892,0H105.746a5.769,5.769,0,0,1-.7-.012,1.03,1.03,0,0,1,0-2.059,5.244,5.244,0,0,1,.637-.012Z" transform="translate(-77.496 -208.203)" fill="#7ea0ff"/>
        <path id="Path_61" data-name="Path 61" d="M146.989,298.729c-.977,0-1.954,0-2.931,0-.718,0-1.133-.354-1.176-.973a.973.973,0,0,1,1.061-1.141c2.06-.034,4.121-.03,6.181,0a1.1,1.1,0,0,1,1.139,1.057,1.145,1.145,0,0,1-1.215,1.058C149.029,298.74,148.009,298.728,146.989,298.729Z" transform="translate(-106.426 -220.92)" fill="#7ea0ff"/>
        <path id="Path_62" data-name="Path 62" d="M321.4,217.08a.657.657,0,0,1-.6-.609c-.172-1.078-.39-1.287-1.465-1.519-.32-.069-.664-.169-.676-.556-.013-.42.315-.549.682-.6a1.519,1.519,0,0,0,1.473-1.536c.019-.317.171-.585.547-.579.355.006.524.223.559.566a1.513,1.513,0,0,0,1.467,1.54c.342.034.69.155.685.6s-.363.509-.705.574c-.969.181-1.267.471-1.435,1.5C321.869,216.8,321.754,217.013,321.4,217.08Z" transform="translate(-237.354 -157.673)" fill="#7ea0ff"/>
        <path id="Path_63" data-name="Path 63" d="M74.923,269.693c.191-.2.44-.12.663-.12q23.573-.006,47.146,0c.223,0,.472-.084.663.121a1.464,1.464,0,0,1-.75.073q-23.485,0-46.971,0A1.464,1.464,0,0,1,74.923,269.693Z" transform="translate(-55.808 -200.785)" fill="#3d374f"/>
        <path id="Path_64" data-name="Path 64" d="M184.393,298.67c-.359-.061-.814.123-1.227-.169a1.038,1.038,0,0,1-.532-1.012.987.987,0,0,1,.811-.874,5.872,5.872,0,0,1,2.087-.019.962.962,0,0,1,.872,1.075,1.045,1.045,0,0,1-1.046,1C185.061,298.688,184.762,298.67,184.393,298.67Z" transform="translate(-136.03 -220.863)" fill="#7ea0ff"/>
        <path id="Path_65" data-name="Path 65" d="M31.91,32.216a.263.263,0,0,1-.243.253.933.933,0,0,0-.807.782c-.028.139-.089.3-.287.281a.33.33,0,0,1-.31-.278.875.875,0,0,0-.719-.778c-.162-.051-.35-.116-.312-.333a.354.354,0,0,1,.315-.279.7.7,0,0,0,.691-.69.379.379,0,0,1,.333-.339c.16-.024.24.1.265.221a.973.973,0,0,0,.869.865A.293.293,0,0,1,31.91,32.216Z" transform="translate(-21.77 -22.967)" fill="#7ea0ff"/>
        <path id="Path_66" data-name="Path 66" d="M305.447,32.206c0,.195-.155.244-.3.281a.9.9,0,0,0-.728.711c-.035.157-.093.347-.32.332a.321.321,0,0,1-.282-.3.946.946,0,0,0-.761-.758c-.143-.045-.3-.109-.289-.291a.311.311,0,0,1,.283-.3c.5-.039.679-.36.782-.785a.315.315,0,0,1,.255-.256.242.242,0,0,1,.279.207.968.968,0,0,0,.863.875A.3.3,0,0,1,305.447,32.206Z" transform="translate(-225.525 -22.966)" fill="#7ea0ff"/>
        <path id="Path_67" data-name="Path 67" d="M1.337,161.354a.324.324,0,0,1-.294-.288.879.879,0,0,0-.761-.744c-.15-.029-.285-.109-.282-.292s.143-.252.291-.289a.87.87,0,0,0,.772-.8.263.263,0,0,1,.271-.226c.179-.008.265.094.286.268a.846.846,0,0,0,.74.758c.149.034.283.113.292.29a.274.274,0,0,1-.222.277.98.98,0,0,0-.843.895C1.571,161.321,1.447,161.347,1.337,161.354Z" transform="translate(0 -118.221)" fill="#7ea0ff"/>
        <path id="Path_68" data-name="Path 68" d="M71.645,264.336q0,.522,0,1.044A.694.694,0,0,1,71.645,264.336Z" transform="translate(-53.189 -196.896)" fill="#3d374f"/>
        <path id="Path_69" data-name="Path 69" d="M267.519,265.351q0-.535-.008-1.069A.715.715,0,0,1,267.519,265.351Z" transform="translate(-199.261 -196.856)" fill="#3d374f"/>
        <path id="Path_70" data-name="Path 70" d="M73.226,262.6c-.121.382-.462.33-.751.38A.678.678,0,0,1,73.226,262.6Z" transform="translate(-53.985 -195.601)" fill="#3d374f"/>
        <path id="Path_71" data-name="Path 71" d="M265.182,262.977c-.3-.046-.639,0-.765-.382A.693.693,0,0,1,265.182,262.977Z" transform="translate(-196.957 -195.595)" fill="#3d374f"/>
        <path id="Path_72" data-name="Path 72" d="M202.319,103.573c-.093.109-.166.209-.252.3-.9.9-1.8,1.792-2.692,2.7-.243.248-.426.283-.682.022q-1.358-1.382-2.742-2.739c-.209-.205-.239-.355-.016-.573q1.405-1.382,2.788-2.786c.2-.2.345-.26.573-.028.919.937,1.855,1.859,2.781,2.789A3.1,3.1,0,0,1,202.319,103.573Z" transform="translate(-145.831 -74.723)" fill="#e8e8e9"/>
        <path id="Path_73" data-name="Path 73" d="M189.7,240.2c-.163-.022-.249-.151-.352-.255-.885-.884-1.759-1.779-2.66-2.647-.281-.27-.29-.434,0-.709.9-.868,1.784-1.755,2.654-2.654.266-.274.437-.3.717-.007.867.9,1.756,1.781,2.653,2.652.272.265.288.447,0,.721-.9.869-1.775,1.763-2.66,2.646C189.947,240.051,189.864,240.184,189.7,240.2Z" transform="translate(-138.898 -174.092)" fill="#e8e8e9"/>
        <path id="Path_74" data-name="Path 74" d="M65.77,116.214a.428.428,0,0,1-.35-.183c-.913-.915-1.819-1.837-2.745-2.738-.262-.255-.251-.418,0-.666q1.367-1.329,2.7-2.7c.256-.263.427-.249.675,0,.889.908,1.794,1.8,2.694,2.7.175.175.327.334.08.579-.963.955-1.918,1.918-2.878,2.876A1.1,1.1,0,0,1,65.77,116.214Z" transform="translate(-46.542 -81.742)" fill="#e8e8e9"/>
        <path id="Path_75" data-name="Path 75" d="M261.287,168.042a2.341,2.341,0,0,1,2.359-2.329,2.382,2.382,0,0,1,2.35,2.421,2.33,2.33,0,0,1-2.346,2.276A2.288,2.288,0,0,1,261.287,168.042Z" transform="translate(-194.625 -123.435)" fill="#7ea0ff"/>
        <path id="Path_76" data-name="Path 76" d="M137.326,44.132a2.344,2.344,0,0,1,2.3-2.385,2.375,2.375,0,0,1,2.4,2.364,2.322,2.322,0,0,1-2.351,2.331A2.282,2.282,0,0,1,137.326,44.132Z" transform="translate(-102.29 -31.096)" fill="#7ea0ff"/>
        <path id="Path_77" data-name="Path 77" d="M177.574,88.212l-.021.035-.059-.037c.014-.012.028-.033.041-.032S177.561,88.2,177.574,88.212Z" transform="translate(-132.21 -65.681)" fill="#fdbc64"/>
      </g>
      <g id="Group_68" data-name="Group 68" transform="translate(580.561 1537.422)">
        <g id="Group_39-3" data-name="Group 39" transform="translate(0 0)">
          <g transform="matrix(1, 0, 0, 1, -195.98, -188.91)" filter="url(#Rectangle_7-4)">
            <rect id="Rectangle_7-15" data-name="Rectangle 7" width="207.077" height="43.136" rx="8" transform="translate(195.98 188.91)" fill="#fff"/>
          </g>
          <text id="CREATIVE_STRATEGY" data-name="CREATIVE STRATEGY" transform="translate(17.269 13.48)" font-size="14" font-family="Montserrat-Medium, Montserrat" font-weight="500" letter-spacing="0.1em"><tspan x="0" y="14">CREATIVE STRATEGY</tspan></text>
        </g>
      </g>
      <g id="Group_178" data-name="Group 178" transform="translate(-223)">
        <g transform="matrix(1, 0, 0, 1, 607.58, 1348.51)" filter="url(#Rectangle_7-5)">
          <rect id="Rectangle_7-16" data-name="Rectangle 7" width="126.198" height="43.136" rx="8" transform="translate(447.6 188.91)" fill="#fff"/>
        </g>
        <text id="BRANDING" transform="translate(1074.251 1550.003)" font-size="14" font-family="Montserrat-Medium, Montserrat" font-weight="500" letter-spacing="0.1em"><tspan x="0" y="14">BRANDING</tspan></text>
      </g>
      <g id="Group_180" data-name="Group 180" transform="translate(-223)">
        <g transform="matrix(1, 0, 0, 1, 607.58, 1348.51)" filter="url(#Rectangle_7-6)">
          <rect id="Rectangle_7-17" data-name="Rectangle 7" width="173.173" height="43.136" rx="8" transform="translate(218.44 252.71)" fill="#fff"/>
        </g>
        <text id="WIREFRAMING" transform="translate(849.875 1614.706)" font-size="14" font-family="Montserrat-Medium, Montserrat" font-weight="500" letter-spacing="0.1em"><tspan x="0" y="14">WIREFRAMING</tspan></text>
      </g>
      <g id="Group_72" data-name="Group 72" transform="translate(820.502 1601.227)">
        <g id="Group_39-4" data-name="Group 39" transform="translate(0 0)">
          <g transform="matrix(1, 0, 0, 1, -435.92, -252.71)" filter="url(#Rectangle_7-7)">
            <rect id="Rectangle_7-18" data-name="Rectangle 7" width="386.621" height="43.136" rx="8" transform="translate(435.92 252.71)" fill="#fff"/>
          </g>
          <text id="USER_INTERFACE_DESIGN_PROTOTYPING" data-name="USER INTERFACE DESIGN / PROTOTYPING" transform="translate(23.454 13.48)" font-size="14" font-family="Montserrat-Medium, Montserrat" font-weight="500" letter-spacing="0.1em"><tspan x="0" y="14">USER INTERFACE DESIGN / PROTOTYPING</tspan></text>
        </g>
      </g>
      <g id="Group_179" data-name="Group 179" transform="translate(-223)">
        <g transform="matrix(1, 0, 0, 1, 607.58, 1348.51)" filter="url(#Rectangle_33)">
          <rect id="Rectangle_33-3" data-name="Rectangle 33" width="130.691" height="43.136" rx="8" transform="translate(618.35 188.91)" fill="#fff"/>
        </g>
        <text id="SKETCHING" transform="translate(1244.996 1550.003)" font-size="14" font-family="Montserrat-Medium, Montserrat" font-weight="500" letter-spacing="0.1em"><tspan x="0" y="14">SKETCHING</tspan></text>
      </g>
      <g id="Group_83" data-name="Group 83" transform="translate(952.605 1553.598)">
        <path id="Path_381-3" data-name="Path 381" d="M0,0H44.933" transform="translate(5.841 5.841)" fill="none" stroke="#7ea0ff" stroke-width="3"/>
        <g id="Rectangle_29-3" data-name="Rectangle 29" transform="translate(44.933)" fill="#7ea0ff" stroke="#000" stroke-width="2">
          <rect width="10.784" height="10.784" stroke="none"/>
          <rect x="1" y="1" width="8.784" height="8.784" fill="none"/>
        </g>
        <g id="Rectangle_30-3" data-name="Rectangle 30" fill="#7ea0ff" stroke="#000" stroke-width="2">
          <rect width="10.784" height="10.784" stroke="none"/>
          <rect x="1" y="1" width="8.784" height="8.784" fill="none"/>
        </g>
      </g>
      <g id="Group_87" data-name="Group 87" transform="translate(485.328 1554.496)">
        <path id="Path_380-2" data-name="Path 380" d="M2328.028,1187.893h24.049c24.415,0,23.4-40.436,70.305-40.436" transform="translate(-2328.028 -1142.064)" fill="none" stroke="#7ea0ff" stroke-width="3"/>
        <g id="Rectangle_28-2" data-name="Rectangle 28" transform="translate(89.841 0)" fill="#7ea0ff" stroke="#000" stroke-width="2">
          <rect width="10.784" height="10.784" stroke="none"/>
          <rect x="1" y="1" width="8.784" height="8.784" fill="none"/>
        </g>
      </g>
      <g id="Group_88" data-name="Group 88" transform="translate(683.907 1606.619) rotate(-90)">
        <path id="Path_381-4" data-name="Path 381" d="M0,0H19.321" transform="translate(5.392 5.841)" fill="none" stroke="#7ea0ff" stroke-width="3"/>
        <g id="Rectangle_29-4" data-name="Rectangle 29" transform="translate(18.872)" fill="#7ea0ff" stroke="#000" stroke-width="2">
          <rect width="10.784" height="10.784" stroke="none"/>
          <rect x="1" y="1" width="8.784" height="8.784" fill="none"/>
        </g>
        <g id="Rectangle_30-4" data-name="Rectangle 30" transform="translate(0)" fill="#7ea0ff" stroke="#000" stroke-width="2">
          <rect width="10.784" height="10.784" stroke="none"/>
          <rect x="1" y="1" width="8.784" height="8.784" fill="none"/>
        </g>
      </g>
      <g id="Group_89" data-name="Group 89" transform="translate(1063.14 1606.619) rotate(-90)">
        <path id="Path_381-5" data-name="Path 381" d="M0,0H19.321" transform="translate(5.392 5.841)" fill="none" stroke="#7ea0ff" stroke-width="3"/>
        <g id="Rectangle_29-5" data-name="Rectangle 29" transform="translate(18.872)" fill="#7ea0ff" stroke="#000" stroke-width="2">
          <rect width="10.784" height="10.784" stroke="none"/>
          <rect x="1" y="1" width="8.784" height="8.784" fill="none"/>
        </g>
        <g id="Rectangle_30-5" data-name="Rectangle 30" transform="translate(0)" fill="#7ea0ff" stroke="#000" stroke-width="2">
          <rect width="10.784" height="10.784" stroke="none"/>
          <rect x="1" y="1" width="8.784" height="8.784" fill="none"/>
        </g>
      </g>
      <text id="SOLVE_PROBLEMS" data-name="SOLVE 
PROBLEMS" transform="translate(449.728 1661.855)" font-size="13" font-family="Montserrat-Medium, Montserrat" font-weight="500" letter-spacing="0.1em"><tspan x="-26.904" y="0">SOLVE </tspan><tspan x="-42.744" y="16">PROBLEMS</tspan></text>
      <g id="Group_92" data-name="Group 92" transform="translate(486.646 1600.392)">
        <path id="Path_380-3" data-name="Path 380" d="M2304.495,1120.528h24.458c24.415,0,27.9,23.3,91.045,23.3" transform="translate(-2304.495 -1120.528)" fill="none" stroke="#7ea0ff" stroke-width="3"/>
        <g id="Rectangle_28-3" data-name="Rectangle 28" transform="translate(110.989 17.909)" fill="#7ea0ff" stroke="#000" stroke-width="2">
          <rect width="10.784" height="10.784" stroke="none"/>
          <rect x="1" y="1" width="8.784" height="8.784" fill="none"/>
        </g>
      </g>
      <g id="Group_93" data-name="Group 93" transform="translate(770.178 1618.301)">
        <path id="Path_381-6" data-name="Path 381" d="M0,0H44.933" transform="translate(5.841 5.841)" fill="none" stroke="#7ea0ff" stroke-width="3"/>
        <g id="Rectangle_29-6" data-name="Rectangle 29" transform="translate(44.933)" fill="#7ea0ff" stroke="#000" stroke-width="2">
          <rect width="10.784" height="10.784" stroke="none"/>
          <rect x="1" y="1" width="8.784" height="8.784" fill="none"/>
        </g>
        <g id="Rectangle_30-6" data-name="Rectangle 30" fill="#7ea0ff" stroke="#000" stroke-width="2">
          <rect width="10.784" height="10.784" stroke="none"/>
          <rect x="1" y="1" width="8.784" height="8.784" fill="none"/>
        </g>
      </g>
      <g id="Group_196" data-name="Group 196" transform="translate(-47)">
        <g transform="matrix(1, 0, 0, 1, 431.58, 1348.51)" filter="url(#Rectangle_33-2)">
          <rect id="Rectangle_33-4" data-name="Rectangle 33" width="141.691" height="43.136" rx="8" transform="translate(794.35 188.91)" fill="#fff"/>
        </g>
        <text id="DESIGN_OPS" data-name="DESIGN OPS" transform="translate(1244.996 1550.003)" font-size="14" font-family="Montserrat-Medium, Montserrat" font-weight="500" letter-spacing="0.1em"><tspan x="0" y="14">DESIGN OPS</tspan></text>
      </g>
      <g id="Group_197" data-name="Group 197" transform="translate(1128.605 1553.598)">
        <path id="Path_381-7" data-name="Path 381" d="M0,0H44.933" transform="translate(5.841 5.841)" fill="none" stroke="#7ea0ff" stroke-width="3"/>
        <g id="Rectangle_29-7" data-name="Rectangle 29" transform="translate(44.933)" fill="#7ea0ff" stroke="#000" stroke-width="2">
          <rect width="10.784" height="10.784" stroke="none"/>
          <rect x="1" y="1" width="8.784" height="8.784" fill="none"/>
        </g>
        <g id="Rectangle_30-7" data-name="Rectangle 30" fill="#7ea0ff" stroke="#000" stroke-width="2">
          <rect width="10.784" height="10.784" stroke="none"/>
          <rect x="1" y="1" width="8.784" height="8.784" fill="none"/>
        </g>
      </g>
    </g>
    <g id="Group_201" data-name="Group 201" transform="translate(280 -37)">
      <g id="Group_66" data-name="Group 66" transform="translate(406.527 1729.757)">
        <path id="Path_78" data-name="Path 78" d="M33.385,62.411A31.887,31.887,0,0,1,28.9,56.257a36.725,36.725,0,0,1-4.553-12.94,37.386,37.386,0,0,1-.077-10.868,36.712,36.712,0,0,1,6.449-16.442A37.187,37.187,0,0,1,49.4,2,37.532,37.532,0,0,1,81.666,5.9a40.433,40.433,0,0,1,6.486,5.225,3.037,3.037,0,0,1,.749.946c-1.4-.016-2.8-.042-4.2-.045-.86,0-1.089.18-1.4,1.01l-1.892.014-.12-.05c-.241-.8-.484-.974-1.416-.977q-3.471-.01-6.941,0c-1.377,0-1.655.279-1.655,1.655q0,17.674-.006,35.349c0,.284.161.708-.115.825s-.467-.3-.666-.5Q58.754,37.641,47.035,25.914c-.685-.685-.944-.732-1.818-.359l-2.048-2.1c.387-.808.351-1.054-.291-1.7q-2.517-2.524-5.043-5.039c-.863-.862-1.723-1.729-2.592-2.585a1,1,0,0,0-1.17-.272,1.043,1.043,0,0,0-.646,1.017c-.008.257,0,.514,0,.771q0,22.964,0,45.928C33.422,61.856,33.4,62.133,33.385,62.411Z" transform="translate(-17.761 0)" fill="#7ea0ff"/>
        <path id="Path_79" data-name="Path 79" d="M102.855,47.773c.311-.83.54-1.012,1.4-1.011,1.4,0,2.8.029,4.2.045l.422.436.161.181h0c0,.921.012,1.841.012,2.761q0,23.066,0,46.131c0,.277.024.554.037.831-.012,1.542-.017,3.084-.043,4.625-.006.355.148.441.463.43a12.167,12.167,0,0,1,1.221.005,1.042,1.042,0,0,1,1.069.987,1.012,1.012,0,0,1-1.063,1.046c-1.2.056-2.4.1-3.594.1q-7.328.017-14.655,0-18.9-.016-37.793-.04c-1.07,0-2.141-.029-3.211-.055-.783-.02-1.238-.391-1.251-1-.014-.63.473-1.037,1.264-1.057,1.482-.037,1.486-.037,1.48-1.523-.005-1.178-.024-2.355-.037-3.532.013-.277.037-.554.037-.831q0-22.964,0-45.928c0-.257,0-.514,0-.771a1.043,1.043,0,0,1,.646-1.017,1,1,0,0,1,1.17.272c.869.856,1.729,1.723,2.592,2.585q2.522,2.519,5.043,5.039c.642.644.678.89.291,1.7l-.214.112a.226.226,0,0,0-.267.143l-.52.016a1.329,1.329,0,0,0-.649-.421l-5.738-5.73c-.036-.11-.109-.215-.225-.177-.293.1-.162.362-.162.55q-.012,7.095-.006,14.189,0,17.271.008,34.541c0,.247-.165.567.184.739,1.328.111,2.658.038,3.987.04a17.45,17.45,0,0,0,2.382,0l3.916,0c.408.015.26-.3.275-.493a5.274,5.274,0,0,1,.25-2.291l.138-.131a.423.423,0,0,0,.445-.162l.17,0,.67.328,0,0a5.441,5.441,0,0,1,.195,2.024c.02.232-.147.528.183.68,1.366.116,2.733.056,4.1.044a12.977,12.977,0,0,0,2.262-.007l4-.016c.159-.031.192-.15.189-.285-.013-.615-.03-1.23-.045-1.845a.957.957,0,0,1,.836-.9.946.946,0,0,1,1.053.531.216.216,0,0,0,.113.276c.009.616.029,1.231.024,1.847,0,.3.1.418.407.414,1.252-.017,2.5-.017,3.757-.023a11.7,11.7,0,0,0,2.266.009c1.217.007,2.435.006,3.652.025.351.005.5-.109.489-.479-.021-.49-.007-.983.008-1.474.022-.712.424-1.15,1.028-1.136a1.025,1.025,0,0,1,.986,1.114q.022.769,0,1.538c-.009.289.072.439.389.434,1.259-.019,2.519-.027,3.778-.039a11.5,11.5,0,0,0,2.266.02l5.589.007c.109.053.213.052.24-.083.018-.089-.063-.142-.153-.158q-7.1-7.108-14.2-14.215Q77.954,74.921,65.127,62.1c-.694-.694-.731-.919-.353-1.81.874-.373,1.133-.326,1.817.359q11.723,11.723,23.45,23.443c.2.2.382.617.666.5s.114-.541.115-.825q.011-17.674.006-35.349c0-1.375.278-1.654,1.655-1.655q3.471,0,6.941,0c.932,0,1.175.181,1.416.977a.749.749,0,0,0-.138.539.862.862,0,0,1-.389.391.223.223,0,0,0-.274.122c-2.184.011-4.367.034-6.551.024-.457,0-.626.092-.625.6q.025,18.695.019,37.39c-.06.174.013.271.182.31L106.7,100.761c.291.358.392.209.392-.154q0-3.451,0-6.9c0-.324-.158-.46-.474-.453-.787.018-1.573.029-2.36.043a.92.92,0,0,1-.855-.81.369.369,0,0,0,.014-.429.922.922,0,0,1,.574-.66.219.219,0,0,0,.294-.093l2.624-.067c.309-.131.17-.4.179-.615.06-1.366-.123-2.73-.079-4.091.039-1.214.088-2.428.078-3.643,0-.2.143-.5-.24-.545-.769,0-1.538,0-2.307-.016a1.031,1.031,0,0,1-1.14-.9.146.146,0,0,0,0-.257l.034-.226a.263.263,0,0,0,.184-.308l.138-.128a.292.292,0,0,0,.313-.167l.219-.037a15.357,15.357,0,0,0,2.223.077c.454.034.592-.167.59-.6,0-1.3-.074-2.6-.093-3.894-.02-1.36.121-2.722.091-4.086-.007-.337-.052-.618-.462-.609a15.6,15.6,0,0,0-2.479.061.918.918,0,0,1-.747-.75.271.271,0,0,0-.006-.386.926.926,0,0,1,.465-.691.241.241,0,0,0,.329-.14l2.667-.061c.372-.07.22-.37.221-.568.008-1.216-.038-2.432-.076-3.648-.043-1.361.136-2.728.077-4.094-.009-.2.143-.491-.2-.592l-2.687-.058a.269.269,0,0,0-.328-.134.913.913,0,0,1-.466-.684.273.273,0,0,0,0-.386.981.981,0,0,1,1.068-.8c.783-.008,1.567-.011,2.35-.015.4-.018.257-.328.259-.522.011-1.215-.047-2.429-.077-3.642-.038-1.532.136-3.067.078-4.6-.008-.21.131-.485-.182-.613l-3.135-.064a.23.23,0,0,0-.289-.111A1.227,1.227,0,0,1,102.855,47.773Z" transform="translate(-37.319 -34.735)"/>
        <path id="Path_80" data-name="Path 80" d="M279,99.075c-.013-.277-.037-.554-.037-.831q0-23.066,0-46.131c0-.92-.007-1.841-.012-2.761a14.487,14.487,0,0,1,2.348,2.776,37.008,37.008,0,0,1,6.741,16.25,37.713,37.713,0,0,1-6.164,27.106A21.473,21.473,0,0,1,279,99.075Z" transform="translate(-207.225 -36.662)" fill="#7ea0ff"/>
        <path id="Path_81" data-name="Path 81" d="M120.926,281.614H105.635c-.978,0-1.56-.383-1.576-1.033s.578-1.067,1.539-1.067h30.839a3.758,3.758,0,0,1,.513.014,1.084,1.084,0,0,1,.989,1.007,1.142,1.142,0,0,1-1.017,1.066,5.284,5.284,0,0,1-.642.012Z" transform="translate(-77.303 -207.644)" fill="#7ea0ff"/>
        <path id="Path_82" data-name="Path 82" d="M147.031,298.736c-.986,0-1.971.005-2.957,0a1.03,1.03,0,0,1-1.173-.995.985.985,0,0,1,1.085-1.138q3.116-.049,6.234,0a1.079,1.079,0,0,1,1.127,1.079,1.161,1.161,0,0,1-1.231,1.052C149.088,298.741,148.059,298.736,147.031,298.736Z" transform="translate(-106.156 -220.322)" fill="#7ea0ff"/>
        <path id="Path_83" data-name="Path 83" d="M18.9,22.946c-.1.346-.265.57-.62.6a1.5,1.5,0,0,0-1.558,1.528c-.027.329-.194.641-.6.635s-.537-.322-.577-.654a1.515,1.515,0,0,0-1.521-1.506c-.372-.028-.613-.2-.589-.605.022-.365.274-.484.606-.533a1.469,1.469,0,0,0,1.491-1.392c.081-.354.134-.791.614-.757.461.033.574.406.605.836A1.391,1.391,0,0,0,18.159,22.4.757.757,0,0,1,18.9,22.946Z" transform="translate(-9.98 -15.047)" fill="#7ea0ff"/>
        <path id="Path_84" data-name="Path 84" d="M324.132,225.049a.534.534,0,0,1-.545.51,1.613,1.613,0,0,0-1.634,1.637c-.033.317-.2.533-.531.53a.541.541,0,0,1-.565-.515,1.593,1.593,0,0,0-1.66-1.665.544.544,0,0,1-.525-.556.566.566,0,0,1,.549-.54,1.557,1.557,0,0,0,1.627-1.619.557.557,0,0,1,1.113.017,1.6,1.6,0,0,0,1.548,1.589C323.841,224.481,324.139,224.609,324.132,225.049Z" transform="translate(-236.734 -165.132)" fill="#7ea0ff"/>
        <path id="Path_85" data-name="Path 85" d="M184.433,298.677c-.36-.062-.818.124-1.235-.166a1.048,1.048,0,0,1-.545-1.017.993.993,0,0,1,.81-.886,5.908,5.908,0,0,1,2.1-.025.988.988,0,0,1,.884,1.142,1.039,1.039,0,0,1-1.043.946C185.111,298.7,184.808,298.677,184.433,298.677Z" transform="translate(-135.682 -220.265)" fill="#7ea0ff"/>
        <path id="Path_86" data-name="Path 86" d="M320.063,54.859c-.181.009-.267-.091-.306-.258a.922.922,0,0,0-.813-.779c-.157-.023-.289-.11-.286-.29a.279.279,0,0,1,.286-.287.809.809,0,0,0,.814-.747c.031-.157.077-.295.267-.3a.284.284,0,0,1,.313.259c.057.505.353.709.831.813.291.063.345.4.039.5-.494.156-.842.367-.9.92C320.295,54.8,320.177,54.847,320.063,54.859Z" transform="translate(-236.725 -38.778)" fill="#7ea0ff"/>
        <path id="Path_87" data-name="Path 87" d="M1.39,211.364c-.214.006-.3-.13-.34-.311a.87.87,0,0,0-.782-.731c-.169-.024-.28-.1-.268-.29a.274.274,0,0,1,.234-.269.872.872,0,0,0,.836-.817.269.269,0,0,1,.258-.245.3.3,0,0,1,.3.275.866.866,0,0,0,.8.781.329.329,0,0,1,.3.3c.015.152-.1.235-.235.253a.955.955,0,0,0-.875.871A.226.226,0,0,1,1.39,211.364Z" transform="translate(0 -155.04)" fill="#7ea0ff"/>
        <path id="Path_88" data-name="Path 88" d="M278.482,48.827l-.161-.181A.158.158,0,0,1,278.482,48.827Z" transform="translate(-206.759 -36.138)" fill="#fdbc64"/>
        <path id="Path_89" data-name="Path 89" d="M69.483,68.364l5.738,5.73c.113.3.3.489.649.421l.52-.016c.187.135.23,0,.267-.143l.214-.112,2.048,2.1c-.378.891-.341,1.116.353,1.81Q92.1,90.973,104.924,103.794q7.1,7.1,14.2,14.215l-.087.241-5.589-.007c-.019-.318-.039-.637-.056-.955a1.145,1.145,0,0,0-1.07-1.146,1.164,1.164,0,0,0-1.1,1.124c-.025.318-.03.638-.044.958-1.259.012-2.519.02-3.778.039-.317,0-.4-.146-.389-.434.015-.512.014-1.026,0-1.538a1.025,1.025,0,0,0-.986-1.114c-.6-.014-1.006.424-1.028,1.136-.015.491-.029.983-.008,1.474.016.37-.137.484-.489.479-1.217-.019-2.435-.019-3.653-.025-.018-.338-.026-.677-.055-1.014a1.162,1.162,0,0,0-1.128-1.085,1.085,1.085,0,0,0-1.04,1.138c-.012.317-.028.634-.042.952-1.252.006-2.5.006-3.757.023-.307,0-.409-.119-.407-.414.005-.616-.014-1.231-.024-1.847.15-.169.045-.233-.113-.276a.947.947,0,0,0-1.053-.531.957.957,0,0,0-.836.9c-.363.689-.09,1.42-.144,2.129l-4,.016c-.126-.409-.011-.841-.155-1.258a1.064,1.064,0,0,0-1.114-.831,1,1,0,0,0-.942,1.08c-.013.339-.033.677-.05,1.016-1.367.013-2.734.073-4.1-.044,0-.663.022-1.326.007-1.989-.006-.287.013-.622-.385-.715l0,0c-.1-.365-.351-.414-.67-.328l-.17,0c-.2-.088-.36-.065-.445.163l-.138.131c-.416.157-.448.516-.466.883a12.886,12.886,0,0,1-.058,1.9l-3.916,0c-.051-.419-.105-.837-.152-1.257a1.036,1.036,0,0,0-2.043-.056c-.083.434-.126.875-.187,1.313-1.329,0-2.659.071-3.987-.04.006-.3.017-.6.018-.9q0-24.023.007-48.047C69.307,68.961,69.164,68.611,69.483,68.364Zm18.591,40.253c2.613,0,5.225-.005,7.838,0,.549,0,1.033-.077,1.271-.649s-.064-.978-.445-1.359Q88.791,98.67,80.85,90.721c-.383-.384-.79-.7-1.358-.474-.6.234-.685.764-.685,1.328q0,7.805,0,15.611c0,1.065.368,1.429,1.426,1.431Q84.155,108.622,88.073,108.617Z" transform="translate(-51.463 -50.786)" fill="#eee"/>
        <path id="Path_90" data-name="Path 90" d="M229.991,61.181c-.783,0-1.567.008-2.35.015a.981.981,0,0,0-1.068.8c-.149.127-.158.256,0,.386a.913.913,0,0,0,.466.684c.063.158.164.222.328.134l2.687.058q0,1,0,1.991c0,1.324,0,1.324-1.291,1.407a1.039,1.039,0,0,0-1.018.968,1.021,1.021,0,0,0,.8,1.09,3.126,3.126,0,0,0,1.02.072c.357-.014.5.122.491.484-.022.963-.02,1.927-.028,2.89l-2.668.061c-.164-.081-.259,0-.329.14a.926.926,0,0,0-.465.691c-.156.131-.134.259.006.386a.917.917,0,0,0,.747.75c.249.253.566.121.853.145.592.049,1.355-.25,1.735.118.411.4.117,1.175.134,1.785.012.419.177.922-.092,1.243-.243.29-.728.07-1.1.12a1.23,1.23,0,0,0-1.116,1.129,1.183,1.183,0,0,0,1.195,1.1,5.553,5.553,0,0,0,.641,0c.354-.027.5.11.49.476a20.874,20.874,0,0,0,.007,2.115c.044.595-.193.708-.733.706a4.131,4.131,0,0,0-1.88.118l-.219.037c-.17-.067-.266,0-.313.167l-.138.128a.224.224,0,0,0-.184.308l-.034.226c-.122.086-.121.172,0,.257a1.031,1.031,0,0,0,1.14.9c.769.014,1.538.011,2.307.016.014.641.043,1.282.036,1.922,0,.445.168.96-.085,1.317s-.772.04-1.152.189a.632.632,0,0,1-.126.021,1.025,1.025,0,0,0-.952,1.018,1.043,1.043,0,0,0,1.022,1.026,2,2,0,0,0,.512.01c.689-.122.832.2.8.825-.044.853,0,1.71.008,2.566l-2.624.067c-.15-.132-.234-.059-.294.093a.922.922,0,0,0-.573.66c-.133.139-.194.28-.014.429a.92.92,0,0,0,.855.81c.128.256.368.168.568.173.47.011.943.032,1.41,0,.495-.038.669.12.661.64-.028,2.009-.009,4.019-.015,6.028,0,.22.092.483-.185.629l-13.631-13.65a.263.263,0,0,0-.182-.31q0-18.695-.019-37.39c0-.5.168-.6.625-.6,2.183.01,4.367-.013,6.551-.024.17.135.236.038.274-.122a.862.862,0,0,0,.389-.391c.262-.07.2-.312.259-.489l1.892-.014a1.22,1.22,0,0,0,.624.919c.049.161.131.234.289.111l3.135.064c-.006,1-.049,2.007,0,3.008.026.6-.129.877-.766.787a1.718,1.718,0,0,0-.818.093,1.061,1.061,0,0,0-.737,1.081,1.027,1.027,0,0,0,1.006.978c.3.022.6.014.9.008.252-.005.414.069.4.357C230.019,59.135,230.119,60.16,229.991,61.181Z" transform="translate(-160.485 -37.668)" fill="#fcfcfd"/>
        <path id="Path_91" data-name="Path 91" d="M246.742,50.62c-.06.177,0,.419-.259.489a.749.749,0,0,1,.138-.539Z" transform="translate(-183.099 -37.567)" fill="#9c99a7"/>
        <path id="Path_92" data-name="Path 92" d="M68.857,67.829c-.319.247-.175.6-.176.9q-.011,24.023-.007,48.047c0,.3-.012.6-.018.9-.349-.172-.184-.492-.185-.739q-.013-17.27-.008-34.541,0-7.095.006-14.189c0-.188-.131-.451.162-.55C68.748,67.614,68.821,67.719,68.857,67.829Z" transform="translate(-50.837 -50.252)" fill="#9c99a7"/>
        <path id="Path_93" data-name="Path 93" d="M260.066,150.835a4.134,4.134,0,0,1,1.88-.117c.54,0,.778-.112.733-.706a20.812,20.812,0,0,1-.007-2.115c.01-.366-.136-.5-.49-.476a5.549,5.549,0,0,1-.641,0,1.183,1.183,0,0,1-1.195-1.1,1.23,1.23,0,0,1,1.116-1.129c.374-.05.859.17,1.1-.12.269-.321.1-.824.092-1.243-.017-.61.277-1.387-.134-1.785-.38-.368-1.143-.068-1.735-.118-.287-.024-.6.109-.853-.145a15.624,15.624,0,0,1,2.479-.061c.41-.009.455.272.462.609.029,1.365-.111,2.726-.091,4.086.019,1.3.089,2.6.093,3.894,0,.435-.137.636-.59.6A15.328,15.328,0,0,1,260.066,150.835Z" transform="translate(-193.101 -105.266)" fill="#9c99a7"/>
        <path id="Path_94" data-name="Path 94" d="M263.829,64.344c.129-1.021.028-2.045.059-3.068.009-.289-.153-.363-.4-.357-.3.006-.6.014-.9-.008a1.027,1.027,0,0,1-1.006-.978,1.061,1.061,0,0,1,.737-1.081,1.722,1.722,0,0,1,.818-.093c.637.09.792-.185.766-.787-.044-1,0-2,0-3.008.313.128.174.4.181.613.058,1.536-.116,3.071-.078,4.6.03,1.214.088,2.427.077,3.642C264.085,64.016,264.224,64.326,263.829,64.344Z" transform="translate(-194.323 -40.832)" fill="#9c99a7"/>
        <path id="Path_95" data-name="Path 95" d="M263.859,108.409c.008-.963.006-1.927.028-2.89.008-.363-.133-.5-.491-.484a3.119,3.119,0,0,1-1.02-.072,1.021,1.021,0,0,1-.8-1.09,1.039,1.039,0,0,1,1.018-.968c1.291-.082,1.292-.082,1.291-1.407q0-1,0-1.991c.344.1.192.387.2.592.059,1.367-.12,2.733-.077,4.094.038,1.216.085,2.431.076,3.648C264.079,108.039,264.231,108.339,263.859,108.409Z" transform="translate(-194.317 -73.922)" fill="#9c99a7"/>
        <path id="Path_96" data-name="Path 96" d="M263.871,194.042c-.007-.855-.052-1.713-.008-2.566.032-.621-.111-.948-.8-.825a1.992,1.992,0,0,1-.512-.01,1.043,1.043,0,0,1-1.022-1.026,1.025,1.025,0,0,1,.952-1.018.63.63,0,0,0,.126-.021c.38-.149.909.153,1.152-.189s.08-.872.085-1.317c.007-.641-.022-1.282-.036-1.923.383.046.238.349.24.545.01,1.215-.039,2.429-.078,3.643-.043,1.36.14,2.725.079,4.091C264.041,193.638,264.181,193.912,263.871,194.042Z" transform="translate(-194.285 -137.543)" fill="#9c99a7"/>
        <path id="Path_97" data-name="Path 97" d="M84.806,256.148c.061-.438.1-.879.187-1.313a1.036,1.036,0,0,1,2.043.056c.047.419.1.838.152,1.257A17.453,17.453,0,0,1,84.806,256.148Z" transform="translate(-63.001 -188.688)" fill="#9c99a7"/>
        <path id="Path_98" data-name="Path 98" d="M183.275,256.263c.014-.317.03-.634.042-.952a1.085,1.085,0,0,1,1.04-1.138,1.161,1.161,0,0,1,1.128,1.085c.029.337.038.676.055,1.014A11.7,11.7,0,0,1,183.275,256.263Z" transform="translate(-136.151 -188.821)" fill="#9c99a7"/>
        <path id="Path_99" data-name="Path 99" d="M134.294,256.277c.017-.339.038-.677.05-1.016a1,1,0,0,1,.942-1.08,1.064,1.064,0,0,1,1.114.831c.143.417.029.849.155,1.258A13,13,0,0,1,134.294,256.277Z" transform="translate(-99.764 -188.822)" fill="#9c99a7"/>
        <path id="Path_100" data-name="Path 100" d="M232.266,256.258c.014-.319.02-.639.044-.958a1.163,1.163,0,0,1,1.1-1.124,1.145,1.145,0,0,1,1.07,1.146c.016.319.037.637.056.955A11.5,11.5,0,0,1,232.266,256.258Z" transform="translate(-172.546 -188.821)" fill="#9c99a7"/>
        <path id="Path_101" data-name="Path 101" d="M262.773,235.09c.277-.146.184-.409.185-.629.007-2.009-.013-4.019.015-6.028.007-.52-.166-.678-.661-.64a14.022,14.022,0,0,1-1.41,0c-.2,0-.44.083-.569-.173.787-.014,1.573-.025,2.359-.043.316-.007.474.129.474.453q0,3.451,0,6.9C263.165,235.3,263.064,235.448,262.773,235.09Z" transform="translate(-193.396 -169.065)" fill="#9c99a7"/>
        <path id="Path_102" data-name="Path 102" d="M109.3,254.313a12.887,12.887,0,0,0,.058-1.9c.018-.367.05-.726.466-.883a5.275,5.275,0,0,0-.25,2.291C109.559,254.013,109.707,254.327,109.3,254.313Z" transform="translate(-81.196 -186.856)" fill="#9c99a7"/>
        <path id="Path_103" data-name="Path 103" d="M116.882,251.662c.4.092.378.427.385.715.014.663,0,1.326-.007,1.989-.329-.153-.163-.449-.183-.68A5.441,5.441,0,0,0,116.882,251.662Z" transform="translate(-86.829 -186.954)" fill="#9c99a7"/>
        <path id="Path_104" data-name="Path 104" d="M158.5,256.1c.054-.709-.218-1.441.144-2.129.015.615.032,1.23.045,1.845C158.7,255.955,158.663,256.074,158.5,256.1Z" transform="translate(-117.714 -188.673)" fill="#9c99a7"/>
        <path id="Path_105" data-name="Path 105" d="M93.045,91.07c-.351.068-.536-.121-.649-.421A1.328,1.328,0,0,1,93.045,91.07Z" transform="translate(-68.639 -67.341)" fill="#9c99a7"/>
        <path id="Path_106" data-name="Path 106" d="M114.269,250.273c.319-.086.572-.037.67.328Z" transform="translate(-84.888 -185.896)" fill="#9c99a7"/>
        <path id="Path_107" data-name="Path 107" d="M111.878,250.411c.085-.227.245-.25.445-.163A.423.423,0,0,1,111.878,250.411Z" transform="translate(-83.112 -185.869)" fill="#9c99a7"/>
        <path id="Path_108" data-name="Path 108" d="M256.683,223.358c-.18-.149-.119-.29.014-.429A.368.368,0,0,1,256.683,223.358Z" transform="translate(-190.602 -165.609)" fill="#9c99a7"/>
        <path id="Path_109" data-name="Path 109" d="M256.689,94.985c-.154-.13-.145-.259,0-.386A.273.273,0,0,1,256.689,94.985Z" transform="translate(-190.606 -70.276)" fill="#9c99a7"/>
        <path id="Path_110" data-name="Path 110" d="M256.7,137.985c-.14-.126-.163-.255-.006-.386A.271.271,0,0,1,256.7,137.985Z" transform="translate(-190.61 -102.219)" fill="#9c99a7"/>
        <path id="Path_111" data-name="Path 111" d="M166.516,252.525c.158.042.263.107.113.276A.216.216,0,0,1,166.516,252.525Z" transform="translate(-123.693 -187.596)" fill="#9c99a7"/>
        <path id="Path_112" data-name="Path 112" d="M262.814,261.684l.087-.241c.09.016.171.069.153.158C263.027,261.736,262.922,261.737,262.814,261.684Z" transform="translate(-195.239 -194.221)" fill="#9c99a7"/>
        <path id="Path_113" data-name="Path 113" d="M259.291,219.895c.059-.152.144-.226.294-.093A.219.219,0,0,1,259.291,219.895Z" transform="translate(-192.622 -163.235)" fill="#9c99a7"/>
        <path id="Path_114" data-name="Path 114" d="M216.04,202.491a.263.263,0,0,1,.182.31C216.053,202.761,215.98,202.665,216.04,202.491Z" transform="translate(-160.476 -150.426)" fill="#9c99a7"/>
        <path id="Path_115" data-name="Path 115" d="M256.725,180.856q-.182-.128,0-.257A.146.146,0,0,1,256.725,180.856Z" transform="translate(-190.648 -134.163)" fill="#9c99a7"/>
        <path id="Path_116" data-name="Path 116" d="M257.079,178.828a.224.224,0,0,1,.184-.308A.263.263,0,0,1,257.079,178.828Z" transform="translate(-190.968 -132.619)" fill="#9c99a7"/>
        <path id="Path_117" data-name="Path 117" d="M258.372,177.467c.047-.164.143-.234.313-.167A.292.292,0,0,1,258.372,177.467Z" transform="translate(-191.939 -131.694)" fill="#9c99a7"/>
        <path id="Path_118" data-name="Path 118" d="M258.813,134.414c.069-.14.164-.222.329-.14A.241.241,0,0,1,258.813,134.414Z" transform="translate(-192.267 -99.725)" fill="#9c99a7"/>
        <path id="Path_119" data-name="Path 119" d="M259.152,98.855c-.163.088-.265.024-.328-.134A.269.269,0,0,1,259.152,98.855Z" transform="translate(-192.275 -73.327)" fill="#9c99a7"/>
        <path id="Path_120" data-name="Path 120" d="M97.214,91.655c-.037.145-.08.278-.267.143A.226.226,0,0,1,97.214,91.655Z" transform="translate(-72.02 -68.086)" fill="#9c99a7"/>
        <path id="Path_121" data-name="Path 121" d="M257.6,54.351c-.158.123-.241.05-.289-.111A.23.23,0,0,1,257.6,54.351Z" transform="translate(-191.149 -40.282)" fill="#9c99a7"/>
        <path id="Path_122" data-name="Path 122" d="M244.213,54.164c-.039.16-.1.257-.274.122A.222.222,0,0,1,244.213,54.164Z" transform="translate(-181.217 -40.231)" fill="#9c99a7"/>
        <path id="Path_123" data-name="Path 123" d="M115.614,171.629q-3.919,0-7.838,0c-1.058,0-1.425-.365-1.426-1.431q-.006-7.805,0-15.611c0-.564.088-1.094.685-1.328.568-.223.975.09,1.358.474q7.939,7.95,15.886,15.892c.381.381.685.783.445,1.359s-.722.651-1.271.649C120.839,171.624,118.227,171.629,115.614,171.629Zm5.5-2.045a.691.691,0,0,0-.3-.507q-5.92-5.924-11.848-11.84c-.124-.124-.234-.383-.442-.269-.181.1-.084.353-.084.537,0,3.788.007,7.577-.015,11.365,0,.557.143.731.717.727,3.81-.025,7.62-.013,11.43-.013Z" transform="translate(-79.004 -113.798)" fill="#3c3751"/>
        <path id="Path_124" data-name="Path 124" d="M127.071,180.432h-.542c-3.81,0-7.62-.012-11.43.013-.575,0-.721-.17-.717-.727.022-3.788.011-7.577.015-11.365,0-.183-.1-.438.084-.537.209-.114.318.145.442.269q5.928,5.915,11.848,11.84A.692.692,0,0,1,127.071,180.432Z" transform="translate(-84.964 -124.646)" fill="#7ea0ff"/>
      </g>
      <g id="Group_74" data-name="Group 74" transform="translate(589.719 1746.748)">
        <g transform="matrix(1, 0, 0, 1, -205.13, -374.23)" filter="url(#Rectangle_7-8)">
          <rect id="Rectangle_7-19" data-name="Rectangle 7" width="231.433" height="43.136" rx="8" transform="translate(205.13 374.23)" fill="#fff"/>
        </g>
        <text id="INTERACTIVE_DEMOS" data-name="INTERACTIVE DEMOS" transform="translate(18.742 13.48)" font-size="14" font-family="Montserrat-Medium, Montserrat" font-weight="500" letter-spacing="0.1em"><tspan x="9.572" y="14">INTERACTIVE DEMOS</tspan></text>
      </g>
      <g id="Group_75" data-name="Group 75" transform="translate(862.012 1746.748)">
        <g transform="matrix(1, 0, 0, 1, -477.43, -374.23)" filter="url(#Rectangle_7-9)">
          <rect id="Rectangle_7-20" data-name="Rectangle 7" width="253.899" height="43.136" rx="8" transform="translate(477.43 374.23)" fill="#fff"/>
        </g>
        <text id="CLIENT_PRESENTATIONS" data-name="CLIENT PRESENTATIONS" transform="translate(8.856 13.48)" font-size="14" font-family="Montserrat-Medium, Montserrat" font-weight="500" letter-spacing="0.1em"><tspan x="15.938" y="14">CLIENT PRESENTATIONS</tspan></text>
      </g>
      <g id="Group_76" data-name="Group 76" transform="translate(589.719 1810.553)">
        <g transform="matrix(1, 0, 0, 1, -205.13, -438.04)" filter="url(#Rectangle_7-10)">
          <rect id="Rectangle_7-21" data-name="Rectangle 7" width="322.197" height="43.136" rx="8" transform="translate(205.13 438.04)" fill="#fff"/>
        </g>
        <text id="WORK_ALONGSIDE_DEVELOPERS" data-name="WORK ALONGSIDE DEVELOPERS" transform="translate(8.856 13.48)" font-size="14" font-family="Montserrat-Medium, Montserrat" font-weight="500" letter-spacing="0.1em"><tspan x="17.334" y="14">WORK ALONGSIDE DEVELOPERS</tspan></text>
      </g>
      <g id="Group_77" data-name="Group 77" transform="translate(956.751 1810.854)">
        <g transform="matrix(1, 0, 0, 1, -572.17, -438.34)" filter="url(#Rectangle_7-11)">
          <rect id="Rectangle_7-22" data-name="Rectangle 7" width="289.197" height="43.136" rx="8" transform="translate(572.17 438.34)" fill="#7ea0ff"/>
        </g>
        <text id="OVERSEE_WORK_COMPLETION" data-name="OVERSEE WORK COMPLETION" transform="translate(8.856 13.48)" font-size="14" font-family="Montserrat-Medium, Montserrat" font-weight="500" letter-spacing="0.1em"><tspan x="10.603" y="14">OVERSEE WORK COMPLETION</tspan></text>
      </g>
      <g id="Group_91" data-name="Group 91" transform="translate(813.484 1762.924)">
        <path id="Path_381-8" data-name="Path 381" d="M0,0H44.933" transform="translate(5.841 5.841)" fill="none" stroke="#7ea0ff" stroke-width="3"/>
        <g id="Rectangle_29-8" data-name="Rectangle 29" transform="translate(44.933 0)" fill="#7ea0ff" stroke="#000" stroke-width="2">
          <rect width="10.784" height="10.784" stroke="none"/>
          <rect x="1" y="1" width="8.784" height="8.784" fill="none"/>
        </g>
        <g id="Rectangle_30-8" data-name="Rectangle 30" transform="translate(0 0)" fill="#7ea0ff" stroke="#000" stroke-width="2">
          <rect width="10.784" height="10.784" stroke="none"/>
          <rect x="1" y="1" width="8.784" height="8.784" fill="none"/>
        </g>
      </g>
      <text id="PROVIDE_UNIQUE_SOLUTIONS" data-name="PROVIDE 
UNIQUE 
SOLUTIONS" transform="translate(451.649 1834.337)" font-size="14" font-family="Montserrat-Medium, Montserrat" font-weight="500" letter-spacing="0.1em"><tspan x="-40.103" y="0">PROVIDE </tspan><tspan x="-35.581" y="18">UNIQUE </tspan><tspan x="-47.537" y="36">SOLUTIONS</tspan></text>
      <line id="Line_1" data-name="Line 1" x1="100" transform="translate(485.5 1769.5)" fill="none" stroke="#7ea0ff" stroke-width="3"/>
      <g id="Group_96" data-name="Group 96" transform="translate(82 272)">
        <g id="Rectangle_31-2" data-name="Rectangle 31" transform="translate(502.606 1491.596)" fill="#7ea0ff" stroke="#000" stroke-width="2">
          <rect width="10.784" height="10.784" stroke="none"/>
          <rect x="1" y="1" width="8.784" height="8.784" fill="none"/>
        </g>
      </g>
      <g id="Group_97" data-name="Group 97" transform="translate(473.646 1769.392)">
        <path id="Path_380-4" data-name="Path 380" d="M2318.791,1118.477s-20.611,2.051,3.8,2.051,33.556,63.42,96.7,63.42" transform="translate(-2304.495 -1120.528)" fill="none" stroke="#7ea0ff" stroke-width="3"/>
        <g id="Rectangle_28-4" data-name="Rectangle 28" transform="translate(110.989 57.909)" fill="#7ea0ff" stroke="#000" stroke-width="2">
          <rect width="10.784" height="10.784" stroke="none"/>
          <rect x="1" y="1" width="8.784" height="8.784" fill="none"/>
        </g>
      </g>
      <g id="Group_199" data-name="Group 199" transform="translate(904.484 1826.924)">
        <path id="Path_381-9" data-name="Path 381" d="M0,0H44.933" transform="translate(5.841 5.841)" fill="none" stroke="#7ea0ff" stroke-width="3"/>
        <g id="Rectangle_29-9" data-name="Rectangle 29" transform="translate(44.933 0)" fill="#7ea0ff" stroke="#000" stroke-width="2">
          <rect width="10.784" height="10.784" stroke="none"/>
          <rect x="1" y="1" width="8.784" height="8.784" fill="none"/>
        </g>
        <g id="Rectangle_30-9" data-name="Rectangle 30" transform="translate(0 0)" fill="#7ea0ff" stroke="#000" stroke-width="2">
          <rect width="10.784" height="10.784" stroke="none"/>
          <rect x="1" y="1" width="8.784" height="8.784" fill="none"/>
        </g>
      </g>
    </g>
    <g id="Group_90" data-name="Group 90" transform="translate(964.28 1530.14) rotate(-90)">
      <path id="Path_381-10" data-name="Path 381" d="M0,0H78.033" transform="translate(5.392 5.841)" fill="none" stroke="#7ea0ff" stroke-width="3"/>
      <g id="Rectangle_29-10" data-name="Rectangle 29" transform="translate(76.386)" fill="#7ea0ff" stroke="#000" stroke-width="2">
        <rect width="10.784" height="10.784" stroke="none"/>
        <rect x="1" y="1" width="8.784" height="8.784" fill="none"/>
      </g>
      <g id="Rectangle_30-10" data-name="Rectangle 30" fill="#7ea0ff" stroke="#000" stroke-width="2">
        <rect width="10.784" height="10.784" stroke="none"/>
        <rect x="1" y="1" width="8.784" height="8.784" fill="none"/>
      </g>
    </g>
    <g id="Group_202" data-name="Group 202" transform="translate(964.28 1715.14) rotate(-90)">
      <path id="Path_381-11" data-name="Path 381" d="M0,0H78.033" transform="translate(5.392 5.841)" fill="none" stroke="#7ea0ff" stroke-width="3"/>
      <g id="Rectangle_29-11" data-name="Rectangle 29" transform="translate(76.386)" fill="#7ea0ff" stroke="#000" stroke-width="2">
        <rect width="10.784" height="10.784" stroke="none"/>
        <rect x="1" y="1" width="8.784" height="8.784" fill="none"/>
      </g>
      <g id="Rectangle_30-11" data-name="Rectangle 30" fill="#7ea0ff" stroke="#000" stroke-width="2">
        <rect width="10.784" height="10.784" stroke="none"/>
        <rect x="1" y="1" width="8.784" height="8.784" fill="none"/>
      </g>
    </g>
    <g id="Group_81" data-name="Group 81" transform="translate(1061.86 1540.598)">
      <path id="Path_381-12" data-name="Path 381" d="M0,0H44.933" transform="translate(5.841 5.841)" fill="none" stroke="#7ea0ff" stroke-width="3"/>
      <g id="Rectangle_29-12" data-name="Rectangle 29" transform="translate(44.933)" fill="#7ea0ff" stroke="#000" stroke-width="2">
        <rect width="10.784" height="10.784" stroke="none"/>
        <rect x="1" y="1" width="8.784" height="8.784" fill="none"/>
      </g>
      <g id="Rectangle_30-12" data-name="Rectangle 30" fill="#7ea0ff" stroke="#000" stroke-width="2">
        <rect width="10.784" height="10.784" stroke="none"/>
        <rect x="1" y="1" width="8.784" height="8.784" fill="none"/>
      </g>
    </g>
  </g>
</svg>
