<svg xmlns="http://www.w3.org/2000/svg" viewBox="823.608 3012.389 428.942 776.086">
  <defs>
    <style>
      .cls-1 {
        fill: #e2e2e2;
      }
    </style>
  </defs>
  <g id="Group_128" data-name="Group 128" transform="translate(823.608 3012.389)">
    <g id="Group_37" data-name="Group 37" transform="translate(0)">
      <path id="Path_328" data-name="Path 328" class="cls-1" d="M428.942,518.721l-29.926,29.926L173.572,774.091l-2,2C209.483,712.244,247.39,648.4,287.292,584.559H193.523c0-2,2-3.99,2-5.985L285.3,428.942a6.068,6.068,0,0,0,0-7.98l-23.941-53.867c0-2-2-3.99-2-5.985H117.71c-9.975,19.951-17.956,39.9-27.931,59.852,0,2-3.99,2-5.985,2H0v-3.99c0-2,2-3.99,2-3.99C23.941,365.1,47.882,315.223,69.828,265.346c17.956-35.911,33.916-73.818,49.877-109.729,19.951-41.9,37.907-83.793,57.857-125.69L189.533,0h2c3.99,7.98,5.985,15.961,9.975,23.941,31.921,71.823,63.843,145.641,95.764,217.464,25.936,59.852,53.867,119.7,79.8,179.557,2,2,0,5.985,0,7.98l-47.882,83.793c0,2-2,2-2,3.99H428.942ZM189.533,201.5c-9.975,25.936-21.946,49.877-31.921,73.818h63.843C211.479,249.385,201.5,225.444,189.533,201.5Z" transform="translate(0)"/>
    </g>
  </g>
</svg>
