<svg xmlns="http://www.w3.org/2000/svg" width="429.773" height="566.447" viewBox="0 0 429.773 566.447">
  <g id="Group_264" data-name="Group 264" transform="translate(-411.699 -489.209)">
    <path id="Path_811" data-name="Path 811" d="M835.928,552.826a15.324,15.324,0,0,0-29.358,8.8c6.087,20.3,5.6,41.76-1.459,63.773-8.147,25.41-24.331,41.925-48.092,49.091-14.449,4.34-43.286,5-60.2-20.739-5.848-8.178-25.134-40.883-32.067-52.794a15.322,15.322,0,0,0-28.438,5.732,207.8,207.8,0,0,0-.785,46.363c2.924,32.993,14.124,62.97,25.79,90.44q2.391,5.628,4.831,11.225H586.409c10.464-23.926,21.088-49.582,26.814-76.812,3.629-14.461,5.413-59.126,2.857-71.331a15.328,15.328,0,0,0-28.279-4.512c-6.915,12-27.028,45.744-37.063,57.851-15.375,19.194-49.336,21.014-67.212,9.735-25.8-16.294-39.2-38.939-40.962-69.235a114.219,114.219,0,0,1,4.181-38.939,15.328,15.328,0,1,0-29.456-8.49,146.673,146.673,0,0,0-5.327,49.207c2.354,40.313,20.922,71.73,55.2,93.376,29.646,18.7,81.066,16.527,107.341-16.294,2.863-3.458,6.247-8.129,9.82-13.389a51.712,51.712,0,0,1-.956,5.137c-5.358,25.41-15.565,49.8-25.557,72.607-1.956,4.451-3.874,8.926-5.848,13.548l-2.918,6.8a15.329,15.329,0,0,0,14.069,21.388h126.2a15.32,15.32,0,0,0,14.265-20.929l-.717-1.858c-.5-1.312-.938-2.452-1.428-3.586l-4.586-10.563c-2.458-5.64-4.917-11.274-7.314-16.926-8.7-20.506-17.115-42.4-21.315-65.373,1.3,2,2.422,3.69,3.323,4.941,23.185,35.3,64.08,41.882,94.332,32.766,33.514-10.115,57.177-34,68.432-69.088C843.284,606.729,843.83,579.168,835.928,552.826Z" transform="translate(0 270.291)" fill="#dedede"/>
    <path id="Path_812" data-name="Path 812" d="M492.643,712.546c-15.908,24.41-31.865,48.84-47.785,73.066a15.324,15.324,0,1,1-25.606-16.84L599.137,489.209,781.586,768.8a15.328,15.328,0,1,1-25.649,16.791L600.5,545.859c-3.549,5.824-7.185,11.69-10.912,17.441l-26.36,40.625c-16.662,25.692-33.6,51.788-50.624,77.97H652.385a15.326,15.326,0,0,1,0,30.651Z" transform="translate(25.8 0)" fill="#dedede"/>
  </g>
</svg>
