<svg xmlns="http://www.w3.org/2000/svg" viewBox="1627.309 8617.941 98.396 32.225">
  <g id="Group_144" data-name="Group 144" transform="translate(1627.309 8617.941)">
    <path id="Path_481" data-name="Path 481" d="M9.876,22.262v9.319H0V.057C.271.041.494.009.733.009c3.775,0,7.535-.048,11.31.016a37.178,37.178,0,0,1,5.145.446,8,8,0,0,1,6.34,4.89,13.993,13.993,0,0,1,.319,11.23c-1.465,3.616-4.381,5.432-8.235,5.655C13.747,22.358,11.883,22.262,9.876,22.262ZM9.86,14.218a27.575,27.575,0,0,0,2.915-.207c1.338-.239,1.991-1.258,2.007-2.851,0-1.577-.589-2.485-1.975-2.74a24.982,24.982,0,0,0-2.931-.175C9.86,10.284,9.86,12.163,9.86,14.218Z" transform="translate(0 0.008)"/>
    <path id="Path_482" data-name="Path 482" d="M283.976,75.063H274.9V72.705a.668.668,0,0,0-.239.016c-2.31,3.839-8.7,4.078-11.82-.191a12.769,12.769,0,0,1-2.358-6.579c-.319-3.616-.08-7.184,1.864-10.386,2.6-4.285,7.981-5.177,11.533-1.943.3.271.573.589.972,1a17.68,17.68,0,0,1,.016-1.864.71.71,0,0,1,.478-.494c2.788-.032,5.575-.016,8.363-.016a.73.73,0,0,1,.255.1C283.976,59.882,283.976,67.433,283.976,75.063ZM272.2,66.557a2.9,2.9,0,1,0-2.851-2.915A2.882,2.882,0,0,0,272.2,66.557Z" transform="translate(-218.889 -43.442)"/>
    <path id="Path_483" data-name="Path 483" d="M416,28.659V20.679h3.791V14.1h9.223v6.547h2.628V28.6H429.03V43.458a7.487,7.487,0,0,1-.749.064c-2.581,0-5.145-.016-7.726.016-.605,0-.765-.175-.765-.765q.024-6.451.016-12.887V28.675C418.533,28.659,417.306,28.659,416,28.659Z" transform="translate(-349.734 -11.853)"/>
    <path id="Path_484" data-name="Path 484" d="M533.153,14v6.547h3.759c.032.3.064.542.064.765,0,2.119-.032,4.237.016,6.372.016.685-.207.86-.86.828-.956-.048-1.911-.016-2.947-.016V43.358h-9.207V28.575H521.7V20.595h2.23V14Z" transform="translate(-438.597 -11.769)"/>
    <path id="Path_485" data-name="Path 485" d="M169.055,75.571h-9.207c-.016-.319-.032-.573-.032-.828q0-10.537-.016-21.09c0-.669.127-.924.86-.908,2.676.048,5.352.016,8.124.016V55.15c.064.032.127.048.191.08l.43-.573c1.434-1.991,3.457-2.5,5.75-2.326a.745.745,0,0,1,.51.51c.032,2.756.016,5.512.016,8.331-.573-.08-1.083-.175-1.593-.207-2.931-.223-4.556,1.051-4.843,3.966-.175,1.848-.143,3.712-.175,5.559C169.039,72.163,169.055,73.835,169.055,75.571Z" transform="translate(-134.345 -43.966)"/>
  </g>
</svg>
