<svg id="Group_55" data-name="Group 55" xmlns="http://www.w3.org/2000/svg" viewBox="0 0 159.931 59.43">
  <defs>
    <style>
      .cls-1 {
        fill: #fff;
      }
    </style>
  </defs>
  <g id="Group_53" data-name="Group 53">
    <path id="Path_375" data-name="Path 375" class="cls-1" d="M23.761,20.58a6.223,6.223,0,0,1-1.888,4.354,6.139,6.139,0,0,1-4.459,1.836,6.226,6.226,0,0,1-4.459-1.836A6.036,6.036,0,0,1,11.12,20.58V.7H0V20.58A17.471,17.471,0,0,0,5.088,32.906a17.42,17.42,0,0,0,18.673,3.882V42.3a6.223,6.223,0,0,1-1.888,4.354,6.139,6.139,0,0,1-4.459,1.836,6.226,6.226,0,0,1-4.459-1.836A6.036,6.036,0,0,1,11.12,42.3V38.729H0V42.3A17.471,17.471,0,0,0,5.088,54.622,17.252,17.252,0,0,0,17.415,59.71a17.5,17.5,0,0,0,12.379-5.088A17.252,17.252,0,0,0,34.882,42.3V.7H23.761Z" transform="translate(0 -0.333)"/>
    <path id="Path_376" data-name="Path 376" class="cls-1" d="M100.646,5.088a17.6,17.6,0,0,0-24.758,0A17.373,17.373,0,0,0,70.8,17.467v24.5a17.467,17.467,0,1,0,34.934,0V38.448H94.561v3.514a6.417,6.417,0,0,1-1.941,4.511,6.02,6.02,0,0,1-4.406,1.836,6.232,6.232,0,0,1-4.406-1.836l-.1-.1a6.02,6.02,0,0,1-1.836-4.406V30.528h23.866V17.519a17.191,17.191,0,0,0-5.088-12.431ZM88.267,11.225a6.184,6.184,0,0,1,4.406,1.783,6.583,6.583,0,0,1,1.941,4.511v1.888H81.92V17.519a6.369,6.369,0,0,1,1.888-4.459A6.226,6.226,0,0,1,88.267,11.225Z" transform="translate(-33.663 0)"/>
    <path id="Path_377" data-name="Path 377" class="cls-1" d="M159.167,0A17.372,17.372,0,0,0,141.7,17.467v24.5a17.467,17.467,0,1,0,34.934,0V38.448H165.461v3.514a6.417,6.417,0,0,1-1.941,4.511,6.02,6.02,0,0,1-4.406,1.836,6.232,6.232,0,0,1-4.406-1.836l-.1-.1a6.02,6.02,0,0,1-1.836-4.406V30.528h23.866V17.519A17.461,17.461,0,0,0,159.167,0Zm0,11.225a6.184,6.184,0,0,1,4.406,1.783,6.583,6.583,0,0,1,1.941,4.511v1.888H152.82V17.519a6.369,6.369,0,0,1,1.888-4.459A6.054,6.054,0,0,1,159.167,11.225Z" transform="translate(-67.373 0)"/>
    <path id="Path_378" data-name="Path 378" class="cls-1" d="M211.1.7V11.873h11.8V59.238h11.173V11.873h11.854V.7Z" transform="translate(-100.371 -0.333)"/>
  </g>
  <g id="Group_54" data-name="Group 54" transform="translate(146.607 0.367)">
    <path id="Path_379" data-name="Path 379" class="cls-1" d="M292.823,53.049a6.61,6.61,0,0,1-1.888,4.773,6.252,6.252,0,0,1-4.721,1.941,6.628,6.628,0,0,1-6.714-6.714,6.252,6.252,0,0,1,1.941-4.721,6.61,6.61,0,0,1,4.773-1.888,6.414,6.414,0,0,1,4.721,1.941A6.768,6.768,0,0,1,292.823,53.049Zm-3.042-14.477h-7.658L280.339.7h11.225Z" transform="translate(-279.5 -0.7)"/>
  </g>
</svg>
