<svg xmlns="http://www.w3.org/2000/svg" xmlns:xlink="http://www.w3.org/1999/xlink" viewBox="836 572 346 66">
  <defs>
    <style>
      .cls-1 {
        fill: #3462e0;
      }

      .cls-2, .cls-4, .cls-6 {
        fill: #fff;
      }

      .cls-2 {
        font-size: 18px;
        font-family: Montserrat-Medium, Montserrat;
        font-weight: 500;
        letter-spacing: 0.1em;
      }

      .cls-3 {
        fill: none;
      }

      .cls-5, .cls-6 {
        stroke: none;
      }

      .cls-7 {
        filter: url(#Rectangle_7);
      }
    </style>
    <filter id="Rectangle_7" x="836" y="572" width="346" height="66" filterUnits="userSpaceOnUse">
      <feOffset dy="3" input="SourceAlpha"/>
      <feGaussianBlur stdDeviation="3" result="blur"/>
      <feFlood flood-opacity="0.161"/>
      <feComposite operator="in" in2="blur"/>
      <feComposite in="SourceGraphic"/>
    </filter>
  </defs>
  <g id="Group_48" data-name="Group 48" transform="translate(0 388)">
    <g id="Group_39" data-name="Group 39" transform="translate(50 -594)">
      <g class="cls-7" transform="matrix(1, 0, 0, 1, -50, 206)">
        <rect id="Rectangle_7-2" data-name="Rectangle 7" class="cls-1" width="328" height="48" rx="24" transform="translate(845 578)"/>
      </g>
      <text id="DIRECTOR_OF_UX_UI" data-name="DIRECTOR OF UX UI" class="cls-2" transform="translate(811 797)"><tspan x="31.608" y="17">DIRECTOR OF UX UI</tspan></text>
    </g>
    <g id="Group_47" data-name="Group 47" transform="translate(150.413 -384.587)">
      <g id="Path_361" data-name="Path 361" class="cls-3" transform="translate(981.617 581.617)">
        <path class="cls-5" d="M16.97,0A16.97,16.97,0,1,1,0,16.97,16.97,16.97,0,0,1,16.97,0Z"/>
        <path class="cls-6" d="M 16.9700927734375 31.94018363952637 C 20.96875190734863 31.94018363952637 24.72807312011719 30.38302230834961 27.5555534362793 27.5555534362793 C 30.38302230834961 24.72807312011719 31.94018363952637 20.96875190734863 31.94018363952637 16.9700927734375 C 31.94018363952637 12.97143268585205 30.38302230834961 9.212112426757812 27.5555419921875 6.384642601013184 C 24.72807312011719 3.557162761688232 20.96875190734863 2.000002861022949 16.9700927734375 2.000002861022949 C 12.97143268585205 2.000002861022949 9.212122917175293 3.557162761688232 6.384642601013184 6.384642601013184 C 3.557162761688232 9.212122917175293 2.000002861022949 12.97143268585205 2.000002861022949 16.9700927734375 C 2.000002861022949 20.96875190734863 3.557162761688232 24.72807312011719 6.384642601013184 27.5555419921875 C 9.212112426757812 30.38302230834961 12.97143268585205 31.94018363952637 16.9700927734375 31.94018363952637 M 16.9700927734375 33.94018173217773 C 7.597772598266602 33.94018173217773 2.77343747256964e-06 26.34242248535156 2.77343747256964e-06 16.9700927734375 C 2.77343747256964e-06 7.597772598266602 7.597772598266602 2.77343747256964e-06 16.9700927734375 2.77343747256964e-06 C 26.34242248535156 2.77343747256964e-06 33.94018173217773 7.597772598266602 33.94018173217773 16.9700927734375 C 33.94018173217773 26.34242248535156 26.34242248535156 33.94018173217773 16.9700927734375 33.94018173217773 Z"/>
      </g>
      <path id="Path_353" data-name="Path 353" class="cls-4" d="M478.691,163.9v15.138l13.439-7.229Z" transform="translate(515.338 426.889)"/>
    </g>
  </g>
</svg>
