<svg xmlns="http://www.w3.org/2000/svg" viewBox="30 637.572 38.559 37.09">
  <g id="Group_183" data-name="Group 183" transform="translate(30 637.74)">
    <path id="Path_792" data-name="Path 792" d="M31.219,22.7a2.716,2.716,0,0,0-.146.568c-.015,3.89-.029,7.765.015,11.654a2.1,2.1,0,0,1-1.981,2.156c-.117,0-.248.015-.364.015H2.345a2.067,2.067,0,0,1-2-.947,2.264,2.264,0,0,1-.32-1.093Q-.015,18.552,0,2.04A1.98,1.98,0,0,1,1.821.029C1.981.015,2.142,0,2.3,0h26.47a2.032,2.032,0,0,1,2,1.005,2.56,2.56,0,0,1,.291,1.034c.029,1.938,0,3.89.029,5.827a.738.738,0,0,0,.219.481,9.457,9.457,0,0,1,1.3,13.024c-.058.073-.117.16-.262.35a1.556,1.556,0,0,1,.364.233c1.806,1.792,3.613,3.6,5.419,5.39a2.11,2.11,0,0,1,.248.262.73.73,0,0,1-.044,1.02.772.772,0,0,1-1.005.044,2.11,2.11,0,0,1-.262-.248Q34.33,25.713,31.613,23a2.172,2.172,0,0,1-.219-.291A.709.709,0,0,0,31.219,22.7ZM16.447,11.043h-8.6c-.685,0-1.034-.262-1.049-.743s.364-.772,1.063-.772h9.4a.648.648,0,0,0,.539-.219A9.635,9.635,0,0,1,29.224,6.978c.1.044.2.087.35.16V2.287c0-.612-.146-.758-.743-.758H2.287c-.6,0-.758.16-.758.758v32.56c0,.626.146.772.772.772H28.816c.626,0,.758-.146.758-.772V24.008c-.131.058-.219.087-.306.131a9.608,9.608,0,0,1-11.858-2.812.58.58,0,0,0-.524-.233H7.925c-.16,0-.32,0-.466-.015a.733.733,0,0,1-.626-.7.753.753,0,0,1,.6-.758,2.195,2.195,0,0,1,.437-.015h8.377a11.738,11.738,0,0,1-.874-3.511H7.925a2.205,2.205,0,0,1-.437-.029.718.718,0,0,1-.656-.743.734.734,0,0,1,.641-.714,3.55,3.55,0,0,1,.393-.015h7.517A9.219,9.219,0,0,1,16.447,11.043Zm3.365-1.515h3.074c.685,0,1.034.248,1.034.743s-.35.772-1.049.772H18.618a.42.42,0,0,0-.437.248c-.291.626-.612,1.238-.874,1.879a12.032,12.032,0,0,0-.335,1.384h5.9a3.55,3.55,0,0,1,.393.015.733.733,0,0,1-.015,1.457,2.205,2.205,0,0,1-.437.029H16.972a7.216,7.216,0,0,0,.961,3.365.419.419,0,0,0,.291.131c.5.015.991,0,1.486,0h3.38a.741.741,0,0,1,.728,1.049.8.8,0,0,1-.8.452H19.142c.1.117.131.16.175.2a8.123,8.123,0,0,0,9.935,1.093.5.5,0,0,0,.248-.51V9.236a.519.519,0,0,0-.291-.524,8.31,8.31,0,0,0-4.152-1.18A7.606,7.606,0,0,0,19.813,9.528Zm11.276.8V20.745A7.814,7.814,0,0,0,31.088,10.329Z" transform="translate(0 -0.168)"/>
    <path id="Path_793" data-name="Path 793" d="M50.63,170.122H47.4a.748.748,0,0,1-.728-.452.636.636,0,0,1,.131-.772.971.971,0,0,1,.612-.262c2.156-.015,4.312-.015,6.483,0a.738.738,0,0,1,.787.772.756.756,0,0,1-.8.714Z" transform="translate(-39.806 -144.228)"/>
  </g>
</svg>
