<svg xmlns="http://www.w3.org/2000/svg" viewBox="30.066 41.646 37.367 67.609">
  <g id="Group_38" data-name="Group 38" transform="translate(30.066 41.646)">
    <g id="Group_37" data-name="Group 37" transform="translate(0)">
      <path id="Path_328" data-name="Path 328" d="M37.367,45.188,34.76,47.8,15.121,67.435l-.174.174c3.3-5.562,6.6-11.123,10.08-16.685H16.859c0-.174.174-.348.174-.521l7.821-13.035a.529.529,0,0,0,0-.7l-2.086-4.693c0-.174-.174-.348-.174-.521H10.254C9.385,33.2,8.69,34.934,7.821,36.672c0,.174-.348.174-.521.174H0V36.5a.607.607,0,0,1,.174-.348c1.912-4.345,4-8.69,5.909-13.035,1.564-3.128,2.955-6.431,4.345-9.559,1.738-3.65,3.3-7.3,5.04-10.949L16.511,0h.174c.348.7.521,1.39.869,2.086C20.335,8.342,23.116,14.773,25.9,21.03c2.259,5.214,4.693,10.428,6.952,15.642.174.174,0,.521,0,.7l-4.171,7.3c0,.174-.174.174-.174.348h8.864ZM16.511,17.554c-.869,2.259-1.912,4.345-2.781,6.431h5.562C18.423,21.725,17.554,19.639,16.511,17.554Z" transform="translate(0)"/>
    </g>
  </g>
</svg>
