<svg xmlns="http://www.w3.org/2000/svg" width="36.76" height="48.45" viewBox="0 0 36.76 48.45">
  <g id="Group_263" data-name="Group 263" transform="translate(-411.699 -489.209)">
    <path id="Path_811" data-name="Path 811" d="M447.985,542.83a1.311,1.311,0,0,0-2.511.752,9.061,9.061,0,0,1-.125,5.455,6.01,6.01,0,0,1-4.113,4.2,4.557,4.557,0,0,1-5.149-1.774c-.5-.7-2.15-3.5-2.743-4.516a1.311,1.311,0,0,0-2.432.49,17.771,17.771,0,0,0-.067,3.966,25.561,25.561,0,0,0,2.206,7.736q.2.481.413.96h-6.821a34.011,34.011,0,0,0,2.293-6.57,23.943,23.943,0,0,0,.244-6.1,1.311,1.311,0,0,0-2.419-.386,52.379,52.379,0,0,1-3.17,4.948,4.8,4.8,0,0,1-5.749.833,7.08,7.08,0,0,1-3.5-5.922,9.77,9.77,0,0,1,.358-3.331,1.311,1.311,0,0,0-2.519-.726,12.547,12.547,0,0,0-.456,4.209,9.665,9.665,0,0,0,4.721,7.987c2.536,1.6,6.934,1.414,9.181-1.394.245-.3.534-.7.84-1.145a4.433,4.433,0,0,1-.082.439,32.342,32.342,0,0,1-2.186,6.21c-.167.381-.331.763-.5,1.159l-.25.582a1.311,1.311,0,0,0,1.2,1.829h10.795a1.31,1.31,0,0,0,1.22-1.79l-.061-.159c-.043-.112-.08-.21-.122-.307l-.392-.9c-.21-.482-.421-.964-.626-1.448a26.784,26.784,0,0,1-1.823-5.591c.111.171.207.316.284.423a7.113,7.113,0,0,0,8.069,2.8,8.608,8.608,0,0,0,5.853-5.909A11.63,11.63,0,0,0,447.985,542.83Z" transform="translate(0 -25.06)"/>
    <path id="Path_812" data-name="Path 812" d="M423.222,508.312c-1.361,2.088-2.726,4.177-4.087,6.25a1.311,1.311,0,0,1-2.19-1.44l15.386-23.912,15.605,23.914a1.311,1.311,0,1,1-2.194,1.436l-13.3-20.5c-.3.5-.615,1-.933,1.492l-2.255,3.475c-1.425,2.2-2.874,4.43-4.33,6.669h11.956a1.311,1.311,0,0,1,0,2.622Z" transform="translate(-2.392)"/>
  </g>
</svg>
