<svg xmlns="http://www.w3.org/2000/svg" viewBox="25.609 184.333 42.951 34.381">
  <defs>
    <style>
      .cls-1 {
        stroke: #000;
        stroke-width: 0.4px;
      }
    </style>
  </defs>
  <g id="Group_8" data-name="Group 8" transform="translate(-373.286 300.999)">
    <path id="Path_133" data-name="Path 133" class="cls-1" d="M19.549,3.557c-1.021.053-2.041.122-3.062.156-2.43.082-4.861.164-7.293.213a10.073,10.073,0,0,1-3.482-.846c-1.37-.475-2.74-.952-4.12-1.4a5.982,5.982,0,0,0-1.11-.169C.163,1.474,0,1.326,0,1.053S.193.6.527.606A8.856,8.856,0,0,1,3.3,1.2c1.113.381,2.216.793,3.315,1.21a9.051,9.051,0,0,0,3.659.605c1.866-.083,3.734-.12,5.6-.2s3.731-.188,5.6-.3a1.81,1.81,0,0,0,.6-.158c.786-.34,1.566-.691,2.346-1.044A17.962,17.962,0,0,1,28.556.222c.433-.082.875-.12,1.312-.184a4.137,4.137,0,0,1,2.657.6c.537.3,1.089.568,1.617.878a3.487,3.487,0,0,0,2.481.414c1.195-.213,2.394-.4,3.6-.578.567-.084,1.142-.129,1.714-.174a.475.475,0,0,1,.555.425.491.491,0,0,1-.476.479c-1.649.242-3.3.458-4.944.739a5.134,5.134,0,0,1-3.744-.64c-.444-.278-.93-.493-1.38-.762a3.683,3.683,0,0,0-2.454-.4,21.722,21.722,0,0,0-7.082,2.209,81.261,81.261,0,0,0-9.239,5.326c-.172.117-.339.24-.5.364a1.227,1.227,0,0,0-.386,1.692,2.773,2.773,0,0,0,1.757,1.321,8.672,8.672,0,0,0,4.1.212,10.564,10.564,0,0,0,2.26-.886c1.549-.7,3.083-1.435,4.623-2.156.4-.188.532-.169.848.137q5.508,5.326,11.013,10.655a.491.491,0,0,0,.568.139c1.237-.357,2.482-.688,3.731-1.006a3.437,3.437,0,0,1,.888-.082.46.46,0,1,1,.018.92,19.038,19.038,0,0,0-3.606.8c-.683.171-1.118.407-1.138,1.209a4.083,4.083,0,0,1-.52,1.6,3.065,3.065,0,0,1-2.778,1.812,3.374,3.374,0,0,1-1.393,2.763,3.647,3.647,0,0,1-3.157.6,3.579,3.579,0,0,1-5.057,1.934,12.548,12.548,0,0,1-.415,1.2,2.042,2.042,0,0,1-2.848,1.067,4.6,4.6,0,0,1-1.7-1.316c-.407.452-.788.936-1.235,1.357a4.052,4.052,0,0,1-2.456,1.081,1.934,1.934,0,0,1-2.262-2.361c.044-.251.118-.5.189-.79a3.063,3.063,0,0,1-3.018-.552,2.548,2.548,0,0,1-.51-2.935,3,3,0,0,1-2.962-.691,2.551,2.551,0,0,1-.393-2.9,2.937,2.937,0,0,1-3.094-.9,2.821,2.821,0,0,1-.136-3.1L.739,19.556a2.416,2.416,0,0,1-.331-.015A.439.439,0,0,1,0,19.074a.419.419,0,0,1,.435-.436,6.7,6.7,0,0,1,.828.016c.838.057,1.676.118,2.513.19a.592.592,0,0,0,.569-.212A4.848,4.848,0,0,1,7,17.048,2.406,2.406,0,0,1,10.141,19.8c-.047.326-.129.647-.2.984.323-.047.651-.114.982-.139a2.27,2.27,0,0,1,2.536,2.693c-.034.348-.132.69-.206,1.066a2.9,2.9,0,0,1,3.032.5,2.918,2.918,0,0,1,.5,2.952c.33-.041.632-.1.935-.111a2,2,0,0,1,2.164,2.048,2.6,2.6,0,0,0,2.039,2.317.97.97,0,0,0,1.172-.563,10.59,10.59,0,0,0,.423-1.435c.031-.112.024-.234.05-.348a.464.464,0,0,1,.673-.347c.324.133.631.305.954.441a2.569,2.569,0,0,0,3.443-1.723c.008-.031.016-.062.024-.093.125-.481.34-.589.82-.41a2.622,2.622,0,0,0,3.175-.948,2.347,2.347,0,0,0,.389-1.74c-.078-.469.136-.714.619-.645a2.057,2.057,0,0,0,2.328-1.29,5.127,5.127,0,0,0,.511-2,.5.5,0,0,0-.163-.321c-.522-.523-1.053-1.036-1.584-1.55q-4.59-4.446-9.175-8.9a.473.473,0,0,0-.646-.093c-1.744.827-3.5,1.63-5.249,2.449a5.308,5.308,0,0,1-1.931.527,10.508,10.508,0,0,1-4.132-.356,3.292,3.292,0,0,1-2.4-2.31A1.975,1.975,0,0,1,12,8.238a58.518,58.518,0,0,1,6.056-3.8c.5-.283,1.007-.555,1.511-.831ZM16.016,26.733a1.451,1.451,0,0,0-1.736-1.6,3.978,3.978,0,0,0-3.359,3.073A1.492,1.492,0,0,0,12.26,30,3.482,3.482,0,0,0,16.016,26.733Zm-8.369-8.81c-.039,0-.15.008-.259.023A2.746,2.746,0,0,0,7.1,18a3.849,3.849,0,0,0-2.567,2.054,3.081,3.081,0,0,0-.353,1.281c-.034,1.113,1.082,1.814,2.335,1.52a3.843,3.843,0,0,0,2.721-3.465A1.426,1.426,0,0,0,7.647,17.923Zm-.128,6.935A1.46,1.46,0,0,0,8.6,26.413a2.317,2.317,0,0,0,1.736-.14,3.738,3.738,0,0,0,2.2-3.2,1.32,1.32,0,0,0-1.67-1.487,3.973,3.973,0,0,0-2.584,1.525A3.338,3.338,0,0,0,7.518,24.858Zm8.036,8.209a3.886,3.886,0,0,0,3.382-3.261,1.084,1.084,0,0,0-1.286-1.114,3.959,3.959,0,0,0-3.214,3.232C14.371,32.651,14.794,33.075,15.555,33.068Z" transform="translate(399.093 -116.469)"/>
  </g>
</svg>
