<svg xmlns="http://www.w3.org/2000/svg" viewBox="26.764 488.996 38.945 38.885">
  <defs>
    <style>
      .cls-1 {
        stroke: #fff;
        stroke-width: 0.3px;
      }
    </style>
  </defs>
  <g id="Group_34" data-name="Group 34" transform="translate(27.028 489.041)">
    <path id="Path_320" data-name="Path 320" class="cls-1" d="M65.93,90.994c.589.241,1.1.482,1.62.683a18.14,18.14,0,0,1,5.542,2.958,5.513,5.513,0,0,1,1.928,2.543,4.806,4.806,0,0,1-2.1,5.569,7.729,7.729,0,0,1-3.427,1.111q-1.767.181-3.534.2c-2.61.027-5.221.013-7.831,0a10.2,10.2,0,0,1-4.886-1.2A9.7,9.7,0,0,1,51.3,101.5a3.855,3.855,0,0,1-1-3.829,5.285,5.285,0,0,1,2.021-3.025A18.5,18.5,0,0,1,57.9,91.69c.562-.2,1.178-.321,1.473-.857-.549-.75-1.124-1.472-1.633-2.236a12.85,12.85,0,0,1-2.075-4.739,6.779,6.779,0,0,1,2.476-6.827,6.69,6.69,0,0,1,3.735-1.392,7.546,7.546,0,0,1,4.257.75A6.634,6.634,0,0,1,69.7,82.975a12.366,12.366,0,0,1-2.035,5.6c-.428.683-.95,1.325-1.419,1.981A2.711,2.711,0,0,0,65.93,90.994ZM62.8,102.1h0c.388.013.776.027,1.165.013,1.593-.04,3.186-.027,4.779-.161a7.412,7.412,0,0,0,3.762-1.352,2.4,2.4,0,0,0,.482-3.427,13.783,13.783,0,0,0-2.021-1.727A19.085,19.085,0,0,0,66.2,93.229a4.094,4.094,0,0,1-1.9-1.553,1.1,1.1,0,0,1-.187-1.084,8.953,8.953,0,0,1,.736-1.365c.5-.75,1.1-1.446,1.553-2.209a9.487,9.487,0,0,0,1.513-5.194A4.356,4.356,0,0,0,65.876,78.2a5.674,5.674,0,0,0-4.846-.7,4.587,4.587,0,0,0-3.119,2.476,5.66,5.66,0,0,0-.147,4.11A13.137,13.137,0,0,0,60.6,89.253a2.031,2.031,0,0,1-.027,2.838c-.254.254-.5.509-.763.75a1.107,1.107,0,0,1-.428.228,17.051,17.051,0,0,0-6.2,3.173,2.737,2.737,0,0,0-1.058,1.847,2.416,2.416,0,0,0,.656,2.249,5.05,5.05,0,0,0,1.473.95,10.875,10.875,0,0,0,4.069.817C59.839,102.118,61.325,102.1,62.8,102.1Z" transform="translate(-43.478 -65.382)"/>
    <path id="Path_321" data-name="Path 321" class="cls-1" d="M181.823,22.873c-.83,0-1.647.013-2.476,0a.94.94,0,0,1-1.031-1.178.866.866,0,0,1,.937-.736c1.071,0,2.142-.013,3.213,0a13.649,13.649,0,0,0,3.454-.361,9,9,0,0,0,1.633-.643,1.288,1.288,0,0,0,.535-1.432,2.4,2.4,0,0,0-.763-1.3,11.53,11.53,0,0,0-3.48-1.874,11.717,11.717,0,0,1-1.473-.6,2.22,2.22,0,0,1-1.124-1.446,1.826,1.826,0,0,1,.629-1.606A7.634,7.634,0,0,0,184.1,6.689a3.426,3.426,0,0,0-3.106-3.4,3.472,3.472,0,0,0-4.016,2.918,4.251,4.251,0,0,0,.281,2.3,12.689,12.689,0,0,0,1.633,2.985.92.92,0,0,1-.147,1.285.794.794,0,0,1-1.124.08,1.116,1.116,0,0,1-.308-.254,9.32,9.32,0,0,1-2.343-4.98,5.354,5.354,0,0,1,2.557-5.462,5.211,5.211,0,0,1,5.85-.067,5.238,5.238,0,0,1,2.517,6,11.732,11.732,0,0,1-2.222,4.592c-.335.455-.335.469.2.656a12.838,12.838,0,0,1,4.725,2.624,4.018,4.018,0,0,1,1.472,3.159,3.208,3.208,0,0,1-1.325,2.557,8.758,8.758,0,0,1-1.513.843,2.25,2.25,0,0,1-.843.161c-1.513.094-3.025.161-4.538.228C181.823,22.9,181.823,22.886,181.823,22.873Z" transform="translate(-151.54 -0.97)"/>
    <path id="Path_322" data-name="Path 322" class="cls-1" d="M8.182,22c-1.258-.107-2.53-.147-3.788-.348A7.032,7.032,0,0,1,1.5,20.5,3.47,3.47,0,0,1,.27,16.214a5.013,5.013,0,0,1,1.874-2.075,16.3,16.3,0,0,1,4.418-2.021c.268-.08.4-.161.187-.442-.335-.442-.643-.91-.95-1.365a8.683,8.683,0,0,1-1.66-4.136A5.173,5.173,0,0,1,6.227,1.342a5.376,5.376,0,0,1,5.756-.7,5.388,5.388,0,0,1,3.132,5.89,11.244,11.244,0,0,1-2.2,4.886,1.024,1.024,0,0,1-1.071.375c-.4-.054-.549-.335-.669-.656a.832.832,0,0,1,.174-.857,8.651,8.651,0,0,0,1.754-3.347,3.945,3.945,0,0,0-.187-3A3.522,3.522,0,0,0,9.654,2.1,3.61,3.61,0,0,0,6.361,4.1,3.556,3.556,0,0,0,6.294,6.75a12.465,12.465,0,0,0,1.981,3.721c.12.174.254.348.361.522a1.341,1.341,0,0,1-.08,1.62,3.946,3.946,0,0,1-1.272.977,17.62,17.62,0,0,0-4.618,2.717,1.842,1.842,0,0,0-.549,1.767,1.04,1.04,0,0,0,.589.763,9.459,9.459,0,0,0,4.752,1.151c1.084-.054,2.169-.013,3.24-.013a.952.952,0,1,1,.094,1.9c-.87.027-1.74.013-2.61.013A.147.147,0,0,1,8.182,22Z" transform="translate(0 0)"/>
  </g>
</svg>
