<svg xmlns="http://www.w3.org/2000/svg" viewBox="27 571.265 38.559 30.793">
  <g id="Group_35" data-name="Group 35" transform="translate(27.127 571.276)">
    <path id="Path_323" data-name="Path 323" d="M22.416-.01A17.3,17.3,0,0,1,31.51,2.2a13.255,13.255,0,0,1,6.111,6.907,10.923,10.923,0,0,1-1.664,11.08,14.411,14.411,0,0,1-2.829,2.746.306.306,0,0,0-.119.44c.808,1.985,1.6,3.983,2.4,5.968a2.223,2.223,0,0,1,.155.476.781.781,0,0,1-.345.8.825.825,0,0,1-.927.048c-.927-.523-1.855-1.058-2.782-1.593q-2.283-1.32-4.589-2.627a.638.638,0,0,0-.416-.071,19.714,19.714,0,0,1-7.085-.119c-.594-.131-1.177-.321-1.783-.464a1.069,1.069,0,0,0-.547-.012,14.655,14.655,0,0,1-6.384.262.977.977,0,0,0-.678.131c-2.057,1.2-4.137,2.39-6.217,3.578A.87.87,0,0,1,2.5,28.664c.7-1.759,1.4-3.531,2.116-5.29a.335.335,0,0,0-.131-.487A11.933,11.933,0,0,1,.756,18.381,9.623,9.623,0,0,1,.447,11.07a11.705,11.705,0,0,1,5.4-6.384,15.92,15.92,0,0,1,7.811-2.14.923.923,0,0,0,.487-.166A17.169,17.169,0,0,1,22.416-.01ZM33,27.951c-.059-.178-.1-.262-.131-.357-.571-1.427-1.141-2.841-1.712-4.268a.907.907,0,0,1,.392-1.3,13.784,13.784,0,0,0,2.841-2.544,9.369,9.369,0,0,0,1.973-8.726,10.976,10.976,0,0,0-4.743-6.467,15.252,15.252,0,0,0-13.089-1.95,13,13,0,0,0-7.18,4.874A10.047,10.047,0,0,0,10.8,18.548a12.987,12.987,0,0,0,7.561,5.683,18.087,18.087,0,0,0,8.286.392,1.152,1.152,0,0,1,.8.143c.606.357,1.213.7,1.831,1.046C30.488,26.525,31.712,27.214,33,27.951ZM11.419,4.508c-.107.012-.166,0-.214.012A13.686,13.686,0,0,0,7.14,5.946a10.18,10.18,0,0,0-4.886,5.231,8.1,8.1,0,0,0,.464,7.311,10.777,10.777,0,0,0,3.376,3.5.922.922,0,0,1,.392,1.343c-.345.856-.69,1.7-1.034,2.556-.155.38-.3.761-.476,1.213.143-.083.226-.119.309-.166,1.438-.82,2.865-1.652,4.3-2.449a1.519,1.519,0,0,1,.761-.166c1.022.059,2.045.178,3.079.25.38.024.749-.024,1.129-.036a.372.372,0,0,0-.166-.166,14.438,14.438,0,0,1-3.257-2.568A11.972,11.972,0,0,1,10.825,5.15C11.015,4.948,11.205,4.746,11.419,4.508Z" transform="translate(0 0)"/>
    <path id="Path_324" data-name="Path 324" d="M103.379,93.007a2.99,2.99,0,1,1-2.9-3.008A3.027,3.027,0,0,1,103.379,93.007Zm-3-1.3A1.254,1.254,0,0,0,99.1,92.983a1.279,1.279,0,0,0,1.284,1.284,1.278,1.278,0,1,0,0-2.556Z" transform="translate(-85.932 -79.31)"/>
    <path id="Path_325" data-name="Path 325" d="M175.38,93a2.99,2.99,0,1,1-2.972-3A3.019,3.019,0,0,1,175.38,93ZM172.4,91.712a1.261,1.261,0,0,0-1.3,1.26,1.284,1.284,0,1,0,2.568.024A1.261,1.261,0,0,0,172.4,91.712Z" transform="translate(-149.374 -79.31)"/>
    <path id="Path_326" data-name="Path 326" d="M247.292,93.007a3,3,0,1,1-5.992-.036A2.982,2.982,0,0,1,244.343,90,3.015,3.015,0,0,1,247.292,93.007Zm-1.724-.024a1.247,1.247,0,0,0-1.284-1.272A1.264,1.264,0,0,0,243,93a1.286,1.286,0,0,0,1.284,1.284A1.266,1.266,0,0,0,245.568,92.983Z" transform="translate(-212.726 -79.31)"/>
  </g>
</svg>
