<svg xmlns="http://www.w3.org/2000/svg" viewBox="30.202 773.9 38.357 38.437">
  <g id="Group_187" data-name="Group 187" transform="translate(30.155 773.99)">
    <path id="Path_798" data-name="Path 798" d="M30.988,79.185A15.466,15.466,0,1,1,12.227,64.047a15.262,15.262,0,0,1,11.515,2,3.193,3.193,0,0,1,.412.282.737.737,0,0,1,.118,1.012.769.769,0,0,1-.965.247,1.4,1.4,0,0,1-.176-.106,13.927,13.927,0,1,0,5.916,14.891A13.693,13.693,0,0,0,27.2,71.586c-.059-.094-.118-.176-.176-.271a.764.764,0,0,1,.223-1.082.774.774,0,0,1,1.082.259,15.819,15.819,0,0,1,1.611,3.058A16.279,16.279,0,0,1,30.988,79.185Z" transform="translate(0 -56.269)"/>
    <path id="Path_799" data-name="Path 799" d="M132.755,4.507h.353c1.082,0,2.153-.012,3.235-.012a1.959,1.959,0,0,1,.459.047.735.735,0,0,1,.435,1.047,2.472,2.472,0,0,1-.306.388c-1.67,1.694-3.376,3.352-5.034,5.07a1.629,1.629,0,0,1-1.306.541c-1.047-.024-2.094-.024-3.141-.047a.655.655,0,0,0-.494.188c-3.388,3.388-6.775,6.787-10.163,10.163a.419.419,0,0,0-.129.482,2.269,2.269,0,0,1-1.694,2.717,2.3,2.3,0,0,1-2.741-1.623,2.266,2.266,0,0,1,1.588-2.776,5.773,5.773,0,0,1,1.012-.059.584.584,0,0,0,.376-.129q5.152-5.134,10.292-10.292a.634.634,0,0,0,.153-.412c.012-1.153.012-2.317,0-3.47a.975.975,0,0,1,.294-.729c1.8-1.8,3.611-3.6,5.411-5.411a.806.806,0,0,1,.906-.223.746.746,0,0,1,.471.8c.012,1.129.012,2.258.012,3.376A3.539,3.539,0,0,1,132.755,4.507Z" transform="translate(-98.921 0)"/>
    <path id="Path_800" data-name="Path 800" d="M41,115.568a10.694,10.694,0,0,1,9.128-10.492,10.448,10.448,0,0,1,6.3,1.035c.447.223.612.506.541.87a.765.765,0,0,1-1.117.565,9.151,9.151,0,0,0-4.658-1.012,8.782,8.782,0,0,0-6.563,3.317,9.053,9.053,0,1,0,14.985,1.423.772.772,0,0,1,.082-1.023.764.764,0,0,1,1.223.188,10.1,10.1,0,0,1,1.235,3.74A10.643,10.643,0,0,1,50.1,126.06a10.6,10.6,0,0,1-8.975-8.9C41.071,116.651,41.047,116.109,41,115.568Z" transform="translate(-36.136 -92.7)"/>
    <path id="Path_801" data-name="Path 801" d="M88.8,158.491a5.681,5.681,0,0,1-.835-11.3,8.549,8.549,0,0,1,1.553-.012.752.752,0,0,1,.706.823.743.743,0,0,1-.788.706,5.56,5.56,0,0,0-1.917.165A4.14,4.14,0,1,0,92.9,153.3a7.054,7.054,0,0,0-.047-1.317.766.766,0,0,1,1.059-.812.751.751,0,0,1,.482.588,5.692,5.692,0,0,1-5.27,6.716A2.766,2.766,0,0,0,88.8,158.491Z" transform="translate(-73.276 -129.918)"/>
  </g>
</svg>
