<svg xmlns="http://www.w3.org/2000/svg" viewBox="29.941 344.044 37.492 32.643">
  <g id="Group_5" data-name="Group 5" transform="translate(-335 965.999)">
    <g id="Group_6" data-name="Group 6" transform="translate(364.941 -621.956)">
      <path id="Path_125" data-name="Path 125" d="M10.579,4.961a4.921,4.921,0,0,1,.471-2.073A4.832,4.832,0,0,1,15.545.022c2.313-.035,4.628-.02,6.942,0a4.928,4.928,0,0,1,4.832,4.454c.014.152.033.3.053.489h7.641A2.387,2.387,0,0,1,37.49,7.437q0,5.886,0,11.772a2.5,2.5,0,0,1-.855,1.946.59.59,0,0,0-.152.4q-.013,4.252-.007,8.5A2.408,2.408,0,0,1,33.9,32.644H3.589a2.4,2.4,0,0,1-2.576-2.586q0-4.238,0-8.475a.589.589,0,0,0-.217-.5A2.322,2.322,0,0,1,0,19.269Q0,13.326,0,7.381a2.382,2.382,0,0,1,2.445-2.42h8.132Zm2.373,15.187c0-.2-.006-.374,0-.545a3.076,3.076,0,0,1,2.93-2.983q2.991-.079,5.986-.017A3.06,3.06,0,0,1,24.9,19.024a9.777,9.777,0,0,1,.136,1.123H34.92c.695,0,1-.307,1-1.008q0-5.8,0-11.6c0-.714-.3-1.016-1.022-1.016H2.587c-.718,0-1.015.3-1.015,1.022q0,5.8,0,11.6c0,.7.3,1,1,1H12.952Zm22.176,1.572H24.565c-.821,0-1.141-.319-1.143-1.13,0-.289.006-.579,0-.868a1.551,1.551,0,0,0-1.52-1.546q-2.936-.014-5.872,0A1.537,1.537,0,0,0,14.523,19.7c0,.28,0,.559,0,.839,0,.868-.315,1.183-1.186,1.183H2.363V22.1c0,2.642.017,5.284-.01,7.926a1.156,1.156,0,0,0,1.274,1.279q15.114-.011,30.229,0a1.159,1.159,0,0,0,1.28-1.275c-.025-2.651-.009-5.3-.009-7.955ZM12.864,4.931H25.087a2.649,2.649,0,0,0-2.517-2.653c-2.37-.027-4.74-.011-7.111-.007a2.521,2.521,0,0,0-.543.065A2.642,2.642,0,0,0,12.864,4.931Z" transform="translate(0 0)"/>
      <path id="Path_126" data-name="Path 126" d="M138.428,166.607c.694,0,1.387,0,2.081,0a1.108,1.108,0,0,1,1.24,1.2q.023,1.531,0,3.063a1.1,1.1,0,0,1-1.233,1.2q-2.1,0-4.19,0a1.115,1.115,0,0,1-1.245-1.253q0-1.474,0-2.948a1.131,1.131,0,0,1,1.266-1.266C137.041,166.605,137.734,166.607,138.428,166.607Z" transform="translate(-119.449 -147.328)"/>
    </g>
  </g>
</svg>
