<svg id="Group_172" data-name="Group 172" xmlns="http://www.w3.org/2000/svg" viewBox="621 988 152.435 64">
  <defs>
    <style>
      .cls-1 {
        fill: #fff;
      }

      .cls-2, .cls-3 {
        fill: #7ea0ff;
      }

      .cls-2 {
        font-size: 14px;
        font-family: Montserrat-Bold, Montserrat;
        font-weight: 700;
        letter-spacing: 0.09em;
      }
    </style>
  </defs>
  <path id="behance-4" class="cls-1" d="M13.1,0a13.742,13.742,0,0,1,3.6.4,7.816,7.816,0,0,1,2.8,1.1,4.624,4.624,0,0,1,1.8,2.1,7.94,7.94,0,0,1,.6,3.2,5.585,5.585,0,0,1-1,3.5,7.243,7.243,0,0,1-2.8,2.3,6.687,6.687,0,0,1,3.8,2.6,7.878,7.878,0,0,1,1.3,4.4,7.972,7.972,0,0,1-.8,3.6,6.654,6.654,0,0,1-2.2,2.5A10.309,10.309,0,0,1,17,27.1a14.923,14.923,0,0,1-3.6.5H0V0Zm-.8,11.2a4.551,4.551,0,0,0,2.7-.8,2.916,2.916,0,0,0,1-2.5,3.808,3.808,0,0,0-.3-1.6,2.836,2.836,0,0,0-.9-1,5.023,5.023,0,0,0-1.3-.5,8.083,8.083,0,0,0-1.6-.1H6.1v6.5h6.2ZM12.6,23a8.889,8.889,0,0,0,1.7-.2,3.522,3.522,0,0,0,1.4-.6,3.566,3.566,0,0,0,1-1.1,4.781,4.781,0,0,0,.4-1.8,3.856,3.856,0,0,0-1.2-3.1,5.274,5.274,0,0,0-3.2-.9H6.1V23Zm19.3-.1a4.889,4.889,0,0,0,3.6,1.2,5.467,5.467,0,0,0,2.9-.8,4,4,0,0,0,1.5-1.8h4.9a9.75,9.75,0,0,1-3.6,5.2,10.681,10.681,0,0,1-5.8,1.6,11.758,11.758,0,0,1-4.3-.8,7.988,7.988,0,0,1-3.2-2.2,7.932,7.932,0,0,1-2-3.3,11.761,11.761,0,0,1-.7-4.3,11.585,11.585,0,0,1,.7-4.2A10.778,10.778,0,0,1,28,10.1a10.155,10.155,0,0,1,3.2-2.2,11.222,11.222,0,0,1,4.2-.8,9.329,9.329,0,0,1,4.5,1A8.117,8.117,0,0,1,43,10.8a12.107,12.107,0,0,1,1.8,3.8A20.98,20.98,0,0,1,45,19H30.5a5.745,5.745,0,0,0,1.4,3.9Zm6.3-10.5a4.331,4.331,0,0,0-3.1-1.1,4.755,4.755,0,0,0-2.2.5,5.236,5.236,0,0,0-1.4,1.1,2.67,2.67,0,0,0-.7,1.4,6.87,6.87,0,0,0-.2,1.3h9a5.3,5.3,0,0,0-1.4-3.2ZM52.8,0V10.4h.1a5.886,5.886,0,0,1,2.7-2.5,7.562,7.562,0,0,1,3.2-.8,8.992,8.992,0,0,1,3.6.6,5.43,5.43,0,0,1,2.2,1.7A6.819,6.819,0,0,1,65.7,12a17.2,17.2,0,0,1,.3,3.4V27.7H60.5V16.4a7,7,0,0,0-.8-3.7A2.928,2.928,0,0,0,57,11.5a3.838,3.838,0,0,0-3.2,1.3,7.332,7.332,0,0,0-1,4.4V27.7H47.3V0ZM70,10.6a7.365,7.365,0,0,1,2.2-2.1,9.8,9.8,0,0,1,3-1.1,18.4,18.4,0,0,1,3.3-.3c1,0,2,.1,3.1.2a8.254,8.254,0,0,1,2.8.8,5.847,5.847,0,0,1,2.1,1.7,5,5,0,0,1,.8,2.9V23.2a21.148,21.148,0,0,0,.2,2.6,4.193,4.193,0,0,0,.7,1.9H82.6a2.44,2.44,0,0,1-.4-.9,3.405,3.405,0,0,1-.1-1A7.665,7.665,0,0,1,79,27.7a11.187,11.187,0,0,1-3.6.5,8.056,8.056,0,0,1-2.7-.4,6.5,6.5,0,0,1-2.2-1.1A5.761,5.761,0,0,1,69,24.8a7.233,7.233,0,0,1-.5-2.7,5.8,5.8,0,0,1,.6-2.8,6.549,6.549,0,0,1,1.5-1.8,7.418,7.418,0,0,1,2.2-1,18.737,18.737,0,0,1,2.5-.5l2.4-.3q1.2-.15,2.1-.3a5.226,5.226,0,0,0,1.5-.7,1.428,1.428,0,0,0,.5-1.3,2.648,2.648,0,0,0-.3-1.4,3.043,3.043,0,0,0-.8-.8,3.565,3.565,0,0,0-1.1-.4,6.09,6.09,0,0,0-1.4-.1,3.727,3.727,0,0,0-2.5.7,3.36,3.36,0,0,0-1.1,2.3H69.1a5.963,5.963,0,0,1,.9-3.1Zm10.9,7.8c-.3.1-.7.2-1.1.3s-.8.1-1.3.2c-.4.1-.9.1-1.3.2l-1.2.3a2.344,2.344,0,0,0-1,.5,2.7,2.7,0,0,0-.7.8A1.948,1.948,0,0,0,74,22a2.133,2.133,0,0,0,.3,1.2,2.683,2.683,0,0,0,.7.8,3.557,3.557,0,0,0,1.1.4,5.324,5.324,0,0,0,1.3.1,5.5,5.5,0,0,0,2.5-.5,4.018,4.018,0,0,0,1.3-1.3,2.976,2.976,0,0,0,.5-1.5,5.734,5.734,0,0,0,.1-1.2V17.9a4,4,0,0,1-.9.5ZM95.6,7.6v2.8h.1a5.884,5.884,0,0,1,2.7-2.5,8.449,8.449,0,0,1,3.4-.8,8.992,8.992,0,0,1,3.6.6,4.834,4.834,0,0,1,2.2,1.7,8.93,8.93,0,0,1,1.2,2.6,17.193,17.193,0,0,1,.3,3.4V27.7h-5.5V16.4a7,7,0,0,0-.8-3.7,3.049,3.049,0,0,0-2.8-1.3,4,4,0,0,0-3.3,1.5,7.337,7.337,0,0,0-1,4.4V27.8H90.2V7.6Zm25.8,3.6a3.792,3.792,0,0,0-2.2.6,4.612,4.612,0,0,0-1.5,1.6,6.585,6.585,0,0,0-.8,2.1,9.005,9.005,0,0,0-.2,2.3,16.5,16.5,0,0,0,.2,2.2,5.982,5.982,0,0,0,.8,2,4.994,4.994,0,0,0,1.4,1.5,3.8,3.8,0,0,0,2.2.6,4.5,4.5,0,0,0,3.1-1.1,4.633,4.633,0,0,0,1.3-3H131a9.217,9.217,0,0,1-3.1,6.1,10.045,10.045,0,0,1-6.6,2.1,10.7,10.7,0,0,1-4.1-.8,8.9,8.9,0,0,1-3.2-2.1,9.9,9.9,0,0,1-2.1-3.2,11.051,11.051,0,0,1-.7-4.1,11.765,11.765,0,0,1,.7-4.3,11.028,11.028,0,0,1,2-3.5,10.442,10.442,0,0,1,3.2-2.3,11.749,11.749,0,0,1,4.3-.8,12.688,12.688,0,0,1,3.4.5A8.722,8.722,0,0,1,127.7,9a6.118,6.118,0,0,1,2.1,2.4,8.477,8.477,0,0,1,.9,3.4h-5.4q-.3-3.6-3.9-3.6Zm-92-9.3H40.6V4.6H29.4Zm109.9,21a5.052,5.052,0,0,0,3.6,1.2,5.462,5.462,0,0,0,2.9-.8,3.988,3.988,0,0,0,1.5-1.8h4.8a9.751,9.751,0,0,1-3.6,5.2,10.684,10.684,0,0,1-5.8,1.6,11.767,11.767,0,0,1-4.3-.8,7.991,7.991,0,0,1-3.2-2.2,7.932,7.932,0,0,1-2-3.3,11.761,11.761,0,0,1-.7-4.3,11.585,11.585,0,0,1,.7-4.2,10.76,10.76,0,0,1,2.1-3.4,10.155,10.155,0,0,1,3.2-2.2,11.623,11.623,0,0,1,4.2-.8,8.682,8.682,0,0,1,4.4,1,8.132,8.132,0,0,1,3.1,2.7,12.107,12.107,0,0,1,1.8,3.8,13.275,13.275,0,0,1,.4,4.5H137.9a5.668,5.668,0,0,0,1.4,3.8Zm6.4-10.5a4.333,4.333,0,0,0-3.1-1.1,4.759,4.759,0,0,0-2.2.5,4.006,4.006,0,0,0-1.4,1.1,3.7,3.7,0,0,0-.7,1.4,6.943,6.943,0,0,0-.2,1.3h9a6.836,6.836,0,0,0-1.4-3.2Z" transform="translate(621 988)"/>
  <text id="_42_000" data-name="42,000" class="cls-2" transform="translate(704 1048)"><tspan x="-28.07" y="0">42,000</tspan></text>
  <g id="Group_43" data-name="Group 43" transform="translate(646.723 1036.348)">
    <path id="Path_337" data-name="Path 337" class="cls-3" d="M13.278,14.041a15.488,15.488,0,0,1-7.433-2.13A22.659,22.659,0,0,1,.334,7.581c-.417-.463-.44-.718,0-1.158A22.306,22.306,0,0,1,8.415.889a13.57,13.57,0,0,1,5.164-.9,14.063,14.063,0,0,1,5.65,1.436,22.955,22.955,0,0,1,6.9,5.071.63.63,0,0,1,.046.949,21.785,21.785,0,0,1-8.66,5.812A13.039,13.039,0,0,1,13.278,14.041Zm-.069-1.25A5.789,5.789,0,1,0,7.419,7,5.8,5.8,0,0,0,13.208,12.791ZM7.744,11.425a7.071,7.071,0,0,1,.023-8.892A23.227,23.227,0,0,0,1.515,6.979,21.052,21.052,0,0,0,7.744,11.425ZM24.9,7.025c-1.366-1.528-5.256-4.284-6.16-4.4a7.1,7.1,0,0,1-.046,8.846A22.853,22.853,0,0,0,24.9,7.025Z" transform="translate(0 0)"/>
    <path id="Path_338" data-name="Path 338" class="cls-3" d="M49.568,19.771a3.184,3.184,0,1,1-3.2-3.172A3.153,3.153,0,0,1,49.568,19.771Zm-3.219,1.945a1.947,1.947,0,0,0,1.968-1.876,1.935,1.935,0,0,0-3.867-.116A1.941,1.941,0,0,0,46.349,21.717Z" transform="translate(-33.187 -12.77)"/>
  </g>
</svg>
