<svg id="Group_173" data-name="Group 173" xmlns="http://www.w3.org/2000/svg" viewBox="857.344 991.187 152.429 60.813">
  <defs>
    <style>
      .cls-1 {
        fill: #fff;
      }

      .cls-2, .cls-3 {
        fill: #7ea0ff;
      }

      .cls-2 {
        font-size: 14px;
        font-family: Montserrat-Bold, Montserrat;
        font-weight: 700;
        letter-spacing: 0.09em;
      }
    </style>
  </defs>
  <g id="Group_41" data-name="Group 41" transform="translate(857.462 991.239)">
    <path id="Path_329" data-name="Path 329" class="cls-1" d="M83.738,12.534c0,1.818.028,3.635,0,5.453-.084,3.635-1.342,5.369-4.81,6.4a10.758,10.758,0,0,1-9.06-1.007,4.809,4.809,0,0,1-2.545-4.194c-.056-4.25,0-8.529-.028-12.779C67.24,3.474,68.862,1.768,71.435.79a11.072,11.072,0,0,1,8.752.252,5.46,5.46,0,0,1,3.551,5.313c0,2.069,0,4.138,0,6.18ZM71.323,12.45c0,1.818-.028,3.635,0,5.453a2.547,2.547,0,0,0,2.489,2.824,16.753,16.753,0,0,0,3.551-.028,2.475,2.475,0,0,0,2.293-2.573c.056-3.747.056-7.466,0-11.213a2.38,2.38,0,0,0-2.041-2.545A13.5,13.5,0,0,0,74.091,4.2a2.727,2.727,0,0,0-2.768,3.02C71.323,8.955,71.323,10.716,71.323,12.45Z" transform="translate(-48.562 -0.044)"/>
    <path id="Path_330" data-name="Path 330" class="cls-1" d="M159.8,25.956c-1.482,0-2.8.056-4.111-.028-.308-.028-.671-.419-.839-.727-1.174-2.293-2.377-4.586-3.439-6.935a1.765,1.765,0,0,0-2.125-1.286,8.534,8.534,0,0,1-1.2,0v8.948H144V2.3h9.423a5.412,5.412,0,0,1,5.453,3.775,10.367,10.367,0,0,1,.056,6.879,5.838,5.838,0,0,1-3.971,3.971C156.583,19.972,158.149,22.908,159.8,25.956ZM148.055,6.494c0,2.237-.028,4.306.028,6.4,0,.2.475.531.755.559,1.314.056,2.656.028,3.971.028a2.1,2.1,0,0,0,2.265-1.65,13,13,0,0,0,.224-3.607,1.759,1.759,0,0,0-1.874-1.734C151.69,6.466,149.956,6.494,148.055,6.494Z" transform="translate(-103.819 -1.694)"/>
    <path id="Path_331" data-name="Path 331" class="cls-1" d="M416.421,12.462V7.009c.028-3.411,1.118-5.145,4.278-6.292a10.637,10.637,0,0,1,9.731.895,4.739,4.739,0,0,1,2.433,4.138c.028,4.446.056,8.864,0,13.31-.028,2.293-1.4,3.747-3.3,4.7a10.863,10.863,0,0,1-8.361.559c-3.132-.979-4.893-2.712-4.81-6.655C416.448,15.957,416.421,14.2,416.421,12.462Zm4.138-.056h0c0,1.846-.056,3.691,0,5.537a2.532,2.532,0,0,0,2.461,2.74,15.7,15.7,0,0,0,3.244.028,2.607,2.607,0,0,0,2.628-2.824c.056-3.663.028-7.326,0-10.989a2.345,2.345,0,0,0-2.041-2.545,14.435,14.435,0,0,0-4.25,0A2.272,2.272,0,0,0,420.587,6.9C420.531,8.715,420.559,10.56,420.559,12.406Z" transform="translate(-300.041 0)"/>
    <path id="Path_332" data-name="Path 332" class="cls-1" d="M232.194,12.621c0,1.79-.056,3.551,0,5.341.168,4-2.069,5.676-4.977,6.543a10.868,10.868,0,0,1-8.053-.587,5.444,5.444,0,0,1-3.439-5.257c.028-3.943.028-7.885-.028-11.828a5.8,5.8,0,0,1,4.25-6.012,10.708,10.708,0,0,1,9.731.867,4.852,4.852,0,0,1,2.461,4.25v6.683Zm-4.027-.028h-.056c0-1.846.028-3.691,0-5.537a2.479,2.479,0,0,0-2.349-2.74,14.011,14.011,0,0,0-3.747.028,2.459,2.459,0,0,0-2.209,2.628c-.028,3.719-.028,7.466,0,11.185a2.454,2.454,0,0,0,2.265,2.573,18.645,18.645,0,0,0,3.747.028,2.441,2.441,0,0,0,2.349-2.6C228.223,16.284,228.168,14.438,228.168,12.593Z" transform="translate(-155.466 -0.075)"/>
    <path id="Path_333" data-name="Path 333" class="cls-1" d="M304.987,12.818v4.111H296.71v9.116H292.6V2.5h13.758V6.583h-9.563v6.236Z" transform="translate(-210.866 -1.838)"/>
    <path id="Path_334" data-name="Path 334" class="cls-1" d="M14.26,1.109c-.308,1.51-.559,2.712-.811,3.943-1.314-.084-2.573-.224-3.859-.224C6.151,4.8,4.809,6,4.333,9.414a21.94,21.94,0,0,0,.447,9.144c.587,2.069,1.594,2.824,3.775,2.88,1.734.056,3.467,0,5.425,0,.2.895.419,2.125.7,3.523-1.146.112-2.181.28-3.244.336-1.146.056-2.321,0-3.467.056-3.356.168-5.341-1.622-6.627-4.474A21.311,21.311,0,0,1,0,10.392,14.56,14.56,0,0,1,1.845,4.241,6.047,6.047,0,0,1,6.99.941C9.339.857,11.715,1.025,14.26,1.109Z" transform="translate(0 -0.699)"/>
    <path id="Path_335" data-name="Path 335" class="cls-1" d="M496.562,26.072H492.4V6.694h-6.1V2.5h16.414V6.583h-6.152Z" transform="translate(-350.403 -1.838)"/>
    <path id="Path_336" data-name="Path 336" class="cls-1" d="M361.283,21.862h9.563v4.083H357.2V2.4h4.083Z" transform="translate(-257.402 -1.766)"/>
  </g>
  <text id="_50_000" data-name="50,000" class="cls-2" transform="translate(946 1048)"><tspan x="-28.721" y="0">50,000</tspan></text>
  <g id="Group_42" data-name="Group 42" transform="translate(888.723 1036.348)">
    <path id="Path_337" data-name="Path 337" class="cls-3" d="M13.278,14.041a15.488,15.488,0,0,1-7.433-2.13A22.659,22.659,0,0,1,.334,7.581c-.417-.463-.44-.718,0-1.158A22.306,22.306,0,0,1,8.415.889a13.57,13.57,0,0,1,5.164-.9,14.063,14.063,0,0,1,5.65,1.436,22.955,22.955,0,0,1,6.9,5.071.63.63,0,0,1,.046.949,21.785,21.785,0,0,1-8.66,5.812A13.039,13.039,0,0,1,13.278,14.041Zm-.069-1.25A5.789,5.789,0,1,0,7.419,7,5.8,5.8,0,0,0,13.208,12.791ZM7.744,11.425a7.071,7.071,0,0,1,.023-8.892A23.227,23.227,0,0,0,1.515,6.979,21.052,21.052,0,0,0,7.744,11.425ZM24.9,7.025c-1.366-1.528-5.256-4.284-6.16-4.4a7.1,7.1,0,0,1-.046,8.846A22.853,22.853,0,0,0,24.9,7.025Z" transform="translate(0 0)"/>
    <path id="Path_338" data-name="Path 338" class="cls-3" d="M49.568,19.771a3.184,3.184,0,1,1-3.2-3.172A3.153,3.153,0,0,1,49.568,19.771Zm-3.219,1.945a1.947,1.947,0,0,0,1.968-1.876,1.935,1.935,0,0,0-3.867-.116A1.941,1.941,0,0,0,46.349,21.717Z" transform="translate(-33.187 -12.77)"/>
  </g>
</svg>
