<?xml version="1.0" encoding="utf-8"?>
<!-- Generator: Adobe Illustrator 23.0.4, SVG Export Plug-In . SVG Version: 6.00 Build 0)  -->
<svg version="1.1" id="Layer_1" xmlns="http://www.w3.org/2000/svg" xmlns:xlink="http://www.w3.org/1999/xlink" x="0px" y="0px"
	 viewBox="0 0 126 70" style="enable-background:new 0 0 126 70;" xml:space="preserve">
<style type="text/css">
	.st0{fill:#FDFDFD;}
	.st1{fill:#7C9EFB;}
</style>
<g>
	<path class="st0" d="M53.75,29.51c-6.13-0.02-10.95-2.52-13.67-8.07c-2.59-5.27-1.62-11.38,3.46-15.5
		c3.06-2.48,6.58-3.75,10.54-3.58C59,2.58,63.09,4.5,66.04,8.53c3.36,4.58,3.25,10.87-0.31,15.31c-2.87,3.58-6.64,5.48-11.24,5.67
		C54.25,29.52,54,29.51,53.75,29.51z M51.2,16.01c0,1.43-0.01,2.86,0,4.29c0,0.69-0.05,1.38,0.04,2.07
		c0.07,0.57,0.41,0.95,0.95,1.07c0.83,0.19,1.68,0.29,2.54,0.13c0.85-0.16,1.26-0.55,1.41-1.41c0.04-0.24,0.04-0.49,0.05-0.74
		c0-2.7,0.01-5.39,0.01-8.09c0-1.15,0.01-2.3-0.01-3.45c-0.02-1.05-0.51-1.61-1.54-1.78c-0.4-0.07-0.82-0.07-1.23-0.07
		c-1.63,0.01-2.25,0.87-2.22,2.4C51.22,12.3,51.2,14.16,51.2,16.01z"/>
	<path class="st0" d="M63.91,29.39c0.98-1.59,1.9-3.09,2.82-4.58c1.8-2.9,3.59-5.81,5.42-8.69c0.38-0.61,0.4-1.08,0-1.7
		c-2.47-3.78-4.9-7.59-7.33-11.39c-0.09-0.14-0.29-0.3-0.2-0.47c0.08-0.15,0.33-0.1,0.5-0.1c2.76-0.01,5.53-0.01,8.29-0.02
		c0.5,0,0.77,0.29,1,0.67c0.88,1.44,1.76,2.89,2.65,4.33c0.13,0.22,0.27,0.43,0.45,0.72c0.78-1.48,1.53-2.9,2.27-4.32
		c0.12-0.23,0.22-0.48,0.35-0.7c0.27-0.48,0.69-0.76,1.25-0.74c2.91,0.13,5.82,0.02,8.73,0.07c0.01,0,0.02,0.02,0.06,0.07
		c-0.16,0.26-0.32,0.53-0.49,0.8c-2.39,3.7-4.76,7.4-7.18,11.08c-0.44,0.67-0.46,1.19-0.02,1.88c2.64,4.04,5.24,8.11,7.84,12.17
		c0.17,0.27,0.53,0.6,0.41,0.83c-0.13,0.23-0.6,0.1-0.92,0.1c-2.62,0-5.23-0.01-7.85,0.01c-0.56,0-0.91-0.22-1.21-0.67
		c-1.02-1.57-2.06-3.13-3.09-4.69c-0.12-0.17-0.25-0.34-0.39-0.54c-0.93,1.4-1.95,2.7-2.71,4.15c-0.68,1.31-1.67,1.86-3.16,1.76
		c-2.3-0.16-4.6-0.03-6.91-0.04C64.33,29.39,64.17,29.39,63.91,29.39z"/>
	<path class="st0" d="M20.97,15.92c0-4.26,0.01-8.53-0.01-12.79c0-0.42,0.12-0.5,0.52-0.5c5.66,0.01,11.32,0.01,16.98,0
		c0.36,0,0.46,0.07,0.46,0.45c-0.02,2.09-0.02,4.18,0,6.27c0,0.37-0.07,0.5-0.48,0.49c-2.98-0.02-5.96,0-8.94-0.02
		c-0.39,0-0.5,0.09-0.48,0.48c0.03,0.87,0.04,1.75,0,2.62c-0.02,0.44,0.13,0.49,0.52,0.49c2.5-0.02,5,0,7.5-0.02
		c0.4,0,0.48,0.11,0.48,0.49c-0.02,2.21-0.02,4.41,0,6.62c0,0.42-0.12,0.51-0.52,0.5c-2.53-0.02-5.07,0-7.6-0.02
		c-0.43,0-0.5,0.12-0.5,0.52c0.02,2.44,0,4.87,0.02,7.31c0,0.39-0.07,0.53-0.5,0.53c-2.32-0.02-4.64-0.02-6.96,0
		c-0.42,0-0.51-0.12-0.5-0.52C20.98,24.51,20.97,20.22,20.97,15.92z"/>
	<path class="st0" d="M96.52,2.49c1.25,0,2.5,0.01,3.75-0.01c0.38-0.01,0.52,0.08,0.57,0.49c0.62,4.84,1.28,9.68,1.92,14.52
		c0.54,4.11,1.08,8.21,1.62,12.32c0.11,0.85,0.22,1.7,0.36,2.54c0.05,0.3,0,0.4-0.33,0.4c-0.92-0.02-1.84-0.03-2.76,0
		c-0.38,0.01-0.53-0.1-0.64-0.47c-1.39-4.76-2.8-9.51-4.19-14.26c-1.48-5.02-2.94-10.05-4.43-15.06c-0.13-0.44-0.01-0.49,0.38-0.48
		C94.02,2.5,95.27,2.49,96.52,2.49z"/>
	<path class="st0" d="M90.27,6.29c3.2,8.83,6.38,17.63,9.59,26.49c-0.97,0-1.9,0.01-2.82,0c-2.09-0.03-1.58,0.3-2.7-1.49
		c-3.2-5.1-6.37-10.22-9.57-15.33c-0.35-0.56-0.37-0.99,0.02-1.55c1.72-2.54,3.4-5.11,5.09-7.67C89.97,6.59,90.03,6.41,90.27,6.29z"
		/>
	<path class="st0" d="M92.88,32.76c-0.23,0-0.39,0-0.55,0c-23.6,0-47.2,0-70.79,0.01c-0.44,0-0.58-0.1-0.56-0.56
		c0.04-1.13,0.01-1.13,1.16-1.13c22.82,0,45.65,0,68.47-0.01c0.89,0,1.54,0.19,1.89,1.06C92.57,32.33,92.72,32.51,92.88,32.76z"/>
	<path class="st0" d="M25.87,43.24c-1.41,0-2.83-0.01-4.24,0c-0.42,0-0.65-0.15-0.65-0.6c-0.01-2.68-0.01-5.36-0.04-8.04
		c0-0.33,0.17-0.32,0.4-0.32c1.63,0.01,3.26,0.01,4.89,0.04c1.18,0.02,2.37-0.1,3.55-0.01c0.95,0.07,1.65,0.52,2.02,1.41
		c0.39,0.92,0.33,1.82-0.31,2.59c-0.28,0.34-0.22,0.47,0.05,0.77c1.27,1.39,0.61,3.79-1.13,4.1c-0.7,0.13-1.44,0.08-2.16,0.09
		c-0.79,0.01-1.58,0-2.37,0C25.87,43.27,25.87,43.26,25.87,43.24z M26.49,41.2c0-0.01,0-0.02,0-0.03c0.99,0,1.97,0,2.96,0
		c0.54,0,0.69-0.16,0.69-0.66c0-0.5-0.16-0.66-0.7-0.66c-1.79-0.01-3.58-0.02-5.37-0.03c-0.98,0-0.96,0-0.98,0.97
		c-0.01,0.37,0.13,0.43,0.45,0.42C24.52,41.19,25.51,41.2,26.49,41.2z M26.31,37.78c0.94,0,1.87,0,2.81,0c0.61,0,0.84-0.2,0.85-0.71
		c0-0.48-0.21-0.67-0.81-0.67c-1.71,0-3.42,0-5.12,0.02c-0.97,0.01-0.96,0.02-0.95,1.02c0,0.29,0.1,0.35,0.37,0.35
		C24.41,37.77,25.36,37.78,26.31,37.78z"/>
	<path class="st1" d="M40.56,60.7c0,1.11,0,2.23,0,3.34c0,0.71-0.02,1.42,0.01,2.12c0.01,0.31-0.09,0.4-0.39,0.38
		c-0.48-0.02-0.95-0.02-1.43,0c-0.23,0.01-0.35-0.03-0.35-0.31c0.01-3.01,0.01-6.02,0-9.03c0-0.26,0.07-0.34,0.33-0.34
		c0.72,0.02,1.45,0.02,2.17,0c0.31-0.01,0.46,0.1,0.59,0.38c0.67,1.48,1.37,2.95,2.06,4.42c0.07,0.15,0.14,0.29,0.22,0.45
		c0.17-0.12,0.2-0.31,0.28-0.46c0.69-1.45,1.39-2.9,2.05-4.37c0.15-0.33,0.33-0.43,0.67-0.41c0.69,0.02,1.38,0.02,2.07,0
		c0.28-0.01,0.36,0.08,0.36,0.36c-0.01,2.99-0.01,5.99,0,8.98c0,0.25-0.06,0.35-0.33,0.34c-0.48-0.02-0.96-0.03-1.43,0
		c-0.33,0.02-0.41-0.09-0.41-0.41c0.01-1.63,0.01-3.26,0-4.89c0-0.17,0.05-0.35-0.08-0.57c-0.09,0.17-0.17,0.31-0.24,0.45
		c-0.7,1.41-1.41,2.82-2.09,4.24c-0.14,0.3-0.32,0.35-0.63,0.4c-0.67,0.09-0.98-0.2-1.24-0.78c-0.66-1.45-1.39-2.86-2.09-4.29
		C40.63,60.69,40.6,60.69,40.56,60.7z"/>
	<path class="st0" d="M50.32,43.28c-1.15,0-2.3,0-3.46,0c-0.73,0-0.73,0-0.73-0.75c0-0.26,0.04-0.53-0.01-0.79
		c-0.08-0.47,0.16-0.54,0.55-0.54c2.27,0.01,4.54,0.01,6.81,0c0.62,0,0.84-0.24,0.77-0.79c-0.04-0.34-0.19-0.55-0.56-0.56
		c-0.66-0.01-1.32-0.03-1.97-0.01c-1.25,0.03-2.5,0.04-3.75-0.05c-1.39-0.09-2.36-1.28-2.35-2.8c0.01-1.39,1.11-2.66,2.45-2.68
		c2.48-0.04,4.97-0.01,7.45-0.02c0.32,0,0.43,0.12,0.4,0.44c-0.05,0.55,0.23,1.3-0.11,1.61c-0.29,0.27-1.03,0.08-1.57,0.08
		c-1.91,0-3.82,0-5.73,0c-0.57,0-0.74,0.15-0.76,0.61c-0.02,0.52,0.13,0.69,0.65,0.69c1.74,0,3.49-0.01,5.23,0.01
		c1.24,0.01,2.13,0.59,2.49,1.66c0.39,1.15,0.3,2.24-0.59,3.16c-0.45,0.46-1.01,0.72-1.67,0.71c-1.18-0.01-2.37,0-3.55,0
		C50.32,43.26,50.32,43.27,50.32,43.28z"/>
	<path class="st0" d="M87.37,43.28c-1.17,0-2.34,0-3.51,0c-0.72,0-0.73-0.01-0.72-0.71c0-0.15,0-0.3,0.01-0.44
		c0-0.91,0-0.92,0.95-0.92c2.14,0,4.28,0,6.42,0c0.61,0,0.8-0.2,0.77-0.75c-0.03-0.48-0.19-0.63-0.74-0.63c-1.74,0-3.49,0-5.23,0
		c-1.31,0-2.34-0.85-2.55-2.09c-0.26-1.55,0.44-2.89,1.73-3.32c0.29-0.1,0.58-0.12,0.87-0.12c2.32,0,4.64,0.01,6.96-0.01
		c0.45,0,0.66,0.09,0.6,0.59c-0.04,0.34-0.04,0.69,0,1.03c0.05,0.41-0.13,0.5-0.5,0.5c-2.29-0.01-4.58-0.01-6.86-0.01
		c-0.39,0-0.73,0.04-0.75,0.56c-0.02,0.56,0.15,0.75,0.71,0.75c1.65,0,3.29,0,4.94,0c1.13,0,2.08,0.32,2.6,1.42
		c0.54,1.12,0.44,2.2-0.28,3.21c-0.45,0.63-1.08,0.94-1.86,0.94C89.74,43.28,88.55,43.28,87.37,43.28z"/>
	<path class="st0" d="M99.23,43.28c-1.25,0-2.5-0.01-3.75,0.01c-0.38,0.01-0.54-0.11-0.49-0.5c0.03-0.26,0.01-0.53,0.01-0.79
		c0-0.77,0-0.78,0.77-0.79c2.16-0.01,4.31,0,6.47-0.01c0.63,0,0.85-0.19,0.86-0.69c0.01-0.52-0.21-0.72-0.82-0.72
		c-1.61,0-3.23,0-4.84,0c-0.33,0-0.66,0.03-0.98-0.05c-1.67-0.39-2.49-2.48-1.62-4.11c0.47-0.87,1.19-1.34,2.19-1.34
		c2.4,0,4.81,0.01,7.21-0.01c0.38,0,0.52,0.12,0.49,0.51c-0.04,0.39-0.03,0.79,0,1.18c0.03,0.36-0.1,0.43-0.44,0.43
		c-2.29-0.01-4.58-0.01-6.86-0.01c-0.34,0-0.67,0.02-0.8,0.42c-0.17,0.52,0.11,0.89,0.69,0.9c1.63,0.01,3.26-0.01,4.89,0.01
		c1.52,0.01,2.6,0.8,2.94,2.08c0.36,1.41-0.5,3.09-1.75,3.39c-0.53,0.13-1.08,0.06-1.62,0.07c-0.84,0.01-1.68,0-2.52,0
		C99.23,43.27,99.23,43.27,99.23,43.28z"/>
	<path class="st0" d="M76.6,34.32c1.43,0,2.86,0.01,4.3-0.01c0.32,0,0.43,0.08,0.4,0.41c-0.03,0.43-0.03,0.86,0,1.28
		c0.03,0.34-0.11,0.4-0.42,0.4c-2.17-0.01-4.34,0-6.52-0.02c-0.38,0-0.46,0.11-0.45,0.47c0.02,0.84,0,0.84,0.85,0.84
		c1.88,0,3.75,0.01,5.63-0.01c0.39,0,0.48,0.11,0.45,0.47c-0.03,0.41-0.03,0.82,0,1.23c0.02,0.34-0.08,0.45-0.43,0.44
		c-1.97-0.02-3.95,0-5.92-0.02c-0.44-0.01-0.6,0.09-0.57,0.56c0.04,0.8,0.01,0.8,0.8,0.8c2.04,0,4.08,0.01,6.12-0.01
		c0.42,0,0.55,0.12,0.5,0.52c-0.04,0.31-0.03,0.62-0.02,0.94c0.01,0.48-0.25,0.62-0.68,0.63c-0.77,0-1.55,0.03-2.32,0.03
		c-1.99,0-3.98-0.01-5.97,0.01c-0.35,0-0.48-0.05-0.48-0.45c0.02-2.7,0.02-5.4,0-8.1c0-0.35,0.1-0.43,0.44-0.43
		C73.73,34.34,75.17,34.32,76.6,34.32z"/>
	<path class="st1" d="M75.94,66.53c-0.85,0-1.6-0.01-2.36,0.01c-0.23,0.01-0.35-0.1-0.47-0.27c-0.52-0.76-1.07-1.5-1.56-2.28
		c-0.26-0.41-0.54-0.57-1.03-0.55c-0.86,0.05-0.86,0.01-0.86,0.85c0,0.63-0.01,1.25,0.01,1.88c0.01,0.27-0.06,0.38-0.35,0.36
		c-0.46-0.02-0.92-0.03-1.38,0c-0.36,0.03-0.43-0.11-0.43-0.44c0.01-2.93,0.01-5.86,0.01-8.79c0-0.08,0-0.16,0-0.25
		c0-0.14,0.07-0.21,0.21-0.2c1.69,0.04,3.39-0.13,5.08,0.14c2.02,0.32,2.7,1.63,2.51,3.66c-0.1,1.03-0.56,1.85-1.55,2.3
		c-0.29,0.13-0.16,0.25-0.05,0.4c0.64,0.9,1.27,1.8,1.91,2.7C75.71,66.19,75.79,66.32,75.94,66.53z M69.65,60.13
		c0,0.39,0,0.79,0,1.18c0,0.13,0,0.28,0.19,0.27c0.83-0.03,1.68,0.11,2.49-0.16c0.57-0.19,0.84-0.68,0.81-1.42
		c-0.04-0.72-0.29-1.04-0.94-1.19c-0.65-0.15-1.31-0.04-1.96-0.1c-0.46-0.04-0.67,0.07-0.6,0.57
		C69.68,59.57,69.65,59.85,69.65,60.13z"/>
	<path class="st0" d="M68.32,40.27c0-1.89,0.02-3.65-0.01-5.4c-0.01-0.43,0.09-0.58,0.53-0.53c0.36,0.04,0.73,0.04,1.08,0
		c0.42-0.05,0.47,0.13,0.47,0.49c-0.01,2.67-0.01,5.33,0.01,8c0,0.37-0.1,0.43-0.46,0.47c-1.17,0.15-1.96-0.31-2.69-1.22
		c-1.27-1.57-2.66-3.05-4-4.56c-0.06-0.07-0.12-0.13-0.25-0.27c0,1.85-0.02,3.61,0.01,5.36c0.01,0.52-0.13,0.69-0.64,0.62
		c-0.34-0.04-0.69-0.04-1.03,0c-0.37,0.04-0.42-0.11-0.42-0.44c0.01-2.68,0.02-5.36,0-8.05c0-0.36,0.09-0.43,0.45-0.48
		c1.14-0.14,1.93,0.28,2.66,1.17C65.37,37.07,66.83,38.59,68.32,40.27z"/>
	<path class="st0" d="M33.36,37.87c0-1.05,0.01-2.11-0.01-3.16c-0.01-0.3,0.07-0.41,0.38-0.38c0.24,0.03,0.49,0.01,0.74,0.01
		c0.91,0,0.91,0,0.91,0.94c0,1.63,0,3.26,0,4.89c0,0.94,0.11,1.04,1.05,1.04c1.6,0,3.19,0,4.79,0c0.88,0,0.99-0.11,0.99-0.99
		c0.01-1.81,0.01-3.62-0.01-5.43c0-0.37,0.08-0.49,0.46-0.46c0.44,0.04,0.89,0.02,1.33,0.01c0.2,0,0.31,0.05,0.31,0.27
		c0,2.09,0.13,4.18-0.05,6.26c-0.14,1.55-1.11,2.38-2.67,2.41c-1.97,0.04-3.95,0.03-5.92,0c-1.32-0.02-2.28-1.02-2.3-2.34
		c-0.02-1.02,0-2.04,0-3.06C33.37,37.87,33.37,37.87,33.36,37.87z"/>
	<path class="st1" d="M13.55,61.68c0-1.46,0.01-2.93-0.01-4.39c0-0.35,0.1-0.44,0.44-0.44c2.04,0.02,4.08,0.02,6.12,0
		c0.34,0,0.47,0.08,0.44,0.43c-0.03,0.38-0.03,0.76,0,1.13c0.02,0.31-0.1,0.39-0.39,0.38c-1.33-0.01-2.66,0-4-0.01
		c-0.33,0-0.47,0.07-0.45,0.43c0.03,0.39,0.03,0.79,0,1.18c-0.02,0.3,0.07,0.4,0.38,0.39c1.18-0.02,2.37,0,3.55-0.01
		c0.32,0,0.44,0.07,0.41,0.41c-0.04,0.45,0.18,1.05-0.08,1.33c-0.27,0.29-0.87,0.08-1.32,0.09c-0.84,0.01-1.68,0.02-2.52,0
		c-0.31-0.01-0.45,0.06-0.42,0.41c0.03,0.39,0.03,0.79,0,1.18c-0.02,0.34,0.08,0.45,0.43,0.45c1.36-0.02,2.73,0,4.1-0.02
		c0.33,0,0.48,0.06,0.45,0.43c-0.04,0.47,0.15,1.09-0.08,1.38c-0.25,0.31-0.89,0.09-1.37,0.09c-1.74,0.01-3.49-0.01-5.23,0.01
		c-0.38,0-0.46-0.11-0.46-0.47C13.56,64.61,13.55,63.15,13.55,61.68z"/>
	<path class="st1" d="M103.71,66.53c-0.72,0-1.36-0.01-2,0.01c-0.25,0.01-0.34-0.1-0.42-0.31c-0.2-0.5-0.44-0.99-0.64-1.49
		c-0.09-0.22-0.21-0.29-0.44-0.29c-1.13,0.01-2.27,0.01-3.4,0c-0.25,0-0.38,0.07-0.48,0.31c-0.19,0.5-0.42,1-0.64,1.49
		c-0.06,0.15-0.11,0.29-0.33,0.29c-0.67-0.01-1.34,0-2.01,0c-0.04-0.19,0.06-0.31,0.12-0.44c1.27-2.94,2.54-5.87,3.79-8.82
		c0.14-0.33,0.31-0.45,0.66-0.42c0.54,0.05,1.19-0.2,1.58,0.1c0.37,0.28,0.47,0.91,0.68,1.39c1.11,2.57,2.22,5.15,3.34,7.73
		C103.57,66.21,103.63,66.34,103.71,66.53z M98.51,59.75c-0.39,0.9-0.74,1.71-1.1,2.52c-0.09,0.21-0.05,0.3,0.19,0.29
		c0.59-0.01,1.18-0.01,1.78,0c0.28,0.01,0.3-0.09,0.2-0.32C99.22,61.45,98.89,60.65,98.51,59.75z"/>
	<path class="st1" d="M10.38,63.4c0,0.31-0.03,0.63,0.01,0.94c0.08,0.58-0.17,0.94-0.61,1.28c-1.96,1.52-5.24,1.34-6.99-0.42
		c-1.72-1.73-1.89-4.64-0.39-6.6c1.73-2.24,5.19-2.62,7.36-0.81c0.21,0.18,0.24,0.3,0.07,0.51c-0.23,0.3-0.45,0.61-0.64,0.93
		c-0.18,0.3-0.31,0.38-0.65,0.12c-1.25-0.97-2.83-0.95-3.94,0c-1.06,0.91-1.3,2.92-0.49,4.11c0.98,1.45,2.68,1.39,3.88,0.9
		c0.22-0.09,0.23-0.24,0.22-0.43c0-0.64,0.01-1.28-0.01-1.92c-0.01-0.31,0.06-0.44,0.4-0.42c0.48,0.03,0.95,0.02,1.43,0
		c0.29-0.01,0.36,0.09,0.35,0.37C10.36,62.44,10.38,62.92,10.38,63.4z"/>
	<path class="st1" d="M77.97,56.86c0.83,0,1.57,0.01,2.3-0.01c0.25-0.01,0.34,0.13,0.45,0.3c0.45,0.71,0.9,1.41,1.36,2.11
		c0.09,0.13,0.14,0.3,0.33,0.39c0.53-0.82,1.07-1.64,1.59-2.47c0.15-0.24,0.3-0.34,0.59-0.33c0.71,0.02,1.41,0.01,2.12,0.01
		c0.06,0.19-0.08,0.29-0.15,0.4c-0.83,1.29-1.64,2.58-2.5,3.84c-0.23,0.34-0.19,0.55,0.02,0.86c0.9,1.35,1.78,2.72,2.67,4.08
		c0.09,0.13,0.17,0.27,0.3,0.48c-0.87,0-1.66,0-2.46,0c-0.21,0-0.26-0.17-0.35-0.3c-0.61-0.93-1.22-1.87-1.86-2.87
		c-0.5,0.78-1.05,1.49-1.44,2.27c-0.38,0.75-0.89,1.04-1.71,0.92c-0.45-0.07-0.92-0.01-1.38-0.01c-0.06-0.23,0.12-0.34,0.21-0.48
		c0.89-1.36,1.77-2.73,2.68-4.08c0.19-0.28,0.21-0.48,0.02-0.77c-0.85-1.27-1.66-2.56-2.48-3.85C78.18,57.22,78.1,57.08,77.97,56.86
		z"/>
	<path class="st1" d="M106.08,61.69c0-1.46,0.01-2.93-0.01-4.39c0-0.34,0.09-0.45,0.44-0.44c1.56,0.06,3.12-0.11,4.67,0.19
		c1.45,0.28,2.33,1.17,2.52,2.64c0.15,1.18,0.06,2.31-0.87,3.2c-0.65,0.62-1.49,0.82-2.35,0.89c-0.6,0.05-1.22,0.08-1.82,0.06
		c-0.36-0.01-0.44,0.11-0.43,0.45c0.03,0.64,0,1.28,0.01,1.92c0.01,0.26-0.07,0.34-0.33,0.33c-0.48-0.02-0.95-0.03-1.43,0
		c-0.33,0.02-0.41-0.09-0.41-0.41C106.09,64.65,106.08,63.17,106.08,61.69z M108.24,60.32c0,0.46,0,0.92,0,1.38
		c0,0.17,0.02,0.29,0.24,0.28c0.67-0.02,1.35,0.05,2.02-0.09c0.47-0.1,0.82-0.37,0.94-0.85c0.38-1.52-0.17-2.16-1.45-2.29
		c-0.16-0.02-0.33-0.01-0.49-0.02c-1.24-0.02-1.24-0.02-1.24,1.24C108.24,60.09,108.24,60.2,108.24,60.32z"/>
	<path class="st1" d="M116.68,61.71c0-1.48,0-2.96,0-4.44c0-0.18-0.09-0.42,0.25-0.41c1.62,0.05,3.25-0.13,4.87,0.18
		c1.49,0.29,2.43,1.34,2.52,2.86c0.06,1.07-0.01,2.11-0.84,2.93c-0.67,0.66-1.53,0.87-2.42,0.95c-0.62,0.05-1.25,0.07-1.87,0.06
		c-0.28,0-0.37,0.09-0.36,0.37c0.02,0.66-0.01,1.31,0.01,1.97c0.01,0.28-0.07,0.37-0.36,0.36c-0.48-0.02-0.95-0.03-1.43,0
		c-0.32,0.02-0.38-0.11-0.37-0.4C116.69,64.67,116.68,63.19,116.68,61.71z M118.83,60.31c0,0.46,0.01,0.92,0,1.38
		c0,0.21,0.07,0.3,0.29,0.29c0.62-0.03,1.25,0.05,1.87-0.08c0.76-0.15,1.13-0.63,1.16-1.53c0.03-0.85-0.32-1.34-1.08-1.53
		c-0.65-0.16-1.31-0.08-1.97-0.11c-0.24-0.01-0.27,0.11-0.27,0.3C118.84,59.46,118.83,59.88,118.83,60.31z"/>
	<path class="st1" d="M55.89,60.46c0.55-0.95,1.12-1.8,1.56-2.71c0.34-0.71,0.77-1.01,1.55-0.9c0.4,0.06,0.81,0.01,1.22,0.01
		c0.05,0.24-0.11,0.37-0.19,0.52c-0.93,1.64-1.87,3.28-2.82,4.91c-0.16,0.28-0.24,0.55-0.24,0.88c0.02,1,0,2.01,0.01,3.01
		c0,0.29-0.08,0.37-0.36,0.35c-0.48-0.02-0.95-0.02-1.43,0c-0.3,0.01-0.4-0.06-0.39-0.38c0.02-1.02,0-2.04,0.01-3.06
		c0-0.27-0.06-0.51-0.2-0.74c-0.98-1.69-1.94-3.39-2.92-5.08c-0.19-0.32-0.19-0.45,0.23-0.42c0.49,0.03,0.99,0.03,1.48,0
		c0.31-0.02,0.47,0.11,0.61,0.36C54.62,58.28,55.23,59.32,55.89,60.46z"/>
	<path class="st1" d="M27.93,62.62c0,1.18-0.01,2.37,0.01,3.55c0.01,0.33-0.12,0.38-0.4,0.37c-0.46-0.02-0.92-0.03-1.38,0
		c-0.35,0.03-0.39-0.12-0.39-0.42c0.01-2.3,0-4.6,0.01-6.91c0-0.38-0.09-0.51-0.48-0.49c-0.64,0.03-1.28,0-1.92,0.02
		c-0.28,0.01-0.37-0.08-0.36-0.36c0.02-0.41,0.01-0.82,0-1.23c-0.01-0.21,0.07-0.29,0.28-0.29c2.35,0.01,4.7,0.01,7.06,0
		c0.25,0,0.31,0.09,0.31,0.32c-0.01,0.41-0.02,0.82,0,1.23c0.01,0.26-0.08,0.34-0.34,0.33c-0.67-0.02-1.35,0.01-2.02-0.01
		c-0.31-0.01-0.38,0.09-0.38,0.39C27.94,60.28,27.93,61.45,27.93,62.62z"/>
	<path class="st0" d="M59.53,38.82c0,1.35-0.01,2.7,0.01,4.05c0.01,0.35-0.05,0.51-0.45,0.47c-0.41-0.04-0.82-0.04-1.23,0
		c-0.37,0.03-0.42-0.12-0.42-0.44c0.01-2.75,0.02-5.49,0-8.24c0-0.36,0.11-0.44,0.44-0.42c0.43,0.03,0.86,0.03,1.28,0
		c0.32-0.02,0.38,0.1,0.37,0.39C59.53,36.02,59.53,37.42,59.53,38.82z"/>
</g>
</svg>
