<svg xmlns="http://www.w3.org/2000/svg" xmlns:xlink="http://www.w3.org/1999/xlink" width="70.778" height="71.235" viewBox="0 0 70.778 71.235">
  <defs>
    <filter id="Screen_Shot_2018-02-23_at_2.43.18_PM" x="0" y="0" width="70.778" height="71.235" filterUnits="userSpaceOnUse">
      <feOffset dy="3" input="SourceAlpha"/>
      <feGaussianBlur stdDeviation="3" result="blur"/>
      <feFlood flood-opacity="0.302"/>
      <feComposite operator="in" in2="blur"/>
      <feComposite in="SourceGraphic"/>
    </filter>
  </defs>
  <g id="Group_219" data-name="Group 219" transform="translate(-825.232 -2050)">
    <g transform="matrix(1, 0, 0, 1, 825.23, 2050)" filter="url(#Screen_Shot_2018-02-23_at_2.43.18_PM)">
      <path id="Screen_Shot_2018-02-23_at_2.43.18_PM-2" data-name="Screen Shot 2018-02-23 at 2.43.18 PM" d="M0,0H52.778V53.235H0Z" transform="translate(9 6)" fill="#ffcb00"/>
    </g>
    <g id="Group_218" data-name="Group 218" transform="translate(592.094 1829.672)">
      <path id="Path_802" data-name="Path 802" d="M249.9,402.8c-.261-.052-.5-.1-.737-.146-.5-.1-.989-.207-1.486-.3-.127-.024-.154-.079-.154-.2q0-2.465,0-4.93c0-1.413,0-2.826,0-4.239,0-.147.041-.2.188-.226.675-.122,1.348-.259,2.022-.39.047-.009.1-.015.164-.026v1.025a3.51,3.51,0,0,1,5.467.138.248.248,0,0,0,.044-.033,3.649,3.649,0,0,1,2.235-1.255,3.906,3.906,0,0,1,2.466.31,3.326,3.326,0,0,1,1.817,2.316,5.978,5.978,0,0,1,.171,1.336c.017,2.139.008,4.278.008,6.417v.2c-.135-.024-.249-.042-.361-.065-.62-.126-1.239-.257-1.86-.375-.131-.025-.163-.079-.163-.2,0-1.933,0-3.866,0-5.8A1.775,1.775,0,0,0,259.2,395a1.993,1.993,0,0,0-3,.426,1.844,1.844,0,0,0-.195.865q0,3.142,0,6.285v.227c-.138-.025-.257-.043-.374-.067-.615-.125-1.229-.255-1.846-.373-.137-.026-.169-.082-.169-.213q.006-2.929,0-5.858a1.687,1.687,0,0,0-1.577-1.766,2.272,2.272,0,0,0-.989.095,1.662,1.662,0,0,0-1.162,1.631q0,3.172,0,6.343Z" transform="translate(0 -144.511)"/>
      <path id="Path_803" data-name="Path 803" d="M1333.725,397.085a5.639,5.639,0,0,1,.931-3.243,4.9,4.9,0,0,1,3.281-2.071,6.194,6.194,0,0,1,2.911.11,4.561,4.561,0,0,1,3.135,2.83,6.3,6.3,0,0,1-.1,5.006,4.6,4.6,0,0,1-3.5,2.719,6.071,6.071,0,0,1-3.247-.218,4.805,4.805,0,0,1-3.225-3.619c-.118-.492-.149-1-.22-1.508Zm2.428.014c.016.2.021.392.048.585a3.014,3.014,0,0,0,.987,1.933,2.878,2.878,0,0,0,1.936.7,2.528,2.528,0,0,0,2.479-1.473,3.976,3.976,0,0,0,.084-3.323,2.488,2.488,0,0,0-1.531-1.473,2.942,2.942,0,0,0-1.262-.145,2.762,2.762,0,0,0-2.326,1.456A3.541,3.541,0,0,0,1336.154,397.1Z" transform="translate(-1054.191 -144.038)"/>
      <path id="Path_804" data-name="Path 804" d="M1081.778,401.885l-.765-.153c-.495-.1-.989-.2-1.485-.3-.1-.019-.124-.063-.124-.157,0-1.937-.007-3.874,0-5.811a3.65,3.65,0,0,1,.759-2.361,4.1,4.1,0,0,1,1.758-1.189,11.3,11.3,0,0,1,2.617-.653c.159-.022.317-.048.492-.075,0,.063.01.11.01.157,0,.716,0,1.432,0,2.148,0,.128-.038.177-.166.2-.539.1-1.085.179-1.613.323a1.875,1.875,0,0,0-1.491,1.991q0,2.832,0,5.664Z" transform="translate(-807.397 -143.589)"/>
      <path id="Path_805" data-name="Path 805" d="M873.114,399.682v10.442c-.114-.022-.218-.04-.321-.061-.634-.128-1.267-.26-1.9-.383-.112-.022-.139-.069-.139-.175q0-4.619,0-9.238c0-.1.03-.147.132-.166.7-.132,1.4-.27,2.093-.4C873.019,399.688,873.061,399.687,873.114,399.682Z" transform="translate(-604.887 -151.834)"/>
      <path id="Path_806" data-name="Path 806" d="M864.92,244.779a1.391,1.391,0,0,1-.866,1.362,1.47,1.47,0,0,1-2.066-1.413,1.335,1.335,0,0,1,.8-1.324,1.5,1.5,0,0,1,1.668.207A1.456,1.456,0,0,1,864.92,244.779Z" transform="translate(-596.381 0)"/>
    </g>
  </g>
</svg>
