<svg id="Group_175" data-name="Group 175" xmlns="http://www.w3.org/2000/svg" viewBox="1510 981.041 192 70.959">
  <defs>
    <style>
      .cls-1 {
        fill: #fff;
      }

      .cls-2 {
        fill: #7ea0ff;
        font-size: 14px;
        font-family: Montserrat-Bold, Montserrat;
        font-weight: 700;
        letter-spacing: 0.09em;
      }
    </style>
  </defs>
  <g id="Group_123" data-name="Group 123" transform="translate(1527.794 981.141)">
    <path id="Path_404" data-name="Path 404" class="cls-1" d="M25.917-.091c.786.113,1.58.183,2.339.358,1.135.262,2.252.585,3.361.934a17.261,17.261,0,0,1,2.147.821,21.95,21.95,0,0,1,2.7,1.405c1.056.681,2.051,1.466,3.038,2.243a20.991,20.991,0,0,1,3.579,3.78A22.983,22.983,0,0,1,45.609,13.6a31.57,31.57,0,0,1,1.161,3.064,13.825,13.825,0,0,1,.8,3.457c.061.628.175,1.257.236,1.885a18.3,18.3,0,0,1,.122,2.3,23.352,23.352,0,0,1-.236,3.029,25.707,25.707,0,0,1-.786,3.526,25.763,25.763,0,0,1-2.2,5.063,23.976,23.976,0,0,1-3.823,5.028,22.089,22.089,0,0,1-4.556,3.561,21.217,21.217,0,0,1-4.46,2.095c-.908.279-1.824.559-2.75.786-.89.218-1.8.349-2.7.524H21.1a7.632,7.632,0,0,1-.759-.122c-.986-.218-1.99-.419-2.968-.681a18.318,18.318,0,0,1-2.715-.9c-1.274-.585-2.505-1.266-3.718-1.964a20.208,20.208,0,0,1-3.98-3.125,22.144,22.144,0,0,1-3.622-4.539,31.847,31.847,0,0,1-1.693-3.361,17.862,17.862,0,0,1-.821-2.322C.559,30.05.332,29.177.149,28.3-.008,27.536-.087,26.768-.2,26V21.81c.087-.524.175-1.039.262-1.562.122-.707.236-1.423.367-2.13a5.831,5.831,0,0,1,.279-1c.393-1.065.768-2.139,1.222-3.177a18.057,18.057,0,0,1,1.423-2.7A32.03,32.03,0,0,1,5.867,7.939,25.242,25.242,0,0,1,8.642,5.251,24.052,24.052,0,0,1,11.61,3.182a23.442,23.442,0,0,1,2.854-1.414A20.567,20.567,0,0,1,16.83.93C17.7.668,18.593.441,19.484.249,20.217.092,20.959.014,21.7-.1,23.124-.091,24.52-.091,25.917-.091ZM10.336,32.127c.655-1.135,1.248-2.191,1.851-3.238.48-.829.96-1.641,1.44-2.47.55-.951,1.1-1.9,1.65-2.863.48-.847.943-1.7,1.423-2.54.655-1.143,1.336-2.278,2-3.422.646-1.126,1.274-2.27,1.92-3.4s1.327-2.252,1.99-3.378c.768-1.318,1.528-2.636,2.3-3.945.262-.445.5-.838.087-1.37a22.214,22.214,0,0,1-1.213-1.929Q14.849,19.221,5.971,34.781c.122.026.131.035.148.035q11.522,0,23.035,0a.49.49,0,0,0,.34-.218c.271-.445.506-.9.759-1.353.192-.34.375-.69.611-1.109C23.979,32.127,17.2,32.127,10.336,32.127Zm7.978-7.079h.628c4.5,0,8.991.009,13.486-.009a.664.664,0,0,1,.646.358l2.645,4.478c.9,1.536,1.789,3.073,2.7,4.6a.644.644,0,0,0,.428.323c.9.026,1.8.017,2.741.017a2.289,2.289,0,0,0-.131-.393c-.471-.829-.951-1.658-1.432-2.488-.567-.986-1.126-1.973-1.685-2.968-.48-.847-.951-1.693-1.432-2.531q-.969-1.689-1.938-3.387c-.489-.855-.978-1.72-1.466-2.575l-1.676-2.933c-.5-.873-.986-1.737-1.484-2.61-.55-.969-1.109-1.929-1.65-2.9-.48-.847-.934-1.7-1.414-2.549-.044-.07-.157-.157-.227-.148s-.14.113-.183.192c-.332.611-.655,1.222-.986,1.824a.854.854,0,0,0-.061,1,4.833,4.833,0,0,1,.288.559c.934,1.667,1.868,3.343,2.811,5.01.585,1.03,1.178,2.06,1.755,3.1.218.384.4.786.628,1.239h-.5c-3.509,0-7.009.009-10.518-.009a.768.768,0,0,0-.8.541c-.113.253-.271.489-.4.742C18.855,24.009,18.611,24.481,18.314,25.048Z"/>
    <path id="Path_405" data-name="Path 405" class="cls-1" d="M1504.458,307.534l-1.178,3.4c-.166.463-.306.943-.5,1.4a.483.483,0,0,1-.358.253c-.55.026-1.108.026-1.658,0a.466.466,0,0,1-.349-.218c-.986-2.942-1.964-5.9-2.942-8.851-.009-.026.009-.052.017-.122.8,0,1.624-.009,2.435.017.1,0,.253.2.3.332.489,1.571.951,3.142,1.466,4.827.087-.218.148-.332.192-.454.48-1.449.96-2.9,1.423-4.347a.487.487,0,0,1,.585-.41c.48.026.96.017,1.44,0a.373.373,0,0,1,.428.314c.471,1.466.969,2.924,1.458,4.382a1.023,1.023,0,0,0,.227.41c.506-1.685,1.021-3.361,1.528-5.054h2.636c-.323.978-.637,1.929-.951,2.872-.655,1.973-1.309,3.937-1.955,5.918-.1.3-.227.419-.55.393a10.648,10.648,0,0,0-1.4,0c-.349.026-.471-.122-.576-.428-.524-1.554-1.074-3.1-1.615-4.644C1504.528,307.526,1504.493,307.534,1504.458,307.534Z" transform="translate(-1366.943 -276.97)"/>
    <path id="Path_406" data-name="Path 406" class="cls-1" d="M1108.8,130.076v4.906h-2.5v-9.1c.751,0,1.484-.009,2.217.009.122,0,.262.157.349.279q1.571,2,3.134,4.024c.087.113.183.218.341.419v-4.7h2.514v9.1c-.69,0-1.388.017-2.078-.017-.131-.009-.279-.192-.375-.323q-1.61-2.056-3.212-4.129C1109.084,130.407,1108.971,130.285,1108.8,130.076Z" transform="translate(-1009.915 -114.979)"/>
    <path id="Path_407" data-name="Path 407" class="cls-1" d="M988.6,301.8a4.724,4.724,0,0,1,4.9,4.635,4.782,4.782,0,0,1-4.181,4.81,4.927,4.927,0,0,1-5.167-2.54A4.761,4.761,0,0,1,988.6,301.8Zm2.278,4.74a2.365,2.365,0,0,0-2.3-2.453,2.306,2.306,0,0,0-2.3,2.427,2.336,2.336,0,0,0,2.322,2.47A2.312,2.312,0,0,0,990.883,306.54Z" transform="translate(-897.946 -275.547)"/>
    <path id="Path_408" data-name="Path 408" class="cls-1" d="M708.244,133.134a4.74,4.74,0,0,1-3.282-7.952,5.14,5.14,0,0,1,5.464-1.248,4.687,4.687,0,0,1,3.116,4.234C713.7,130.89,711.465,133.134,708.244,133.134Zm-1.929-4.792a2.366,2.366,0,0,0,2.3,2.5,2.322,2.322,0,0,0,2.322-2.418,2.389,2.389,0,0,0-2.339-2.479A2.311,2.311,0,0,0,706.315,128.341Z" transform="translate(-642.428 -112.93)"/>
    <path id="Path_409" data-name="Path 409" class="cls-1" d="M1382.889,301.784a4.778,4.778,0,0,1,4.565,2.915,4.729,4.729,0,0,1-1.074,5.194,4.922,4.922,0,0,1-5.141,1.126,4.39,4.39,0,0,1-3.229-3.841A4.726,4.726,0,0,1,1382.889,301.784Zm2.3,4.74a2.37,2.37,0,0,0-2.357-2.453,2.325,2.325,0,0,0-2.27,2.427,2.364,2.364,0,0,0,2.331,2.47A2.319,2.319,0,0,0,1385.193,306.523Z" transform="translate(-1257.865 -275.531)"/>
    <path id="Path_410" data-name="Path 410" class="cls-1" d="M1269.426,304.1h2.549v9.078h-2.514v-3.4h-3.221v3.4h-2.54V304.1h2.523v3.361h3.195C1269.426,306.343,1269.426,305.235,1269.426,304.1Z" transform="translate(-1153.576 -277.647)"/>
    <path id="Path_411" data-name="Path 411" class="cls-1" d="M1230.272,129.416h-1.755v-1.824h4.19v.855c0,.978.009,1.947-.009,2.924a.658.658,0,0,1-.166.454,5.858,5.858,0,0,1-7.123.131,4.51,4.51,0,0,1-1.493-4.731,4.419,4.419,0,0,1,3.561-3.492,5.387,5.387,0,0,1,4.7,1,1.536,1.536,0,0,1,.131.113.729.729,0,0,1,.061.122c-.463.559-.943,1.135-1.449,1.746-.148-.1-.271-.192-.393-.271a2.9,2.9,0,0,0-2.313-.515,2.447,2.447,0,0,0-1.807,2.758,2.353,2.353,0,0,0,2.261,2.191,4.4,4.4,0,0,0,.48,0C1230.22,130.813,1230.412,130.577,1230.272,129.416Z" transform="translate(-1117.128 -112.879)"/>
    <path id="Path_412" data-name="Path 412" class="cls-1" d="M1549.914,128.339v1.344h4.329v2.008h-4.321v1.423h4.836v2.156H1547.4V126.2h7.3v2.139Z" transform="translate(-1412.512 -115.275)"/>
    <path id="Path_413" data-name="Path 413" class="cls-1" d="M1349.505,128.439v1.336h4.338v2h-4.33V133.2h4.853v2.165H1347V126.3h7.3v2.147C1352.7,128.439,1351.12,128.439,1349.505,128.439Z" transform="translate(-1229.604 -115.367)"/>
    <path id="Path_414" data-name="Path 414" class="cls-1" d="M776.078,304h2.531c.026.044.061.079.061.113-.017,1.9.035,3.806-.07,5.709a3.441,3.441,0,0,1-3.422,3.4,7.974,7.974,0,0,1-2.5-.2,3.169,3.169,0,0,1-2.435-3.011c-.113-1.283-.07-2.584-.087-3.876-.009-.7,0-1.388,0-2.121h2.593v4.74c0,.2,0,.41.017.611a1.659,1.659,0,1,0,3.317-.087c.018-1.589,0-3.169,0-4.757C776.078,304.367,776.078,304.21,776.078,304Z" transform="translate(-703.112 -277.555)"/>
    <path id="Path_415" data-name="Path 415" class="cls-1" d="M974.4,134.192c.288-.69.55-1.318.812-1.938.969-2.3,1.947-4.6,2.915-6.9a.484.484,0,0,1,.541-.367c.594.026,1.2,0,1.789.017a.516.516,0,0,1,.367.2c1.266,2.968,2.523,5.936,3.8,8.956a3.568,3.568,0,0,1-.358.044c-.567,0-1.135-.035-1.7.009a.785.785,0,0,1-.925-.594c-.384-1.056-.41-1.047-1.536-1.047-.681,0-1.37.009-2.051-.009a.4.4,0,0,0-.445.306c-.166.436-.244,1.039-.567,1.231-.367.227-.951.087-1.44.1C975.221,134.2,974.854,134.192,974.4,134.192Zm4.1-3.649h1.981c-.323-.829-.637-1.615-.986-2.505C979.14,128.928,978.834,129.714,978.5,130.543Z" transform="translate(-889.528 -114.163)"/>
    <path id="Path_416" data-name="Path 416" class="cls-1" d="M644.1,312.2c.6-1.414,1.161-2.741,1.72-4.059.681-1.606,1.362-3.212,2.025-4.818.1-.227.2-.34.463-.332.611.017,1.222-.009,1.833.017a.518.518,0,0,1,.384.227q1.872,4.386,3.718,8.79a1.42,1.42,0,0,1,.044.183c-.855,0-1.693.009-2.531-.009-.087,0-.209-.131-.253-.236-.175-.367-.3-.759-.48-1.117a.514.514,0,0,0-.367-.253c-.986-.017-1.981-.017-2.968,0a.524.524,0,0,0-.358.271c-.175.349-.288.733-.454,1.082-.052.1-.192.244-.3.244C645.785,312.213,644.99,312.2,644.1,312.2Zm5.089-6.163c-.349.89-.672,1.693-1,2.523h1.981C649.852,307.726,649.538,306.932,649.189,306.041Z" transform="translate(-588.06 -276.638)"/>
    <path id="Path_417" data-name="Path 417" class="cls-1" d="M1154,309.984c.454-.541.908-1.082,1.336-1.6a11.6,11.6,0,0,0,1.711.8,6.946,6.946,0,0,0,1.711.183.576.576,0,0,0,.62-.506c.052-.358-.2-.541-.489-.628-.541-.175-1.091-.306-1.632-.463-.4-.122-.812-.236-1.2-.393a2.322,2.322,0,0,1-1.632-2.1,2.668,2.668,0,0,1,1.423-2.688,5.7,5.7,0,0,1,5.857.751c-.41.585-.821,1.17-1.161,1.65-.829-.271-1.571-.532-2.331-.751a1.56,1.56,0,0,0-.6.009c-.314.035-.576.175-.611.524-.035.332.192.506.471.6.34.113.7.209,1.039.305a18.4,18.4,0,0,1,1.789.55,2.331,2.331,0,0,1,1.659,2.139,2.7,2.7,0,0,1-1.432,2.68A6.3,6.3,0,0,1,1154,309.984Z" transform="translate(-1053.451 -275.814)"/>
    <path id="Path_418" data-name="Path 418" class="cls-1" d="M827.4,131.686c.48-.576.934-1.117,1.414-1.693a4.746,4.746,0,0,0,2.427,1.056,3.432,3.432,0,0,0,1.117-.07.525.525,0,0,0,.1-1,6.627,6.627,0,0,0-1.109-.375c-.585-.175-1.187-.306-1.754-.524a2.351,2.351,0,0,1-1.755-2.383,2.6,2.6,0,0,1,1.737-2.584,5.827,5.827,0,0,1,5.6.838c-.437.62-.847,1.2-1.2,1.7-.812-.271-1.554-.532-2.313-.742a1.445,1.445,0,0,0-.812.061.646.646,0,0,0-.384.445.7.7,0,0,0,.314.541,7.952,7.952,0,0,0,1.2.384c.637.2,1.292.358,1.9.611a2.274,2.274,0,0,1,1.528,2.226,2.659,2.659,0,0,1-1.51,2.549,5.593,5.593,0,0,1-3.71.314A5.655,5.655,0,0,1,827.4,131.686Z" transform="translate(-755.36 -113.028)"/>
    <path id="Path_419" data-name="Path 419" class="cls-1" d="M1649.564,127.017c-.847-.271-1.589-.541-2.357-.742a1.3,1.3,0,0,0-.768.07.646.646,0,0,0-.393.436.694.694,0,0,0,.305.541,7.991,7.991,0,0,0,1.2.393c.637.2,1.292.349,1.9.611a2.262,2.262,0,0,1,1.527,2.217,2.627,2.627,0,0,1-1.423,2.514,5.657,5.657,0,0,1-4.12.288,5.489,5.489,0,0,1-2.435-1.283c.48-.567.934-1.126,1.414-1.693a4.685,4.685,0,0,0,2.392,1.047,3.7,3.7,0,0,0,1.161-.061.656.656,0,0,0,.41-.471.637.637,0,0,0-.34-.524,13.354,13.354,0,0,0-1.449-.463c-.515-.157-1.039-.288-1.536-.489a2.308,2.308,0,0,1-1.615-1.981,2.714,2.714,0,0,1,1.1-2.6,5.541,5.541,0,0,1,6.163.567C1650.314,125.952,1649.9,126.528,1649.564,127.017Z" transform="translate(-1499.767 -113.395)"/>
    <path id="Path_420" data-name="Path 420" class="cls-1" d="M891.552,306.408h-2.688v6.87h-2.549v-6.852H883.6V304.2h7.952Z" transform="translate(-806.654 -277.738)"/>
    <path id="Path_421" data-name="Path 421" class="cls-1" d="M617.4,126h2.54v.524c0,1.947.009,3.9-.009,5.848,0,.384.079.532.5.524,1.135-.035,2.269-.009,3.4-.009h.489V135.1H617.4Z" transform="translate(-563.69 -115.093)"/>
    <path id="Path_422" data-name="Path 422" class="cls-1" d="M1453.7,126.2v6.861h4.4v2.208h-6.9V126.2Z" transform="translate(-1324.709 -115.275)"/>
  </g>
  <text id="AUDI_R25_CONCEPT_08_" data-name="AUDI R25 CONCEPT 08’" class="cls-2" transform="translate(1606 1048)"><tspan x="-95.249" y="0">AUDI R25 CONCEPT 08’</tspan></text>
</svg>
