<svg id="Group_171" data-name="Group 171" xmlns="http://www.w3.org/2000/svg" viewBox="361 982.26 169.1 68.74">
  <defs>
    <style>
      .cls-1 {
        fill: #7ea0ff;
        font-size: 12px;
        font-family: Montserrat-Bold, Montserrat;
        font-weight: 700;
        letter-spacing: 0.09em;
      }

      .cls-2 {
        fill: #fff;
      }
    </style>
  </defs>
  <text id="VOLVO_ANTS_PROJECT" data-name="VOLVO ANTS PROJECT" class="cls-1" transform="translate(446 1048)"><tspan x="-78.696" y="0">VOLVO ANTS PROJECT</tspan></text>
  <g id="Group_45" data-name="Group 45" transform="translate(361 982.36)">
    <path id="Path_354" data-name="Path 354" class="cls-2" d="M1220.533,16.809V33.263c0,.411,0,.411-.4.411H1187.2c-.4,0-.4,0-.4-.411V.3c0-.394,0-.4.382-.4h32.964c.382,0,.382,0,.382.4Q1220.536,8.563,1220.533,16.809Zm-26.359,11.668h4.471c.428,0,.428,0,.428-.433v-8.3c0-.194-.011-.348.274-.342,2.487.029,4.979.034,7.465.063a1.609,1.609,0,0,1,1.734,1.5c.1.776.12,1.568.177,2.35.114,1.614.234,3.228.342,4.848.017.234.108.319.354.319,1.369-.011,2.737-.006,4.106-.006.091,0,.182-.011.285-.017a1.564,1.564,0,0,0,0-.165c-.063-.8-.143-1.6-.188-2.407-.057-1.049-.074-2.1-.131-3.154-.034-.673-.08-1.346-.171-2.007a3.038,3.038,0,0,0-2.412-2.794c-.325-.08-.65-.171-1.044-.274.24-.051.411-.091.582-.131a3.465,3.465,0,0,0,2.834-2.5,10.485,10.485,0,0,0,.371-2.264c.051-.947-.006-1.9-.04-2.846a6.8,6.8,0,0,0-.462-2.3,3.481,3.481,0,0,0-2.572-2.315,8.56,8.56,0,0,0-1.745-.188c-4.762-.017-9.524-.006-14.28-.006-.371,0-.376,0-.376.371v23Z" transform="translate(-1119.117)"/>
    <path id="Path_355" data-name="Path 355" class="cls-2" d="M0,16.915V.4C0,0,0,0,.4,0H33.368c.4,0,.4,0,.4.4V33.368c0,.4,0,.4-.4.4H.4c-.4,0-.4,0-.4-.4Zm2.355-11.7c.017.108.017.177.034.24Q3.57,11.2,4.762,16.949c.73,3.524,1.471,7.049,2.2,10.573a1.23,1.23,0,0,0,1.414,1.163h3.536a1.28,1.28,0,0,0,1.488-1.2c.143-.639.274-1.277.411-1.916l2.669-12.336c.131-.61.262-1.215.4-1.876a.732.732,0,0,1,.057.125q.334,1.514.656,3.028.864,3.986,1.734,7.973c.376,1.739.747,3.485,1.146,5.218a1.13,1.13,0,0,0,1.243.981c1.266.011,2.526.011,3.793,0a1.153,1.153,0,0,0,1.283-1.044q.975-4.671,1.939-9.353Q29.947,12.4,31.156,6.513c.086-.422.165-.844.257-1.3-.154-.006-.268-.017-.382-.017-1.266,0-2.526.006-3.793-.006-.274-.006-.382.08-.428.342-.3,1.814-.616,3.621-.924,5.435s-.622,3.639-.93,5.463Q24.486,19.2,24,21.974c-.091.542-.194,1.084-.285,1.631-.428-1.774-.816-3.536-1.2-5.3Q21.229,12.33,19.938,6.353a1.331,1.331,0,0,0-1.523-1.215H15.621a1.317,1.317,0,0,0-1.477,1.169c-.114.462-.2.924-.3,1.386l-3.3,15.193c-.051.24-.114.473-.171.713-.137-.57-.24-1.129-.336-1.688Q9.339,17.8,8.64,13.7c-.468-2.737-.947-5.469-1.4-8.207-.04-.245-.131-.308-.365-.308C5.463,5.2,4.061,5.2,2.652,5.2,2.572,5.2,2.481,5.207,2.355,5.213Z" transform="translate(0 -0.094)"/>
    <path id="Path_356" data-name="Path 356" class="cls-2" d="M2373,16.915V.4c0-.4,0-.4.405-.4h32.963c.4,0,.4,0,.4.4V33.368c0,.4,0,.4-.405.4H2373.4c-.4,0-.4,0-.4-.4Zm7.374-.04V28.167c0,.411,0,.411.405.411,3.924,0,7.847.011,11.777-.011a16.667,16.667,0,0,0,2.715-.234,5.825,5.825,0,0,0,4.939-4.414,21.818,21.818,0,0,0,.713-5.851c.023-1.637-.074-3.279-.148-4.916a14.056,14.056,0,0,0-.622-3.462,5.694,5.694,0,0,0-3.485-3.844,10.5,10.5,0,0,0-3.77-.633c-4.055-.023-8.115-.011-12.176-.011-.046,0-.108-.017-.143.006-.074.051-.165.108-.194.188a.921.921,0,0,0-.011.308Z" transform="translate(-2237.667 -0.094)"/>
    <path id="Path_357" data-name="Path 357" class="cls-2" d="M1892.025,95.827h-2.737c-.382,0-.382,0-.382-.394,0-1.044.006-2.093-.006-3.137,0-.222.063-.3.291-.3q9.607.009,19.219,0c.217,0,.3.057.3.291q-.008,3.422,0,6.844c0,.222-.063.3-.291.3-1.181-.011-2.355-.011-3.536,0-.251,0-.3-.1-.3-.319.011-.987-.006-1.979.011-2.966.006-.251-.08-.319-.325-.319q-3.747.009-7.5,0c-.228,0-.319.063-.319.3.006,1.671.006,3.348,0,5.019,0,.251.091.325.337.325,1.922-.006,3.838,0,5.76-.011.279,0,.354.086.348.359-.017,1-.011,2,0,2.994.006.257-.08.319-.325.319-1.911-.011-3.821-.006-5.732-.006-.376,0-.376,0-.376.382v5.617c0,.371.006.382.388.382h7.585c.394,0,.394,0,.394-.4,0-1.129.006-2.264-.006-3.393,0-.251.074-.325.325-.319,1.158.011,2.321.011,3.479,0,.251,0,.325.074.319.325q-.009,3.619,0,7.243c0,.251-.074.319-.325.319q-9.692-.009-19.39,0c-.251,0-.325-.08-.319-.325.011-1.044.011-2.093,0-3.137-.006-.257.08-.325.325-.319.838.011,1.671,0,2.509.011.228,0,.314-.057.314-.3q-.009-7.554-.006-15.113C1892.042,96.015,1892.031,95.941,1892.025,95.827Z" transform="translate(-1781.176 -86.848)"/>
    <path id="Path_358" data-name="Path 358" class="cls-2" d="M756.725,115.18c-2.555,0-5.11-.006-7.671.006-.268,0-.359-.068-.359-.348q.026-1.54,0-3.08c-.006-.268.068-.359.348-.354,1.682.011,3.365.006,5.047.006.376,0,.382,0,.382-.376q0-7.468.006-14.936c0-.279-.057-.371-.359-.371-1.694.017-3.382.006-5.076.011-.251,0-.354-.051-.348-.331.017-1.066.011-2.127,0-3.194,0-.228.063-.314.308-.314q7.725.009,15.449,0c.222,0,.3.063.3.291q-.017,1.625,0,3.251c0,.228-.074.291-.3.291q-2.566-.009-5.133-.006c-.382,0-.388,0-.388.371q0,7.468-.006,14.936c0,.285.086.376.376.371,1.7-.011,3.4,0,5.1-.011.257,0,.348.063.342.331q-.026,1.54,0,3.08c.006.285-.063.376-.359.371Q760.557,115.174,756.725,115.18Z" transform="translate(-705.997 -86.753)"/>
    <path id="Path_359" data-name="Path 359" class="cls-2" d="M1406.289,161.99h3.678a3.444,3.444,0,0,1,.485.017c.707.08.992.308,1.175,1.106a8.408,8.408,0,0,1,.148,2.829,11.076,11.076,0,0,1-.194,1.374,1.242,1.242,0,0,1-1.392,1.072c-2.629.011-5.264.006-7.893.017-.217,0-.3-.057-.3-.291.006-1.945.006-3.9,0-5.84,0-.24.1-.279.308-.279Q1404.292,161.987,1406.289,161.99Z" transform="translate(-1322.044 -152.845)"/>
    <path id="Path_360" data-name="Path 360" class="cls-2" d="M2587.906,169.55c0-2.429.006-4.865-.006-7.294,0-.262.057-.365.342-.359,2.367.011,4.734,0,7.095.017a3.736,3.736,0,0,1,1.785.4,2.69,2.69,0,0,1,1.323,2.116,16.861,16.861,0,0,1,.234,2.2c.046,1.7.08,3.4.052,5.1a13.389,13.389,0,0,1-.376,3.325,2.551,2.551,0,0,1-2.475,2.093c-.365.034-.736.063-1.106.063q-3.234.009-6.473,0c-.4,0-.4,0-.4-.411Q2587.908,173.171,2587.906,169.55Z" transform="translate(-2440.312 -152.757)"/>
  </g>
</svg>
