<svg xmlns="http://www.w3.org/2000/svg" viewBox="200.312 6005.728 164.42 49.373">
  <defs>
    <style>
      .cls-1 {
        fill: #fff;
      }
    </style>
  </defs>
  <g id="Group_142" data-name="Group 142" transform="translate(200.387 6005.703)">
    <g id="Group_140" data-name="Group 140" transform="translate(-0.075 0.025)">
      <path id="Path_448" data-name="Path 448" class="cls-1" d="M.195,37.363a6.655,6.655,0,0,1-.257-1.268q-.026-11.311,0-22.621a2.626,2.626,0,0,1,1.44-2.451Q10.94,5.727,20.485.449a3.048,3.048,0,0,1,3.1,0q9.485,5.244,18.954,10.488a3.092,3.092,0,0,1,1.7,2.93q-.026,10.925,0,21.85a2.942,2.942,0,0,1-1.628,2.793Q33.1,43.755,23.57,49a2.925,2.925,0,0,1-2.948,0L1.806,38.614c-.291-.154-.548-.36-.925-.6.274-.206.428-.343.617-.463q15.449-9.434,30.916-18.868c1.251-.754,1.285-.908.411-2.091a12.319,12.319,0,0,0-9.186-5.158c-8.123-.737-14.789,6.478-13.933,14.6.12,1.182.514,2.331.72,3.513a1,1,0,0,1-.223.84c-3.17,2.3-6.358,4.559-9.545,6.821C.572,37.243.486,37.26.195,37.363Zm12.356-4.319c.034.154.034.223.069.257l.308.411a12.4,12.4,0,0,0,12.116,4.181A12.336,12.336,0,0,0,33.2,32.41a1.253,1.253,0,0,0,.1-1.645c-.685-.874-1.559-.823-2.211.189a9.688,9.688,0,0,1-5.5,4.13,9.9,9.9,0,0,1-10.317-2.639c-.223-.223-.668-.463-.891-.377A17.008,17.008,0,0,0,12.551,33.044Z" transform="translate(0.075 -0.025)"/>
      <path id="Path_449" data-name="Path 449" class="cls-1" d="M771.14,81.318c-4.627,3.582-9.46,2.176-12-.754a9.43,9.43,0,0,1-.154-11.979c2.468-3.033,7.438-4.627,12.116-.977.034-.343.034-.6.069-.857A1.484,1.484,0,0,1,772.6,65.5,1.464,1.464,0,0,1,774,66.751a3.592,3.592,0,0,1,.017.428c0,4.9.034,9.82-.017,14.721a8.526,8.526,0,0,1-12.048,7.506,1.42,1.42,0,0,1-.908-1.988c.394-.874,1.045-1.08,2.057-.651a5.653,5.653,0,0,0,8.02-4.456C771.123,82.037,771.123,81.746,771.14,81.318Zm0-6.855a6.022,6.022,0,0,0-4.027-5.861,5.822,5.822,0,0,0-7.335,6.187,5.989,5.989,0,0,0,4.387,5.672C767.867,81.283,771.14,78.456,771.14,74.463Z" transform="translate(-627.191 -54.279)"/>
      <path id="Path_450" data-name="Path 450" class="cls-1" d="M431.813,66.972a7.869,7.869,0,0,1,10.694,1.782,8.153,8.153,0,0,1,.617-.943,7.445,7.445,0,0,1,12.424,3.068,7.887,7.887,0,0,1,.308,2.194c.034,2.948.017,5.878.017,8.826v.086c-.034,1.045-.566,1.662-1.457,1.645-.84-.017-1.371-.6-1.371-1.628-.017-2.708,0-5.433,0-8.14,0-.377,0-.737-.034-1.114a4.743,4.743,0,0,0-3.479-4.2,4.349,4.349,0,0,0-4.987,2.108,6.391,6.391,0,0,0-.7,2.759c-.086,2.879-.034,5.775-.034,8.654a1.408,1.408,0,0,1-1.114,1.508,1.293,1.293,0,0,1-1.577-.72,2.311,2.311,0,0,1-.188-.977c-.017-2.948.017-5.878-.017-8.826A4.584,4.584,0,1,0,431.745,73c-.034,2.862,0,5.707-.017,8.569a4.351,4.351,0,0,1-.051.943,1.331,1.331,0,0,1-1.405,1.131,1.3,1.3,0,0,1-1.354-1.182,2.187,2.187,0,0,1-.017-.343v-15a1.3,1.3,0,0,1,1.148-1.457,1.343,1.343,0,0,1,1.611.943C431.71,66.715,431.745,66.818,431.813,66.972Z" transform="translate(-355.386 -54.363)"/>
      <path id="Path_451" data-name="Path 451" class="cls-1" d="M295.143,77.836a5.805,5.805,0,0,0,9.271.343c.154-.206.291-.428.463-.617a1.429,1.429,0,0,1,2.348,1.628,8.708,8.708,0,0,1-14.121.823.819.819,0,0,0-1.268-.206c-1.662,1.011-3.342,1.971-5.021,2.948-.223.137-.446.257-.668.377-.48.223-.994.206-1.165-.291-.1-.308.137-.754.308-1.114.086-.189.36-.274.531-.411,1.885-1.337,3.753-2.691,5.655-4.044a9.358,9.358,0,0,1,.086-6.409,8.781,8.781,0,0,1,15.475-2.108c.583.823.48,1.354-.394,1.9-3.53,2.211-7.078,4.4-10.608,6.615C295.76,77.425,295.485,77.614,295.143,77.836Zm8.569-8.483a5.749,5.749,0,0,0-7.369-.274c-1.885,1.388-2.965,4.541-2.142,6.444C297.353,73.467,300.49,71.427,303.711,69.354Z" transform="translate(-236.109 -53.866)"/>
      <path id="Path_452" data-name="Path 452" class="cls-1" d="M867.216,78.45a5.808,5.808,0,0,0,9.305.154c.891-1.182,1.577-1.422,2.365-.823.823.617.788,1.457-.1,2.6a8.536,8.536,0,0,1-13.693.017c-4.37-5.844-1.628-13.093,4.644-14.515a8.634,8.634,0,0,1,9,3.239c.805.977.668,1.765-.48,2.485-2.811,1.748-5.638,3.479-8.449,5.21C868.947,77.353,868.107,77.884,867.216,78.45ZM866.2,76c3.136-2.022,6.2-3.993,9.288-5.981A5.716,5.716,0,0,0,866.2,76Z" transform="translate(-715.059 -54.393)"/>
      <path id="Path_453" data-name="Path 453" class="cls-1" d="M596.558,78.535c2.022,3.17,6.906,3.239,9.271.223.1-.137.189-.274.291-.411a1.382,1.382,0,0,1,2.056-.463,1.418,1.418,0,0,1,.291,2.108,8.505,8.505,0,0,1-4.8,3.53c-3.547.977-6.752.171-9.048-2.691-4.507-5.638-2.194-13.247,4.456-14.841a9.066,9.066,0,0,1,9.1,3.462,1.391,1.391,0,0,1-.514,2.228c-2.759,1.731-5.535,3.41-8.312,5.124C598.426,77.37,597.483,77.953,596.558,78.535Zm-1.045-2.416c3.085-1.988,6.169-3.959,9.254-5.947a5.71,5.71,0,0,0-7.095-.5C595.615,71.1,594.57,74.131,595.513,76.119Z" transform="translate(-490.774 -54.513)"/>
      <path id="Path_454" data-name="Path 454" class="cls-1" d="M89.3,84.88C83.556,88.6,77.849,92.266,72.16,95.951c-2.074-3.016-.154-9.854,3.325-12.407A9.96,9.96,0,0,1,89.3,84.88Z" transform="translate(-59.071 -67.439)"/>
      <path id="Path_455" data-name="Path 455" class="cls-1" d="M705.151,68.609c.651-.566,1.114-1.011,1.628-1.422a7.6,7.6,0,0,1,4.524-1.594,1.474,1.474,0,0,1,1.645,1.371,1.406,1.406,0,0,1-1.457,1.474,5.283,5.283,0,0,0-4.147,2.245,8.6,8.6,0,0,0-2.228,6.015c.12,1.714.034,3.427.017,5.141,0,1.1-.548,1.748-1.44,1.765s-1.457-.617-1.457-1.731c-.017-4.85-.017-9.717,0-14.567,0-1.1.6-1.731,1.491-1.714.874.034,1.388.651,1.405,1.7C705.151,67.684,705.151,68.061,705.151,68.609Z" transform="translate(-581.87 -54.355)"/>
    </g>
    <g id="Group_141" data-name="Group 141" transform="translate(55.205 34.124)">
      <path id="Path_456" data-name="Path 456" class="cls-1" d="M333.656,212.244h-.7a.273.273,0,0,1-.206-.069.392.392,0,0,1-.12-.171l-1.474-3.65h-6.169L323.511,212a.392.392,0,0,1-.12.171.3.3,0,0,1-.206.069H322.5l5.141-12.544h.891Zm-8.4-4.558h5.621l-2.553-6.341c-.086-.206-.171-.463-.257-.737-.034.137-.086.274-.12.411s-.086.24-.12.343Z" transform="translate(-322.5 -199.58)"/>
      <path id="Path_457" data-name="Path 457" class="cls-1" d="M402.1,229.646V220.82h.463a.226.226,0,0,1,.257.223l.086,1.285a4.31,4.31,0,0,1,1.182-1.182,2.544,2.544,0,0,1,1.491-.446,2.084,2.084,0,0,1,1.542.566,2.878,2.878,0,0,1,.788,1.559,3.2,3.2,0,0,1,.446-.943,2.75,2.75,0,0,1,.668-.668,2.711,2.711,0,0,1,.805-.394,3.225,3.225,0,0,1,.908-.12,2.911,2.911,0,0,1,1.182.223,2.227,2.227,0,0,1,.891.651,3.216,3.216,0,0,1,.566,1.045,4.542,4.542,0,0,1,.188,1.422v5.638h-.857v-5.672a3,3,0,0,0-.565-1.971,1.985,1.985,0,0,0-1.594-.685,2.241,2.241,0,0,0-1.611.668,2.238,2.238,0,0,0-.514.823,3.358,3.358,0,0,0-.189,1.148v5.638h-.857v-5.621a3.252,3.252,0,0,0-.514-1.971,1.735,1.735,0,0,0-1.491-.685,2.257,2.257,0,0,0-1.337.428,4.309,4.309,0,0,0-1.1,1.182v6.684Z" transform="translate(-388.459 -216.981)"/>
      <path id="Path_458" data-name="Path 458" class="cls-1" d="M490.81,220.6a3.7,3.7,0,0,1,1.388.257,3.289,3.289,0,0,1,1.114.754,3.455,3.455,0,0,1,.737,1.217,4.478,4.478,0,0,1,.274,1.645.511.511,0,0,1-.051.274.2.2,0,0,1-.171.069h-6.426v.171a5.934,5.934,0,0,0,.223,1.748,3.85,3.85,0,0,0,.651,1.268,2.807,2.807,0,0,0,1.028.771,3.405,3.405,0,0,0,1.354.257,3.8,3.8,0,0,0,1.148-.154,4.84,4.84,0,0,0,.823-.326,4.257,4.257,0,0,0,.531-.326.591.591,0,0,1,.291-.154.211.211,0,0,1,.171.086l.223.291a2.344,2.344,0,0,1-.566.5,3.765,3.765,0,0,1-.788.394,7.291,7.291,0,0,1-.925.257,4.771,4.771,0,0,1-.994.1,4.263,4.263,0,0,1-1.645-.308,3.431,3.431,0,0,1-1.285-.925,3.972,3.972,0,0,1-.823-1.474,6.5,6.5,0,0,1-.291-2.005,5.2,5.2,0,0,1,.274-1.748,4.244,4.244,0,0,1,.788-1.388,3.517,3.517,0,0,1,1.251-.908A4.166,4.166,0,0,1,490.81,220.6Zm.017.634a3.354,3.354,0,0,0-1.217.206,2.647,2.647,0,0,0-.943.617,3.122,3.122,0,0,0-.634.96,4.617,4.617,0,0,0-.326,1.251h5.861a3.646,3.646,0,0,0-.206-1.268,2.964,2.964,0,0,0-.566-.96,2.5,2.5,0,0,0-.857-.6A3.059,3.059,0,0,0,490.827,221.234Z" transform="translate(-458.643 -216.898)"/>
      <path id="Path_459" data-name="Path 459" class="cls-1" d="M548.7,229.48v-8.826h.446c.1,0,.171.017.206.069a.573.573,0,0,1,.086.206l.068,1.851a5.566,5.566,0,0,1,.463-.96,3.525,3.525,0,0,1,.6-.72,2.458,2.458,0,0,1,.771-.446,2.719,2.719,0,0,1,.943-.154,2.97,2.97,0,0,1,.548.051,1.361,1.361,0,0,1,.463.171l-.069.583c-.034.1-.086.137-.171.137a1.086,1.086,0,0,1-.326-.069,2.421,2.421,0,0,0-.565-.069,2.46,2.46,0,0,0-.908.154,1.932,1.932,0,0,0-.7.463,2.954,2.954,0,0,0-.548.771,6.622,6.622,0,0,0-.428,1.045v5.707H548.7Z" transform="translate(-509.936 -216.815)"/>
      <path id="Path_460" data-name="Path 460" class="cls-1" d="M589.977,199.805a.563.563,0,0,1-.069.291.9.9,0,0,1-.411.411.9.9,0,0,1-.308.069.673.673,0,0,1-.309-.069.615.615,0,0,1-.24-.171,1.216,1.216,0,0,1-.171-.24.563.563,0,0,1-.069-.291.851.851,0,0,1,.24-.566,1.22,1.22,0,0,1,.24-.171.587.587,0,0,1,.309-.069.672.672,0,0,1,.308.069.614.614,0,0,1,.24.171.678.678,0,0,1,.171.257A1,1,0,0,1,589.977,199.805Zm-.377,3.05v8.826h-.84v-8.826Z" transform="translate(-542.832 -199)"/>
      <path id="Path_461" data-name="Path 461" class="cls-1" d="M620.9,221.754a.3.3,0,0,1-.086.069.244.244,0,0,1-.1.034.434.434,0,0,1-.24-.12,2.146,2.146,0,0,0-.411-.257,2.578,2.578,0,0,0-.651-.257,3,3,0,0,0-.943-.12,3.083,3.083,0,0,0-1.354.274,2.935,2.935,0,0,0-.994.771,3.4,3.4,0,0,0-.617,1.217,5.831,5.831,0,0,0-.206,1.611,5.383,5.383,0,0,0,.223,1.645,3.4,3.4,0,0,0,.617,1.217,2.723,2.723,0,0,0,.96.754,3.026,3.026,0,0,0,1.251.257,3.1,3.1,0,0,0,1.063-.154,3.012,3.012,0,0,0,.7-.326,3.8,3.8,0,0,0,.446-.326.412.412,0,0,1,.274-.154.211.211,0,0,1,.171.086l.223.291a2.849,2.849,0,0,1-.514.5,3.1,3.1,0,0,1-.7.394,3.416,3.416,0,0,1-.84.257,4.349,4.349,0,0,1-.96.086,3.756,3.756,0,0,1-1.542-.308,3.382,3.382,0,0,1-1.2-.891,4.375,4.375,0,0,1-.788-1.422,6.036,6.036,0,0,1-.274-1.919,5.822,5.822,0,0,1,.274-1.851,4.191,4.191,0,0,1,.788-1.44,3.6,3.6,0,0,1,1.251-.943,4.106,4.106,0,0,1,1.7-.326,3.9,3.9,0,0,1,1.525.274,4.082,4.082,0,0,1,1.165.737Z" transform="translate(-564.376 -216.733)"/>
      <path id="Path_462" data-name="Path 462" class="cls-1" d="M673.218,229.314a.3.3,0,0,1-.326-.24l-.12-1.131a7.975,7.975,0,0,1-.72.634,5.07,5.07,0,0,1-.754.48,3.479,3.479,0,0,1-.84.291,4.539,4.539,0,0,1-.994.1,2.915,2.915,0,0,1-.874-.137,2.162,2.162,0,0,1-.754-.411,2.008,2.008,0,0,1-.531-.7,2.4,2.4,0,0,1-.206-1.028,1.8,1.8,0,0,1,.326-1.045,2.59,2.59,0,0,1,.994-.84,6.544,6.544,0,0,1,1.748-.566,15.27,15.27,0,0,1,2.571-.24v-.925a2.906,2.906,0,0,0-.531-1.885,1.88,1.88,0,0,0-1.559-.668,2.856,2.856,0,0,0-1.08.171,3.446,3.446,0,0,0-.754.394,4.965,4.965,0,0,0-.514.394.542.542,0,0,1-.326.171.209.209,0,0,1-.154-.051.752.752,0,0,1-.1-.12l-.154-.257a5.113,5.113,0,0,1,1.457-1.045,4.009,4.009,0,0,1,1.731-.36,3,3,0,0,1,1.234.223,2.1,2.1,0,0,1,.874.651,3.072,3.072,0,0,1,.531,1.028,4.6,4.6,0,0,1,.171,1.337v5.741h-.343Zm-3.547-.463a4.074,4.074,0,0,0,.943-.1,3.267,3.267,0,0,0,.806-.308,3.788,3.788,0,0,0,.685-.48c.206-.189.428-.377.634-.6v-2.3a15.139,15.139,0,0,0-2.176.189,5.7,5.7,0,0,0-1.508.428,2.221,2.221,0,0,0-.874.634,1.335,1.335,0,0,0-.274.84,1.821,1.821,0,0,0,.154.771,1.393,1.393,0,0,0,.394.531,1.5,1.5,0,0,0,.566.308A2.5,2.5,0,0,0,669.671,228.852Z" transform="translate(-608.045 -216.65)"/>
      <path id="Path_463" data-name="Path 463" class="cls-1" d="M727.518,221.917a.224.224,0,0,1-.206.12.409.409,0,0,1-.24-.1,3.787,3.787,0,0,0-.411-.24,3.574,3.574,0,0,0-.617-.24,3.4,3.4,0,0,0-.908-.1,2.75,2.75,0,0,0-.874.137,2.481,2.481,0,0,0-.668.36,1.587,1.587,0,0,0-.428.531,1.4,1.4,0,0,0-.154.651,1.087,1.087,0,0,0,.206.685,1.612,1.612,0,0,0,.548.463,4.194,4.194,0,0,0,.788.343c.291.1.6.189.908.291s.6.206.908.308a3.456,3.456,0,0,1,.788.428,1.962,1.962,0,0,1,.548.634,1.827,1.827,0,0,1,.206.908,2.882,2.882,0,0,1-.206,1.08,2.5,2.5,0,0,1-.6.857,3.019,3.019,0,0,1-.977.583,3.88,3.88,0,0,1-1.32.206,4.223,4.223,0,0,1-1.611-.291,4.8,4.8,0,0,1-1.2-.771l.188-.308a.292.292,0,0,1,.1-.1.342.342,0,0,1,.154-.034.508.508,0,0,1,.274.137,2.8,2.8,0,0,0,.446.308,5.332,5.332,0,0,0,.685.308,2.843,2.843,0,0,0,.994.137,2.782,2.782,0,0,0,.977-.154,1.8,1.8,0,0,0,.7-.428,2.107,2.107,0,0,0,.428-.617,1.914,1.914,0,0,0,.154-.754,1.247,1.247,0,0,0-.206-.737,1.792,1.792,0,0,0-.566-.5,3.317,3.317,0,0,0-.788-.343c-.291-.1-.6-.189-.908-.291s-.6-.206-.908-.308a2.9,2.9,0,0,1-.788-.428,2.154,2.154,0,0,1-.565-.617,1.85,1.85,0,0,1-.206-.925,2.127,2.127,0,0,1,.206-.908,2.3,2.3,0,0,1,.583-.771,3.044,3.044,0,0,1,.925-.531,3.423,3.423,0,0,1,1.217-.189,4.231,4.231,0,0,1,1.44.223,3.842,3.842,0,0,1,1.148.7Z" transform="translate(-653.537 -216.981)"/>
    </g>
  </g>
</svg>
