<svg id="Group_181" data-name="Group 181" xmlns="http://www.w3.org/2000/svg" viewBox="201.93 8000.117 258.537 63.477">
  <defs>
    <style>
      .cls-1 {
        fill: #fff;
      }
    </style>
  </defs>
  <g id="Group_138" data-name="Group 138" transform="translate(201.905 8000.126)">
    <path id="Path_445" data-name="Path 445" class="cls-1" d="M63.941,31.676a31.853,31.853,0,0,1-32.025,31.79,31.738,31.738,0,1,1,32.025-31.79Zm-4.5-3.454c-.213-2.431-.384-4.883-.661-7.313a14.973,14.973,0,0,0-7.548-11.94A38.085,38.085,0,0,0,34.752,3.681c-8.912-.7-17.079,1.258-24.243,6.78A13.671,13.671,0,0,0,5.2,19.054a46.069,46.069,0,0,0-.512,13.688,41.316,41.316,0,0,0,6.567,18.7A16.312,16.312,0,0,0,19,57.689a35.872,35.872,0,0,0,22.9,1.173c5.842-1.535,10.192-4.755,12.772-10.448A50.263,50.263,0,0,0,59.442,28.222Z" transform="translate(0 0)"/>
    <path id="Path_446" data-name="Path 446" class="cls-1" d="M46.3,53.042c0-2.026-.149-4.051.043-6.055a6.333,6.333,0,0,1,4.478-5.672,46.619,46.619,0,0,1,13.624-2.729,51.262,51.262,0,0,1,16.716,1.258,32.69,32.69,0,0,1,5.373,2.026A6.63,6.63,0,0,1,90.282,47.9a101.415,101.415,0,0,1-.043,11.386,73.911,73.911,0,0,1-5.053,22.132A4.749,4.749,0,0,1,83.758,83.3a18.033,18.033,0,0,1-8.4,3.092,40.707,40.707,0,0,1-18.123-1.13,18.189,18.189,0,0,1-1.791-.682,6.9,6.9,0,0,1-3.923-3.923A66.113,66.113,0,0,1,46.3,53.042ZM73.012,63.276V75.365h2.644V55.238a2.056,2.056,0,0,0-.192-.81c-.661-1.386-1.322-2.75-2.026-4.094-.107-.213-.384-.512-.576-.512-1.962-.043-3.944-.021-5.906-.021V75.429h2.431V63.3C70.624,63.276,71.733,63.276,73.012,63.276ZM59.835,49.886H52.223V75.472H54.91V63.233h3.817V60.27h-3.8V52.637h4.883C59.835,51.656,59.835,50.782,59.835,49.886Zm24.456,0H76.274v2.878h2.644V75.408h2.75V52.743h2.623Zm-20.6,25.629V49.865H61.136v25.65Z" transform="translate(-36.362 -30.235)"/>
    <path id="Path_447" data-name="Path 447" class="cls-1" d="M155,111.865v-6.93c1.791-.49,1.983-.277,2.793,1.279.938,1.812.768,3.689.746,5.65Z" transform="translate(-121.932 -82.385)"/>
  </g>
  <g id="Group_143" data-name="Group 143" transform="translate(310.429 8018.167)">
    <path id="Path_464" data-name="Path 464" class="cls-1" d="M114.707,0a6,6,0,0,0,.222.709q2.334,5.418,4.668,10.808c.1.208.181.417.32.764-.722,0-1.348.028-1.987-.014-.139-.014-.32-.236-.389-.4-.306-.667-.6-1.348-.847-2.042a.631.631,0,0,0-.709-.486c-1.57.014-3.14-.014-4.723.028a.973.973,0,0,0-.695.472,15.4,15.4,0,0,0-.82,1.9.727.727,0,0,1-.861.57c-.458-.042-.917-.014-1.486-.014.125-.333.195-.556.292-.778,1.57-3.626,3.126-7.252,4.7-10.878.1-.208.153-.431.236-.639Zm-1.1,2.528c-.736,1.75-1.389,3.292-2.07,4.89h4.154C115.013,5.807,114.346,4.265,113.61,2.528Z" transform="translate(-92.48)"/>
    <path id="Path_465" data-name="Path 465" class="cls-1" d="M5.418,0c.945.347,1.9.681,2.834,1.042a4.616,4.616,0,0,1,.736.5C8.6,2.1,8.252,2.6,7.933,3.042A16.359,16.359,0,0,0,5.6,2.07a4.966,4.966,0,0,0-1.973.014A1.26,1.26,0,0,0,2.6,3.32a1.283,1.283,0,0,0,.875,1.361c.6.25,1.223.417,1.834.611.5.153,1.028.278,1.528.458,1.973.736,2.709,1.875,2.473,3.793A3.606,3.606,0,0,1,5.918,12.5,7.363,7.363,0,0,1,.4,10.947,3.921,3.921,0,0,0,0,10.7v-.139c.431-.472.861-.931,1.264-1.375a14.818,14.818,0,0,0,1.639,1,4.189,4.189,0,0,0,3.292.306,1.4,1.4,0,0,0,1.042-1.32,1.287,1.287,0,0,0-.889-1.348,12.362,12.362,0,0,0-1.375-.472c-.9-.292-1.82-.528-2.7-.889A2.73,2.73,0,0,1,.6,4.557,3.47,3.47,0,0,1,2.9.306C3.237.194,3.556.1,3.89,0Z" transform="translate(0 0)"/>
    <path id="Path_466" data-name="Path 466" class="cls-1" d="M1017,245.27c.014-.069.014-.139.028-.208.042-1.361.042-1.361,1.375-1.361l7.349.042v1.528Z" transform="translate(-875.714 -209.844)"/>
    <path id="Path_467" data-name="Path 467" class="cls-1" d="M538.328,4.38v8.572H536.3V.823a13,13,0,0,1,1.653.028,1.171,1.171,0,0,1,.611.472l5.543,7.21c.139.181.278.347.556.681V.865h2.056c.014.208.042.4.042.611,0,3.612-.014,7.224.014,10.836,0,.556-.181.681-.708.709a1.764,1.764,0,0,1-1.723-.834c-1.792-2.417-3.64-4.793-5.474-7.168C538.731,4.838,538.578,4.671,538.328,4.38Z" transform="translate(-461.795 -0.698)"/>
    <path id="Path_468" data-name="Path 468" class="cls-1" d="M498.7,156.036c-.861,0-1.528.028-2.181-.014a.914.914,0,0,1-.57-.4c-.806-1.125-1.584-2.278-2.4-3.4a1.17,1.17,0,0,0-.764-.417c-.695-.056-1.389-.014-2.181-.014v4.209h-2.1V143.908c.236-.014.458-.042.681-.042,1.778,0,3.57-.028,5.349.042a3.733,3.733,0,0,1,3.751,3.084,3.685,3.685,0,0,1-2.445,4.307,2.89,2.89,0,0,0-.361.181C496.516,152.952,497.558,154.41,498.7,156.036Zm-8.072-10.225v4.043c1.25,0,2.459.056,3.64-.014A1.966,1.966,0,0,0,496.2,147.8a1.923,1.923,0,0,0-1.987-1.973C493.057,145.755,491.876,145.811,490.626,145.811Z" transform="translate(-420.636 -123.875)"/>
    <path id="Path_469" data-name="Path 469" class="cls-1" d="M3.356,151.982v4.2H1.3V144.146c2.209,0,4.418-.153,6.585.042a3.384,3.384,0,0,1,3.209,3.279,3.653,3.653,0,0,1-2.5,4.015c-.083.042-.167.083-.347.167,1.056,1.5,2.1,2.973,3.223,4.584-.834,0-1.542.028-2.251-.014-.181-.014-.375-.236-.5-.4-.806-1.125-1.584-2.278-2.4-3.39a1.232,1.232,0,0,0-.764-.417C4.843,151.94,4.134,151.982,3.356,151.982Zm.028-1.931c1.278,0,2.5.069,3.723-.014a1.948,1.948,0,0,0,1.875-1.959,1.787,1.787,0,0,0-1.625-1.987c-1.292-.125-2.612-.028-3.959-.028C3.384,147.369,3.384,148.675,3.384,150.051Z" transform="translate(-1.119 -124.072)"/>
    <path id="Path_470" data-name="Path 470" class="cls-1" d="M349,148.535a6.307,6.307,0,1,1,6.265,6.279A6.125,6.125,0,0,1,349,148.535Zm2.2-.111a4.177,4.177,0,0,0,4.057,4.446,4.134,4.134,0,0,0,4.154-4.279,4.242,4.242,0,0,0-4.07-4.459A4.135,4.135,0,0,0,351.2,148.424Z" transform="translate(-300.516 -122.445)"/>
    <path id="Path_471" data-name="Path 471" class="cls-1" d="M422.914,1.1h8.849V2.92h-6.738V6.129h5.96V8h-5.96v3.348h6.835v1.834H422.9C422.914,9.158,422.914,5.17,422.914,1.1Z" transform="translate(-364.149 -0.947)"/>
    <path id="Path_472" data-name="Path 472" class="cls-1" d="M896.377,151.216H890.57V156.3H888.5V144.2h2.028v4.973h5.821V144.2h2.042v12.086h-2.014Z" transform="translate(-765.066 -124.167)"/>
    <path id="Path_473" data-name="Path 473" class="cls-1" d="M242.512,8.981c0,1.195-.028,2.251.014,3.32.014.528-.167.667-.667.667-1.459-.014-1.459.014-1.459-1.473V.84a3.8,3.8,0,0,1,.431-.083c1.625,0,3.237-.028,4.862.028a3.987,3.987,0,0,1,3.959,5,4.155,4.155,0,0,1-4.043,3.181C244.609,9.023,243.623,8.981,242.512,8.981Zm.042-1.945c1.084,0,2.112.069,3.112-.014a2.053,2.053,0,0,0,1.931-2A1.925,1.925,0,0,0,245.874,2.8a26.61,26.61,0,0,0-3.334-.028C242.553,4.188,242.553,5.592,242.553,7.036Z" transform="translate(-207.003 -0.646)"/>
    <path id="Path_474" data-name="Path 474" class="cls-1" d="M112.479,142.967c1.917-.167,1.917-.167,2.653,1.542,1.445,3.334,2.876,6.654,4.321,9.989.083.194.153.375.292.709-.722,0-1.375.028-2.028-.028-.125-.014-.278-.278-.361-.445-.292-.653-.57-1.32-.82-1.987a.648.648,0,0,0-.709-.5c-1.57.028-3.154-.014-4.723.028a.93.93,0,0,0-.695.458,15.4,15.4,0,0,0-.82,1.9.729.729,0,0,1-.861.583c-.458-.042-.917-.014-1.528-.014C108.978,151.052,110.743,147,112.479,142.967Zm-1.111,7.363h4.154c-.695-1.625-1.361-3.167-2.1-4.876C112.7,147.176,112.048,148.718,111.368,150.33Z" transform="translate(-92.307 -123.045)"/>
    <path id="Path_475" data-name="Path 475" class="cls-1" d="M244.1,145.992h-6.835V144.2h9.5a2.528,2.528,0,0,1-.486,2.223c-2.2,2.6-4.321,5.251-6.557,7.988h7.043v1.875h-9.752a2.65,2.65,0,0,1,.611-2.389c2.028-2.376,3.973-4.821,5.946-7.238C243.721,146.492,243.846,146.312,244.1,145.992Z" transform="translate(-204.031 -124.167)"/>
    <path id="Path_476" data-name="Path 476" class="cls-1" d="M786.9,143.756c-.458.653-.806,1.153-1.111,1.57a19.7,19.7,0,0,0-2.667-1.014,3.893,3.893,0,0,0-1.82.153,1.207,1.207,0,0,0-.875,1.209,1.222,1.222,0,0,0,.792,1.264c.82.32,1.667.542,2.5.82.542.181,1.1.361,1.625.6a2.933,2.933,0,0,1,1.848,2.917,3.286,3.286,0,0,1-1.889,3.084,6.9,6.9,0,0,1-7.4-1.459c.389-.472.778-.945,1.195-1.445.236.167.431.32.639.472a5,5,0,0,0,3.5,1.056,2.764,2.764,0,0,0,1.278-.445,1.3,1.3,0,0,0-.111-2.251,8.741,8.741,0,0,0-1.681-.639c-.792-.264-1.612-.445-2.376-.75a2.919,2.919,0,0,1-2.028-2.862,3.283,3.283,0,0,1,1.917-3.2,5.541,5.541,0,0,1,4.265-.194A18.262,18.262,0,0,1,786.9,143.756Z" transform="translate(-669.831 -122.543)"/>
    <path id="Path_477" data-name="Path 477" class="cls-1" d="M610.312,146.048v3.376h6.015v1.917h-6.043v4.946H608.2V144.2h8.905v1.848Z" transform="translate(-523.706 -124.167)"/>
    <path id="Path_478" data-name="Path 478" class="cls-1" d="M661.618,13.286h-2.112V3.117H655.7V1.2h9.725V3.075h-3.807Z" transform="translate(-564.607 -1.033)"/>
    <path id="Path_479" data-name="Path 479" class="cls-1" d="M718.3,144h2.014v12.114H718.3Z" transform="translate(-618.511 -123.995)"/>
    <path id="Path_480" data-name="Path 480" class="cls-1" d="M356.414,13.286H354.4V1.2h2.014Z" transform="translate(-305.165 -1.033)"/>
  </g>
</svg>
