<svg xmlns="http://www.w3.org/2000/svg" viewBox="200.267 6993.584 94.733 71.925">
  <defs>
    <style>
      .cls-1 {
        fill: #7e7e7e;
      }

      .cls-2 {
        fill: #5c5c5c;
      }

      .cls-3 {
        fill: #9b9b9b;
      }

      .cls-4 {
        fill: #858585;
      }

      .cls-5 {
        fill: #7c7c7c;
      }

      .cls-6 {
        fill: #979797;
      }

      .cls-7 {
        fill: #686868;
      }

      .cls-8 {
        fill: #6a6a6a;
      }

      .cls-9 {
        fill: #a4a4a4;
      }

      .cls-10 {
        fill: #737373;
      }

      .cls-11 {
        fill: #bcbcbc;
      }

      .cls-12 {
        fill: #777;
      }

      .cls-13 {
        fill: #8a8a8a;
      }
    </style>
  </defs>
  <g id="Group_137" data-name="Group 137" transform="translate(200.167 6993.664)">
    <path id="Subtraction_1" data-name="Subtraction 1" class="cls-1" d="M11.565,26.268H.48c-.152,0-.206-.031-.206-.206.017-.426.017-.859,0-1.285,0-.148.044-.2.206-.257.373-.085.747-.179,1.11-.271l.012,0c.365-.092.743-.188,1.122-.274.171-.034.223-.1.223-.291V3.977a.7.7,0,0,0-.017-.188.205.205,0,0,0-.11-.028.651.651,0,0,0-.073.006.634.634,0,0,1-.073.006H.137A.376.376,0,0,1,0,3.754V2.092H0l.014,0a.1.1,0,0,1,.029,0,.133.133,0,0,1,.041.008c.8-.233,1.628-.475,2.467-.737C4.2.858,5.552.445,6.8.053A1.514,1.514,0,0,1,7.253,0h.234c.136,0,.272,0,.392,0h0c.124,0,.253,0,.379,0,.144,0,.271,0,.39-.008.191,0,.223.056.223.223-.012.436-.008.876,0,1.3,0,.209,0,.425,0,.635a.406.406,0,0,1-.006.061c-.007.047-.013.087.023.111a.071.071,0,0,0,.043.016A.157.157,0,0,0,9.023,2.3a.354.354,0,0,1,.058-.04l.48-.283h0a17.975,17.975,0,0,1,2.927-1.5A7.228,7.228,0,0,1,14.921.048a6.157,6.157,0,0,1,2.746.629,6.474,6.474,0,0,1,2.311,1.946A9.477,9.477,0,0,1,21.76,7.507a12.1,12.1,0,0,1-.036,2.707,9.761,9.761,0,0,1-.718,2.6,9.49,9.49,0,0,1-1.1,1.9A8.34,8.34,0,0,1,18.47,16.2a8.816,8.816,0,0,1-1.758,1.092,10.911,10.911,0,0,1-2.063.72,11.883,11.883,0,0,1-2.866.307c-.36,0-.745-.011-1.178-.032-.258-.017-.52-.03-.774-.043h0c-.25-.013-.509-.025-.764-.042l-.046,0c-.1,0-.142.056-.142.192v5.38c0,.163.089.185.191.21h0l.045.012c.27.061.541.123.842.193l.011,0c.546.126,1.111.257,1.666.37.155.034.206.1.189.257,0,.131,0,.266,0,.4,0,.265-.008.539,0,.8a.254.254,0,0,1-.039.2C11.746,26.251,11.681,26.268,11.565,26.268ZM10.9,3.8a9.724,9.724,0,0,0-1.6.179H9.289l-.157.026c-.21.035-.274.107-.274.309v11.5c0,.207.05.257.257.257h.511a9.344,9.344,0,0,0,1.3-.07,5.185,5.185,0,0,0,2.365-.9,4.718,4.718,0,0,0,1.542-1.994,8.8,8.8,0,0,0,.634-3.255,8.917,8.917,0,0,0-.36-3.016,4.024,4.024,0,0,0-3.8-3.015C11.178,3.811,11.041,3.8,10.9,3.8Z" transform="translate(0.1 45.577)"/>
    <path id="Path_428" data-name="Path 428" class="cls-1" d="M139.827,277.506c.051-.086.1-.154.154-.24q3.367-5.551,6.734-11.12a.4.4,0,0,1,.411-.223c1.234.017,2.484.017,3.718,0,.223,0,.291.051.291.274v13.262c.1-.017.12-.1.154-.154,1.388-1.868,2.793-3.752,4.181-5.62a.632.632,0,0,0,.12-.394v-6.562a.4.4,0,0,1,.1-.326,3.292,3.292,0,0,1,5.243.583,3.416,3.416,0,0,1,.12,3,8.866,8.866,0,0,1-1.079,1.919c-1.079,1.559-2.313,3-3.461,4.506-1.868,2.433-3.752,4.849-5.62,7.265a.439.439,0,0,1-.394.206h-4.523c-.188,0-.257-.051-.257-.24V272.777c-.017,0-.034-.017-.051-.017a1.566,1.566,0,0,0-.137.223c-2.159,3.564-4.318,7.111-6.477,10.674a.4.4,0,0,1-.394.223c-1.319-.017-2.656-.017-3.975,0-.206,0-.24-.051-.24-.257v-13.93c0-.308,0-.308-.326-.343-1.028-.086-2.039-.189-3.067-.291-.12-.017-.154-.051-.154-.171,0-.445.017-.908,0-1.354,0-.206.137-.188.24-.223,1.422-.326,2.844-.651,4.266-.96a9.639,9.639,0,0,0,1.011-.24,11.788,11.788,0,0,1,3.2-.206c.12,0,.171.051.171.171v11.377C139.793,277.506,139.81,277.506,139.827,277.506Z" transform="translate(-108.389 -219.968)"/>
    <path id="Path_429" data-name="Path 429" class="cls-1" d="M320,269.843v-2.159c0-.206-.034-.257-.257-.206a4.933,4.933,0,0,0-3.855,3.427,9.71,9.71,0,0,0,.069,6.494,4.966,4.966,0,0,0,3.016,3.153,5.535,5.535,0,0,0,3.752-.051,26.491,26.491,0,0,0,3.358-1.456c.257-.12.257-.12.257.154v2.793c0,.12-.017.206-.137.257a19.193,19.193,0,0,1-5.123,1.713,15.4,15.4,0,0,1-5.74-.086,8.129,8.129,0,0,1-5.294-4.078,9.257,9.257,0,0,1-1.217-5.6,8.978,8.978,0,0,1,1.97-5.106,9.34,9.34,0,0,1,4.883-3.17,11.88,11.88,0,0,1,6.785-.034,5.619,5.619,0,0,1,2.913,1.885,3.533,3.533,0,0,1,.771,2.861,2.994,2.994,0,0,1-2.759,2.519,5.449,5.449,0,0,1-2.844-.617.781.781,0,0,1-.565-.891A15.755,15.755,0,0,0,320,269.843Z" transform="translate(-255.803 -219.997)"/>
    <path id="Path_430" data-name="Path 430" class="cls-2" d="M277.382,137.2H266.725c-.36,0-.36,0-.36.36v3.769c0,.206-.051.274-.274.274h-17.1c-.24,0-.291-.069-.291-.291.017-1.268,0-2.536,0-3.821,0-.308,0-.308.308-.308h16.963c.411,0,.36.034.36-.343V128.4a.294.294,0,0,1,.257-.1H276.92a.438.438,0,0,1,.565.583v7.967C277.5,136.965,277.519,137.119,277.382,137.2Z" transform="translate(-206.005 -106.378)"/>
    <path id="Path_431" data-name="Path 431" class="cls-3" d="M474.087,51.5c.12,0,.257.017.377.017h8.156c.411,0,.411,0,.411.428V64.385c0,.137.017.274.017.394a.134.134,0,0,1-.069.069.816.816,0,0,1-.5.017,4.422,4.422,0,0,0-.822-.051h-7.248c-.12,0-.24.034-.343-.051a.575.575,0,0,1-.1-.411V52.083a1.06,1.06,0,0,1,.051-.514C474.036,51.534,474.07,51.517,474.087,51.5Z" transform="translate(-392.67 -42.742)"/>
    <path id="Path_432" data-name="Path 432" class="cls-4" d="M351.7,33.874V19.721c.017-.017.034-.051.069-.069a1.141,1.141,0,0,1,.531-.069h16.568c.154,0,.326-.034.445.12h0a.379.379,0,0,1,.1.326v4.729a.71.71,0,0,1-.051.274.134.134,0,0,1-.069.069,1.257,1.257,0,0,1-.565.069H352.42a1.862,1.862,0,0,0-.308.017.31.31,0,0,0-.274.274,2.528,2.528,0,0,0-.017.36v7.453a1.621,1.621,0,0,1-.034.5.236.236,0,0,1-.051.069C351.769,33.874,351.734,33.874,351.7,33.874Z" transform="translate(-291.357 -16.292)"/>
    <path id="Path_433" data-name="Path 433" class="cls-5" d="M483.108,128.8h.051a.477.477,0,0,1,.12.394v7.967c0,.154.051.36-.154.445h-8.91a.244.244,0,0,1-.1-.206c0-.069-.017-.12-.017-.188V129.19c0-.137-.017-.291.1-.394a.55.55,0,0,1,.24-.017h8.447A.493.493,0,0,1,483.108,128.8Z" transform="translate(-392.781 -106.776)"/>
    <path id="Path_434" data-name="Path 434" class="cls-6" d="M369.314,3.413H351.734a.654.654,0,0,1-.017-.257V.294A.654.654,0,0,0,351.7.037h0V-.048c.1,0,.206-.017.308-.017h16.963c.12,0,.274-.069.36.1,0,.805-.017,1.593-.017,2.4Z" transform="translate(-291.357)"/>
    <path id="Path_435" data-name="Path 435" class="cls-7" d="M416.1,137.2V128.4c.017-.017.017-.034.034-.034a.4.4,0,0,1,.308-.069h5.911a.539.539,0,0,1,.36.086.611.611,0,0,1,.086.377v8.087c0,.137.017.274-.12.36h-4.2C417.693,137.22,416.888,137.2,416.1,137.2Z" transform="translate(-344.723 -106.376)"/>
    <path id="Path_436" data-name="Path 436" class="cls-8" d="M362.734,106.858H351.7v-.051a.653.653,0,0,0,.017-.257V102.66a.653.653,0,0,1,.017-.257h0a.294.294,0,0,1,.257-.1h10.195c.651,0,.651,0,.651.651v3.5c.017.154.034.308-.1.411Z" transform="translate(-291.357 -84.837)"/>
    <path id="Path_437" data-name="Path 437" class="cls-9" d="M526.7,137.707a.763.763,0,0,0,.051-.394V128.9h4.2c.189,0,.257.069.257.257v8.31c0,.206-.086.257-.274.257C529.527,137.707,528.105,137.707,526.7,137.707Z" transform="translate(-436.373 -106.88)"/>
    <path id="Path_438" data-name="Path 438" class="cls-10" d="M454.5,137.375v-8.807c.051-.069.137-.069.223-.069h3.033a.369.369,0,0,1,.188.034l.034.034v8.807Z" transform="translate(-376.543 -106.548)"/>
    <path id="Path_439" data-name="Path 439" class="cls-11" d="M454.6,25.563V20.2h3.153c.24,0,.308.069.308.308v5.055a.379.379,0,0,1-.326.1h-2.81C454.789,25.683,454.669,25.683,454.6,25.563Z" transform="translate(-376.626 -16.804)"/>
    <path id="Path_440" data-name="Path 440" class="cls-12" d="M351.834,102.9v4.078a.709.709,0,0,1-.034.326v-4.4C351.8,102.917,351.817,102.917,351.834,102.9Z" transform="translate(-291.44 -85.335)"/>
    <path id="Path_442" data-name="Path 442" class="cls-13" d="M453.961,51.5h3.118a2.073,2.073,0,0,1,.326.017v13.21a.06.06,0,0,0-.034.017h-3.238c-.24,0-.274-.034-.291-.274V52.031c0-.171-.069-.377.12-.531Z" transform="translate(-375.988 -42.742)"/>
    <path id="Path_443" data-name="Path 443" class="cls-13" d="M483.485,128.651h-8.91q-.051-.026,0-.051h8.533C483.245,128.617,483.365,128.583,483.485,128.651Z" transform="translate(-393.158 -106.631)"/>
    <path id="Path_444" data-name="Path 444" class="cls-12" d="M372.94,64.893v.051H362.9V60.832c0-.326-.017-.326-.343-.326H351.9v-8.43c0-.377,0-.377.377-.377h17.185V64.585c0,.326.017.343.326.343C370.85,64.893,371.9,64.893,372.94,64.893Z" transform="translate(-291.523 -42.907)"/>
  </g>
</svg>
