<?xml version="1.0" encoding="utf-8"?>
<!-- Generator: Adobe Illustrator 23.0.4, SVG Export Plug-In . SVG Version: 6.00 Build 0)  -->
<svg version="1.1" id="Layer_1" xmlns="http://www.w3.org/2000/svg" xmlns:xlink="http://www.w3.org/1999/xlink" x="0px" y="0px"
	 viewBox="0 0 219 50" style="enable-background:new 0 0 219 50;" xml:space="preserve">
<style type="text/css">
	.st0{fill:#213671;}
	.st1{enable-background:new    ;}
	.st2{fill:#FFFFFF;}
</style>
<g id="Group_280" transform="translate(-3538 -6161)">
	<g id="Group_272" transform="translate(2516 -1329)">
		<rect id="Rectangle_42" x="1022" y="7490" class="st0" width="219" height="50"/>
	</g>
	<g id="Group_279" transform="translate(2702 702)">
		<g class="st1">
			<path class="st2" d="M884,5487.3l2.2-7h1.5l2.2,7l2.5-7h1.8l-3.4,9.8H889l-2.1-6.7h-0.1l-2.1,6.7h-1.6l-3.4-9.8h1.8L884,5487.3z"
				/>
			<path class="st2" d="M902.5,5480.2v1.6h-5.2v2.6h4.7v1.5h-4.7v2.6h5.4v1.6h-7v-9.8H902.5z"/>
			<path class="st2" d="M909,5490h-4.3v-9.8h3.8c0.7,0,1.2,0.1,1.7,0.2c0.5,0.2,0.8,0.4,1.1,0.6c0.4,0.5,0.7,1.1,0.7,1.7
				c0,0.8-0.2,1.3-0.7,1.7c-0.2,0.1-0.3,0.2-0.4,0.2c-0.1,0-0.2,0.1-0.4,0.2c0.6,0.1,1.1,0.4,1.4,0.8s0.5,0.9,0.5,1.5
				c0,0.7-0.2,1.3-0.7,1.8C911.3,5489.7,910.4,5490,909,5490z M906.4,5484.3h2.1c1.2,0,1.8-0.4,1.8-1.2c0-0.5-0.1-0.8-0.4-1
				c-0.3-0.2-0.7-0.3-1.3-0.3h-2.1V5484.3z M906.4,5488.5h2.6c0.6,0,1.1-0.1,1.4-0.3c0.3-0.2,0.5-0.6,0.5-1.1c0-0.9-0.7-1.3-2.1-1.3
				h-2.4V5488.5z"/>
			<path class="st2" d="M921.1,5490.1c-0.9,0-1.7-0.3-2.3-0.8c-0.6-0.5-1-1.2-1-2.1c0-1.1,0.8-2,2.3-2.8c-0.4-0.4-0.7-0.8-0.8-1.1
				c-0.2-0.3-0.2-0.6-0.2-1.1c0-0.7,0.3-1.3,0.8-1.7s1.2-0.6,1.9-0.6s1.4,0.2,1.9,0.6c0.5,0.4,0.8,0.9,0.8,1.6
				c0,0.9-0.7,1.8-2.2,2.6c0.7,0.9,1.4,1.6,1.8,2.1c0.3-0.4,0.5-0.9,0.7-1.5l1.1,0.8c-0.2,0.6-0.5,1.2-0.8,1.7
				c0.4,0.4,0.8,0.8,1.4,1.4l-1.1,1l-1.3-1.3C923.4,5489.7,922.3,5490.1,921.1,5490.1z M919.9,5488.4c0.4,0.3,0.8,0.4,1.4,0.4
				s1.2-0.3,1.9-0.8c-0.9-1-1.7-1.8-2.2-2.5c-1.1,0.6-1.6,1.2-1.6,1.9C919.3,5487.7,919.5,5488.1,919.9,5488.4z M921.8,5481.2
				c-0.3,0-0.6,0.1-0.8,0.3c-0.2,0.2-0.4,0.4-0.4,0.7s0.1,0.5,0.2,0.7s0.3,0.5,0.7,0.9c1.1-0.5,1.6-1,1.6-1.5c0-0.4-0.1-0.7-0.4-0.8
				C922.4,5481.3,922.1,5481.2,921.8,5481.2z"/>
			<path class="st2" d="M936.3,5490H932v-9.8h3.8c0.7,0,1.2,0.1,1.7,0.2c0.5,0.2,0.8,0.4,1.1,0.6c0.4,0.5,0.7,1.1,0.7,1.7
				c0,0.8-0.2,1.3-0.7,1.7c-0.2,0.1-0.3,0.2-0.4,0.2c-0.1,0-0.2,0.1-0.4,0.2c0.6,0.1,1.1,0.4,1.4,0.8s0.5,0.9,0.5,1.5
				c0,0.7-0.2,1.3-0.7,1.8C938.6,5489.7,937.6,5490,936.3,5490z M933.7,5484.3h2.1c1.2,0,1.8-0.4,1.8-1.2c0-0.5-0.1-0.8-0.4-1
				c-0.3-0.2-0.7-0.3-1.3-0.3h-2.1V5484.3z M933.7,5488.5h2.6c0.6,0,1.1-0.1,1.4-0.3c0.3-0.2,0.5-0.6,0.5-1.1c0-0.9-0.7-1.3-2.1-1.3
				h-2.4V5488.5z"/>
			<path class="st2" d="M949.7,5483.4c0,1.6-0.7,2.6-2.1,3.1l2.6,3.6h-2.1l-2.3-3.3h-2.2v3.3h-1.7v-9.8h3.6c1.5,0,2.6,0.3,3.2,0.8
				C949.4,5481.5,949.7,5482.3,949.7,5483.4z M947.5,5484.8c0.3-0.3,0.5-0.8,0.5-1.4c0-0.6-0.2-1.1-0.5-1.3c-0.3-0.2-1-0.4-1.8-0.4
				h-2.1v3.5h2.1C946.5,5485.2,947.2,5485.1,947.5,5484.8z"/>
			<path class="st2" d="M953.5,5487.8l-1,2.2h-1.8l4.3-9.8h1.8l4.3,9.8h-1.8l-1-2.2H953.5z M957.7,5486.2l-1.8-4l-1.8,4H957.7z"/>
			<path class="st2" d="M969.8,5480.2h1.7v9.8h-1.8l-5.5-7.1v7.1h-1.7v-9.8h1.7l5.7,7.3V5480.2z"/>
			<path class="st2" d="M981.6,5481.5c0.9,0.9,1.4,2,1.4,3.6c0,1.5-0.5,2.7-1.4,3.6c-0.9,0.9-2.3,1.3-4.2,1.3h-3.2v-9.8h3.4
				C979.3,5480.2,980.6,5480.6,981.6,5481.5z M981.3,5485.1c0-2.2-1.3-3.4-3.9-3.4h-1.7v6.7h1.8c1.2,0,2.1-0.3,2.7-0.8
				C981,5487,981.3,5486.2,981.3,5485.1z"/>
			<path class="st2" d="M985.1,5480.2h1.7v9.8h-1.7V5480.2z"/>
			<path class="st2" d="M996.8,5480.2h1.7v9.8h-1.8l-5.5-7.1v7.1h-1.7v-9.8h1.7l5.7,7.3V5480.2z"/>
			<path class="st2" d="M1008,5485.2h1.7v3.3c-0.9,1-2.2,1.5-4,1.5c-1.4,0-2.7-0.5-3.6-1.4c-1-1-1.5-2.2-1.5-3.6s0.5-2.7,1.5-3.6
				s2.2-1.5,3.6-1.5c1.4,0,2.6,0.4,3.5,1.2l-0.9,1.3c-0.4-0.3-0.8-0.6-1.2-0.7c-0.4-0.1-0.8-0.2-1.4-0.2c-1,0-1.8,0.3-2.5,1
				c-0.7,0.6-1,1.5-1,2.5s0.3,1.9,1,2.5s1.4,0.9,2.4,0.9s1.7-0.2,2.3-0.6V5485.2z"/>
		</g>
	</g>
</g>
</svg>
