<?xml version="1.0" encoding="utf-8"?>
<!-- Generator: Adobe Illustrator 23.0.4, SVG Export Plug-In . SVG Version: 6.00 Build 0)  -->
<svg version="1.1" id="Layer_1" xmlns="http://www.w3.org/2000/svg" xmlns:xlink="http://www.w3.org/1999/xlink" x="0px" y="0px"
	 viewBox="0 0 162.1 85" style="enable-background:new 0 0 162.1 85;" xml:space="preserve">
<style type="text/css">
	.st0{fill:#767A84;}
	.st1{enable-background:new    ;}
</style>
<g id="Group_270" transform="translate(-1135.853 -5516)">
	<g id="Group_124" transform="translate(1135.853 5516)">
		<path id="Path_362" class="st0" d="M15.5,4.8c-1.6,0-3.2,0-4.8,0c-0.3,0-0.4,0.1-0.4,0.3c0,2.9,0,5.9,0,8.8c0,0.3-0.1,0.4-0.4,0.4
			c-1.5,0-3,0-4.5,0c-0.3,0-0.4-0.1-0.4-0.3c0-2.9,0-5.9,0-8.8c0-0.3-0.1-0.4-0.4-0.4c-1.6,0-3.2,0-4.8,0V0c5,0,10.1,0,15.1,0
			c0.3,0,0.4,0.1,0.4,0.4c0,1.4,0,2.7,0,4.1C15.5,4.5,15.5,4.7,15.5,4.8L15.5,4.8z"/>
		<path id="Path_363" class="st0" d="M20.7,4.7c0,0.1,0.1,0.2,0,0.4c0,1.4,0,2.7,0,4.1c0,0.3,0.1,0.3,0.4,0.3c3.2,0,6.4,0,9.6,0
			c0.3,0,0.4,0.1,0.4,0.4c0,1.4,0,2.7,0,4.1c0,0.2,0,0.3-0.3,0.3c-5,0-9.9,0-14.9,0c-0.3,0-0.3-0.1-0.3-0.3c0-2.9,0-5.9,0-8.8
			c0-0.1,0-0.3,0-0.4l0,0L20.7,4.7L20.7,4.7z"/>
		<path id="Path_364" class="st0" d="M20.7,4.8c0-1,0-1.9,0-2.9c0-0.5,0-1,0-1.6c0-0.2,0-0.3,0.3-0.3c3.3,0,6.5,0,9.8,0
			c0.2,0,0.3,0.1,0.3,0.2c0,1.4,0,2.9,0,4.3c0,0.2,0,0.2-0.2,0.2C27.5,4.8,24.1,4.8,20.7,4.8C20.7,4.8,20.7,4.7,20.7,4.8L20.7,4.8z"
			/>
		<path id="Path_365" class="st0" d="M65.9,7.8c0-0.8,0.1-1.6,0.5-2.4c0.6-1.1,1.8-1.9,3-2c0.5,0,1,0,1.4,0c1.3,0.1,2.4,1,2.8,2.3
			c0.1,0.1,0,0.2-0.1,0.2c-0.6,0.2-1.3,0.5-1.9,0.7c-0.2,0.1-0.2,0-0.3-0.1c-0.1-0.2-0.2-0.4-0.3-0.5c-0.4-0.6-1.3-0.7-1.9-0.3
			C69.1,5.8,69,5.9,68.9,6c-0.2,0.4-0.4,0.8-0.4,1.2c-0.1,0.7,0,1.3,0.2,2c0.3,0.7,1.1,1.1,1.9,0.7c0.2-0.1,0.4-0.3,0.6-0.4l0.1-0.1
			c0.1-0.2,0.2-0.5,0.4-0.5c0.2,0,0.4,0.2,0.7,0.3c0.4,0.2,0.8,0.4,1.2,0.6c0.2,0.1,0.3,0.2,0.1,0.4c-0.9,1.4-2.5,2.2-4.2,1.9
			c-1.6-0.1-3-1.2-3.4-2.8C65.9,8.7,65.9,8.2,65.9,7.8z"/>
		<path id="Path_366" class="st0" d="M106.2,6c0.4-0.2,0.8-0.4,1.2-0.5c1.1-0.3,2.2,0.3,2.5,1.4c0,0.1,0,0.1,0,0.2
			c0.1,0.2,0.1,0.5,0.1,0.7c0,1.2,0,2.5,0,3.7c0,0.2-0.1,0.3-0.3,0.3c-0.6,0-1.2,0-1.8,0c-0.3,0-0.3-0.1-0.3-0.3c0-1,0-2.1,0-3.1
			c0-0.2,0-0.4,0-0.6c-0.1-0.4-0.3-0.6-0.8-0.5c-0.3,0-0.7,0.2-0.7,0.5c0,0,0,0,0,0c0,0.2-0.1,0.4-0.1,0.5c0,1.1,0,2.1,0,3.2
			c0,0.3-0.1,0.3-0.3,0.3c-0.6,0-1.2,0-1.7,0c-0.2,0-0.3-0.1-0.3-0.3c0-2.4,0-4.9,0-7.3c0-0.2,0.1-0.3,0.2-0.3
			c0.6-0.2,1.2-0.4,1.8-0.7c0.2-0.1,0.3,0,0.3,0.2c0,0.7,0,1.4,0,2.2L106.2,6z"/>
		<path id="Path_367" class="st0" d="M60.5,3.2V6c0.4-0.2,0.8-0.4,1.2-0.5C62.9,5.2,64,5.9,64.3,7c0,0.1,0,0.2,0.1,0.3
			c0.1,0.5,0.1,1,0.1,1.6c0,0.9,0,1.9,0,2.8c0,0.2,0,0.3-0.3,0.3c-0.6,0-1.2,0-1.7,0c-0.2,0-0.3-0.1-0.3-0.3c0-1,0-2,0-3.1
			c0-0.2,0-0.4,0-0.6c0-0.4-0.3-0.6-0.7-0.6c0,0,0,0,0,0c-0.4-0.1-0.7,0.2-0.8,0.6c0,0,0,0,0,0c-0.1,0.3-0.1,0.6,0,0.9
			c0,0.9,0,1.9,0,2.8c0,0.2-0.1,0.3-0.3,0.3c-0.6,0-1.2,0-1.7,0c-0.2,0-0.3,0-0.3-0.3c0-2.4,0-4.9,0-7.3c0-0.1,0-0.2,0.1-0.3
			L60.5,3.2z"/>
		<path id="Path_368" class="st0" d="M40.2,3.6c1.2,0,2.3,0,3.5,0c0.3,0,0.3,0,0.3,0.3c0,0.5,0,0.9,0,1.4c0,0.3-0.1,0.4-0.4,0.3
			c-0.6,0-1.2,0-1.8,0c-0.3,0-0.4,0.1-0.4,0.4c0,1.9,0,3.7,0,5.6c0,0.3-0.1,0.4-0.4,0.4c-0.6,0-1.2,0-1.8,0c-0.3,0-0.3-0.1-0.3-0.3
			c0-1.9,0-3.8,0-5.6c0-0.3-0.1-0.4-0.4-0.4c-0.6,0-1.3,0-1.9,0c-0.2,0-0.3-0.1-0.3-0.2c0-0.5,0-1,0-1.5c0-0.2,0.1-0.3,0.3-0.3
			C37.8,3.6,39,3.6,40.2,3.6z"/>
		<path id="Path_369" class="st0" d="M85.1,11.5c-0.4,0.3-0.9,0.5-1.4,0.5c-1.1,0.2-2.2-0.5-2.4-1.6c0-0.1,0-0.2,0-0.4
			c-0.1-1.2,0-2.5,0-3.7c0-0.8,0-0.8,0.8-0.8c0.4,0,0.8,0,1.2,0c0.3,0,0.3,0.1,0.3,0.3c0,1,0,2,0,3.1c0,0.2,0,0.4,0,0.5
			c0,0.4,0.3,0.7,0.7,0.7c0,0,0.1,0,0.1,0c0.4,0,0.7-0.2,0.7-0.6c0,0,0-0.1,0-0.1c0-1,0-2,0-3c0-0.8,0-0.8,0.9-0.8
			c0.4,0,0.8,0,1.2,0c0.2,0,0.2,0.1,0.2,0.2c0,1.9,0,3.9,0,5.8c0,0.2-0.1,0.2-0.3,0.2c-0.6,0-1.1,0-1.7,0
			C85.2,11.9,85,11.9,85.1,11.5z"/>
		<path id="Path_370" class="st0" d="M91.4,6c0.4-0.2,0.8-0.4,1.3-0.5c1.1-0.3,2.2,0.4,2.5,1.5c0,0,0,0.1,0,0.1
			c0.1,0.3,0.1,0.5,0.1,0.8c0,1.2,0,2.5,0,3.7c0,0.2,0,0.3-0.3,0.3c-0.6,0-1.2,0-1.8,0c-0.2,0-0.3-0.1-0.3-0.3c0-1.1,0-2.1,0-3.2
			c0-0.2,0-0.4,0-0.5c-0.1-0.4-0.5-0.6-0.9-0.5c-0.3,0.1-0.5,0.3-0.5,0.5c0,0.2-0.1,0.4-0.1,0.5c0,1.1,0,2.1,0,3.2
			c0,0.2,0,0.3-0.3,0.3c-0.6,0-1.2,0-1.8,0c-0.2,0-0.3-0.1-0.3-0.2c0-1.9,0-3.9,0-5.8c0-0.2,0.1-0.3,0.3-0.2c0.5,0,1.1,0,1.6,0
			C91.4,5.6,91.4,5.6,91.4,6z"/>
		<path id="Path_371" class="st0" d="M47.8,9.4c-0.6,0-1.1,0-1.7,0c-0.3,0-0.3,0.1-0.2,0.3c0.1,0.4,0.6,0.7,1,0.7
			c0.5,0,1.1-0.1,1.6-0.3c0.2-0.1,0.3-0.1,0.4,0.1c0.2,0.3,0.4,0.6,0.6,1c0.1,0.1,0.1,0.2-0.1,0.3c-1.1,0.6-2.5,0.8-3.7,0.5
			c-0.9-0.2-1.6-1-1.9-1.9c-0.2-0.8-0.2-1.6,0-2.4c0.4-1.3,1.7-2.2,3.1-2c1.4,0,2.5,0.9,2.7,2.3c0.1,0.4,0.1,0.9,0.1,1.4
			c0,0.2-0.1,0.3-0.3,0.2C49,9.4,48.4,9.4,47.8,9.4z M46.8,8c0.2,0,0.5,0,0.7,0c0.2,0,0.3,0,0.2-0.2c-0.1-0.5-0.5-0.8-1-0.7
			c-0.4,0-0.8,0.3-0.9,0.7c0,0.2,0,0.2,0.2,0.2L46.8,8z"/>
		<path id="Path_372" class="st0" d="M96.7,8.7c0-0.5,0.1-1.1,0.3-1.6c0.5-1,1.5-1.7,2.6-1.7c1.1-0.1,2.2,0.3,2.8,1.2
			c0.1,0.1,0.1,0.2-0.1,0.3c-0.4,0.3-0.8,0.6-1.2,0.8C101,8,100.9,8,100.8,7.9c-0.1-0.1-0.2-0.3-0.3-0.4c-0.3-0.3-0.8-0.3-1.1,0
			c-0.1,0.1-0.1,0.1-0.2,0.2c-0.3,0.7-0.3,1.4,0,2.1c0.2,0.4,0.7,0.6,1.1,0.4c0,0,0.1,0,0.1-0.1c0.1-0.1,0.2-0.2,0.3-0.2
			c0.2-0.1,0.2-0.4,0.4-0.4c0.2,0,0.3,0.2,0.5,0.3c0.2,0.2,0.5,0.3,0.7,0.5c0.2,0.1,0.2,0.2,0.1,0.4c-0.8,1.1-2.3,1.6-3.6,1.1
			c-1.2-0.3-2.1-1.3-2.2-2.6C96.7,9.1,96.7,8.9,96.7,8.7z"/>
		<path id="Path_373" class="st0" d="M51,8.8c0-0.3,0-0.6,0.1-0.9c0.2-1.2,1.1-2,2.3-2.2c1.2-0.3,2.5,0.1,3.3,1.1
			c0.1,0.2,0.1,0.3-0.1,0.4c-0.4,0.3-0.8,0.6-1.2,0.8c-0.1,0.1-0.2,0.1-0.3,0c-0.2-0.4-0.6-0.8-1.1-0.6s-0.6,0.6-0.7,1.1
			c-0.1,0.4,0,0.8,0.1,1.2c0.1,0.5,0.6,0.8,1.1,0.7c0.2,0,0.4-0.1,0.5-0.3c0.2-0.2,0.2-0.5,0.5-0.4c0.2,0,0.4,0.2,0.6,0.4
			c0.2,0.2,0.5,0.3,0.7,0.5c0.1,0.1,0.1,0.2,0,0.3c-0.8,1.1-2.1,1.6-3.4,1.3c-1.2-0.2-2.1-1.1-2.3-2.2C51,9.4,51,9.1,51,8.8z"/>
		<path id="Path_374" class="st0" d="M77.5,6.1c0.6-0.5,1.5-0.7,2.2-0.4C80,5.7,80.1,5.8,80,6c-0.2,0.6-0.3,1.3-0.5,1.9
			c-0.1-0.1-0.3-0.2-0.4-0.3c-0.4-0.2-0.8-0.3-1.2-0.1c-0.3,0.2-0.5,0.5-0.4,0.8c0,0.9,0,1.8,0,2.7c0,0.8,0,0.8-0.9,0.8
			c-0.4,0-0.8,0-1.2,0c-0.2,0-0.2,0-0.2-0.2c0-1.9,0-3.9,0-5.8c0-0.2,0.1-0.2,0.2-0.2c0.6,0,1.1,0,1.7,0C77.5,5.6,77.5,5.6,77.5,6.1
			z"/>
	</g>
	<g id="Group_149" transform="translate(1136.073 5540.824)">
		<path id="Path_507" class="st0" d="M75.3,12.2h1.1c0.7,0,0.9,0.2,0.9,0.9c0,1.8-0.3,3.6-0.7,5.4c-0.2,0.9-0.5,1.8-0.8,2.6
			c-0.2,0.4,0,0.8,0.3,1l1.7,1.6c0.4,0.3,0.3,0.6,0,0.9c-0.6,0.6-1.2,1.2-1.8,1.8c-0.4,0.4-0.6,0.4-1,0c-0.3-0.3-0.6-0.6-0.9-0.9
			c-0.5-0.5-0.8-0.6-1.4-0.2c-0.1,0.1-0.3,0.2-0.4,0.3c-2.5,2.1-6.2,1.7-8.2-0.8c0,0,0,0,0,0c-0.7-1-1.2-2.2-1.3-3.5
			c-0.4-2.3,0.2-4.6,1.6-6.4c0.1-0.2,0.2-0.4,0.4-0.5c0.6-0.5,0.6-0.6,0.4-1.3c-0.4-1.3-0.7-2.6-0.9-3.9c-0.4-1.9,0.1-3.9,1.3-5.4
			c1.8-2,4.9-2.2,7-0.6C73.4,3.9,73.9,4.9,74,6c0.4,2.6-0.7,5.2-2.7,6.7c-0.2,0.2-0.5,0.4-0.8,0.6c-0.5,0.2-0.7,0.8-0.5,1.4
			c0,0,0,0.1,0.1,0.1c0.4,0.7,0.8,1.3,1.3,2c0.3,0.5,0.7,0.9,1,1.4c0.1,0.1,0.2,0.2,0.4,0.3c0.1-0.1,0.2-0.2,0.2-0.4
			c0.4-1.7,0.6-3.4,0.6-5.2c0-0.7,0-0.7,0.8-0.7C74.6,12.2,75,12.2,75.3,12.2L75.3,12.2z M67.2,16.9c0,0-0.1,0.1-0.1,0.1
			c-0.5,1.3-0.6,2.7-0.4,4.1c0.4,2.4,2.3,2.7,3.7,1.8c0.6-0.4,0.6-0.7,0.2-1.2c-0.5-0.6-0.9-1.2-1.4-1.8
			C68.5,18.9,67.9,17.9,67.2,16.9L67.2,16.9z M67.7,8c0.2,0.9,0.3,1.8,0.5,2.7c0.1,0.4,0.4,0.5,0.7,0.1c0.4-0.6,0.9-1.1,1.3-1.7
			c0.5-0.8,0.6-1.7,0.4-2.6c-0.1-0.6-0.5-1-1.1-1c-0.6-0.1-1.2,0.2-1.4,0.8C67.9,6.9,67.8,7.4,67.7,8L67.7,8z"/>
		<path id="Path_508" class="st0" d="M149.3,26.5h-4.1c-0.5,0-0.6-0.3-0.7-0.7l-2.3-7.6c-0.1-0.7-0.7-1.1-1.4-1.1
			c-0.5,0-0.7,0.1-0.7,0.7v7.8c0,0.9-0.1,1-1,1h-2.3c-0.4,0-0.7-0.2-0.6-0.6V3.2c0-0.4,0-0.6,0.5-0.6c2.4,0,4.7,0,7.1,0.1
			c3,0.2,4.3,1.5,4.8,4.5c0.3,2,0.3,4,0,5.9c-0.2,1.3-1,2.4-2.2,3c-0.3,0.1-0.5,0.5-0.4,0.9c0,0,0,0,0,0.1c1,2.9,2,5.9,3.1,8.8
			C149.2,26.2,149.3,26.4,149.3,26.5z M140.2,9.8L140.2,9.8l0,3.1c0,0.8,0.4,1.2,1.2,1.1c0.6,0,1.2-0.1,1.7-0.2
			c0.8,0,1.4-0.6,1.5-1.4c0-1.6,0.1-3.1,0-4.6c0-0.9-0.7-1.6-1.5-1.6c0,0,0,0,0,0c-0.7-0.1-1.4-0.1-2.2-0.1c-0.7,0-0.8,0.1-0.8,0.8
			C140.2,7.8,140.2,8.8,140.2,9.8L140.2,9.8z"/>
		<path id="Path_509" class="st0" d="M130.1,12.3V3.2c0-0.4,0.1-0.6,0.5-0.6c0.7,0,1.3-0.1,2-0.1c1.2,0,1.6,0.3,1.5,1.5L134,15.4
			c0,2.3,0,4.5-0.1,6.7c0,0.4-0.1,0.8-0.1,1.1c-0.3,1.7-1.7,3.1-3.4,3.4c-1.5,0.4-3.2,0.4-4.7,0c-2-0.4-3.5-2.2-3.5-4.3
			c0-0.8-0.1-1.6-0.1-2.4V3.3c0-0.3,0.3-0.5,0.6-0.6c0.8,0,1.6-0.1,2.3-0.1c0.8,0,1.2,0.3,1.2,1.1c0,0.6-0.1,1.1-0.1,1.7v15.2
			c0,0.5,0.1,1.1,0.2,1.6c0.2,0.9,0.8,1.2,1.9,1.1c1,0,1.6-0.4,1.7-1.3c0.1-0.3,0.1-0.5,0.1-0.8v-8.9C130,12.3,130,12.3,130.1,12.3z
			"/>
		<path id="Path_510" class="st0" d="M107.6,12.9c0,3,0,6.1,0,9.1c-0.1,2.9-1.5,4.5-4.4,4.8c-1.3,0.1-2.6,0.1-3.9-0.2
			c-2.3-0.5-3.4-2.1-3.5-4.7c0-3.2,0-6.4,0-9.5V3.7c0-0.9,0.1-1,1-1h2.3c0.5,0,0.6,0.2,0.7,0.6v16.9c0,0.5,0,1,0,1.6
			c0,0.8,0.6,1.5,1.4,1.6c0.9,0.3,1.9-0.2,2.3-1.1c0.1-0.2,0.1-0.4,0.1-0.6c0-0.5,0.1-0.9,0.1-1.4V3.9c0-1.1,0.1-1.2,1.2-1.2h1.9
			c0.8,0,0.8,0.1,0.8,0.8L107.6,12.9L107.6,12.9z"/>
		<path id="Path_511" class="st0" d="M10.6,0c0.9,0.9,1.8,1.7,2.8,2.4c1.5,1,3.4,1.5,5.2,1.2c0.8-0.2,1.5-0.4,2.2-0.8
			c0.2,0,0.4-0.1,0.6-0.2c0.1,0.2,0.1,0.4,0.1,0.6V7c0,4.5,0,8.9,0,13.4c0.2,2-1.1,3.9-3.1,4.4c-1,0.3-2.1,0.5-3.1,0.8
			C13.6,25.8,12,26.6,11,28c0,0.1-0.1,0.1-0.2,0.2c0,0-0.1,0,0,0c-0.8-0.7-1.6-1.2-2.3-1.8c-1-0.8-2.3-0.8-3.4-1.1
			c-0.8-0.2-1.7-0.4-2.5-0.7c-1.6-0.5-2.6-1.9-2.6-3.6c0.1-0.3,0.1-0.6,0.1-0.9V2.6C4.3,4.8,7.8,3.5,10.6,0z M10.8,11.4L10.8,11.4
			c-2.9,0-5.7,0-8.6,0c-0.8,0-1.1,0.2-1.1,1v8.5c0,1,0.6,2,1.5,2.4c1,0.5,2.1,0.8,3.2,0.9c1.7,0.3,3.2,1,4.6,2
			c0.3,0.2,0.5,0.1,0.8,0c0.7-0.5,1.5-1,2.3-1.3c1-0.3,2.1-0.6,3.2-0.8c1.3-0.2,2.5-0.8,3.3-1.8c0.1-0.2,0.2-0.4,0.2-0.6
			c0-3.1,0-6.2,0-9.2c0-0.9-0.1-1-1-1C16.4,11.4,13.6,11.4,10.8,11.4z M8.9,10.4c1.7-0.1,3.3-1.1,4.1-2.7c0.6-1.1,0.8-2.4,0.5-3.7
			c-0.1-0.5-0.6-0.9-1.1-0.8c-0.2,0-0.5,0-0.7,0.1c-2.6,0.4-4.4,2.9-4,5.5c0,0.3,0.1,0.6,0.2,0.9C8.1,10.4,8.2,10.4,8.9,10.4
			L8.9,10.4z M5.1,10.7c0.6-0.8,1.1-0.6,1.7-0.2c-0.5-0.8,0-1.3,0.6-1.7C6.9,9,6.2,8.7,6,8.1c0,0,0-0.1,0-0.1C5.8,8.7,5.3,8.8,4.6,9
			C5.3,9.4,5.3,9.4,5.1,10.7L5.1,10.7z M7.6,5.4c-1,0.2-1.5,0-1.6-1C5.7,5.2,5.3,5.6,4.5,5.5c0.5,0.4,1,0.7,0.6,1.4h1.6
			C6.4,6.2,7,5.8,7.6,5.4z M15.4,4.6c-0.2,0.6-0.2,0.6-1.6,1c1,0.2,1,0.9,0.8,1.6C15,6.7,15.8,6.6,16.3,7c-0.6-0.8,0.3-1.1,0.6-1.7
			C16.1,5.6,15.7,5.2,15.4,4.6L15.4,4.6z M14.5,10.5c0.5-0.4,1.3-0.5,1.8,0c-0.5-0.8,0.1-1.2,0.5-1.7c-1,0-1,0-1.4-1.1
			C15.2,8.3,15,8.9,14,8.9C14.6,9.1,14.9,9.8,14.5,10.5C14.6,10.4,14.6,10.5,14.5,10.5z M17.8,8.9c0.8,0.3,0.6,0.9,0.6,1.6
			c0.6-0.6,1-0.2,1.6,0c0-1.1,0-1.1,0.5-1.5c-1-0.5-1-0.5-1.4-1.2C18.9,8.5,18.7,9,17.8,8.9z M3.4,8.8c-0.9,0.3-0.9-0.6-1.3-1
			C2,8.7,1.8,8.8,1,8.9c0.1,0.2,0.4,0.4,0.4,0.7c0,0.3,0,0.5-0.1,0.8C2.3,10.4,3.2,9.8,3.4,8.8z M1.4,5.6V6c0,0.8,0.2,1,0.9,0.8
			c0.2-0.1,0.5-0.3,0.6-0.6C3,6,3.1,5.7,3.3,5.5C2.5,5.6,2.4,4.9,2.1,4.3C2,5.2,1.6,5.6,0.9,5.6H1.4z M18.2,5.7
			c0.1,0.1,0.1,0.3,0.2,0.4c0,0.3,0.1,0.5,0.4,0.6c0.3,0.1,0.7-0.1,0.8-0.4c0.1-0.2,0.2-0.4,0.4-0.7c-0.3-0.4-0.6-0.8-0.8-1
			C18.8,5,18.5,5.4,18.2,5.7L18.2,5.7z"/>
		<path id="Path_512" class="st0" d="M150.8,14.6v-11c0-0.8,0.1-0.9,0.9-0.9h8.9c0.7,0,0.8,0.1,0.8,0.8c0,0.4,0,0.9,0,1.3
			c0,1-0.3,1.4-1.3,1.3c-1.6,0-3.1,0-4.7-0.1c-0.7,0-0.8,0.1-0.8,0.8v5.1c0,0.7,0.1,0.8,0.8,0.8h3.6c0.7,0,0.8,0.1,0.8,0.8
			c0,0.6,0,1.2-0.1,1.7c0,0.4-0.3,0.8-0.8,0.8c-0.8,0-1.7,0-2.5,0c-0.1,0-0.2,0-0.2,0c-1.3-0.1-1.7,0.2-1.6,1.6c0,1.5,0,3,0,4.5
			c0,0.8,0.1,1,1,1c1.6,0,3.1,0,4.7,0c0.9,0,1,0.1,1,1c0,0.4,0,0.8,0,1.3c0,0.8-0.3,1.2-1.1,1.2c-0.6,0-1.1-0.1-1.7-0.1h-6.8
			c-0.8,0-1-0.2-1-1C150.8,21.9,150.8,18.2,150.8,14.6z"/>
		<path id="Path_513" class="st0" d="M35.7,22c0.5,0.2,1,0.5,1.5,0.7c0.9,0.4,1.8,0.5,2.8,0.4c1.3,0,2.3-1,2.3-2.3
			c0-0.1,0-0.1,0-0.2c0-1.8-0.8-3.5-2.3-4.5c-0.8-0.7-1.7-1.3-2.6-2.1c-2.5-2.4-3.1-6.1-1.6-9.1c0.8-1.5,2.3-2.5,4-2.7
			c1.7-0.2,3.5,0,5.2,0.6c0.7,0.3,0.9,0.7,0.6,1.3c-0.3,0.6-0.6,1.1-0.9,1.7c-0.2,0.4-0.6,0.5-0.9,0.4c0,0,0,0,0,0
			c-0.5-0.2-1.1-0.3-1.6-0.4c-0.4-0.1-0.8-0.1-1.1,0c-1.7,0.3-2.2,1.4-1.8,3.4c0.3,1,0.8,1.8,1.6,2.4c0.8,0.6,1.6,1.2,2.4,1.8
			c1.7,1.4,2.8,3.4,3,5.6c0.2,1.3,0,2.6-0.4,3.9c-0.6,1.9-2.2,3.2-4.1,3.6c-2.2,0.5-4.5,0.2-6.5-0.9c-0.7-0.4-0.8-0.6-0.5-1.3
			L35.7,22z"/>
		<path id="Path_514" class="st0" d="M89.1,2.7h4.2c0.5,0,0.7,0.2,0.7,0.7c0,0.5,0,1,0.1,1.5c0.1,0.9-0.3,1.4-1.2,1.4
			c-1.3,0-2.6-0.1-3.9-0.1c-0.6,0-0.8,0.1-0.8,0.8v5.8c0,0.6,0.2,0.7,0.8,0.7h3.2c0.4,0,0.7,0.2,0.7,0.6c0,0.6,0,1.2,0,1.7
			c0,0.7-0.3,0.9-1,1c-0.8,0-1.7,0-2.5,0.1s-1,0.2-1,1c0,2.4,0,4.9,0,7.4v0.3c0,0.9-0.2,1.2-1.1,1.1h-2.2c-0.7,0-0.8-0.2-0.8-0.8
			c0.1-0.4,0.1-0.8,0.1-1.2c0-6.9,0-13.9,0-20.8c0-0.1,0-0.3,0-0.4c0-0.4,0.2-0.6,0.6-0.6C86.3,2.7,87.7,2.7,89.1,2.7L89.1,2.7z"/>
		<path id="Path_515" class="st0" d="M112.9,16.2V6.6c0-0.3-0.2-0.5-0.6-0.5c-0.7,0-1.4,0-2.1,0c-0.9-0.1-1.1-0.4-1.1-1.3
			c0-0.5,0-1,0.1-1.6c0-0.4,0.2-0.6,0.6-0.6h10.1c0.4,0,0.6,0.1,0.6,0.6c0,0.6,0.1,1.2,0.1,1.8c0,0.8-0.3,1.1-1.1,1.1
			c-0.6,0-1.2-0.1-1.7-0.1c-0.7,0-0.8,0.1-0.8,0.8v18.5c0,1-0.1,1.1-1.2,1.1h-2.1c-0.6,0-0.8-0.1-0.8-0.8v-2.5
			C112.9,21,112.9,18.6,112.9,16.2L112.9,16.2z"/>
		<path id="Path_516" class="st0" d="M54.1,16.4v9.3c0,0.7-0.1,0.8-0.8,0.8H51c-0.5,0-0.7-0.2-0.8-0.7V7.1c0-0.9-0.1-1-1.1-1.1
			c-0.6,0-1.1,0-1.7-0.1c-0.8-0.1-1.1-0.4-1-1.2c0-0.5,0.1-1,0.1-1.6c0-0.5,0.3-0.6,0.7-0.6h9.9c0.5,0,0.7,0.2,0.7,0.7
			c0,0.7,0,1.5,0,2.2c0,0.4-0.1,0.6-0.6,0.6h-2.4c-0.3,0-0.7,0.2-0.7,0.6c0,0,0,0.1,0,0.1v0.6C54.2,10.3,54.2,13.3,54.1,16.4
			L54.1,16.4z"/>
		<path id="Path_517" class="st0" d="M32.1,9v15.1c0,0.5,0,1,0,1.6c0,0.8-0.2,0.9-0.9,0.9c-0.5,0-0.9,0-1.5,0
			c-1.1,0.1-1.6-0.3-1.6-1.4c0-6,0.1-12,0.1-18c0-0.8-0.3-1.1-1.1-0.9c-0.2,0-0.3,0.1-0.5,0c-0.6,0-0.8-0.1-0.8-0.8
			c0-0.4-0.1-0.8,0-1.2c0-0.5,0.4-0.9,0.8-1c1.5-0.4,3.1-0.7,4.7-0.7c0.7,0,0.9,0.2,0.9,0.9C32.1,5.4,32.1,7.2,32.1,9L32.1,9z"/>
		<path id="Path_518" class="st0" d="M6.2,17.8v-3c0.1-0.4-0.1-0.8-0.4-1.1c-0.4-0.3-0.2-0.7-0.1-1.1s0.4-0.2,0.7-0.2h1.2
			c0.3,0,0.6,0,0.7,0.3c0.1,0.3,0.1,0.7,0,1C8,14.1,7.9,14.6,7.9,15c0,2.6,0,5.3,0,8c0,0.4-0.1,0.5-0.5,0.5
			c-0.6,0.1-1.1-0.3-1.3-0.8c-0.5-1.3-0.9-2.7-1.4-4c-0.1-0.2-0.2-0.4-0.4-0.6v2.8c0,0.2,0.2,0.4,0.3,0.6C4.9,21.5,5,21.8,5.1,22
			c0,0.6-0.2,0.8-0.8,0.6c-0.6-0.1-1.1-0.3-1.6-0.5c-0.6-0.2-0.7-0.8-0.3-1.3c0.2-0.3,0.3-0.6,0.4-0.9c0-1.7,0-3.5,0-5.3
			c0-0.3-0.2-0.6-0.4-0.8c-0.4-0.3-0.3-0.8-0.1-1.1c0-0.1,0.4-0.2,0.6-0.3c0.1,0,0.2-0.1,0.2,0c0.7-0.2,1.4,0.2,1.6,1
			c0,0,0,0.1,0,0.1c0.2,0.5,0.3,1,0.4,1.5c0.3,1,0.7,1.9,0.9,2.9L6.2,17.8z"/>
		<path id="Path_519" class="st0" d="M11.2,20.7v1.2c-0.1,0.5,0.1,1.1,0.4,1.5c0.1,0.2,0.2,0.4,0.2,0.6c0.1,0.7-0.2,0.9-0.8,0.6
			c-0.5-0.2-1-0.4-1.6-0.6c-0.7-0.3-0.8-0.8-0.2-1.4c0.2-0.2,0.3-0.4,0.3-0.7c0-2.4,0-4.8,0-7.3c0-0.3-0.2-0.6-0.4-0.8
			c-0.3-0.3-0.4-0.8-0.1-1.1c0.1-0.4,0.4-0.2,0.7-0.2c0.9,0,1.8,0,2.8,0c0.5,0,1.2,0,1.4,0.6c0.1,0.6,0.1,1.1,0,1.7
			c0,0.1-0.4,0.2-0.6,0.2c-0.2,0-0.4-0.1-0.6-0.2c-0.1,0-0.1-0.2-0.1-0.4C12.3,14,12,13.9,11.6,14c-0.3,0-0.4,0.3-0.4,0.6v1.6
			c0,0.6,0.3,0.8,0.8,0.5c0.1-0.1,0.2-0.1,0.3-0.2c0.5-0.2,1-0.2,0.9,0.6c0,0.4,0,0.8,0,1.1c0,0.5-0.1,0.6-0.7,0.4
			c-0.2-0.1-0.4-0.1-0.6-0.2c-0.5-0.2-0.8,0-0.8,0.5C11.2,19.5,11.2,20.1,11.2,20.7L11.2,20.7z"/>
		<path id="Path_520" class="st0" d="M16.1,12.4h0.3c0.3,0,0.6-0.1,0.8,0.2c0.2,0.4,0.1,0.8-0.1,1.1c-0.1,0.2-0.3,0.5-0.3,0.8
			c0,2,0,4,0,5.9c0,0.2,0.2,0.3,0.3,0.4c0.4,0,0.8,0,0.8-0.5c0.1-0.3,0.1-0.7,0.1-1c0-0.5,0.4-0.5,0.8-0.5c0.3,0,0.5,0.2,0.6,0.4
			c0,0,0,0.1,0,0.1c0,0.5,0,1.1,0.1,1.6c0,0.7-0.3,1.1-1.1,1.3c-1.1,0.2-2.2,0.6-3.3,0.8c-0.2,0-0.5,0-0.7,0c0-0.3-0.1-0.8,0-1
			c0.5-0.5,0.7-1.2,0.6-1.9v-5.3c0-0.5-0.1-0.9-0.5-1.3c-0.3-0.2-0.3-0.7-0.1-1c0.1-0.1,0.3-0.2,0.4-0.2
			C15.2,12.4,15.6,12.4,16.1,12.4C16.1,12.4,16.1,12.4,16.1,12.4z"/>
	</g>
	<g class="st1">
		<path class="st0" d="M1181.3,5589.6h3v8.4h-1.3v-7.1h-1.7V5589.6z"/>
		<path class="st0" d="M1191.1,5596.1c0,0.6-0.2,1.1-0.7,1.5c-0.4,0.4-1,0.5-1.7,0.5c-0.5,0-0.9-0.1-1.4-0.3
			c-0.5-0.2-0.9-0.4-1.3-0.7l0.6-1c0.7,0.6,1.5,0.8,2.2,0.8c0.3,0,0.5-0.1,0.7-0.2c0.2-0.1,0.3-0.3,0.3-0.5c0-0.3-0.4-0.6-1.3-0.9
			c-0.1,0-0.1,0-0.1,0c-1.3-0.4-2-1-2-1.8c0-0.6,0.2-1.1,0.7-1.4c0.5-0.4,1.1-0.5,1.8-0.5c0.7,0,1.4,0.2,2.1,0.6l-0.5,1
			c-0.5-0.3-1.1-0.5-1.7-0.5c-0.3,0-0.6,0.1-0.8,0.2c-0.2,0.1-0.3,0.3-0.3,0.5c0,0.2,0.1,0.4,0.3,0.5c0.1,0.1,0.3,0.1,0.6,0.2
			c0.3,0.1,0.5,0.1,0.7,0.2c0.2,0.1,0.4,0.1,0.6,0.2s0.4,0.2,0.6,0.3C1190.9,5595,1191.1,5595.5,1191.1,5596.1z"/>
		<path class="st0" d="M1194.3,5592.7v3.2c0,0.3,0.1,0.5,0.2,0.7c0.2,0.2,0.4,0.3,0.7,0.3s0.6-0.1,0.8-0.4l0.6,0.9
			c-0.5,0.4-1,0.6-1.6,0.6c-0.6,0-1.1-0.2-1.5-0.6c-0.4-0.4-0.6-0.9-0.6-1.6v-3.2h-0.8v-1.1h0.8v-2h1.3v2h1.7v1.1H1194.3z"/>
		<path class="st0" d="M1206.8,5590.3c0.6,0.5,0.9,1.2,0.9,2.3c0,1-0.3,1.8-0.9,2.2c-0.6,0.5-1.5,0.7-2.7,0.7h-1.5v2.5h-1.4v-8.4
			h2.9C1205.3,5589.6,1206.2,5589.9,1206.8,5590.3z M1205.8,5593.8c0.3-0.3,0.4-0.7,0.4-1.3s-0.2-1-0.5-1.2s-0.9-0.4-1.7-0.4h-1.4
			v3.4h1.6C1205,5594.3,1205.5,5594.1,1205.8,5593.8z"/>
		<path class="st0" d="M1210.5,5598h-1.3v-8.9h1.3V5598z"/>
		<path class="st0" d="M1217.6,5598h-1.2v-0.9c-0.5,0.6-1.2,0.9-2.1,0.9c-0.7,0-1.2-0.2-1.6-0.6s-0.7-0.9-0.7-1.5s0.2-1.1,0.7-1.4
			c0.5-0.3,1.1-0.5,1.9-0.5h1.7v-0.2c0-0.8-0.5-1.3-1.4-1.3c-0.6,0-1.2,0.2-1.8,0.6l-0.6-0.8c0.8-0.6,1.7-0.9,2.6-0.9
			c0.8,0,1.4,0.2,1.8,0.6c0.5,0.4,0.7,1,0.7,1.8V5598z M1216.2,5595.6v-0.5h-1.5c-1,0-1.5,0.3-1.5,0.9c0,0.3,0.1,0.5,0.4,0.7
			c0.2,0.2,0.6,0.2,1,0.2c0.4,0,0.8-0.1,1.1-0.4C1216.1,5596.4,1216.2,5596,1216.2,5595.6z"/>
		<path class="st0" d="M1222.3,5598.1c-0.9,0-1.7-0.3-2.3-0.9c-0.6-0.6-1-1.4-1-2.4c0-1,0.3-1.8,1-2.4c0.7-0.6,1.5-0.9,2.4-0.9
			c1,0,1.8,0.3,2.4,1l-0.8,1c-0.6-0.5-1.1-0.7-1.7-0.7s-1,0.2-1.5,0.6s-0.6,0.9-0.6,1.4s0.2,1.1,0.6,1.5s0.9,0.6,1.5,0.6
			s1.2-0.3,1.7-0.8l0.8,0.9C1224.2,5597.7,1223.3,5598.1,1222.3,5598.1z"/>
		<path class="st0" d="M1232.3,5595.4h-5c0,0.5,0.2,0.8,0.6,1.1c0.4,0.3,0.8,0.4,1.3,0.4c0.8,0,1.4-0.3,1.8-0.8l0.8,0.8
			c-0.7,0.7-1.6,1.1-2.7,1.1c-0.9,0-1.7-0.3-2.3-0.9c-0.6-0.6-0.9-1.4-0.9-2.4s0.3-1.8,1-2.4s1.4-0.9,2.3-0.9c0.9,0,1.6,0.3,2.2,0.8
			c0.6,0.5,0.9,1.2,0.9,2.2V5595.4z M1227.3,5594.3h3.7c0-0.5-0.2-0.9-0.5-1.2c-0.3-0.3-0.8-0.4-1.2-0.4c-0.5,0-0.9,0.2-1.3,0.5
			C1227.5,5593.4,1227.3,5593.8,1227.3,5594.3z"/>
		<path class="st0" d="M1239.9,5595.6l1.9-6h1.3l1.9,6l2.1-6h1.5l-2.9,8.4h-1.4l-1.8-5.7h-0.1l-1.8,5.7h-1.4l-2.9-8.4h1.5
			L1239.9,5595.6z"/>
		<path class="st0" d="M1249.7,5590.3c-0.2-0.2-0.3-0.4-0.3-0.6s0.1-0.4,0.3-0.6s0.4-0.3,0.6-0.3s0.4,0.1,0.6,0.3s0.3,0.4,0.3,0.6
			s-0.1,0.4-0.3,0.6s-0.4,0.3-0.6,0.3S1249.9,5590.5,1249.7,5590.3z M1251,5598h-1.3v-6.4h1.3V5598z"/>
		<path class="st0" d="M1254.3,5594.5v3.5h-1.3v-6.4h1.3v1.2c0.2-0.4,0.5-0.7,0.9-0.9c0.4-0.2,0.8-0.3,1.2-0.3
			c0.7,0,1.3,0.2,1.7,0.7c0.4,0.4,0.7,1.1,0.7,1.9v3.9h-1.3v-3.5c0-1.2-0.5-1.8-1.5-1.8c-0.5,0-0.9,0.2-1.2,0.5
			C1254.5,5593.5,1254.3,5594,1254.3,5594.5z"/>
		<path class="st0" d="M1262,5594.5v3.5h-1.3v-6.4h1.3v1.2c0.2-0.4,0.5-0.7,0.9-0.9c0.4-0.2,0.8-0.3,1.2-0.3c0.7,0,1.3,0.2,1.7,0.7
			c0.4,0.4,0.7,1.1,0.7,1.9v3.9h-1.3v-3.5c0-1.2-0.5-1.8-1.5-1.8c-0.5,0-0.9,0.2-1.2,0.5C1262.2,5593.5,1262,5594,1262,5594.5z"/>
		<path class="st0" d="M1274.4,5595.4h-5c0,0.5,0.2,0.8,0.6,1.1c0.4,0.3,0.8,0.4,1.3,0.4c0.8,0,1.4-0.3,1.8-0.8l0.8,0.8
			c-0.7,0.7-1.6,1.1-2.7,1.1c-0.9,0-1.7-0.3-2.3-0.9c-0.6-0.6-0.9-1.4-0.9-2.4s0.3-1.8,1-2.4s1.4-0.9,2.3-0.9c0.9,0,1.6,0.3,2.2,0.8
			c0.6,0.5,0.9,1.2,0.9,2.2V5595.4z M1269.4,5594.3h3.7c0-0.5-0.2-0.9-0.5-1.2c-0.3-0.3-0.8-0.4-1.2-0.4s-0.9,0.2-1.3,0.5
			C1269.6,5593.4,1269.4,5593.8,1269.4,5594.3z"/>
		<path class="st0" d="M1279.2,5592.9c-0.7,0-1.2,0.2-1.5,0.6c-0.3,0.4-0.5,1-0.5,1.7v2.7h-1.3v-6.4h1.3v1.3c0.2-0.4,0.5-0.7,0.9-1
			c0.4-0.3,0.8-0.4,1.2-0.4L1279.2,5592.9C1279.3,5592.9,1279.2,5592.9,1279.2,5592.9z"/>
		<path class="st0" d="M1284.5,5590.6c0.2,0.1,0.3,0.3,0.3,0.6s-0.1,0.4-0.2,0.6c-0.1,0.1-0.3,0.2-0.5,0.2s-0.4-0.1-0.5-0.2
			c-0.1-0.1-0.2-0.3-0.2-0.5s0.1-0.4,0.2-0.6l0.7-1h0.7L1284.5,5590.6z"/>
		<path class="st0" d="M1285.9,5589.6h3v8.4h-1.3v-7.1h-1.7V5589.6z"/>
		<path class="st0" d="M1294.4,5590.7c-0.7,0-1.3,0.3-1.6,0.8c-0.4,0.5-0.5,1.2-0.5,2c0.2-0.2,0.5-0.4,0.9-0.6
			c0.4-0.2,0.8-0.3,1.2-0.3c0.8,0,1.4,0.3,1.9,0.8c0.5,0.5,0.8,1.2,0.8,2s-0.3,1.5-0.8,2s-1.2,0.8-2.1,0.8c-1.3,0-2.3-0.6-2.8-1.8
			c-0.3-0.7-0.4-1.5-0.4-2.3s0.1-1.6,0.3-2.2c0.2-0.6,0.4-1,0.8-1.4c0.6-0.7,1.4-1,2.3-1s1.7,0.3,2.5,0.9l-0.7,1
			c-0.2-0.2-0.4-0.3-0.7-0.4C1294.9,5590.8,1294.6,5590.7,1294.4,5590.7z M1294.1,5593.8c-0.5,0-0.9,0.1-1.2,0.4
			c-0.3,0.3-0.5,0.6-0.5,1s0.2,0.8,0.5,1.1c0.3,0.3,0.7,0.5,1.2,0.5c0.5,0,0.9-0.1,1.2-0.4c0.3-0.3,0.5-0.6,0.5-1.1
			c0-0.4-0.1-0.8-0.4-1.1C1295,5594,1294.6,5593.8,1294.1,5593.8z"/>
	</g>
</g>
</svg>
