<?xml version="1.0" encoding="utf-8"?>
<!-- Generator: Adobe Illustrator 23.0.4, SVG Export Plug-In . SVG Version: 6.00 Build 0)  -->
<svg version="1.1" id="Layer_1" xmlns="http://www.w3.org/2000/svg" xmlns:xlink="http://www.w3.org/1999/xlink" x="0px" y="0px"
	 viewBox="0 0 191.2 57" style="enable-background:new 0 0 191.2 57;" xml:space="preserve">
<style type="text/css">
	.st0{fill:#767A84;}
	.st1{enable-background:new    ;}
</style>
<g id="Group_271" transform="translate(-1369 -5544)">
	<g id="Group_148" transform="translate(1369 5544)">
		<path id="Path_504" class="st0" d="M91,7.7c0,3.9-0.4,15.8-0.4,15.8c0,2.3,0.8,3.3,3,3.3v1H85v-1c2.2,0,3.3-1,3.3-3.3L89.1,4
			c-0.3-1.4-1.6-2.3-3-2.2V0.9h6.5l6.9,18.2l7.1-18.2h5.9v0.9c-1.2-0.2-2.4,0.7-2.6,1.9c0,0.2,0,0.5,0,0.7l0.8,18.9
			c0,2.8,0.5,3.6,2.8,3.6v1h-9.9v-1c1.9,0,2.8-0.6,2.7-3.6c0,0-0.4-13.2-0.5-15.5L101,20.9c-0.7,1.9-1.3,3.8-1.8,5.7l-1.5,0.1
			c-0.4-1.4-1.4-4-1.4-4S92.4,11.4,91,7.7z M82.9,28c-0.5-0.1-1-0.1-1.5-0.1c-1,0-2.8,0.5-5,0.5c-8.3,0-14.5-5-14.5-14.3
			c0-7.8,5.8-13.9,14.6-13.9c2.2,0,4.3,0.4,6.3,1.2c0.4-0.4,0.5-0.6,0.9-1h0.8c-0.1,1.4-0.6,6-0.6,6h-0.8c-0.5-2.7-1.9-4.5-6.4-4.5
			c-5.4,0-10.3,4.2-10.3,12.1c0,8.9,5,12.7,10.5,12.7c3.6,0,5.8-2.1,7.2-4.6l0.9,0.4L82.9,28z M58.7,5.9h-0.9
			c-0.1-2.4-0.9-3.2-2.8-3.2h-3.7v20.2c0,3.3,0.6,4,2.8,4v1h-9.6v-1c2.2,0,2.8-0.6,2.8-4.1v-20h-3.7c-2.4,0-2.8,0.6-3.5,3.2h-0.9
			l0.6-5.8l0.6,0.1c0.3,0.6,0.8,0.6,2.3,0.6h12.5c2.3,0,2.8,0,3.3-0.8h0.8L58.7,5.9z"/>
		<path id="Path_505" class="st0" d="M31.5,28.5c-1.4,0-2.8-0.2-4.2-0.6c-0.8-0.2-1.5-0.5-2.2-0.9c-0.3,0.4-0.6,0.8-0.9,1.2
			l-0.8-0.3l0.6-6l0.9,0.1c0.5,2.8,2.4,4.9,6.4,4.9c2.9,0,5.1-2.4,5.1-5.3c0,0,0-0.1,0-0.1c0-2.3-0.9-3.5-4-5.8
			c-0.9-0.6-1.8-1.2-2.7-1.8c-2.8-1.8-4.6-3.9-4.6-7.2c0-3.9,3.2-6.4,7.4-6.4c1.6,0,3.1,0.3,4.5,1l0.9-1l0.6,0.1L38,5.9l-0.9-0.1
			c0-2.6-1.5-3.7-4.1-3.7c-2.4,0-4.2,1.3-4.2,3.7c0,2.2,1.7,3.6,3.6,4.9c1,0.6,1.8,1.2,2.6,1.7c4.5,3.2,5.5,5.3,5.5,8.3
			C40.4,25.2,37,28.5,31.5,28.5z M16.8,5.9h-1c0-2.3-1-3.2-3.1-3.2H6.9v10.1h3.7c1.9,0,2.3-1,2.6-2.7h0.9v7.2h-0.9
			c-0.3-1.9-0.6-2.7-2.7-2.7H6.9v8.6c0,3.2,0.8,3.6,2.8,3.6v1H0v-1c2.4,0,2.8-0.6,2.8-3.6V4.4C2.8,2.6,2,1.8,0,1.8V0.9h13.4
			c2.3,0,2.8-0.1,3.2-0.9h0.9L16.8,5.9z M155.4,7.4v15.4c0,3.3,0.8,4,2.8,4v1H143v-1c1.2,0,2.2-0.4,2.2-1.2c0-0.8-0.2-1.6-0.4-2.3
			l-1.2-3.7h-8.5c-0.1,0.5-1.7,4.7-1.7,5.9c0,1,1.2,1.3,1.9,1.3v1h-7.1v-1c1.3,0,2.3-0.1,3.2-2.8l6.5-20.9c-0.3-0.8-1-1.3-1.8-1.3
			V0.9h5.8l6.9,22c0.6,2.3,1.3,3.5,2.3,4c1.5-0.5,1.9-1,1.9-4V4.4c-1.2-1.5-1.3-2.6-3.5-2.6V0.9h6.5l10.8,18.4v-14
			c0-2.8-0.6-3.5-2.8-3.5V0.9h14.4v0.9c-0.9,0-1.7,0.4-1.7,1.3c0.1,0.7,0.3,1.4,0.5,2.1l4.1,8.9l4-8.6c0.5-0.7,0.7-1.5,0.8-2.4
			c0-0.8-0.5-1.2-1.7-1.2v-1h6.8v0.9c-1.7,0-2.7,1.5-3.5,3.3l-5.3,10.8V23c0,3.1,0.8,3.9,2.8,3.9v1h-9.8v-1c2.1,0,2.8-0.8,2.8-3.9
			v-6l-5.1-12c-1-2.3-1.4-2.8-2.1-3.2c-1.3,0.5-1.7,1.4-1.7,3.5V25c0,0,0.1,1.5,0.3,3.3l-1.7,0.1L155.4,7.4L155.4,7.4z M139.3,6.2
			l-3.6,11.7h7.4L139.3,6.2z"/>
		<path id="Path_506" class="st0" d="M123.4,17.8h-1.9v5.5c0,2.8,0.8,3.5,3,3.5v1h-9.9v-1c2.1,0,2.8-0.8,2.8-3.6V5.1
			c0-2.8-0.8-3.3-2.8-3.3V0.9h7.4c7.2,0,11.4,2.2,11.4,8.1C133.4,15.2,128.3,17.8,123.4,17.8z M122.1,2.7h-0.6v13.2h1.2
			c4.2,0,6.4-1.9,6.4-6.8S127.1,2.7,122.1,2.7z M78.6,22.7c-4.9,0-8.2-3.5-8.2-8.5c-0.2-4.5,3.3-8.3,7.9-8.5c0.1,0,0.2,0,0.3,0
			c4.6,0,8.1,3.6,8.1,8.5c0.2,4.5-3.4,8.3-7.9,8.5C78.7,22.7,78.7,22.7,78.6,22.7z M78.6,7.3c-3.3,0-4.5,3.2-4.5,6.9
			c0,3.5,1,6.9,4.5,6.9c3.3,0,4.4-3.5,4.4-7.1C82.9,10.7,81.7,7.3,78.6,7.3z M22.1,21.2v-0.9c1.3,0,1.5-0.4,1.5-0.8
			c0-0.5-0.1-0.9-0.3-1.3c0,0-0.3-1-0.5-1.8h-5l-0.5,1.7C17.1,18.5,17,19,17,19.4c0,0.5,0.5,0.9,1.3,0.9v0.9h-5v-0.9
			c1.3,0,1.8-0.4,2.3-1.8l3.9-11.6c-0.1-0.6-0.7-1-1.3-0.9V5.1h4.1c3.3,9.8,4.2,12.3,4.2,12.3c0.6,2.2,1.3,2.8,2.3,2.8v0.9
			C28.8,21.1,22.1,21.2,22.1,21.2z M20.3,8.7L18.4,15h4L20.3,8.7z"/>
	</g>
	<g class="st1">
		<path class="st0" d="M1376.6,5598h-1.4v-8.4h2.2l2.5,5.3l2.5-5.3h2.2v8.4h-1.4v-6.6l-2.9,5.8h-0.8l-2.9-5.8V5598z"/>
		<path class="st0" d="M1392.1,5597.1c-0.6,0.6-1.4,1-2.4,1s-1.8-0.3-2.4-1c-0.6-0.6-1-1.4-1-2.3c0-0.9,0.3-1.7,1-2.3
			c0.6-0.6,1.4-1,2.4-1s1.8,0.3,2.4,1c0.6,0.6,1,1.4,1,2.3C1393.1,5595.7,1392.7,5596.5,1392.1,5597.1z M1388.3,5596.3
			c0.4,0.4,0.9,0.6,1.4,0.6s1.1-0.2,1.4-0.6c0.4-0.4,0.6-0.9,0.6-1.5c0-0.6-0.2-1.1-0.6-1.5c-0.4-0.4-0.9-0.6-1.4-0.6
			s-1.1,0.2-1.4,0.6c-0.4,0.4-0.6,0.9-0.6,1.5C1387.7,5595.4,1387.9,5595.9,1388.3,5596.3z"/>
		<path class="st0" d="M1399.1,5596.1c0,0.6-0.2,1.1-0.7,1.5c-0.4,0.4-1,0.5-1.7,0.5c-0.5,0-0.9-0.1-1.4-0.3
			c-0.5-0.2-0.9-0.4-1.3-0.7l0.6-1c0.7,0.6,1.5,0.8,2.2,0.8c0.3,0,0.5-0.1,0.7-0.2c0.2-0.1,0.3-0.3,0.3-0.5c0-0.3-0.4-0.6-1.3-0.9
			c-0.1,0-0.1,0-0.1,0c-1.3-0.4-2-1-2-1.8c0-0.6,0.2-1.1,0.7-1.4c0.5-0.4,1.1-0.5,1.8-0.5c0.7,0,1.4,0.2,2.1,0.6l-0.5,1
			c-0.5-0.3-1.1-0.5-1.7-0.5c-0.3,0-0.6,0.1-0.8,0.2c-0.2,0.1-0.3,0.3-0.3,0.5c0,0.2,0.1,0.4,0.3,0.5c0.1,0.1,0.3,0.1,0.6,0.2
			c0.3,0.1,0.5,0.1,0.7,0.2c0.2,0.1,0.4,0.1,0.6,0.2s0.4,0.2,0.6,0.3C1398.9,5595,1399.1,5595.5,1399.1,5596.1z"/>
		<path class="st0" d="M1402.3,5592.7v3.2c0,0.3,0.1,0.5,0.2,0.7c0.2,0.2,0.4,0.3,0.7,0.3s0.6-0.1,0.8-0.4l0.6,0.9
			c-0.5,0.4-1,0.6-1.6,0.6c-0.6,0-1.1-0.2-1.5-0.6c-0.4-0.4-0.6-0.9-0.6-1.6v-3.2h-0.8v-1.1h0.8v-2h1.3v2h1.7v1.1H1402.3z"/>
		<path class="st0" d="M1409.2,5589.6h1.4v8.4h-1.4V5589.6z"/>
		<path class="st0" d="M1414,5594.5v3.5h-1.3v-6.4h1.3v1.2c0.2-0.4,0.5-0.7,0.9-0.9c0.4-0.2,0.8-0.3,1.2-0.3c0.7,0,1.3,0.2,1.7,0.7
			c0.4,0.4,0.7,1.1,0.7,1.9v3.9h-1.3v-3.5c0-1.2-0.5-1.8-1.5-1.8c-0.5,0-0.9,0.2-1.2,0.5C1414.2,5593.5,1414,5594,1414,5594.5z"/>
		<path class="st0" d="M1421.7,5594.5v3.5h-1.3v-6.4h1.3v1.2c0.2-0.4,0.5-0.7,0.9-0.9c0.4-0.2,0.8-0.3,1.2-0.3
			c0.7,0,1.3,0.2,1.7,0.7c0.4,0.4,0.7,1.1,0.7,1.9v3.9h-1.3v-3.5c0-1.2-0.5-1.8-1.5-1.8c-0.5,0-0.9,0.2-1.2,0.5
			C1421.9,5593.5,1421.7,5594,1421.7,5594.5z"/>
		<path class="st0" d="M1433.5,5597.1c-0.6,0.6-1.4,1-2.4,1s-1.8-0.3-2.4-1c-0.6-0.6-1-1.4-1-2.3c0-0.9,0.3-1.7,1-2.3
			c0.6-0.6,1.4-1,2.4-1s1.8,0.3,2.4,1c0.6,0.6,1,1.4,1,2.3C1434.5,5595.7,1434.1,5596.5,1433.5,5597.1z M1429.6,5596.3
			c0.4,0.4,0.9,0.6,1.4,0.6s1.1-0.2,1.4-0.6c0.4-0.4,0.6-0.9,0.6-1.5c0-0.6-0.2-1.1-0.6-1.5c-0.4-0.4-0.9-0.6-1.4-0.6
			s-1.1,0.2-1.4,0.6c-0.4,0.4-0.6,0.9-0.6,1.5C1429.1,5595.4,1429.3,5595.9,1429.6,5596.3z"/>
		<path class="st0" d="M1437.6,5598l-2.6-6.4h1.4l1.9,4.8l1.9-4.8h1.4l-2.6,6.4H1437.6z"/>
		<path class="st0" d="M1447.8,5598h-1.2v-0.9c-0.5,0.6-1.2,0.9-2.1,0.9c-0.7,0-1.2-0.2-1.6-0.6s-0.7-0.9-0.7-1.5s0.2-1.1,0.7-1.4
			c0.5-0.3,1.1-0.5,1.9-0.5h1.7v-0.2c0-0.8-0.5-1.3-1.4-1.3c-0.6,0-1.2,0.2-1.8,0.6l-0.6-0.8c0.8-0.6,1.7-0.9,2.6-0.9
			c0.8,0,1.4,0.2,1.8,0.6c0.5,0.4,0.7,1,0.7,1.8V5598z M1446.5,5595.6v-0.5h-1.5c-1,0-1.5,0.3-1.5,0.9c0,0.3,0.1,0.5,0.4,0.7
			c0.2,0.2,0.6,0.2,1,0.2c0.4,0,0.8-0.1,1.1-0.4C1446.3,5596.4,1446.5,5596,1446.5,5595.6z"/>
		<path class="st0" d="M1451.3,5592.7v3.2c0,0.3,0.1,0.5,0.2,0.7c0.2,0.2,0.4,0.3,0.7,0.3s0.6-0.1,0.8-0.4l0.6,0.9
			c-0.5,0.4-1,0.6-1.6,0.6c-0.6,0-1.1-0.2-1.5-0.6c-0.4-0.4-0.6-0.9-0.6-1.6v-3.2h-0.8v-1.1h0.8v-2h1.3v2h1.7v1.1H1451.3z"/>
		<path class="st0" d="M1454.7,5590.3c-0.2-0.2-0.3-0.4-0.3-0.6s0.1-0.4,0.3-0.6s0.4-0.3,0.6-0.3s0.4,0.1,0.6,0.3s0.3,0.4,0.3,0.6
			s-0.1,0.4-0.3,0.6s-0.4,0.3-0.6,0.3S1454.9,5590.5,1454.7,5590.3z M1456,5598h-1.3v-6.4h1.3V5598z"/>
		<path class="st0" d="M1459.6,5598l-2.6-6.4h1.4l1.9,4.8l1.9-4.8h1.4l-2.6,6.4H1459.6z"/>
		<path class="st0" d="M1470.7,5595.4h-5c0,0.5,0.2,0.8,0.6,1.1c0.4,0.3,0.8,0.4,1.3,0.4c0.8,0,1.4-0.3,1.8-0.8l0.8,0.8
			c-0.7,0.7-1.6,1.1-2.7,1.1c-0.9,0-1.7-0.3-2.3-0.9s-0.9-1.4-0.9-2.4s0.3-1.8,1-2.4s1.4-0.9,2.3-0.9c0.9,0,1.6,0.3,2.2,0.8
			c0.6,0.5,0.9,1.2,0.9,2.2V5595.4z M1465.7,5594.3h3.7c0-0.5-0.2-0.9-0.5-1.2c-0.3-0.3-0.8-0.4-1.2-0.4c-0.5,0-0.9,0.2-1.3,0.5
			C1465.9,5593.4,1465.7,5593.8,1465.7,5594.3z"/>
		<path class="st0" d="M1479.5,5596.7c0.5,0,0.9-0.1,1.3-0.2c0.4-0.2,0.7-0.4,1.1-0.8l0.9,0.9c-0.9,1-2,1.5-3.2,1.5
			s-2.3-0.4-3.2-1.2s-1.3-1.8-1.3-3.1s0.4-2.3,1.3-3.1s1.9-1.2,3.2-1.2c1.3,0,2.4,0.5,3.3,1.4l-0.9,1c-0.4-0.4-0.8-0.7-1.1-0.8
			c-0.4-0.2-0.8-0.2-1.3-0.2c-0.8,0-1.6,0.3-2.1,0.8c-0.6,0.5-0.9,1.2-0.9,2.1c0,0.9,0.3,1.6,0.9,2.1
			C1478.1,5596.4,1478.7,5596.7,1479.5,5596.7z"/>
		<path class="st0" d="M1489.5,5597.1c-0.6,0.6-1.4,1-2.4,1s-1.8-0.3-2.4-1c-0.6-0.6-1-1.4-1-2.3c0-0.9,0.3-1.7,1-2.3
			c0.6-0.6,1.4-1,2.4-1s1.8,0.3,2.4,1c0.6,0.6,1,1.4,1,2.3C1490.4,5595.7,1490.1,5596.5,1489.5,5597.1z M1485.6,5596.3
			c0.4,0.4,0.9,0.6,1.4,0.6s1.1-0.2,1.4-0.6c0.4-0.4,0.6-0.9,0.6-1.5c0-0.6-0.2-1.1-0.6-1.5c-0.4-0.4-0.9-0.6-1.4-0.6
			s-1.1,0.2-1.4,0.6c-0.4,0.4-0.6,0.9-0.6,1.5C1485.1,5595.4,1485.3,5595.9,1485.6,5596.3z"/>
		<path class="st0" d="M1493.3,5594.5v3.5h-1.3v-6.4h1.3v1.2c0.2-0.4,0.5-0.7,0.9-0.9c0.4-0.2,0.8-0.3,1.3-0.3c1,0,1.7,0.4,2.1,1.2
			c0.6-0.8,1.4-1.2,2.4-1.2c0.7,0,1.3,0.2,1.7,0.7c0.4,0.4,0.7,1.1,0.7,1.9v3.9h-1.3v-3.5c0-1.2-0.5-1.8-1.5-1.8
			c-0.5,0-0.9,0.1-1.2,0.4c-0.3,0.3-0.5,0.7-0.5,1.3v3.6h-1.3v-3.5c0-0.6-0.1-1.1-0.3-1.3c-0.2-0.3-0.6-0.4-1-0.4s-0.9,0.2-1.2,0.5
			C1493.5,5593.5,1493.3,5594,1493.3,5594.5z"/>
		<path class="st0" d="M1507.6,5591.5c0.9,0,1.6,0.3,2.2,0.9s0.9,1.4,0.9,2.4c0,1-0.3,1.8-0.9,2.4c-0.6,0.6-1.3,0.9-2.1,0.9
			c-0.8,0-1.5-0.4-2.2-1.1v3.3h-1.3v-8.7h1.3v1.1C1506,5591.9,1506.7,5591.5,1507.6,5591.5z M1505.5,5594.8c0,0.6,0.2,1.1,0.6,1.5
			c0.4,0.4,0.8,0.6,1.3,0.6c0.5,0,1-0.2,1.4-0.6c0.4-0.4,0.6-0.9,0.6-1.5s-0.2-1.1-0.6-1.5c-0.4-0.4-0.8-0.6-1.4-0.6
			c-0.5,0-1,0.2-1.4,0.6C1505.6,5593.7,1505.5,5594.2,1505.5,5594.8z"/>
		<path class="st0" d="M1517.4,5598h-1.2v-0.9c-0.5,0.6-1.2,0.9-2.1,0.9c-0.7,0-1.2-0.2-1.7-0.6s-0.7-0.9-0.7-1.5s0.2-1.1,0.7-1.4
			c0.5-0.3,1.1-0.5,1.9-0.5h1.7v-0.2c0-0.8-0.5-1.3-1.4-1.3c-0.6,0-1.2,0.2-1.8,0.6l-0.6-0.8c0.8-0.6,1.7-0.9,2.6-0.9
			c0.8,0,1.4,0.2,1.8,0.6s0.7,1,0.7,1.8V5598z M1516,5595.6v-0.5h-1.5c-1,0-1.5,0.3-1.5,0.9c0,0.3,0.1,0.5,0.4,0.7
			c0.2,0.2,0.6,0.2,1,0.2c0.4,0,0.8-0.1,1.1-0.4C1515.9,5596.4,1516,5596,1516,5595.6z"/>
		<path class="st0" d="M1520.6,5594.5v3.5h-1.3v-6.4h1.3v1.2c0.2-0.4,0.5-0.7,0.9-0.9c0.4-0.2,0.8-0.3,1.2-0.3
			c0.7,0,1.3,0.2,1.7,0.7c0.4,0.4,0.7,1.1,0.7,1.9v3.9h-1.3v-3.5c0-1.2-0.5-1.8-1.5-1.8c-0.5,0-0.9,0.2-1.2,0.5
			C1520.8,5593.5,1520.6,5594,1520.6,5594.5z"/>
		<path class="st0" d="M1527.7,5600.5c-0.6,0-1.1-0.2-1.6-0.6l0.6-1.1c0.3,0.3,0.6,0.4,0.9,0.4c0.3,0,0.5-0.1,0.7-0.3
			s0.3-0.5,0.3-0.7c0-0.1-0.9-2.3-2.6-6.6h1.4l1.9,4.7l1.9-4.7h1.4l-3.1,7.6c-0.2,0.4-0.4,0.7-0.8,1
			C1528.5,5600.4,1528.1,5600.5,1527.7,5600.5z"/>
		<path class="st0" d="M1537.7,5590.6c0.2,0.1,0.3,0.3,0.3,0.6s-0.1,0.4-0.2,0.6c-0.1,0.1-0.3,0.2-0.5,0.2s-0.4-0.1-0.5-0.2
			c-0.1-0.1-0.2-0.3-0.2-0.5s0.1-0.4,0.2-0.6l0.7-1h0.7L1537.7,5590.6z"/>
		<path class="st0" d="M1539.1,5589.6h3v8.4h-1.3v-7.1h-1.7V5589.6z"/>
		<path class="st0" d="M1545.1,5590.1c0.5-0.4,1.2-0.6,2-0.6c0.8,0,1.5,0.2,2,0.6s0.8,1,0.8,1.6c0,0.6-0.3,1.2-0.9,1.7
			c0.8,0.5,1.2,1.2,1.2,2.2c0,0.7-0.3,1.3-0.9,1.8s-1.3,0.7-2.3,0.7c-0.9,0-1.7-0.2-2.3-0.7s-0.9-1.1-0.9-1.8c0-0.9,0.4-1.6,1.2-2.2
			c-0.6-0.5-0.9-1.1-0.9-1.7C1544.3,5591,1544.5,5590.5,1545.1,5590.1z M1545.9,5596.5c0.4,0.2,0.8,0.4,1.2,0.4s0.8-0.1,1.2-0.4
			c0.4-0.2,0.6-0.6,0.6-1c0-0.4-0.2-0.8-0.5-1c-0.4-0.2-0.8-0.4-1.2-0.4c-0.4,0-0.8,0.1-1.2,0.4c-0.4,0.2-0.5,0.6-0.5,1
			C1545.4,5595.9,1545.6,5596.3,1545.9,5596.5z M1546,5592.7c0.3,0.2,0.7,0.4,1.1,0.4c0.4,0,0.8-0.1,1.1-0.4
			c0.3-0.2,0.5-0.5,0.5-0.9c0-0.4-0.1-0.7-0.5-0.9c-0.3-0.2-0.7-0.4-1.1-0.4c-0.4,0-0.8,0.1-1.1,0.4s-0.5,0.5-0.5,0.9
			C1545.6,5592.2,1545.7,5592.5,1546,5592.7z"/>
	</g>
</g>
</svg>
