<?xml version="1.0" encoding="utf-8"?>
<!-- Generator: Adobe Illustrator 23.0.4, SVG Export Plug-In . SVG Version: 6.00 Build 0)  -->
<svg version="1.1" id="Layer_1" xmlns="http://www.w3.org/2000/svg" xmlns:xlink="http://www.w3.org/1999/xlink" x="0px" y="0px"
	 viewBox="0 0 119 57.2" style="enable-background:new 0 0 119 57.2;" xml:space="preserve">
<style type="text/css">
	.st0{fill:#767A84;}
	.st1{enable-background:new    ;}
</style>
<g id="Group_272" transform="translate(-1605 -5543.824)">
	<g id="Group_150" transform="translate(1622.395 5543.635)">
		<path id="Path_521" class="st0" d="M84,26.6c-0.3-1.4-0.6-2.8-0.9-4.1c-0.5-2.2-0.9-4.4-1.4-6.6c-0.5-2.5-1-5-1.6-7.5
			c-0.5-2.5-1.1-5.1-1.6-7.6c0-0.1,0-0.1-0.2-0.1h-5.5c-0.3,0-0.7,0-1,0.1c-0.9,0.3-1.7,1-2,1.9c-2.5,5.9-4.9,11.7-7.4,17.6
			l-2.7,6.4c0,0.1-0.1,0.2-0.1,0.3h7c0,0,0.1,0,0.1-0.1c0,0,0,0,0,0c0.1-0.4,0.3-0.8,0.4-1.1c0.3-0.8,0.6-1.7,0.9-2.5
			c0-0.1,0.1-0.2,0.2-0.2c0.2,0,0.4,0,0.6,0h7.8c0.2,0,0.2,0,0.3,0.2c0.1,0.7,0.3,1.4,0.4,2.1c0.1,0.5,0.2,1,0.3,1.5
			c0,0.1,0,0.2,0.2,0.1H84C84,26.8,84,26.7,84,26.6z M70.2,17.6c0-0.1,0-0.1,0-0.2c0.2-0.6,0.4-1.2,0.6-1.8c0.2-0.5,0.3-1,0.5-1.5
			c0.8-2,1.5-4.1,2.2-6.1c0-0.1,0-0.1,0.1-0.2c0.7,3.3,1.4,6.5,2,9.8C73.9,17.6,72.1,17.6,70.2,17.6L70.2,17.6z"/>
		<path id="Path_522" class="st0" d="M31.9,0.6c-0.1,0-0.2,0-0.2,0h-6.7c-0.1,0-0.2,0.1-0.2,0.2c0,0,0,0,0,0.1L17.9,18
			c0,0.1-0.1,0.3-0.2,0.4c0,0-0.1-0.1-0.1-0.1l-0.5-2.8c-0.3-1.7-0.6-3.4-1-5.1c-0.3-1.6-0.6-3.2-0.9-4.9c-0.1-0.8-0.3-1.6-0.5-2.4
			c-0.2-1-0.9-1.8-1.8-2.2c-0.5-0.2-1-0.3-1.5-0.3H0.4c0,0-0.1,0-0.1,0s-0.1,0-0.1,0.1c0,0.2-0.1,0.4-0.1,0.6c0,0.1,0,0.1,0.1,0.1
			c0,0,0.1,0,0.1,0c1.2,0.3,2.4,0.6,3.6,1c1,0.3,2,0.8,3,1.3C7.4,4,7.9,4.5,8.1,5.2c0,0.1,0.1,0.2,0.1,0.3c0.2,0.8,0.4,1.6,0.6,2.3
			c1.5,5.9,3,11.8,4.6,17.7c0.1,0.4,0.2,0.8,0.3,1.2c0,0.1,0.1,0.1,0.2,0.1h6.9c0.1,0,0.1,0,0.2-0.1c0.1-0.2,0.1-0.3,0.2-0.5
			c0.2-0.6,0.5-1.2,0.7-1.7c0.1-0.4,0.4-0.8,0.5-1.2c3.2-7.5,6.3-15,9.4-22.5C31.8,0.8,31.9,0.7,31.9,0.6z"/>
		<path id="Path_523" class="st0" d="M58.7,14.4c-0.6-0.8-1.4-1.4-2.2-2c-0.9-0.6-1.8-1.1-2.8-1.6c-0.6-0.3-1.2-0.6-1.8-1
			c-0.3-0.2-0.6-0.4-0.9-0.7c-0.2-0.2-0.4-0.5-0.5-0.8c-0.2-0.5,0-1.1,0.4-1.5c0.4-0.4,0.9-0.7,1.5-0.9c0.7-0.2,1.4-0.3,2-0.3
			c1.6,0,3.1,0.3,4.6,0.8c0.3,0.1,0.7,0.3,1,0.4c0-0.1,0-0.1,0-0.2c0.4-1.7,0.7-3.5,1.1-5.2c0-0.2,0-0.2-0.1-0.2
			c-1.6-0.6-3.2-0.9-4.9-1.1c-1.5-0.1-3.1,0-4.6,0.3c-1.4,0.3-2.8,0.8-4.1,1.5c-1.4,0.8-2.5,1.9-3.2,3.3c-0.7,1.3-1,2.7-0.9,4.2
			c0.1,1.1,0.5,2.1,1.2,3c0.6,0.8,1.4,1.5,2.2,2.1c0.8,0.6,1.7,1.1,2.7,1.5c0.7,0.3,1.4,0.7,2,1.1c0.3,0.2,0.6,0.5,0.9,0.8
			c0.7,0.8,0.7,2-0.1,2.7c-0.3,0.3-0.6,0.5-1,0.7c-0.7,0.3-1.4,0.5-2.1,0.5c-1.5,0.1-2.9-0.1-4.3-0.4c-1-0.3-1.9-0.6-2.8-1.1
			c-0.1-0.1-0.2-0.1-0.3-0.1c0,0,0,0.1,0,0.2c-0.4,1.8-0.8,3.6-1.2,5.4c0,0.2,0,0.2,0.1,0.3c0.6,0.3,1.2,0.5,1.9,0.6
			c1.3,0.3,2.6,0.5,3.9,0.6c1.2,0.1,2.4,0.1,3.6,0c1.3-0.1,2.7-0.4,3.9-0.9c0.9-0.3,1.7-0.7,2.4-1.3c1.2-0.8,2.1-2,2.8-3.3
			c0.4-1,0.7-2,0.7-3.1C60.1,17.1,59.7,15.6,58.7,14.4z"/>
		<path id="Path_524" class="st0" d="M41.6,0.7c-0.1,0-0.1,0-0.2,0H35c-0.2,0-0.2,0-0.2,0.2c-0.2,0.9-0.4,1.8-0.6,2.7
			c-0.5,2.5-1.1,5-1.6,7.5c-0.1,0.4-0.2,0.9-0.3,1.3c-0.1,0.3-0.2,0.6-0.2,0.9c-0.5,2.3-1,4.5-1.5,6.8c-0.5,2.2-1,4.5-1.5,6.7
			c0,0.1,0,0.2,0,0.2h6.6c0.1,0,0.1,0,0.1-0.1c0,0,0,0,0,0c0,0,0-0.1,0-0.1c0.1-0.7,0.3-1.4,0.5-2.1c0.1-0.4,0.2-0.8,0.2-1.3
			c0,0,0-0.1,0-0.1c0.3-1.3,0.6-2.7,0.9-4c0.6-2.8,1.2-5.6,1.8-8.4c0.6-3,1.3-6.1,1.9-9.1C41.5,1.3,41.5,1,41.6,0.7z"/>
	</g>
	<g class="st1">
		<path class="st0" d="M1610,5598h-1.6l-3.4-8.4h1.6l2.6,6.3l2.6-6.3h1.6L1610,5598z"/>
		<path class="st0" d="M1614.5,5590.3c-0.2-0.2-0.3-0.4-0.3-0.6s0.1-0.4,0.3-0.6s0.4-0.3,0.6-0.3s0.4,0.1,0.6,0.3s0.3,0.4,0.3,0.6
			s-0.1,0.4-0.3,0.6s-0.4,0.3-0.6,0.3S1614.6,5590.5,1614.5,5590.3z M1615.7,5598h-1.3v-6.4h1.3V5598z"/>
		<path class="st0" d="M1622.2,5596.1c0,0.6-0.2,1.1-0.7,1.5c-0.4,0.4-1,0.5-1.7,0.5c-0.5,0-0.9-0.1-1.4-0.3
			c-0.5-0.2-0.9-0.4-1.3-0.7l0.6-1c0.7,0.6,1.5,0.8,2.2,0.8c0.3,0,0.5-0.1,0.7-0.2c0.2-0.1,0.3-0.3,0.3-0.5c0-0.3-0.4-0.6-1.3-0.9
			c-0.1,0-0.1,0-0.1,0c-1.3-0.4-2-1-2-1.8c0-0.6,0.2-1.1,0.7-1.4c0.5-0.4,1.1-0.5,1.8-0.5c0.7,0,1.4,0.2,2.1,0.6l-0.5,1
			c-0.5-0.3-1.1-0.5-1.7-0.5c-0.3,0-0.6,0.1-0.8,0.2c-0.2,0.1-0.3,0.3-0.3,0.5c0,0.2,0.1,0.4,0.3,0.5c0.1,0.1,0.3,0.1,0.6,0.2
			c0.3,0.1,0.5,0.1,0.7,0.2c0.2,0.1,0.4,0.1,0.6,0.2s0.4,0.2,0.6,0.3C1622,5595,1622.2,5595.5,1622.2,5596.1z"/>
		<path class="st0" d="M1628.9,5598h-1.2v-0.9c-0.5,0.6-1.2,0.9-2.1,0.9c-0.7,0-1.2-0.2-1.6-0.6s-0.7-0.9-0.7-1.5s0.2-1.1,0.7-1.4
			c0.5-0.3,1.1-0.5,1.9-0.5h1.7v-0.2c0-0.8-0.5-1.3-1.4-1.3c-0.6,0-1.2,0.2-1.8,0.6l-0.6-0.8c0.8-0.6,1.7-0.9,2.6-0.9
			c0.8,0,1.4,0.2,1.8,0.6c0.5,0.4,0.7,1,0.7,1.8V5598z M1627.6,5595.6v-0.5h-1.5c-1,0-1.5,0.3-1.5,0.9c0,0.3,0.1,0.5,0.4,0.7
			c0.2,0.2,0.6,0.2,1,0.2c0.4,0,0.8-0.1,1.1-0.4C1627.4,5596.4,1627.6,5596,1627.6,5595.6z"/>
		<path class="st0" d="M1640.1,5589.6v1.3h-4.5v2.2h4v1.3h-4v2.2h4.6v1.3h-6v-8.4H1640.1z"/>
		<path class="st0" d="M1643.6,5598l-2.6-6.4h1.4l1.9,4.8l1.9-4.8h1.4l-2.6,6.4H1643.6z"/>
		<path class="st0" d="M1654.7,5595.4h-5c0,0.5,0.2,0.8,0.6,1.1c0.4,0.3,0.8,0.4,1.3,0.4c0.8,0,1.4-0.3,1.8-0.8l0.8,0.8
			c-0.7,0.7-1.6,1.1-2.7,1.1c-0.9,0-1.7-0.3-2.3-0.9s-0.9-1.4-0.9-2.4s0.3-1.8,1-2.4s1.4-0.9,2.3-0.9c0.9,0,1.6,0.3,2.2,0.8
			c0.6,0.5,0.9,1.2,0.9,2.2V5595.4z M1649.7,5594.3h3.7c0-0.5-0.2-0.9-0.5-1.2c-0.3-0.3-0.8-0.4-1.2-0.4c-0.5,0-0.9,0.2-1.3,0.5
			C1649.9,5593.4,1649.7,5593.8,1649.7,5594.3z"/>
		<path class="st0" d="M1659.5,5592.9c-0.7,0-1.2,0.2-1.5,0.6c-0.3,0.4-0.5,1-0.5,1.7v2.7h-1.3v-6.4h1.3v1.3c0.2-0.4,0.5-0.7,0.9-1
			c0.4-0.3,0.8-0.4,1.2-0.4L1659.5,5592.9C1659.6,5592.9,1659.6,5592.9,1659.5,5592.9z"/>
		<path class="st0" d="M1661.8,5600.5c-0.6,0-1.1-0.2-1.6-0.6l0.6-1.1c0.3,0.3,0.6,0.4,0.9,0.4c0.3,0,0.5-0.1,0.7-0.3
			s0.3-0.5,0.3-0.7c0-0.1-0.9-2.3-2.6-6.6h1.4l1.9,4.7l1.9-4.7h1.4l-3.1,7.6c-0.2,0.4-0.4,0.7-0.8,1
			C1662.6,5600.4,1662.2,5600.5,1661.8,5600.5z"/>
		<path class="st0" d="M1670.8,5598h-1.5l-2.2-6.4h1.4l1.6,4.8l1.6-4.8h1.4l1.6,4.8l1.6-4.8h1.4l-2.2,6.4h-1.5l-1.5-4.4L1670.8,5598
			z"/>
		<path class="st0" d="M1680.1,5594.5v3.5h-1.3v-8.9h1.3v3.7c0.2-0.4,0.5-0.7,0.9-0.9c0.4-0.2,0.8-0.3,1.3-0.3
			c0.7,0,1.3,0.2,1.7,0.7c0.4,0.4,0.7,1.1,0.7,1.9v3.9h-1.3v-3.5c0-1.2-0.5-1.8-1.5-1.8c-0.5,0-0.9,0.2-1.2,0.5
			C1680.3,5593.5,1680.1,5594,1680.1,5594.5z"/>
		<path class="st0" d="M1692.5,5595.4h-5c0,0.5,0.2,0.8,0.6,1.1c0.4,0.3,0.8,0.4,1.3,0.4c0.8,0,1.4-0.3,1.8-0.8l0.8,0.8
			c-0.7,0.7-1.6,1.1-2.7,1.1c-0.9,0-1.7-0.3-2.3-0.9c-0.6-0.6-0.9-1.4-0.9-2.4s0.3-1.8,1-2.4s1.4-0.9,2.3-0.9c0.9,0,1.6,0.3,2.2,0.8
			c0.6,0.5,0.9,1.2,0.9,2.2V5595.4z M1687.5,5594.3h3.7c0-0.5-0.2-0.9-0.5-1.2c-0.3-0.3-0.8-0.4-1.2-0.4s-0.9,0.2-1.3,0.5
			C1687.7,5593.4,1687.5,5593.8,1687.5,5594.3z"/>
		<path class="st0" d="M1697.3,5592.9c-0.7,0-1.2,0.2-1.5,0.6c-0.3,0.4-0.5,1-0.5,1.7v2.7h-1.3v-6.4h1.3v1.3c0.2-0.4,0.5-0.7,0.9-1
			c0.4-0.3,0.8-0.4,1.2-0.4L1697.3,5592.9C1697.4,5592.9,1697.3,5592.9,1697.3,5592.9z"/>
		<path class="st0" d="M1704.7,5595.4h-5c0,0.5,0.2,0.8,0.6,1.1c0.4,0.3,0.8,0.4,1.3,0.4c0.8,0,1.4-0.3,1.8-0.8l0.8,0.8
			c-0.7,0.7-1.6,1.1-2.7,1.1c-0.9,0-1.7-0.3-2.3-0.9c-0.6-0.6-0.9-1.4-0.9-2.4s0.3-1.8,1-2.4s1.4-0.9,2.3-0.9c0.9,0,1.6,0.3,2.2,0.8
			c0.6,0.5,0.9,1.2,0.9,2.2V5595.4z M1699.7,5594.3h3.7c0-0.5-0.2-0.9-0.5-1.2c-0.3-0.3-0.8-0.4-1.2-0.4s-0.9,0.2-1.3,0.5
			C1699.9,5593.4,1699.7,5593.8,1699.7,5594.3z"/>
		<path class="st0" d="M1710.1,5590.6c0.2,0.1,0.3,0.3,0.3,0.6s-0.1,0.4-0.2,0.6c-0.1,0.1-0.3,0.2-0.5,0.2c-0.2,0-0.4-0.1-0.5-0.2
			c-0.1-0.1-0.2-0.3-0.2-0.5s0.1-0.4,0.2-0.6l0.7-1h0.7L1710.1,5590.6z"/>
		<path class="st0" d="M1711.4,5589.6h3v8.4h-1.3v-7.1h-1.7V5589.6z"/>
		<path class="st0" d="M1719.9,5590.7c-0.7,0-1.3,0.3-1.6,0.8c-0.4,0.5-0.5,1.2-0.5,2c0.2-0.2,0.5-0.4,0.9-0.6
			c0.4-0.2,0.8-0.3,1.2-0.3c0.8,0,1.4,0.3,1.9,0.8c0.5,0.5,0.8,1.2,0.8,2s-0.3,1.5-0.8,2s-1.2,0.8-2.1,0.8c-1.3,0-2.3-0.6-2.8-1.8
			c-0.3-0.7-0.4-1.5-0.4-2.3s0.1-1.6,0.3-2.2c0.2-0.6,0.4-1,0.8-1.4c0.6-0.7,1.4-1,2.3-1s1.7,0.3,2.5,0.9l-0.7,1
			c-0.2-0.2-0.4-0.3-0.7-0.4C1720.4,5590.8,1720.1,5590.7,1719.9,5590.7z M1719.6,5593.8c-0.5,0-0.9,0.1-1.2,0.4
			c-0.3,0.3-0.5,0.6-0.5,1s0.2,0.8,0.5,1.1c0.3,0.3,0.7,0.5,1.2,0.5c0.5,0,0.9-0.1,1.2-0.4c0.3-0.3,0.5-0.6,0.5-1.1
			c0-0.4-0.1-0.8-0.4-1.1C1720.5,5594,1720.1,5593.8,1719.6,5593.8z"/>
	</g>
</g>
</svg>
